<svg width="38" height="45" viewBox="0 0 38 45" fill="none" xmlns="http://www.w3.org/2000/svg">
<g clip-path="url(#clip0_1057_5708)">
<path d="M37.1191 12.6309L24.8691 0.380938C24.7877 0.299708 24.6912 0.235295 24.585 0.191381C24.4788 0.147466 24.3649 0.12491 24.25 0.125H3.25C2.55381 0.125 1.88613 0.401562 1.39384 0.893845C0.901561 1.38613 0.625 2.05381 0.625 2.75V22C0.625 22.2321 0.717187 22.4546 0.881282 22.6187C1.04538 22.7828 1.26794 22.875 1.5 22.875C1.73206 22.875 1.95462 22.7828 2.11872 22.6187C2.28281 22.4546 2.375 22.2321 2.375 22V2.75C2.375 2.51794 2.46719 2.29538 2.63128 2.13128C2.79538 1.96719 3.01794 1.875 3.25 1.875H23.375V13.25C23.375 13.4821 23.4672 13.7046 23.6313 13.8687C23.7954 14.0328 24.0179 14.125 24.25 14.125H35.625V41.25C35.625 41.4821 35.5328 41.7046 35.3687 41.8687C35.2046 42.0328 34.9821 42.125 34.75 42.125H26C25.7679 42.125 25.5454 42.2172 25.3813 42.3813C25.2172 42.5454 25.125 42.7679 25.125 43C25.125 43.2321 25.2172 43.4546 25.3813 43.6187C25.5454 43.7828 25.7679 43.875 26 43.875H34.75C35.4462 43.875 36.1139 43.5984 36.6062 43.1062C37.0984 42.6139 37.375 41.9462 37.375 41.25V13.25C37.3751 13.1351 37.3525 13.0212 37.3086 12.915C37.2647 12.8088 37.2003 12.7123 37.1191 12.6309ZM25.125 3.11094L34.3869 12.375H25.125V3.11094Z" fill="#211500"/>
<path d="M2.20898 35.5003L7.41732 40.7087L17.834 30.292" stroke="#CCD308" stroke-width="2.08333" stroke-linecap="round" stroke-linejoin="round"/>
</g>
<defs>
<clipPath id="clip0_1057_5708">
<rect width="38" height="45" fill="white"/>
</clipPath>
</defs>
</svg>
