<svg width="38" height="45" viewBox="0 0 38 45" fill="none" xmlns="http://www.w3.org/2000/svg">
<g clip-path="url(#clip0_1060_5780)">
<path d="M37.1191 12.6309L24.8691 0.380938C24.7877 0.299708 24.6912 0.235295 24.585 0.191381C24.4788 0.147466 24.3649 0.12491 24.25 0.125H3.25C2.55381 0.125 1.88613 0.401562 1.39384 0.893845C0.901561 1.38613 0.625 2.05381 0.625 2.75V22C0.625 22.2321 0.717187 22.4546 0.881282 22.6187C1.04538 22.7828 1.26794 22.875 1.5 22.875C1.73206 22.875 1.95462 22.7828 2.11872 22.6187C2.28281 22.4546 2.375 22.2321 2.375 22V2.75C2.375 2.51794 2.46719 2.29538 2.63128 2.13128C2.79538 1.96719 3.01794 1.875 3.25 1.875H23.375V13.25C23.375 13.4821 23.4672 13.7046 23.6313 13.8687C23.7954 14.0328 24.0179 14.125 24.25 14.125H35.625V41.25C35.625 41.4821 35.5328 41.7046 35.3687 41.8687C35.2046 42.0328 34.9821 42.125 34.75 42.125H26C25.7679 42.125 25.5454 42.2172 25.3813 42.3813C25.2172 42.5454 25.125 42.7679 25.125 43C25.125 43.2321 25.2172 43.4546 25.3813 43.6187C25.5454 43.7828 25.7679 43.875 26 43.875H34.75C35.4462 43.875 36.1139 43.5984 36.6062 43.1062C37.0984 42.6139 37.375 41.9462 37.375 41.25V13.25C37.3751 13.1351 37.3525 13.0212 37.3086 12.915C37.2647 12.8088 37.2003 12.7123 37.1191 12.6309ZM25.125 3.11094L34.3869 12.375H25.125V3.11094Z" fill="#211500"/>
<path d="M16 39H4C2.89543 39 2 39.8954 2 41C2 42.1046 2.89543 43 4 43H16C17.1046 43 18 42.1046 18 41C18 39.8954 17.1046 39 16 39Z" stroke="#CCD308" stroke-width="1.7"/>
<path d="M2.91072 34.364L6.00072 39H14.0007L17.0907 34.364C17.5267 33.711 17.7447 33.384 17.7087 33.029C17.6737 32.673 17.3967 32.396 16.8417 31.841L10.0007 25L3.16072 31.84C2.60472 32.396 2.32772 32.673 2.29272 33.029C2.25772 33.385 2.47572 33.711 2.91072 34.364Z" stroke="#CCD308" stroke-width="1.7"/>
<path d="M10 36.5C11.3807 36.5 12.5 35.3807 12.5 34C12.5 32.6193 11.3807 31.5 10 31.5C8.61929 31.5 7.5 32.6193 7.5 34C7.5 35.3807 8.61929 36.5 10 36.5Z" stroke="#CCD308" stroke-width="1.7"/>
<path d="M10 25V32" stroke="#CCD308" stroke-width="1.7"/>
</g>
<defs>
<clipPath id="clip0_1060_5780">
<rect width="38" height="45" fill="white"/>
</clipPath>
</defs>
</svg>
