<svg width="38" height="45" viewBox="0 0 38 45" fill="none" xmlns="http://www.w3.org/2000/svg">
<g clip-path="url(#clip0_1059_5747)">
<path d="M37.1191 12.6309L24.8691 0.380938C24.7877 0.299708 24.6912 0.235295 24.585 0.191381C24.4788 0.147466 24.3649 0.12491 24.25 0.125H3.25C2.55381 0.125 1.88613 0.401562 1.39384 0.893845C0.901561 1.38613 0.625 2.05381 0.625 2.75V22C0.625 22.2321 0.717187 22.4546 0.881282 22.6187C1.04538 22.7828 1.26794 22.875 1.5 22.875C1.73206 22.875 1.95462 22.7828 2.11872 22.6187C2.28281 22.4546 2.375 22.2321 2.375 22V2.75C2.375 2.51794 2.46719 2.29538 2.63128 2.13128C2.79538 1.96719 3.01794 1.875 3.25 1.875H23.375V13.25C23.375 13.4821 23.4672 13.7046 23.6313 13.8687C23.7954 14.0328 24.0179 14.125 24.25 14.125H35.625V41.25C35.625 41.4821 35.5328 41.7046 35.3687 41.8687C35.2046 42.0328 34.9821 42.125 34.75 42.125H26C25.7679 42.125 25.5454 42.2172 25.3813 42.3813C25.2172 42.5454 25.125 42.7679 25.125 43C25.125 43.2321 25.2172 43.4546 25.3813 43.6187C25.5454 43.7828 25.7679 43.875 26 43.875H34.75C35.4462 43.875 36.1139 43.5984 36.6062 43.1062C37.0984 42.6139 37.375 41.9462 37.375 41.25V13.25C37.3751 13.1351 37.3525 13.0212 37.3086 12.915C37.2647 12.8088 37.2003 12.7123 37.1191 12.6309ZM25.125 3.11094L34.3869 12.375H25.125V3.11094Z" fill="#211500"/>
<path d="M13.8203 26.8145C13.9386 26.7838 14.0624 26.7839 14.1807 26.8145H14.1816L19.54 28.2314L22.1035 26.9512C22.2821 26.862 22.4766 26.809 22.6758 26.7949C22.8751 26.7808 23.0761 26.8058 23.2656 26.8691C23.4551 26.9324 23.6304 27.0331 23.7812 27.1641C23.9319 27.295 24.0553 27.4542 24.1445 27.6328L26.7354 32.8174C26.9158 33.1784 26.946 33.5967 26.8184 33.9795C26.6907 34.3623 26.4156 34.6789 26.0547 34.8594L23.3574 36.208L17.752 41.8135C17.6523 41.9133 17.5259 41.9805 17.3896 42.0078L17.251 42.0215C17.1918 42.0218 17.1326 42.0154 17.0752 42.001L10.5752 40.376L10.5742 40.375C10.4892 40.3529 10.4091 40.315 10.3379 40.2637L4.69629 36.2344L1.94629 34.8594C1.58546 34.6789 1.31124 34.3622 1.18359 33.9795C1.05598 33.5967 1.08521 33.1784 1.26562 32.8174L3.85645 27.6328C3.94573 27.4539 4.06974 27.2942 4.2207 27.1631C4.37158 27.0321 4.54684 26.9324 4.73633 26.8691C4.92602 26.8058 5.1267 26.7808 5.32617 26.7949C5.52557 26.8091 5.72063 26.8617 5.89941 26.9512L8.45996 28.2314L13.8193 26.8145H13.8203ZM8.87402 29.5898L5.96875 35.3994L11.0518 39.0312L17.0322 40.5264L20.249 37.3086L17.2812 34.9287C15.3249 36.5701 12.8177 36.8061 10.7461 35.4824C10.5539 35.3602 10.3919 35.1962 10.2715 35.0029C10.1509 34.8094 10.0747 34.5909 10.0498 34.3643C10.0249 34.1377 10.0514 33.9084 10.127 33.6934C10.2026 33.4783 10.326 33.2833 10.4873 33.1221L10.4883 33.1211L15.1289 28.6162C15.1526 28.5931 15.1776 28.5712 15.2041 28.5518L14 28.2344L8.87402 29.5898ZM11.4824 34.1299L11.4609 34.165L11.457 34.2061V34.208C11.4586 34.2238 11.4643 34.2395 11.4727 34.2529C11.481 34.2661 11.4926 34.2769 11.5059 34.2852L11.5078 34.2861C12.1668 34.7076 13.0124 34.9768 13.9229 34.9082C14.8317 34.8396 15.8127 34.4345 16.7441 33.4961C16.8675 33.3722 17.0325 33.2979 17.207 33.2881C17.3814 33.2783 17.5531 33.3333 17.6895 33.4424H17.6904L21.2559 36.2988L22.0742 35.4844L19.249 29.834H15.9131L11.4824 34.1299ZM5.21875 28.21C5.19957 28.2098 5.18043 28.2156 5.16406 28.2256C5.14789 28.2355 5.13458 28.2497 5.12598 28.2666L2.53418 33.4521C2.52808 33.4644 2.52439 33.4778 2.52344 33.4912L2.52832 33.5312L2.5293 33.5342C2.53324 33.5474 2.54005 33.5597 2.54883 33.5703C2.55744 33.5807 2.56815 33.5894 2.58008 33.5957L4.74512 34.6777L7.43066 29.3037L5.26562 28.2207C5.25145 28.2136 5.23555 28.21 5.21973 28.21H5.21875ZM22.7363 28.2207L20.5693 29.3037L23.2539 34.6768L25.4209 33.5908C25.433 33.5847 25.4443 33.5757 25.4531 33.5654C25.4617 33.5554 25.4685 33.5438 25.4727 33.5312C25.4812 33.5054 25.479 33.4765 25.4668 33.4521L22.875 28.2666C22.869 28.2547 22.8607 28.2441 22.8506 28.2354C22.8404 28.2265 22.8282 28.2201 22.8154 28.2158V28.2148C22.8027 28.2106 22.7888 28.209 22.7754 28.21C22.7619 28.2109 22.7484 28.2147 22.7363 28.2207Z" fill="#CCD308" stroke="#CCD308" stroke-width="0.2"/>
</g>
<defs>
<clipPath id="clip0_1059_5747">
<rect width="38" height="45" fill="white"/>
</clipPath>
</defs>
</svg>
