<svg width="38" height="45" viewBox="0 0 38 45" fill="none" xmlns="http://www.w3.org/2000/svg">
<g clip-path="url(#clip0_1059_5753)">
<path d="M18.25 33.375H15.625V31.625C15.625 30.2326 15.0719 28.8973 14.0873 27.9127C13.1027 26.9281 11.7674 26.375 10.375 26.375C8.98261 26.375 7.64725 26.9281 6.66269 27.9127C5.67812 28.8973 5.125 30.2326 5.125 31.625V33.375H2.5C2.26794 33.375 2.04538 33.4672 1.88128 33.6313C1.71719 33.7954 1.625 34.0179 1.625 34.25V43C1.625 43.2321 1.71719 43.4546 1.88128 43.6187C2.04538 43.7828 2.26794 43.875 2.5 43.875H18.25C18.4821 43.875 18.7046 43.7828 18.8687 43.6187C19.0328 43.4546 19.125 43.2321 19.125 43V34.25C19.125 34.0179 19.0328 33.7954 18.8687 33.6313C18.7046 33.4672 18.4821 33.375 18.25 33.375ZM6.875 31.625C6.875 30.6967 7.24375 29.8065 7.90013 29.1501C8.5565 28.4937 9.44674 28.125 10.375 28.125C11.3033 28.125 12.1935 28.4937 12.8499 29.1501C13.5063 29.8065 13.875 30.6967 13.875 31.625V33.375H6.875V31.625ZM17.375 42.125H3.375V35.125H17.375V42.125ZM37.1191 12.6309L24.8691 0.380938C24.7877 0.299708 24.6912 0.235295 24.585 0.191381C24.4788 0.147466 24.3649 0.12491 24.25 0.125H3.25C2.55381 0.125 1.88613 0.401562 1.39384 0.893845C0.901561 1.38613 0.625 2.05381 0.625 2.75V22C0.625 22.2321 0.717187 22.4546 0.881282 22.6187C1.04538 22.7828 1.26794 22.875 1.5 22.875C1.73206 22.875 1.95462 22.7828 2.11872 22.6187C2.28281 22.4546 2.375 22.2321 2.375 22V2.75C2.375 2.51794 2.46719 2.29538 2.63128 2.13128C2.79538 1.96719 3.01794 1.875 3.25 1.875H23.375V13.25C23.375 13.4821 23.4672 13.7046 23.6313 13.8687C23.7954 14.0328 24.0179 14.125 24.25 14.125H35.625V41.25C35.625 41.4821 35.5328 41.7046 35.3687 41.8687C35.2046 42.0328 34.9821 42.125 34.75 42.125H26C25.7679 42.125 25.5454 42.2172 25.3813 42.3813C25.2172 42.5454 25.125 42.7679 25.125 43C25.125 43.2321 25.2172 43.4546 25.3813 43.6187C25.5454 43.7828 25.7679 43.875 26 43.875H34.75C35.4462 43.875 36.1139 43.5984 36.6062 43.1062C37.0984 42.6139 37.375 41.9462 37.375 41.25V13.25C37.3751 13.1351 37.3525 13.0212 37.3086 12.915C37.2647 12.8088 37.2003 12.7123 37.1191 12.6309ZM25.125 3.11094L34.3869 12.375H25.125V3.11094Z" fill="#211500"/>
<path fill-rule="evenodd" clip-rule="evenodd" d="M15.625 33.375H18.25C18.4821 33.375 18.7046 33.4672 18.8687 33.6313C19.0328 33.7954 19.125 34.0179 19.125 34.25V43C19.125 43.2321 19.0328 43.4546 18.8687 43.6187C18.7046 43.7828 18.4821 43.875 18.25 43.875H2.5C2.26794 43.875 2.04538 43.7828 1.88128 43.6187C1.71719 43.4546 1.625 43.2321 1.625 43V34.25C1.625 34.0179 1.71719 33.7954 1.88128 33.6313C2.04538 33.4672 2.26794 33.375 2.5 33.375H5.125V31.625C5.125 30.2326 5.67812 28.8973 6.66269 27.9127C7.64725 26.9281 8.98261 26.375 10.375 26.375C11.7674 26.375 13.1027 26.9281 14.0873 27.9127C15.0719 28.8973 15.625 30.2326 15.625 31.625V33.375ZM3.375 42.125V35.125H17.375V42.125H3.375ZM7.90013 29.1501C7.24375 29.8065 6.875 30.6967 6.875 31.625V33.375H13.875V31.625C13.875 30.6967 13.5063 29.8065 12.8499 29.1501C12.1935 28.4938 11.3033 28.125 10.375 28.125C9.44674 28.125 8.5565 28.4938 7.90013 29.1501Z" fill="#CCD308"/>
</g>
<defs>
<clipPath id="clip0_1059_5753">
<rect width="38" height="45" fill="white"/>
</clipPath>
</defs>
</svg>
