<svg width="38" height="45" viewBox="0 0 38 45" fill="none" xmlns="http://www.w3.org/2000/svg">
<g clip-path="url(#clip0_1057_5738)">
<path d="M36.4941 12.6309L24.2441 0.380938C24.1627 0.299708 24.0662 0.235295 23.96 0.191381C23.8538 0.147466 23.7399 0.12491 23.625 0.125H2.625C1.92881 0.125 1.26113 0.401562 0.768844 0.893845C0.276561 1.38613 0 2.05381 0 2.75V22C0 22.2321 0.0921874 22.4546 0.256282 22.6187C0.420376 22.7828 0.642936 22.875 0.875 22.875C1.10706 22.875 1.32962 22.7828 1.49372 22.6187C1.65781 22.4546 1.75 22.2321 1.75 22V2.75C1.75 2.51794 1.84219 2.29538 2.00628 2.13128C2.17038 1.96719 2.39294 1.875 2.625 1.875H22.75V13.25C22.75 13.4821 22.8422 13.7046 23.0063 13.8687C23.1704 14.0328 23.3929 14.125 23.625 14.125H35V41.25C35 41.4821 34.9078 41.7046 34.7437 41.8687C34.5796 42.0328 34.3571 42.125 34.125 42.125H25.375C25.1429 42.125 24.9204 42.2172 24.7563 42.3813C24.5922 42.5454 24.5 42.7679 24.5 43C24.5 43.2321 24.5922 43.4546 24.7563 43.6187C24.9204 43.7828 25.1429 43.875 25.375 43.875H34.125C34.8212 43.875 35.4889 43.5984 35.9812 43.1062C36.4734 42.6139 36.75 41.9462 36.75 41.25V13.25C36.7501 13.1351 36.7275 13.0212 36.6836 12.915C36.6397 12.8088 36.5753 12.7123 36.4941 12.6309ZM24.5 3.11094L33.7619 12.375H24.5V3.11094Z" fill="#211500"/>
<path d="M4.95824 28.667L1.75 31.417L4.95824 34.6253" stroke="#CCD308" stroke-width="1.83333" stroke-linecap="round" stroke-linejoin="round"/>
<path d="M1.75 31.417H12.2888C15.4435 31.417 18.1226 33.993 18.2456 37.1462C18.3755 40.4781 15.6224 43.3337 12.2888 43.3337H4.49927" stroke="#CCD308" stroke-width="1.83333" stroke-linecap="round" stroke-linejoin="round"/>
</g>
<defs>
<clipPath id="clip0_1057_5738">
<rect width="38" height="45" fill="white"/>
</clipPath>
</defs>
</svg>
