<svg width="32" height="32" viewBox="0 0 32 32" fill="none" xmlns="http://www.w3.org/2000/svg">
<path d="M13.2727 7.33333H18.7273C18.7273 6.61504 18.4399 5.92616 17.9285 5.41825C17.417 4.91034 16.7233 4.625 16 4.625C15.2767 4.625 14.583 4.91034 14.0715 5.41825C13.5601 5.92616 13.2727 6.61504 13.2727 7.33333ZM11.6364 7.33333C11.6364 6.18406 12.0961 5.08186 12.9144 4.2692C13.7328 3.45655 14.8427 3 16 3C17.1573 3 18.2672 3.45655 19.0856 4.2692C19.9039 5.08186 20.3636 6.18406 20.3636 7.33333H27.1818C27.3988 7.33333 28 7.33333 28 7.33333C28 7.33333 28 7.93035 28 8.14583C28 8.36132 28 8.95833 28 8.95833C28 8.95833 27.3988 8.95833 27.1818 8.95833H25.7527L24.4251 24.7783C24.3285 25.9291 23.7999 27.0019 22.9442 27.7839C22.0884 28.5658 20.968 28.9999 19.8051 29H12.1949C11.032 28.9999 9.91157 28.5658 9.05582 27.7839C8.20008 27.0019 7.6715 25.9291 7.57491 24.7783L6.24727 8.95833H4.81818C4.60119 8.95833 4 8.95833 4 8.95833C4 8.95833 4 8.36132 4 8.14583C4 7.93035 4 7.33333 4 7.33333C4 7.33333 4.60119 7.33333 4.81818 7.33333H11.6364ZM9.20582 24.6428C9.26821 25.3875 9.61013 26.0817 10.1638 26.5878C10.7175 27.0939 11.4424 27.3749 12.1949 27.375H19.8051C20.5576 27.3749 21.2825 27.0939 21.8362 26.5878C22.3899 26.0817 22.7318 25.3875 22.7942 24.6428L24.112 8.95833H7.88909L9.20582 24.6428ZM13.5455 12.75C13.7625 12.75 13.9706 12.8356 14.124 12.988C14.2774 13.1403 14.3636 13.347 14.3636 13.5625V22.7708C14.3636 22.9863 14.2774 23.193 14.124 23.3454C13.9706 23.4977 13.7625 23.5833 13.5455 23.5833C13.3285 23.5833 13.1204 23.4977 12.9669 23.3454C12.8135 23.193 12.7273 22.9863 12.7273 22.7708V13.5625C12.7273 13.347 12.8135 13.1403 12.9669 12.988C13.1204 12.8356 13.3285 12.75 13.5455 12.75ZM19.2727 13.5625C19.2727 13.347 19.1865 13.1403 19.0331 12.988C18.8796 12.8356 18.6715 12.75 18.4545 12.75C18.2376 12.75 18.0294 12.8356 17.876 12.988C17.7226 13.1403 17.6364 13.347 17.6364 13.5625V22.7708C17.6364 22.9863 17.7226 23.193 17.876 23.3454C18.0294 23.4977 18.2376 23.5833 18.4545 23.5833C18.6715 23.5833 18.8796 23.4977 19.0331 23.3454C19.1865 23.193 19.2727 22.9863 19.2727 22.7708V13.5625Z" fill="#E20B0B" stroke="#E20B0B" stroke-width="0.3"/>
</svg>
