<svg width="21" height="21" viewBox="0 0 21 21" fill="none" xmlns="http://www.w3.org/2000/svg">
<path d="M16.625 2.625H15.75V0.875H14V2.625H7V0.875H5.25V2.625H4.375C3.40375 2.625 2.63375 3.4125 2.63375 4.375L2.625 16.625C2.625 17.0891 2.80937 17.5342 3.13756 17.8624C3.46575 18.1906 3.91087 18.375 4.375 18.375H16.625C17.5875 18.375 18.375 17.5875 18.375 16.625V4.375C18.375 3.4125 17.5875 2.625 16.625 2.625ZM16.625 16.625H4.375V7H16.625V16.625ZM6.5 8.5H9.375V11.25H6.5V8.5Z" fill="#211500"/>
<path d="M11.5 8.5H14.375V11.25H11.5V8.5Z" fill="#211500"/>
<path d="M11.5 12.5H14.375V15.25H11.5V12.5Z" fill="#211500"/>
<path d="M6.5 12.5H9.375V15.25H6.5V12.5Z" fill="#211500"/>
</svg>
