<svg width="60" height="60" viewBox="0 0 60 60" fill="none" xmlns="http://www.w3.org/2000/svg">
<path d="M35.3066 0.0751953L36.8389 6.50781L36.8477 6.54785L36.8877 6.56055C37.7411 6.85222 38.5772 7.19962 39.3887 7.59863L39.4258 7.61719L39.4609 7.5957L45.0938 4.12891L52.6016 11.6367L49.1357 17.2695L49.1143 17.3047L49.1318 17.3418C49.5309 18.1535 49.8782 18.9902 50.1699 19.8438L50.1836 19.8828L50.2236 19.8926L56.6562 21.4229V32.041L50.2236 33.5732L50.1836 33.583L50.1699 33.6221C49.8783 34.4755 49.5309 35.3115 49.1318 36.123L49.1143 36.1611L49.1357 36.1963L52.5771 41.7871L47.6875 47.0293L47.6572 47.0615L47.6709 47.1035C48.1893 48.716 48.458 50.4066 48.458 52.1221V59.9248H11.7764V52.1221C11.7764 50.3457 12.063 48.5955 12.6182 46.9316L12.6328 46.8867L12.5986 46.8545L7.37793 41.8535L10.8613 36.1953L10.8828 36.1602L10.8643 36.123C10.4653 35.3115 10.1178 34.4755 9.82617 33.6221L9.81348 33.582L9.77344 33.5732L3.34082 32.041V21.4229L9.77246 19.8926L9.81348 19.8828L9.82617 19.8438C10.1179 18.9901 10.4651 18.1535 10.8643 17.3418L10.8828 17.3047L10.8613 17.2695L7.39453 11.6357L14.9023 4.12793L20.5352 7.5957L20.5703 7.61719L20.6074 7.59863C21.419 7.19952 22.2558 6.85226 23.1094 6.56055L23.1484 6.54785L23.1582 6.50781L24.6895 0.0751953H35.3066ZM28.1797 39.1328C23.7287 39.1328 19.6385 41.3711 17.2393 45.1201C15.8989 47.2144 15.1904 49.6357 15.1904 52.1221V56.5107H45.0439V52.1221C45.0439 49.6358 44.3354 47.2143 42.9951 45.1201C40.5958 41.3712 36.5056 39.1328 32.0547 39.1328H28.1797ZM30.1172 18.9346C25.5309 18.9346 21.7998 22.6666 21.7998 27.2529C21.8001 31.8391 25.531 35.5703 30.1172 35.5703C34.7033 35.5703 38.4343 31.839 38.4346 27.2529C38.4346 22.6666 34.7035 18.9346 30.1172 18.9346ZM53.2412 24.1211L53.1836 24.1064L47.4727 22.7471L45.1709 17.1963L48.25 12.1943L48.2803 12.1445L48.2393 12.1025L44.5869 8.4502L39.5342 11.5596L33.9824 9.25684L32.624 3.54688L32.6104 3.48926H27.3867L27.373 3.54688L26.0127 9.25684L20.4609 11.5596L15.46 8.48145L15.4092 8.4502L15.3682 8.49219L11.7158 12.1445L11.7471 12.1943L14.8242 17.1963L12.5225 22.7471L6.8125 24.1064L6.75488 24.1211V29.3447L6.8125 29.3584L12.5225 30.7168L14.8242 36.2676L11.7637 41.2441L11.7314 41.2959L11.7754 41.3379L14.0889 43.5527L14.1553 43.6172L14.2041 43.5381C14.2583 43.45 14.3089 43.3644 14.3633 43.2793C16.3982 40.0998 19.3969 37.7828 22.8486 36.6025L22.9785 36.5576L22.8701 36.4727C20.1405 34.3226 18.3849 30.9888 18.3848 27.2529C18.3848 20.7841 23.6483 15.5205 30.1172 15.5205C36.586 15.5206 41.8486 20.7841 41.8486 27.2529C41.8485 30.989 40.0931 34.3226 37.3633 36.4727L37.2549 36.5576L37.3857 36.6025C40.8375 37.783 43.8362 40.0997 45.8711 43.2793C45.941 43.3884 46.0072 43.5001 46.0752 43.6123L46.127 43.6963L46.1943 43.624L48.2666 41.4033L48.3057 41.3613L48.2754 41.3125L45.1709 36.2676L47.4727 30.7168L53.1836 29.3584L53.2412 29.3447V24.1211Z" fill="#211500" stroke="white" stroke-width="0.15"/>
</svg>
