<svg width="60" height="60" viewBox="0 0 60 60" fill="none" xmlns="http://www.w3.org/2000/svg">
<path d="M5.625 3.09961H54.375C55.8338 3.09961 57.2373 3.79534 58.2754 5.04102C59.314 6.28731 59.9004 7.98101 59.9004 9.75V50.25C59.9004 52.019 59.314 53.7127 58.2754 54.959C57.2373 56.2047 55.8338 56.9004 54.375 56.9004H5.625C4.16623 56.9004 2.76274 56.2047 1.72461 54.959C0.686027 53.7127 0.0996094 52.019 0.0996094 50.25V9.75C0.0996094 7.98101 0.686027 6.28731 1.72461 5.04102C2.76274 3.79534 4.16623 3.09961 5.625 3.09961ZM5.625 7.40039C5.09482 7.40039 4.59102 7.65286 4.22266 8.09473C3.85472 8.53625 3.65039 9.13204 3.65039 9.75V50.25C3.65039 50.868 3.85472 51.4637 4.22266 51.9053C4.59102 52.3471 5.09482 52.5996 5.625 52.5996H54.375C54.9052 52.5996 55.409 52.3471 55.7773 51.9053C56.1453 51.4637 56.3496 50.868 56.3496 50.25V9.75C56.3496 9.13204 56.1453 8.53625 55.7773 8.09473C55.409 7.65286 54.9052 7.40039 54.375 7.40039H5.625Z" fill="black" stroke="white" stroke-width="0.2"/>
<path d="M37.4004 39.0996V42.9004H11.3496V39.0996H37.4004ZM48.6504 31.0996V34.9004H11.3496V31.0996H48.6504ZM37.4004 24.0996V27.9004H11.3496V24.0996H37.4004ZM48.6504 16.0996V19.9004H11.3506V19.1992C11.3506 18.7655 11.3496 18.2652 11.3496 18V16.0996H48.6504Z" fill="black" stroke="white" stroke-width="0.2"/>
</svg>
