<svg width="60" height="60" viewBox="0 0 60 60" fill="none" xmlns="http://www.w3.org/2000/svg">
<path d="M37.4521 1.09961L52.9004 16.5889V58.9004H6.09961V1.09961H37.4521ZM9.51562 55.4746H49.4844V19.0254H35.0234V4.52539H9.51562V55.4746ZM45.6689 40.9746V51.6504H35.0234V40.9746H45.6689ZM38.4385 48.2246H42.2539V44.4004H38.4385V48.2246ZM31.208 44.5996V48.0254H13.3311V44.5996H31.208ZM45.6689 26.4746V37.1504H35.0234V26.4746H45.6689ZM38.4385 33.7246H42.2539V29.9004H38.4385V33.7246ZM31.208 30.0996V33.5254H13.3311V30.0996H31.208ZM31.208 15.5996V19.0254H13.3311V15.5996H31.208ZM38.4385 15.5996H47.0557L46.8848 15.4297L38.6094 7.13184L38.4385 6.95996V15.5996Z" fill="#211500" stroke="white" stroke-width="0.2"/>
</svg>
