<svg width="60" height="60" viewBox="0 0 60 60" fill="none" xmlns="http://www.w3.org/2000/svg">
<g clip-path="url(#clip0_1251_5663)">
<path d="M43.5649 15H39.0651V9.00009C39.0651 4.02924 35.0354 0 30.065 0C25.0946 0 21.0649 4.02924 21.0649 9.00009V15H16.5651C15.7365 15 15.0586 15 15.0586 15L15.065 34.5003C15.065 35.3284 15.065 35.9999 15.065 35.9999H45.065C45.065 35.9999 45.065 35.3284 45.065 34.5003L45 15C45 15 44.3935 15 43.5649 15ZM24.0651 9.00009C24.0651 5.68634 26.7513 2.99973 30.065 2.99973C33.3788 2.99973 36.0649 5.68634 36.0649 9.00009V15H24.0651V9.00009ZM42.0648 33.0002H18.0652V18.0002H42.0653V33.0002H42.0648Z" fill="#211500"/>
<path d="M11.6257 42.4394C11.0402 41.8539 10.0913 41.8535 9.50534 42.4385C9.50534 42.4389 9.50489 42.4394 9.50443 42.4394L7.56488 44.3789L5.6258 42.4394C5.02979 41.864 4.07993 41.8805 3.50452 42.4765C2.9433 43.0578 2.9433 43.9793 3.50452 44.5607L5.44407 46.4998L3.50452 48.4393C2.90897 49.0147 2.89249 49.9646 3.4679 50.5606C4.04331 51.1561 4.99271 51.1726 5.58872 50.5972C5.60154 50.5853 5.61344 50.5729 5.6258 50.5606L7.56488 48.621L9.50443 50.5606C10.1004 51.136 11.0498 51.1195 11.6257 50.5235C12.1869 49.9421 12.1869 49.0207 11.6257 48.4393L9.68616 46.5002L11.6252 44.5607C12.2112 43.9757 12.2116 43.0262 11.6262 42.4408C11.6262 42.4403 11.6257 42.4399 11.6257 42.4394Z" fill="#211500"/>
<path d="M10.5664 57H4.5665C3.73795 57 3.06641 57.6715 3.06641 58.5001C3.06641 59.3286 3.73795 60.0002 4.5665 60.0002H10.5664C11.395 60.0002 12.0665 59.3286 12.0665 58.5001C12.0665 57.6715 11.3945 57 10.5664 57Z" fill="#211500"/>
<path d="M26.6256 42.4394C26.0406 41.8539 25.0916 41.8535 24.5057 42.4385C24.5052 42.4389 24.5052 42.4394 24.5048 42.4394L22.5652 44.3789L20.6257 42.4394C20.0301 41.864 19.0803 41.8805 18.5049 42.4765C17.9432 43.0578 17.9432 43.9793 18.5049 44.5607L20.4444 46.4998L18.5049 48.4393C17.9089 49.0147 17.8924 49.9646 18.4682 50.5606C19.0437 51.1561 19.9931 51.1726 20.5891 50.5972C20.6014 50.5853 20.6138 50.5729 20.6257 50.5606L22.5652 48.621L24.5048 50.5606C25.1008 51.136 26.0502 51.1195 26.6256 50.5235C27.1873 49.9421 27.1873 49.0207 26.6256 48.4393L24.6865 46.4998L26.6256 44.5607C27.2115 43.9752 27.212 43.0262 26.6265 42.4403C26.6265 42.4403 26.626 42.4399 26.6256 42.4394Z" fill="#211500"/>
<path d="M25.5669 57H19.5665C18.7384 57 18.0664 57.6715 18.0664 58.5001C18.0664 59.3286 18.7384 60.0002 19.5665 60.0002H25.5669C26.395 60.0002 27.067 59.3286 27.067 58.5001C27.067 57.6715 26.395 57 25.5669 57Z" fill="#211500"/>
<path d="M41.6256 42.4394C41.0406 41.8539 40.0916 41.8535 39.5057 42.4385C39.5052 42.4389 39.5052 42.4394 39.5048 42.4394L37.5652 44.3789L35.6257 42.4394C35.0301 41.864 34.0803 41.8805 33.5049 42.4765C32.9436 43.0578 32.9436 43.9793 33.5049 44.5607L35.4444 46.4998L33.5049 48.4393C32.9089 49.0147 32.8924 49.9646 33.4682 50.5606C34.0437 51.1561 34.9931 51.1726 35.5891 50.5972C35.6014 50.5853 35.6138 50.5729 35.6257 50.5606L37.5652 48.621L39.5048 50.5606C40.1008 51.136 41.0502 51.1195 41.6256 50.5235C42.1873 49.9421 42.1873 49.0207 41.6256 48.4393L39.6865 46.4998L41.6256 44.5607C42.2115 43.9752 42.212 43.0262 41.6265 42.4403C41.6265 42.4403 41.626 42.4399 41.6256 42.4394Z" fill="#211500"/>
<path d="M40.5664 57H34.566C33.7379 57 33.0664 57.6715 33.0664 58.5001C33.0664 59.3286 33.7379 60.0002 34.566 60.0002H40.5664C41.395 60.0002 42.0665 59.3286 42.0665 58.5001C42.0665 57.6715 41.3945 57 40.5664 57Z" fill="#211500"/>
<path d="M54.6866 46.5003L56.6257 44.5607C57.2015 43.9647 57.1846 43.0153 56.589 42.4399C56.0077 41.8782 55.0857 41.8782 54.5044 42.4399L52.5653 44.379L50.6257 42.4399C50.0297 41.8641 49.0803 41.8805 48.5049 42.4765C47.9432 43.0579 47.9432 43.9798 48.5049 44.5607L50.444 46.5003L48.5049 48.4398C47.9089 49.0152 47.8924 49.9651 48.4678 50.5606C49.0437 51.1567 49.9931 51.1731 50.5887 50.5977C50.6015 50.5854 50.6134 50.5735 50.6257 50.5606L52.5653 48.6216L54.5044 50.5606C55.1004 51.1365 56.0502 51.12 56.6257 50.524C57.1869 49.9427 57.1869 49.0207 56.6257 48.4398L54.6866 46.5003Z" fill="#211500"/>
<path d="M55.5664 57H49.5665C48.7379 57 48.0664 57.6715 48.0664 58.5001C48.0664 59.3286 48.7379 60.0002 49.5665 60.0002H55.5664C56.395 60.0002 57.0665 59.3286 57.0665 58.5001C57.0665 57.6715 56.395 57 55.5664 57Z" fill="#211500"/>
</g>
<defs>
<clipPath id="clip0_1251_5663">
<rect width="60" height="60" fill="white"/>
</clipPath>
</defs>
</svg>
