<svg width="60" height="60" viewBox="0 0 60 60" fill="none" xmlns="http://www.w3.org/2000/svg">
<mask id="path-1-inside-1_1253_5680" fill="white">
<path d="M2.65871 29.1265C3.00811 29.3886 3.4473 29.5011 3.87967 29.4393C4.31203 29.3776 4.70215 29.1466 4.9642 28.7972C6.34473 26.9565 8.13487 25.4625 10.1928 24.4335C12.2508 23.4045 14.5201 22.8688 16.821 22.8688C19.1219 22.8688 21.3912 23.4045 23.4491 24.4335C25.5071 25.4625 27.2972 26.9565 28.6778 28.7972C28.9402 29.1461 29.3306 29.3766 29.7629 29.4378C30.1952 29.4991 30.6342 29.3861 30.9833 29.1238C31.108 29.032 31.2181 28.9219 31.3099 28.7972C32.6904 26.9565 34.4805 25.4625 36.5385 24.4335C38.5965 23.4045 40.8658 22.8688 43.1667 22.8688C45.4675 22.8688 47.7368 23.4045 49.7948 24.4335C51.8528 25.4625 53.6429 26.9565 55.0234 28.7972C55.2859 29.1466 55.6763 29.3774 56.109 29.4389C56.5416 29.5004 56.9809 29.3876 57.3303 29.1252C57.6797 28.8627 57.9106 28.4723 57.9721 28.0396C58.0336 27.607 57.9207 27.1677 57.6583 26.8183C55.5851 24.0415 52.7561 21.9205 49.5095 20.7088C51.2399 19.383 52.5114 17.5485 53.1454 15.4628C53.7794 13.3772 53.7439 11.1453 53.044 9.08086C52.3441 7.01641 51.0149 5.22315 49.2433 3.95309C47.4716 2.68302 45.3465 2 43.1667 2C40.9868 2 38.8617 2.68302 37.09 3.95309C35.3184 5.22315 33.9892 7.01641 33.2893 9.08086C32.5894 11.1453 32.5539 13.3772 33.1879 15.4628C33.8219 17.5485 35.0934 19.383 36.8238 20.7088C34.2266 21.6763 31.8891 23.233 29.9952 25.2566C28.1005 23.2327 25.762 21.6759 23.1638 20.7088C24.8942 19.383 26.1658 17.5485 26.7997 15.4628C27.4337 13.3772 27.3983 11.1453 26.6983 9.08086C25.9984 7.01641 24.6693 5.22315 22.8976 3.95309C21.1259 2.68302 19.0009 2 16.821 2C14.6411 2 12.516 2.68302 10.7444 3.95309C8.97272 5.22315 7.64354 7.01641 6.94363 9.08086C6.24371 11.1453 6.20825 13.3772 6.84223 15.4628C7.4762 17.5485 8.74774 19.383 10.4782 20.7088C7.2309 21.9207 4.40174 24.0428 2.32936 26.821C2.1996 26.994 2.10519 27.1909 2.05152 27.4004C1.99785 27.6099 1.98597 27.8279 2.01655 28.042C2.04713 28.2561 2.11959 28.462 2.22977 28.6481C2.33995 28.8342 2.4857 28.9968 2.65871 29.1265ZM43.1694 5.30316C44.5808 5.30316 45.9605 5.72168 47.134 6.5058C48.3075 7.28992 49.2221 8.40441 49.7622 9.70835C50.3023 11.0123 50.4437 12.4471 50.1683 13.8314C49.893 15.2156 49.2133 16.4871 48.2153 17.4851C47.2174 18.4831 45.9458 19.1628 44.5616 19.4381C43.1773 19.7135 41.7425 19.5721 40.4386 19.032C39.1346 18.4919 38.0201 17.5773 37.236 16.4038C36.4519 15.2302 36.0334 13.8506 36.0334 12.4392C36.0334 10.5466 36.7852 8.73152 38.1235 7.39326C39.4617 6.05499 41.2768 5.30316 43.1694 5.30316ZM16.821 5.30316C18.2324 5.30316 19.612 5.72168 20.7856 6.5058C21.9591 7.28992 22.8737 8.40441 23.4138 9.70835C23.9539 11.0123 24.0952 12.4471 23.8199 13.8314C23.5446 15.2156 22.8649 16.4871 21.8669 17.4851C20.8689 18.4831 19.5974 19.1628 18.2132 19.4381C16.8289 19.7135 15.3941 19.5721 14.0901 19.032C12.7862 18.4919 11.6717 17.5773 10.8876 16.4038C10.1035 15.2302 9.68496 13.8506 9.68496 12.4392C9.68496 10.5466 10.4368 8.73152 11.7751 7.39326C13.1133 6.05499 14.9284 5.30316 16.821 5.30316ZM49.5122 49.2529C51.2427 47.9272 52.5142 46.0926 53.1482 44.0069C53.7821 41.9213 53.7467 39.6894 53.0468 37.625C52.3469 35.5605 51.0177 33.7673 49.246 32.4972C47.4744 31.2271 45.3493 30.5441 43.1694 30.5441C40.9895 30.5441 38.8645 31.2271 37.0928 32.4972C35.3211 33.7673 33.992 35.5605 33.292 37.625C32.5921 39.6894 32.5567 41.9213 33.1906 44.0069C33.8246 46.0926 35.0962 47.9272 36.8266 49.2529C34.2283 50.22 31.8899 51.7768 29.9952 53.8007C28.1005 51.7768 25.762 50.22 23.1638 49.2529C24.8942 47.9272 26.1658 46.0926 26.7997 44.0069C27.4337 41.9213 27.3983 39.6894 26.6983 37.625C25.9984 35.5605 24.6693 33.7673 22.8976 32.4972C21.1259 31.2271 19.0009 30.5441 16.821 30.5441C14.6411 30.5441 12.516 31.2271 10.7444 32.4972C8.97272 33.7673 7.64354 35.5605 6.94363 37.625C6.24371 39.6894 6.20825 41.9213 6.84223 44.0069C7.4762 46.0926 8.74774 47.9272 10.4782 49.2529C7.2309 50.4648 4.40174 52.5869 2.32936 55.3652C2.1996 55.5382 2.10519 55.735 2.05152 55.9445C1.99785 56.154 1.98597 56.372 2.01655 56.5861C2.04713 56.8002 2.11959 57.0062 2.22977 57.1922C2.33995 57.3783 2.4857 57.5409 2.65871 57.6706C2.83172 57.8004 3.02859 57.8948 3.23808 57.9485C3.44757 58.0021 3.66558 58.014 3.87967 57.9834C4.09375 57.9529 4.29971 57.8804 4.4858 57.7702C4.67188 57.66 4.83444 57.5143 4.9642 57.3413C6.34473 55.5006 8.13487 54.0066 10.1928 52.9776C12.2508 51.9486 14.5201 51.4129 16.821 51.4129C19.1219 51.4129 21.3912 51.9486 23.4491 52.9776C25.5071 54.0066 27.2972 55.5006 28.6778 57.3413C28.9402 57.6903 29.3306 57.9207 29.7629 57.982C30.1952 58.0432 30.6342 57.9302 30.9833 57.6679C31.108 57.5761 31.2181 57.466 31.3099 57.3413C32.6904 55.5006 34.4805 54.0066 36.5385 52.9776C38.5965 51.9486 40.8658 51.4129 43.1667 51.4129C45.4675 51.4129 47.7368 51.9486 49.7948 52.9776C51.8528 54.0066 53.6429 55.5006 55.0234 57.3413C55.2859 57.6907 55.6763 57.9215 56.109 57.983C56.5416 58.0446 56.9809 57.9317 57.3303 57.6693C57.6797 57.4069 57.9106 57.0164 57.9721 56.5838C58.0336 56.1511 57.9207 55.7118 57.6583 55.3624C55.5858 52.5861 52.7578 50.4651 49.5122 49.2529ZM16.821 33.8473C18.2324 33.8473 19.612 34.2658 20.7856 35.0499C21.9591 35.834 22.8737 36.9485 23.4138 38.2525C23.9539 39.5564 24.0952 40.9912 23.8199 42.3755C23.5446 43.7597 22.8649 45.0313 21.8669 46.0293C20.8689 47.0272 19.5974 47.7069 18.2132 47.9822C16.8289 48.2576 15.3941 48.1163 14.0901 47.5761C12.7862 47.036 11.6717 46.1214 10.8876 44.9479C10.1035 43.7744 9.68496 42.3947 9.68496 40.9833C9.68496 39.0907 10.4368 37.2756 11.7751 35.9374C13.1133 34.5991 14.9284 33.8473 16.821 33.8473ZM43.1694 33.8473C44.5808 33.8473 45.9605 34.2658 47.134 35.0499C48.3075 35.834 49.2221 36.9485 49.7622 38.2525C50.3023 39.5564 50.4437 40.9912 50.1683 42.3755C49.893 43.7597 49.2133 45.0313 48.2153 46.0293C47.2174 47.0272 45.9458 47.7069 44.5616 47.9822C43.1773 48.2576 41.7425 48.1163 40.4386 47.5761C39.1346 47.036 38.0201 46.1214 37.236 44.9479C36.4519 43.7744 36.0334 42.3947 36.0334 40.9833C36.0334 39.0907 36.7852 37.2756 38.1235 35.9374C39.4617 34.5991 41.2768 33.8473 43.1694 33.8473Z"/>
</mask>
<path d="M2.65871 29.1265C3.00811 29.3886 3.4473 29.5011 3.87967 29.4393C4.31203 29.3776 4.70215 29.1466 4.9642 28.7972C6.34473 26.9565 8.13487 25.4625 10.1928 24.4335C12.2508 23.4045 14.5201 22.8688 16.821 22.8688C19.1219 22.8688 21.3912 23.4045 23.4491 24.4335C25.5071 25.4625 27.2972 26.9565 28.6778 28.7972C28.9402 29.1461 29.3306 29.3766 29.7629 29.4378C30.1952 29.4991 30.6342 29.3861 30.9833 29.1238C31.108 29.032 31.2181 28.9219 31.3099 28.7972C32.6904 26.9565 34.4805 25.4625 36.5385 24.4335C38.5965 23.4045 40.8658 22.8688 43.1667 22.8688C45.4675 22.8688 47.7368 23.4045 49.7948 24.4335C51.8528 25.4625 53.6429 26.9565 55.0234 28.7972C55.2859 29.1466 55.6763 29.3774 56.109 29.4389C56.5416 29.5004 56.9809 29.3876 57.3303 29.1252C57.6797 28.8627 57.9106 28.4723 57.9721 28.0396C58.0336 27.607 57.9207 27.1677 57.6583 26.8183C55.5851 24.0415 52.7561 21.9205 49.5095 20.7088C51.2399 19.383 52.5114 17.5485 53.1454 15.4628C53.7794 13.3772 53.7439 11.1453 53.044 9.08086C52.3441 7.01641 51.0149 5.22315 49.2433 3.95309C47.4716 2.68302 45.3465 2 43.1667 2C40.9868 2 38.8617 2.68302 37.09 3.95309C35.3184 5.22315 33.9892 7.01641 33.2893 9.08086C32.5894 11.1453 32.5539 13.3772 33.1879 15.4628C33.8219 17.5485 35.0934 19.383 36.8238 20.7088C34.2266 21.6763 31.8891 23.233 29.9952 25.2566C28.1005 23.2327 25.762 21.6759 23.1638 20.7088C24.8942 19.383 26.1658 17.5485 26.7997 15.4628C27.4337 13.3772 27.3983 11.1453 26.6983 9.08086C25.9984 7.01641 24.6693 5.22315 22.8976 3.95309C21.1259 2.68302 19.0009 2 16.821 2C14.6411 2 12.516 2.68302 10.7444 3.95309C8.97272 5.22315 7.64354 7.01641 6.94363 9.08086C6.24371 11.1453 6.20825 13.3772 6.84223 15.4628C7.4762 17.5485 8.74774 19.383 10.4782 20.7088C7.2309 21.9207 4.40174 24.0428 2.32936 26.821C2.1996 26.994 2.10519 27.1909 2.05152 27.4004C1.99785 27.6099 1.98597 27.8279 2.01655 28.042C2.04713 28.2561 2.11959 28.462 2.22977 28.6481C2.33995 28.8342 2.4857 28.9968 2.65871 29.1265ZM43.1694 5.30316C44.5808 5.30316 45.9605 5.72168 47.134 6.5058C48.3075 7.28992 49.2221 8.40441 49.7622 9.70835C50.3023 11.0123 50.4437 12.4471 50.1683 13.8314C49.893 15.2156 49.2133 16.4871 48.2153 17.4851C47.2174 18.4831 45.9458 19.1628 44.5616 19.4381C43.1773 19.7135 41.7425 19.5721 40.4386 19.032C39.1346 18.4919 38.0201 17.5773 37.236 16.4038C36.4519 15.2302 36.0334 13.8506 36.0334 12.4392C36.0334 10.5466 36.7852 8.73152 38.1235 7.39326C39.4617 6.05499 41.2768 5.30316 43.1694 5.30316ZM16.821 5.30316C18.2324 5.30316 19.612 5.72168 20.7856 6.5058C21.9591 7.28992 22.8737 8.40441 23.4138 9.70835C23.9539 11.0123 24.0952 12.4471 23.8199 13.8314C23.5446 15.2156 22.8649 16.4871 21.8669 17.4851C20.8689 18.4831 19.5974 19.1628 18.2132 19.4381C16.8289 19.7135 15.3941 19.5721 14.0901 19.032C12.7862 18.4919 11.6717 17.5773 10.8876 16.4038C10.1035 15.2302 9.68496 13.8506 9.68496 12.4392C9.68496 10.5466 10.4368 8.73152 11.7751 7.39326C13.1133 6.05499 14.9284 5.30316 16.821 5.30316ZM49.5122 49.2529C51.2427 47.9272 52.5142 46.0926 53.1482 44.0069C53.7821 41.9213 53.7467 39.6894 53.0468 37.625C52.3469 35.5605 51.0177 33.7673 49.246 32.4972C47.4744 31.2271 45.3493 30.5441 43.1694 30.5441C40.9895 30.5441 38.8645 31.2271 37.0928 32.4972C35.3211 33.7673 33.992 35.5605 33.292 37.625C32.5921 39.6894 32.5567 41.9213 33.1906 44.0069C33.8246 46.0926 35.0962 47.9272 36.8266 49.2529C34.2283 50.22 31.8899 51.7768 29.9952 53.8007C28.1005 51.7768 25.762 50.22 23.1638 49.2529C24.8942 47.9272 26.1658 46.0926 26.7997 44.0069C27.4337 41.9213 27.3983 39.6894 26.6983 37.625C25.9984 35.5605 24.6693 33.7673 22.8976 32.4972C21.1259 31.2271 19.0009 30.5441 16.821 30.5441C14.6411 30.5441 12.516 31.2271 10.7444 32.4972C8.97272 33.7673 7.64354 35.5605 6.94363 37.625C6.24371 39.6894 6.20825 41.9213 6.84223 44.0069C7.4762 46.0926 8.74774 47.9272 10.4782 49.2529C7.2309 50.4648 4.40174 52.5869 2.32936 55.3652C2.1996 55.5382 2.10519 55.735 2.05152 55.9445C1.99785 56.154 1.98597 56.372 2.01655 56.5861C2.04713 56.8002 2.11959 57.0062 2.22977 57.1922C2.33995 57.3783 2.4857 57.5409 2.65871 57.6706C2.83172 57.8004 3.02859 57.8948 3.23808 57.9485C3.44757 58.0021 3.66558 58.014 3.87967 57.9834C4.09375 57.9529 4.29971 57.8804 4.4858 57.7702C4.67188 57.66 4.83444 57.5143 4.9642 57.3413C6.34473 55.5006 8.13487 54.0066 10.1928 52.9776C12.2508 51.9486 14.5201 51.4129 16.821 51.4129C19.1219 51.4129 21.3912 51.9486 23.4491 52.9776C25.5071 54.0066 27.2972 55.5006 28.6778 57.3413C28.9402 57.6903 29.3306 57.9207 29.7629 57.982C30.1952 58.0432 30.6342 57.9302 30.9833 57.6679C31.108 57.5761 31.2181 57.466 31.3099 57.3413C32.6904 55.5006 34.4805 54.0066 36.5385 52.9776C38.5965 51.9486 40.8658 51.4129 43.1667 51.4129C45.4675 51.4129 47.7368 51.9486 49.7948 52.9776C51.8528 54.0066 53.6429 55.5006 55.0234 57.3413C55.2859 57.6907 55.6763 57.9215 56.109 57.983C56.5416 58.0446 56.9809 57.9317 57.3303 57.6693C57.6797 57.4069 57.9106 57.0164 57.9721 56.5838C58.0336 56.1511 57.9207 55.7118 57.6583 55.3624C55.5858 52.5861 52.7578 50.4651 49.5122 49.2529ZM16.821 33.8473C18.2324 33.8473 19.612 34.2658 20.7856 35.0499C21.9591 35.834 22.8737 36.9485 23.4138 38.2525C23.9539 39.5564 24.0952 40.9912 23.8199 42.3755C23.5446 43.7597 22.8649 45.0313 21.8669 46.0293C20.8689 47.0272 19.5974 47.7069 18.2132 47.9822C16.8289 48.2576 15.3941 48.1163 14.0901 47.5761C12.7862 47.036 11.6717 46.1214 10.8876 44.9479C10.1035 43.7744 9.68496 42.3947 9.68496 40.9833C9.68496 39.0907 10.4368 37.2756 11.7751 35.9374C13.1133 34.5991 14.9284 33.8473 16.821 33.8473ZM43.1694 33.8473C44.5808 33.8473 45.9605 34.2658 47.134 35.0499C48.3075 35.834 49.2221 36.9485 49.7622 38.2525C50.3023 39.5564 50.4437 40.9912 50.1683 42.3755C49.893 43.7597 49.2133 45.0313 48.2153 46.0293C47.2174 47.0272 45.9458 47.7069 44.5616 47.9822C43.1773 48.2576 41.7425 48.1163 40.4386 47.5761C39.1346 47.036 38.0201 46.1214 37.236 44.9479C36.4519 43.7744 36.0334 42.3947 36.0334 40.9833C36.0334 39.0907 36.7852 37.2756 38.1235 35.9374C39.4617 34.5991 41.2768 33.8473 43.1694 33.8473Z" fill="#211500" stroke="#211500" stroke-width="0.6" mask="url(#path-1-inside-1_1253_5680)"/>
</svg>
