<svg width="117" height="155" viewBox="0 0 117 155" fill="none" xmlns="http://www.w3.org/2000/svg">
<path d="M63.0703 176.036C66.9408 176.499 80.0844 177.882 83.9188 177.052C87.5186 176.272 91.1384 174.866 94.0173 171.948C99.0143 166.884 100.971 157.693 99.5424 149.661C98.1139 141.631 90.3111 120.152 84.8914 115.889L63.0703 176.036Z" fill="#FF981C"/>
<path d="M53.3078 21.4116L49.7364 19.7228C45.5211 17.7291 40.6761 17.542 36.3193 19.2042C33.3701 16.6862 29.0959 16.0736 25.3384 17.032C21.581 17.9903 18.305 20.3554 15.6417 23.1744C14.4944 24.3893 13.4135 25.719 11.9631 26.5482C10.4272 27.4258 8.62258 27.6614 6.90341 28.0727C2.97876 29.013 -0.698002 30.9687 -3.67094 33.6984C-4.47068 34.4326 -5.24003 35.2514 -5.6285 36.2648C-6.1433 37.6079 -5.92865 39.1086 -5.66555 40.5219C-4.8772 44.76 -3.80676 49.4806 -6.12906 53.1137C-7.59558 55.4084 -13.1625 55.739 -16.3795 63.0127C-17.6542 65.8935 -16.1012 71.2476 -16.0613 74.3972C-16.0205 77.6921 -18.3694 80.4618 -20.4742 82.9978C-23.96 87.1998 -27.2777 92.175 -26.8807 97.6193C-26.4761 103.163 -22.333 107.658 -18.1148 111.28C-13.4607 115.276 -7.63833 119.013 -1.61363 117.859C0.951832 117.368 3.25895 116.024 5.68858 115.066C11.2042 112.891 17.4958 112.746 23.1054 114.667C29.966 117.016 36.0856 122.36 43.3318 122.077C49.6718 121.829 55.5607 117.198 61.8105 118.292C63.8023 118.641 65.662 119.562 67.6576 119.883C72.9908 120.742 77.9574 117.273 82.2459 113.989C82.9165 113.477 83.6051 112.942 84.0182 112.206C84.4552 111.427 84.5378 110.506 84.6119 109.617C84.9529 105.487 85.235 101.068 83.1862 97.4664C80.5419 92.8161 73.4885 81.9008 74.8211 76.7205C78.5976 62.0334 67.462 56.2015 66.8018 54.6296C64.9554 50.2272 67.5322 45.3404 68.0945 40.6008C68.7357 35.1992 66.5045 29.5401 62.351 26.0296C59.7494 23.8317 55.9169 23.6009 53.3078 21.4116Z" fill="#211500"/>
<path d="M58.7575 37.1387C58.7642 48.5033 58.4669 64.2693 57.8666 75.6177C57.7745 77.3521 58.7328 83.6627 57.3356 84.6952C54.1186 87.0735 43.4151 86.6318 40.2161 86.5074C40.6948 91.399 41.1745 96.8889 41.6532 101.781C41.6969 102.232 41.732 102.722 41.4841 103.101C41.1783 103.567 40.5618 103.693 40.01 103.775C34.37 104.602 28.6483 104.866 22.9569 104.559C22.3082 95.5126 21.8001 86.4561 21.4325 77.3939C19.0912 79.3068 15.555 79.6839 12.9411 78.1642C10.3272 76.6445 8.90153 73.2631 9.78961 70.3728C10.6777 67.4825 13.89 65.4642 16.8525 66.0664C16.2417 58.9209 17.4632 47.3758 16.8525 40.2303C29.5211 37.1168 58.7575 37.1387 58.7575 37.1387Z" fill="#FFCF96"/>
<path opacity="0.56" d="M40.2162 86.5064L26.2529 84.6543L40.8478 93.2084L40.2162 86.5064Z" fill="#593A01"/>
<path d="M15.7765 65.9038C19.3867 65.2721 22.5154 62.7656 24.3638 59.5998C26.2112 56.4341 26.8675 56.87 26.726 53.2075C26.6785 51.988 26.6994 50.4787 27.785 49.9221C28.2922 49.6619 28.8963 49.7056 29.4643 49.7616C33.6976 50.1767 38.6376 50.6297 41.5384 47.5191C43.4912 45.4247 44.1038 42.0272 46.6855 40.7868C49.8901 39.2462 54.0342 42.107 57.1392 40.3736C54.5718 45.0666 55.6935 51.4713 59.7046 55.0113C60.8615 48.7064 61.5359 42.3131 61.7201 35.9056C61.7505 34.8608 61.7306 33.7087 61.042 32.9232C60.2707 32.0437 58.959 31.9468 57.7888 31.9202C44.6642 31.6153 31.5244 31.9639 18.435 32.9631C17.2601 33.0524 16.0443 33.1597 15.0175 33.7372C13.0562 34.839 12.3495 37.2791 11.9496 39.4931C10.1003 49.7122 11.0169 56.2223 14.5749 65.9788L15.7765 65.9038Z" fill="#211500"/>
<path d="M15.0762 71.5898C15.2355 71.4592 15.4714 71.4248 15.6406 71.5938C15.7136 71.6667 15.7547 71.7747 15.7578 71.8789C15.7608 71.9833 15.7255 72.094 15.6357 72.167C15.2436 72.4865 14.8519 72.8064 14.46 73.126C14.0679 73.4456 13.6755 73.7653 13.2832 74.085C13.1241 74.2142 12.8891 74.2494 12.7197 74.0801C12.6468 74.0071 12.6057 73.9001 12.6025 73.7959C12.5995 73.6916 12.6341 73.5808 12.7236 73.5078C13.1159 73.1882 13.5084 72.8684 13.9004 72.5488C14.2923 72.2293 14.684 71.9094 15.0762 71.5898Z" fill="#593A01" stroke="#593A01" stroke-width="0.123076"/>
<path d="M12.7568 69.5879C12.8724 69.3919 13.1154 69.3443 13.3037 69.4414H13.3047C13.7187 69.6575 14.1152 69.9052 14.4902 70.1846C15.8488 71.1961 16.9034 72.5491 17.5479 74.1152C17.5925 74.2241 17.5661 74.3386 17.5107 74.4277C17.4556 74.5164 17.3667 74.5891 17.2695 74.6162H17.2686C17.0359 74.6791 16.855 74.5296 16.7773 74.3418C16.6163 73.9511 16.419 73.5733 16.1982 73.2119C15.4034 71.9099 14.2555 70.8421 12.9023 70.1387V70.1377C12.7043 70.0344 12.6513 69.7668 12.7568 69.5879Z" fill="#593A01" stroke="#593A01" stroke-width="0.123076"/>
<path d="M50.4388 65.4444C50.3656 65.4586 50.2923 65.478 50.2191 65.4974C50.0608 65.0081 49.9678 64.4361 49.9678 63.8203C49.9678 62.045 50.7277 60.6055 51.6648 60.6055C52.6019 60.6055 53.3618 62.045 53.3618 63.8203C53.3618 64.6336 53.2015 65.3734 52.9383 65.9389C52.1754 65.4561 51.2808 65.2779 50.4388 65.4444Z" fill="#211500"/>
<path d="M42.8213 58.0615C42.9156 58.0358 43.0213 58.0395 43.1133 58.082C43.2065 58.1253 43.2823 58.2068 43.3184 58.3281C43.6153 59.33 43.9418 60.3242 44.3135 61.3008C44.9677 63.0197 45.7691 64.6906 46.8057 66.21C47.8116 67.6853 49.064 69.0017 50.5605 69.9814L50.6338 70.041C50.7854 70.1941 50.8026 70.4396 50.6406 70.6104C49.9202 71.3693 49.0614 71.973 48.1152 72.4082L47.7051 72.585C47.5963 72.6287 47.4819 72.6028 47.3926 72.5479C47.3038 72.4932 47.2312 72.4048 47.2041 72.3066C47.1399 72.0762 47.2877 71.8906 47.4775 71.8145C48.3081 71.4833 49.0697 70.9898 49.7246 70.3818C48.9968 69.8639 48.3214 69.2727 47.71 68.6221C46.4157 67.2449 45.394 65.6293 44.5742 63.9355C43.7356 62.204 43.0897 60.3847 42.5439 58.5439C42.5079 58.4219 42.5276 58.3127 42.584 58.2275C42.6394 58.1439 42.7272 58.0873 42.8213 58.0615Z" fill="#593A01" stroke="#593A01" stroke-width="0.123076"/>
<path d="M36.0713 69.4561C36.1737 69.4791 36.2738 69.5408 36.3203 69.6484C36.5773 70.2386 36.9241 70.7997 37.3311 71.2744C38.0731 72.1396 39.0334 72.8281 40.0752 73.2422C40.6104 73.4552 41.1719 73.6084 41.7422 73.6865C42.245 73.7551 42.8983 73.7598 43.4023 73.6904H43.4033C43.5036 73.6769 43.6077 73.6876 43.6963 73.7324C43.7866 73.7782 43.8579 73.8583 43.8896 73.9736C43.9161 74.071 43.8987 74.1854 43.8506 74.2783C43.8022 74.3717 43.7165 74.4539 43.5996 74.4697C42.8709 74.5702 42.1486 74.5622 41.4219 74.4473C38.9368 74.0556 36.6282 72.3657 35.6191 70.042C35.5373 69.8548 35.5568 69.6215 35.7656 69.4971H35.7666C35.8546 69.4459 35.9693 69.4331 36.0713 69.4561Z" fill="#593A01" stroke="#593A01" stroke-width="0.123076"/>
<path d="M21.3714 94.1254C27.0998 98.939 36.5362 98.4632 41.7516 93.0977C42.3472 94.8349 42.9427 96.5721 43.5383 98.3084C43.7472 98.9191 43.9742 99.5564 44.452 99.9914C45.1273 100.607 46.1256 100.666 47.0393 100.692C51.6298 100.824 56.2193 100.956 60.8098 101.088C63.5376 101.167 66.2969 101.25 68.9307 101.967C74.3542 103.443 78.7214 107.456 82.307 111.783C88.1303 118.81 92.5043 127.034 95.0764 135.79C96.4821 140.576 97.2353 146.135 94.382 150.226C93.19 151.935 91.4775 153.205 89.7336 154.344C84.9684 157.457 79.7245 159.838 74.244 161.374C69.3961 162.734 64.3915 163.433 59.405 164.127C53.1913 164.992 46.9775 165.858 40.7638 166.724C36.9798 167.251 36.5333 170.663 32.717 170.858C28.9386 171.052 21.8093 168.035 18.0299 167.859C6.43074 167.32 -61.1413 205.828 -26.6021 132.155C-21.19 120.61 -13.6066 110.067 -4.17495 101.487C-2.52321 99.9848 -0.789787 98.5221 1.24187 97.596C7.35111 94.8102 14.8794 97.3642 21.0133 94.6326L21.3714 94.1254Z" fill="#FF981C"/>
<mask id="mask0_1038_5579" style="mask-type:luminance" maskUnits="userSpaceOnUse" x="-37" y="93" width="138" height="85">
<path d="M99.8218 149.941C98.5813 142.968 92.5367 125.863 87.4181 118.683C85.943 116.382 84.3302 114.169 82.5864 112.064C78.9998 107.736 74.6326 103.723 69.2101 102.247C66.5762 101.53 63.8179 101.448 61.0891 101.37C56.4986 101.238 51.9091 101.106 47.3186 100.974C46.4049 100.947 45.4067 100.888 44.7313 100.273C44.2545 99.8377 44.0275 99.2003 43.8186 98.5896C43.223 96.8524 42.6275 95.1152 42.032 93.3789C36.8165 98.7444 27.3801 99.2203 21.6517 94.4066L21.2946 94.9138C15.1606 97.6455 7.63237 95.0914 1.52314 97.8763C-0.508526 98.8024 -2.24195 100.265 -3.89368 101.768C-13.3254 110.347 -20.9087 120.89 -26.3208 132.435C-60.86 206.108 6.712 167.601 18.3112 168.139C22.0905 168.315 29.2198 171.331 32.9982 171.139C36.8137 170.943 37.261 167.531 41.0451 167.004C47.2588 166.139 53.4725 165.274 59.6862 164.407C62.51 164.014 65.3405 163.619 68.1444 163.104L63.3516 176.314C67.2221 176.777 80.3657 178.161 84.2001 177.331C87.7999 176.551 91.4197 175.144 94.2986 172.226C99.2937 167.164 101.25 157.972 99.8218 149.941Z" fill="white"/>
</mask>
<g mask="url(#mask0_1038_5579)">
<path d="M5.02173 106.447C5.02173 107.335 4.30177 108.056 3.41274 108.056C2.52466 108.056 1.80469 107.336 1.80469 106.447C1.80469 105.559 2.52466 104.838 3.41274 104.838C4.30177 104.838 5.02173 105.559 5.02173 106.447Z" fill="#F8F8F8"/>
</g>
<mask id="mask1_1038_5579" style="mask-type:luminance" maskUnits="userSpaceOnUse" x="-37" y="93" width="138" height="85">
<path d="M99.8218 149.941C98.5813 142.968 92.5367 125.863 87.4181 118.683C85.943 116.382 84.3302 114.169 82.5864 112.064C78.9998 107.736 74.6326 103.723 69.2101 102.247C66.5762 101.53 63.8179 101.448 61.0891 101.37C56.4986 101.238 51.9091 101.106 47.3186 100.974C46.4049 100.947 45.4067 100.888 44.7313 100.273C44.2545 99.8377 44.0275 99.2003 43.8186 98.5896C43.223 96.8524 42.6275 95.1152 42.032 93.3789C36.8165 98.7444 27.3801 99.2203 21.6517 94.4066L21.2946 94.9138C15.1606 97.6455 7.63237 95.0914 1.52314 97.8763C-0.508526 98.8024 -2.24195 100.265 -3.89368 101.768C-13.3254 110.347 -20.9087 120.89 -26.3208 132.435C-60.86 206.108 6.712 167.601 18.3112 168.139C22.0905 168.315 29.2198 171.331 32.9982 171.139C36.8137 170.943 37.261 167.531 41.0451 167.004C47.2588 166.139 53.4725 165.274 59.6862 164.407C62.51 164.014 65.3405 163.619 68.1444 163.104L63.3516 176.314C67.2221 176.777 80.3657 178.161 84.2001 177.331C87.7999 176.551 91.4197 175.144 94.2986 172.226C99.2937 167.164 101.25 157.972 99.8218 149.941Z" fill="white"/>
</mask>
<g mask="url(#mask1_1038_5579)">
<path d="M18.4495 118.755C18.4495 119.643 17.7295 120.364 16.8405 120.364C15.9524 120.364 15.2324 119.644 15.2324 118.755C15.2324 117.866 15.9524 117.146 16.8405 117.146C17.7295 117.146 18.4495 117.866 18.4495 118.755Z" fill="#F8F8F8"/>
</g>
<mask id="mask2_1038_5579" style="mask-type:luminance" maskUnits="userSpaceOnUse" x="-37" y="93" width="138" height="85">
<path d="M99.8218 149.941C98.5813 142.968 92.5367 125.863 87.4181 118.683C85.943 116.382 84.3302 114.169 82.5864 112.064C78.9998 107.736 74.6326 103.723 69.2101 102.247C66.5762 101.53 63.8179 101.448 61.0891 101.37C56.4986 101.238 51.9091 101.106 47.3186 100.974C46.4049 100.947 45.4067 100.888 44.7313 100.273C44.2545 99.8377 44.0275 99.2003 43.8186 98.5896C43.223 96.8524 42.6275 95.1152 42.032 93.3789C36.8165 98.7444 27.3801 99.2203 21.6517 94.4066L21.2946 94.9138C15.1606 97.6455 7.63237 95.0914 1.52314 97.8763C-0.508526 98.8024 -2.24195 100.265 -3.89368 101.768C-13.3254 110.347 -20.9087 120.89 -26.3208 132.435C-60.86 206.108 6.712 167.601 18.3112 168.139C22.0905 168.315 29.2198 171.331 32.9982 171.139C36.8137 170.943 37.261 167.531 41.0451 167.004C47.2588 166.139 53.4725 165.274 59.6862 164.407C62.51 164.014 65.3405 163.619 68.1444 163.104L63.3516 176.314C67.2221 176.777 80.3657 178.161 84.2001 177.331C87.7999 176.551 91.4197 175.144 94.2986 172.226C99.2937 167.164 101.25 157.972 99.8218 149.941Z" fill="white"/>
</mask>
<g mask="url(#mask2_1038_5579)">
<path d="M28.6613 106.166C28.6613 107.054 27.9414 107.775 27.0524 107.775C26.1643 107.775 25.4434 107.055 25.4434 106.166C25.4434 105.278 26.1633 104.557 27.0524 104.557C27.9414 104.558 28.6613 105.278 28.6613 106.166Z" fill="#F8F8F8"/>
</g>
<mask id="mask3_1038_5579" style="mask-type:luminance" maskUnits="userSpaceOnUse" x="-37" y="93" width="138" height="85">
<path d="M99.8218 149.941C98.5813 142.968 92.5367 125.863 87.4181 118.683C85.943 116.382 84.3302 114.169 82.5864 112.064C78.9998 107.736 74.6326 103.723 69.2101 102.247C66.5762 101.53 63.8179 101.448 61.0891 101.37C56.4986 101.238 51.9091 101.106 47.3186 100.974C46.4049 100.947 45.4067 100.888 44.7313 100.273C44.2545 99.8377 44.0275 99.2003 43.8186 98.5896C43.223 96.8524 42.6275 95.1152 42.032 93.3789C36.8165 98.7444 27.3801 99.2203 21.6517 94.4066L21.2946 94.9138C15.1606 97.6455 7.63237 95.0914 1.52314 97.8763C-0.508526 98.8024 -2.24195 100.265 -3.89368 101.768C-13.3254 110.347 -20.9087 120.89 -26.3208 132.435C-60.86 206.108 6.712 167.601 18.3112 168.139C22.0905 168.315 29.2198 171.331 32.9982 171.139C36.8137 170.943 37.261 167.531 41.0451 167.004C47.2588 166.139 53.4725 165.274 59.6862 164.407C62.51 164.014 65.3405 163.619 68.1444 163.104L63.3516 176.314C67.2221 176.777 80.3657 178.161 84.2001 177.331C87.7999 176.551 91.4197 175.144 94.2986 172.226C99.2937 167.164 101.25 157.972 99.8218 149.941Z" fill="white"/>
</mask>
<g mask="url(#mask3_1038_5579)">
<path d="M59.8528 118.755C59.8528 119.643 59.1328 120.364 58.2447 120.364C57.3567 120.364 56.6357 119.644 56.6357 118.755C56.6357 117.866 57.3557 117.146 58.2447 117.146C59.1319 117.146 59.8528 117.866 59.8528 118.755Z" fill="#F8F8F8"/>
</g>
<mask id="mask4_1038_5579" style="mask-type:luminance" maskUnits="userSpaceOnUse" x="-37" y="93" width="138" height="85">
<path d="M99.8218 149.941C98.5813 142.968 92.5367 125.863 87.4181 118.683C85.943 116.382 84.3302 114.169 82.5864 112.064C78.9998 107.736 74.6326 103.723 69.2101 102.247C66.5762 101.53 63.8179 101.448 61.0891 101.37C56.4986 101.238 51.9091 101.106 47.3186 100.974C46.4049 100.947 45.4067 100.888 44.7313 100.273C44.2545 99.8377 44.0275 99.2003 43.8186 98.5896C43.223 96.8524 42.6275 95.1152 42.032 93.3789C36.8165 98.7444 27.3801 99.2203 21.6517 94.4066L21.2946 94.9138C15.1606 97.6455 7.63237 95.0914 1.52314 97.8763C-0.508526 98.8024 -2.24195 100.265 -3.89368 101.768C-13.3254 110.347 -20.9087 120.89 -26.3208 132.435C-60.86 206.108 6.712 167.601 18.3112 168.139C22.0905 168.315 29.2198 171.331 32.9982 171.139C36.8137 170.943 37.261 167.531 41.0451 167.004C47.2588 166.139 53.4725 165.274 59.6862 164.407C62.51 164.014 65.3405 163.619 68.1444 163.104L63.3516 176.314C67.2221 176.777 80.3657 178.161 84.2001 177.331C87.7999 176.551 91.4197 175.144 94.2986 172.226C99.2937 167.164 101.25 157.972 99.8218 149.941Z" fill="white"/>
</mask>
<g mask="url(#mask4_1038_5579)">
<path d="M63.2809 108.334C64.1695 108.334 64.8899 107.614 64.8899 106.725C64.8899 105.837 64.1695 105.116 63.2809 105.116C62.3922 105.116 61.6719 105.837 61.6719 106.725C61.6719 107.614 62.3922 108.334 63.2809 108.334Z" fill="#F8F8F8"/>
</g>
<mask id="mask5_1038_5579" style="mask-type:luminance" maskUnits="userSpaceOnUse" x="-37" y="93" width="138" height="85">
<path d="M99.8218 149.941C98.5813 142.968 92.5367 125.863 87.4181 118.683C85.943 116.382 84.3302 114.169 82.5864 112.064C78.9998 107.736 74.6326 103.723 69.2101 102.247C66.5762 101.53 63.8179 101.448 61.0891 101.37C56.4986 101.238 51.9091 101.106 47.3186 100.974C46.4049 100.947 45.4067 100.888 44.7313 100.273C44.2545 99.8377 44.0275 99.2003 43.8186 98.5896C43.223 96.8524 42.6275 95.1152 42.032 93.3789C36.8165 98.7444 27.3801 99.2203 21.6517 94.4066L21.2946 94.9138C15.1606 97.6455 7.63237 95.0914 1.52314 97.8763C-0.508526 98.8024 -2.24195 100.265 -3.89368 101.768C-13.3254 110.347 -20.9087 120.89 -26.3208 132.435C-60.86 206.108 6.712 167.601 18.3112 168.139C22.0905 168.315 29.2198 171.331 32.9982 171.139C36.8137 170.943 37.261 167.531 41.0451 167.004C47.2588 166.139 53.4725 165.274 59.6862 164.407C62.51 164.014 65.3405 163.619 68.1444 163.104L63.3516 176.314C67.2221 176.777 80.3657 178.161 84.2001 177.331C87.7999 176.551 91.4197 175.144 94.2986 172.226C99.2937 167.164 101.25 157.972 99.8218 149.941Z" fill="white"/>
</mask>
<g mask="url(#mask5_1038_5579)">
<path d="M76.6389 115.118C76.6389 116.006 75.9189 116.727 75.0299 116.727C74.1418 116.727 73.4209 116.007 73.4209 115.118C73.4209 114.23 74.1409 113.509 75.0299 113.509C75.9189 113.509 76.6389 114.229 76.6389 115.118Z" fill="#F8F8F8"/>
</g>
<mask id="mask6_1038_5579" style="mask-type:luminance" maskUnits="userSpaceOnUse" x="-37" y="93" width="138" height="85">
<path d="M99.8218 149.941C98.5813 142.968 92.5367 125.863 87.4181 118.683C85.943 116.382 84.3302 114.169 82.5864 112.064C78.9998 107.736 74.6326 103.723 69.2101 102.247C66.5762 101.53 63.8179 101.448 61.0891 101.37C56.4986 101.238 51.9091 101.106 47.3186 100.974C46.4049 100.947 45.4067 100.888 44.7313 100.273C44.2545 99.8377 44.0275 99.2003 43.8186 98.5896C43.223 96.8524 42.6275 95.1152 42.032 93.3789C36.8165 98.7444 27.3801 99.2203 21.6517 94.4066L21.2946 94.9138C15.1606 97.6455 7.63237 95.0914 1.52314 97.8763C-0.508526 98.8024 -2.24195 100.265 -3.89368 101.768C-13.3254 110.347 -20.9087 120.89 -26.3208 132.435C-60.86 206.108 6.712 167.601 18.3112 168.139C22.0905 168.315 29.2198 171.331 32.9982 171.139C36.8137 170.943 37.261 167.531 41.0451 167.004C47.2588 166.139 53.4725 165.274 59.6862 164.407C62.51 164.014 65.3405 163.619 68.1444 163.104L63.3516 176.314C67.2221 176.777 80.3657 178.161 84.2001 177.331C87.7999 176.551 91.4197 175.144 94.2986 172.226C99.2937 167.164 101.25 157.972 99.8218 149.941Z" fill="white"/>
</mask>
<g mask="url(#mask6_1038_5579)">
<path d="M20.1282 151.765C20.1282 152.653 19.4082 153.374 18.5192 153.374C17.6311 153.374 16.9111 152.654 16.9111 151.765C16.9111 150.876 17.6311 150.156 18.5192 150.156C19.4073 150.156 20.1282 150.876 20.1282 151.765Z" fill="#F8F8F8"/>
</g>
<mask id="mask7_1038_5579" style="mask-type:luminance" maskUnits="userSpaceOnUse" x="-37" y="93" width="138" height="85">
<path d="M99.8218 149.941C98.5813 142.968 92.5367 125.863 87.4181 118.683C85.943 116.382 84.3302 114.169 82.5864 112.064C78.9998 107.736 74.6326 103.723 69.2101 102.247C66.5762 101.53 63.8179 101.448 61.0891 101.37C56.4986 101.238 51.9091 101.106 47.3186 100.974C46.4049 100.947 45.4067 100.888 44.7313 100.273C44.2545 99.8377 44.0275 99.2003 43.8186 98.5896C43.223 96.8524 42.6275 95.1152 42.032 93.3789C36.8165 98.7444 27.3801 99.2203 21.6517 94.4066L21.2946 94.9138C15.1606 97.6455 7.63237 95.0914 1.52314 97.8763C-0.508526 98.8024 -2.24195 100.265 -3.89368 101.768C-13.3254 110.347 -20.9087 120.89 -26.3208 132.435C-60.86 206.108 6.712 167.601 18.3112 168.139C22.0905 168.315 29.2198 171.331 32.9982 171.139C36.8137 170.943 37.261 167.531 41.0451 167.004C47.2588 166.139 53.4725 165.274 59.6862 164.407C62.51 164.014 65.3405 163.619 68.1444 163.104L63.3516 176.314C67.2221 176.777 80.3657 178.161 84.2001 177.331C87.7999 176.551 91.4197 175.144 94.2986 172.226C99.2937 167.164 101.25 157.972 99.8218 149.941Z" fill="white"/>
</mask>
<g mask="url(#mask7_1038_5579)">
<path d="M15.2326 135.541C15.2326 136.429 14.5127 137.15 13.6236 137.15C12.7356 137.15 12.0146 136.43 12.0146 135.541C12.0146 134.653 12.7346 133.933 13.6236 133.933C14.5127 133.932 15.2326 134.652 15.2326 135.541Z" fill="#F8F8F8"/>
</g>
<mask id="mask8_1038_5579" style="mask-type:luminance" maskUnits="userSpaceOnUse" x="-37" y="93" width="138" height="85">
<path d="M99.8218 149.941C98.5813 142.968 92.5367 125.863 87.4181 118.683C85.943 116.382 84.3302 114.169 82.5864 112.064C78.9998 107.736 74.6326 103.723 69.2101 102.247C66.5762 101.53 63.8179 101.448 61.0891 101.37C56.4986 101.238 51.9091 101.106 47.3186 100.974C46.4049 100.947 45.4067 100.888 44.7313 100.273C44.2545 99.8377 44.0275 99.2003 43.8186 98.5896C43.223 96.8524 42.6275 95.1152 42.032 93.3789C36.8165 98.7444 27.3801 99.2203 21.6517 94.4066L21.2946 94.9138C15.1606 97.6455 7.63237 95.0914 1.52314 97.8763C-0.508526 98.8024 -2.24195 100.265 -3.89368 101.768C-13.3254 110.347 -20.9087 120.89 -26.3208 132.435C-60.86 206.108 6.712 167.601 18.3112 168.139C22.0905 168.315 29.2198 171.331 32.9982 171.139C36.8137 170.943 37.261 167.531 41.0451 167.004C47.2588 166.139 53.4725 165.274 59.6862 164.407C62.51 164.014 65.3405 163.619 68.1444 163.104L63.3516 176.314C67.2221 176.777 80.3657 178.161 84.2001 177.331C87.7999 176.551 91.4197 175.144 94.2986 172.226C99.2937 167.164 101.25 157.972 99.8218 149.941Z" fill="white"/>
</mask>
<g mask="url(#mask8_1038_5579)">
<path d="M39.0807 146.52C39.9693 146.52 40.6897 145.799 40.6897 144.911C40.6897 144.022 39.9693 143.302 39.0807 143.302C38.1921 143.302 37.4717 144.022 37.4717 144.911C37.4717 145.799 38.1921 146.52 39.0807 146.52Z" fill="#F8F8F8"/>
</g>
<mask id="mask9_1038_5579" style="mask-type:luminance" maskUnits="userSpaceOnUse" x="-37" y="93" width="138" height="85">
<path d="M99.8218 149.941C98.5813 142.968 92.5367 125.863 87.4181 118.683C85.943 116.382 84.3302 114.169 82.5864 112.064C78.9998 107.736 74.6326 103.723 69.2101 102.247C66.5762 101.53 63.8179 101.448 61.0891 101.37C56.4986 101.238 51.9091 101.106 47.3186 100.974C46.4049 100.947 45.4067 100.888 44.7313 100.273C44.2545 99.8377 44.0275 99.2003 43.8186 98.5896C43.223 96.8524 42.6275 95.1152 42.032 93.3789C36.8165 98.7444 27.3801 99.2203 21.6517 94.4066L21.2946 94.9138C15.1606 97.6455 7.63237 95.0914 1.52314 97.8763C-0.508526 98.8024 -2.24195 100.265 -3.89368 101.768C-13.3254 110.347 -20.9087 120.89 -26.3208 132.435C-60.86 206.108 6.712 167.601 18.3112 168.139C22.0905 168.315 29.2198 171.331 32.9982 171.139C36.8137 170.943 37.261 167.531 41.0451 167.004C47.2588 166.139 53.4725 165.274 59.6862 164.407C62.51 164.014 65.3405 163.619 68.1444 163.104L63.3516 176.314C67.2221 176.777 80.3657 178.161 84.2001 177.331C87.7999 176.551 91.4197 175.144 94.2986 172.226C99.2937 167.164 101.25 157.972 99.8218 149.941Z" fill="white"/>
</mask>
<g mask="url(#mask9_1038_5579)">
<path d="M32.0875 133.931C32.9761 133.931 33.6965 133.211 33.6965 132.322C33.6965 131.433 32.9761 130.713 32.0875 130.713C31.1989 130.713 30.4785 131.433 30.4785 132.322C30.4785 133.211 31.1989 133.931 32.0875 133.931Z" fill="#F8F8F8"/>
</g>
<mask id="mask10_1038_5579" style="mask-type:luminance" maskUnits="userSpaceOnUse" x="-37" y="93" width="138" height="85">
<path d="M99.8218 149.941C98.5813 142.968 92.5367 125.863 87.4181 118.683C85.943 116.382 84.3302 114.169 82.5864 112.064C78.9998 107.736 74.6326 103.723 69.2101 102.247C66.5762 101.53 63.8179 101.448 61.0891 101.37C56.4986 101.238 51.9091 101.106 47.3186 100.974C46.4049 100.947 45.4067 100.888 44.7313 100.273C44.2545 99.8377 44.0275 99.2003 43.8186 98.5896C43.223 96.8524 42.6275 95.1152 42.032 93.3789C36.8165 98.7444 27.3801 99.2203 21.6517 94.4066L21.2946 94.9138C15.1606 97.6455 7.63237 95.0914 1.52314 97.8763C-0.508526 98.8024 -2.24195 100.265 -3.89368 101.768C-13.3254 110.347 -20.9087 120.89 -26.3208 132.435C-60.86 206.108 6.712 167.601 18.3112 168.139C22.0905 168.315 29.2198 171.331 32.9982 171.139C36.8137 170.943 37.261 167.531 41.0451 167.004C47.2588 166.139 53.4725 165.274 59.6862 164.407C62.51 164.014 65.3405 163.619 68.1444 163.104L63.3516 176.314C67.2221 176.777 80.3657 178.161 84.2001 177.331C87.7999 176.551 91.4197 175.144 94.2986 172.226C99.2937 167.164 101.25 157.972 99.8218 149.941Z" fill="white"/>
</mask>
<g mask="url(#mask10_1038_5579)">
<path d="M43.2779 118.684C44.1666 118.684 44.8869 117.963 44.8869 117.075C44.8869 116.186 44.1666 115.466 43.2779 115.466C42.3893 115.466 41.6689 116.186 41.6689 117.075C41.6689 117.963 42.3893 118.684 43.2779 118.684Z" fill="#F8F8F8"/>
</g>
<mask id="mask11_1038_5579" style="mask-type:luminance" maskUnits="userSpaceOnUse" x="-37" y="93" width="138" height="85">
<path d="M99.8218 149.941C98.5813 142.968 92.5367 125.863 87.4181 118.683C85.943 116.382 84.3302 114.169 82.5864 112.064C78.9998 107.736 74.6326 103.723 69.2101 102.247C66.5762 101.53 63.8179 101.448 61.0891 101.37C56.4986 101.238 51.9091 101.106 47.3186 100.974C46.4049 100.947 45.4067 100.888 44.7313 100.273C44.2545 99.8377 44.0275 99.2003 43.8186 98.5896C43.223 96.8524 42.6275 95.1152 42.032 93.3789C36.8165 98.7444 27.3801 99.2203 21.6517 94.4066L21.2946 94.9138C15.1606 97.6455 7.63237 95.0914 1.52314 97.8763C-0.508526 98.8024 -2.24195 100.265 -3.89368 101.768C-13.3254 110.347 -20.9087 120.89 -26.3208 132.435C-60.86 206.108 6.712 167.601 18.3112 168.139C22.0905 168.315 29.2198 171.331 32.9982 171.139C36.8137 170.943 37.261 167.531 41.0451 167.004C47.2588 166.139 53.4725 165.274 59.6862 164.407C62.51 164.014 65.3405 163.619 68.1444 163.104L63.3516 176.314C67.2221 176.777 80.3657 178.161 84.2001 177.331C87.7999 176.551 91.4197 175.144 94.2986 172.226C99.2937 167.164 101.25 157.972 99.8218 149.941Z" fill="white"/>
</mask>
<g mask="url(#mask11_1038_5579)">
<path d="M47.6158 108.334C48.5045 108.334 49.2248 107.614 49.2248 106.725C49.2248 105.837 48.5045 105.116 47.6158 105.116C46.7272 105.116 46.0068 105.837 46.0068 106.725C46.0068 107.614 46.7272 108.334 47.6158 108.334Z" fill="#F8F8F8"/>
</g>
<mask id="mask12_1038_5579" style="mask-type:luminance" maskUnits="userSpaceOnUse" x="-37" y="93" width="138" height="85">
<path d="M99.8218 149.941C98.5813 142.968 92.5367 125.863 87.4181 118.683C85.943 116.382 84.3302 114.169 82.5864 112.064C78.9998 107.736 74.6326 103.723 69.2101 102.247C66.5762 101.53 63.8179 101.448 61.0891 101.37C56.4986 101.238 51.9091 101.106 47.3186 100.974C46.4049 100.947 45.4067 100.888 44.7313 100.273C44.2545 99.8377 44.0275 99.2003 43.8186 98.5896C43.223 96.8524 42.6275 95.1152 42.032 93.3789C36.8165 98.7444 27.3801 99.2203 21.6517 94.4066L21.2946 94.9138C15.1606 97.6455 7.63237 95.0914 1.52314 97.8763C-0.508526 98.8024 -2.24195 100.265 -3.89368 101.768C-13.3254 110.347 -20.9087 120.89 -26.3208 132.435C-60.86 206.108 6.712 167.601 18.3112 168.139C22.0905 168.315 29.2198 171.331 32.9982 171.139C36.8137 170.943 37.261 167.531 41.0451 167.004C47.2588 166.139 53.4725 165.274 59.6862 164.407C62.51 164.014 65.3405 163.619 68.1444 163.104L63.3516 176.314C67.2221 176.777 80.3657 178.161 84.2001 177.331C87.7999 176.551 91.4197 175.144 94.2986 172.226C99.2937 167.164 101.25 157.972 99.8218 149.941Z" fill="white"/>
</mask>
<g mask="url(#mask12_1038_5579)">
<path d="M72.8616 130.505C72.8616 131.393 72.1416 132.113 71.2535 132.113C70.3654 132.113 69.6445 131.394 69.6445 130.505C69.6445 129.616 70.3645 128.896 71.2535 128.896C72.1407 128.896 72.8616 129.616 72.8616 130.505Z" fill="#F8F8F8"/>
</g>
<mask id="mask13_1038_5579" style="mask-type:luminance" maskUnits="userSpaceOnUse" x="-37" y="93" width="138" height="85">
<path d="M99.8218 149.941C98.5813 142.968 92.5367 125.863 87.4181 118.683C85.943 116.382 84.3302 114.169 82.5864 112.064C78.9998 107.736 74.6326 103.723 69.2101 102.247C66.5762 101.53 63.8179 101.448 61.0891 101.37C56.4986 101.238 51.9091 101.106 47.3186 100.974C46.4049 100.947 45.4067 100.888 44.7313 100.273C44.2545 99.8377 44.0275 99.2003 43.8186 98.5896C43.223 96.8524 42.6275 95.1152 42.032 93.3789C36.8165 98.7444 27.3801 99.2203 21.6517 94.4066L21.2946 94.9138C15.1606 97.6455 7.63237 95.0914 1.52314 97.8763C-0.508526 98.8024 -2.24195 100.265 -3.89368 101.768C-13.3254 110.347 -20.9087 120.89 -26.3208 132.435C-60.86 206.108 6.712 167.601 18.3112 168.139C22.0905 168.315 29.2198 171.331 32.9982 171.139C36.8137 170.943 37.261 167.531 41.0451 167.004C47.2588 166.139 53.4725 165.274 59.6862 164.407C62.51 164.014 65.3405 163.619 68.1444 163.104L63.3516 176.314C67.2221 176.777 80.3657 178.161 84.2001 177.331C87.7999 176.551 91.4197 175.144 94.2986 172.226C99.2937 167.164 101.25 157.972 99.8218 149.941Z" fill="white"/>
</mask>
<g mask="url(#mask13_1038_5579)">
<path d="M85.8004 125.68C86.689 125.68 87.4094 124.96 87.4094 124.071C87.4094 123.182 86.689 122.462 85.8004 122.462C84.9118 122.462 84.1914 123.182 84.1914 124.071C84.1914 124.96 84.9118 125.68 85.8004 125.68Z" fill="#F8F8F8"/>
</g>
<mask id="mask14_1038_5579" style="mask-type:luminance" maskUnits="userSpaceOnUse" x="-37" y="93" width="138" height="85">
<path d="M99.8218 149.941C98.5813 142.968 92.5367 125.863 87.4181 118.683C85.943 116.382 84.3302 114.169 82.5864 112.064C78.9998 107.736 74.6326 103.723 69.2101 102.247C66.5762 101.53 63.8179 101.448 61.0891 101.37C56.4986 101.238 51.9091 101.106 47.3186 100.974C46.4049 100.947 45.4067 100.888 44.7313 100.273C44.2545 99.8377 44.0275 99.2003 43.8186 98.5896C43.223 96.8524 42.6275 95.1152 42.032 93.3789C36.8165 98.7444 27.3801 99.2203 21.6517 94.4066L21.2946 94.9138C15.1606 97.6455 7.63237 95.0914 1.52314 97.8763C-0.508526 98.8024 -2.24195 100.265 -3.89368 101.768C-13.3254 110.347 -20.9087 120.89 -26.3208 132.435C-60.86 206.108 6.712 167.601 18.3112 168.139C22.0905 168.315 29.2198 171.331 32.9982 171.139C36.8137 170.943 37.261 167.531 41.0451 167.004C47.2588 166.139 53.4725 165.274 59.6862 164.407C62.51 164.014 65.3405 163.619 68.1444 163.104L63.3516 176.314C67.2221 176.777 80.3657 178.161 84.2001 177.331C87.7999 176.551 91.4197 175.144 94.2986 172.226C99.2937 167.164 101.25 157.972 99.8218 149.941Z" fill="white"/>
</mask>
<g mask="url(#mask14_1038_5579)">
<path d="M93.1428 141.554C93.1428 142.442 92.4228 143.163 91.5338 143.163C90.6457 143.163 89.9248 142.443 89.9248 141.554C89.9248 140.666 90.6448 139.945 91.5338 139.945C92.4228 139.946 93.1428 140.666 93.1428 141.554Z" fill="#F8F8F8"/>
</g>
<mask id="mask15_1038_5579" style="mask-type:luminance" maskUnits="userSpaceOnUse" x="-37" y="93" width="138" height="85">
<path d="M99.8218 149.941C98.5813 142.968 92.5367 125.863 87.4181 118.683C85.943 116.382 84.3302 114.169 82.5864 112.064C78.9998 107.736 74.6326 103.723 69.2101 102.247C66.5762 101.53 63.8179 101.448 61.0891 101.37C56.4986 101.238 51.9091 101.106 47.3186 100.974C46.4049 100.947 45.4067 100.888 44.7313 100.273C44.2545 99.8377 44.0275 99.2003 43.8186 98.5896C43.223 96.8524 42.6275 95.1152 42.032 93.3789C36.8165 98.7444 27.3801 99.2203 21.6517 94.4066L21.2946 94.9138C15.1606 97.6455 7.63237 95.0914 1.52314 97.8763C-0.508526 98.8024 -2.24195 100.265 -3.89368 101.768C-13.3254 110.347 -20.9087 120.89 -26.3208 132.435C-60.86 206.108 6.712 167.601 18.3112 168.139C22.0905 168.315 29.2198 171.331 32.9982 171.139C36.8137 170.943 37.261 167.531 41.0451 167.004C47.2588 166.139 53.4725 165.274 59.6862 164.407C62.51 164.014 65.3405 163.619 68.1444 163.104L63.3516 176.314C67.2221 176.777 80.3657 178.161 84.2001 177.331C87.7999 176.551 91.4197 175.144 94.2986 172.226C99.2937 167.164 101.25 157.972 99.8218 149.941Z" fill="white"/>
</mask>
<g mask="url(#mask15_1038_5579)">
<path d="M58.1731 139.877C58.1731 140.765 57.4531 141.486 56.5641 141.486C55.676 141.486 54.9561 140.766 54.9561 139.877C54.9561 138.988 55.676 138.268 56.5641 138.268C57.4531 138.268 58.1731 138.988 58.1731 139.877Z" fill="#F8F8F8"/>
</g>
<mask id="mask16_1038_5579" style="mask-type:luminance" maskUnits="userSpaceOnUse" x="-37" y="93" width="138" height="85">
<path d="M99.8218 149.941C98.5813 142.968 92.5367 125.863 87.4181 118.683C85.943 116.382 84.3302 114.169 82.5864 112.064C78.9998 107.736 74.6326 103.723 69.2101 102.247C66.5762 101.53 63.8179 101.448 61.0891 101.37C56.4986 101.238 51.9091 101.106 47.3186 100.974C46.4049 100.947 45.4067 100.888 44.7313 100.273C44.2545 99.8377 44.0275 99.2003 43.8186 98.5896C43.223 96.8524 42.6275 95.1152 42.032 93.3789C36.8165 98.7444 27.3801 99.2203 21.6517 94.4066L21.2946 94.9138C15.1606 97.6455 7.63237 95.0914 1.52314 97.8763C-0.508526 98.8024 -2.24195 100.265 -3.89368 101.768C-13.3254 110.347 -20.9087 120.89 -26.3208 132.435C-60.86 206.108 6.712 167.601 18.3112 168.139C22.0905 168.315 29.2198 171.331 32.9982 171.139C36.8137 170.943 37.261 167.531 41.0451 167.004C47.2588 166.139 53.4725 165.274 59.6862 164.407C62.51 164.014 65.3405 163.619 68.1444 163.104L63.3516 176.314C67.2221 176.777 80.3657 178.161 84.2001 177.331C87.7999 176.551 91.4197 175.144 94.2986 172.226C99.2937 167.164 101.25 157.972 99.8218 149.941Z" fill="white"/>
</mask>
<g mask="url(#mask16_1038_5579)">
<path d="M76.3586 150.088C76.3586 150.976 75.6387 151.697 74.7497 151.697C73.8616 151.697 73.1416 150.977 73.1416 150.088C73.1416 149.199 73.8616 148.479 74.7497 148.479C75.6387 148.479 76.3586 149.198 76.3586 150.088Z" fill="#F8F8F8"/>
</g>
<mask id="mask17_1038_5579" style="mask-type:luminance" maskUnits="userSpaceOnUse" x="-37" y="93" width="138" height="85">
<path d="M99.8218 149.941C98.5813 142.968 92.5367 125.863 87.4181 118.683C85.943 116.382 84.3302 114.169 82.5864 112.064C78.9998 107.736 74.6326 103.723 69.2101 102.247C66.5762 101.53 63.8179 101.448 61.0891 101.37C56.4986 101.238 51.9091 101.106 47.3186 100.974C46.4049 100.947 45.4067 100.888 44.7313 100.273C44.2545 99.8377 44.0275 99.2003 43.8186 98.5896C43.223 96.8524 42.6275 95.1152 42.032 93.3789C36.8165 98.7444 27.3801 99.2203 21.6517 94.4066L21.2946 94.9138C15.1606 97.6455 7.63237 95.0914 1.52314 97.8763C-0.508526 98.8024 -2.24195 100.265 -3.89368 101.768C-13.3254 110.347 -20.9087 120.89 -26.3208 132.435C-60.86 206.108 6.712 167.601 18.3112 168.139C22.0905 168.315 29.2198 171.331 32.9982 171.139C36.8137 170.943 37.261 167.531 41.0451 167.004C47.2588 166.139 53.4725 165.274 59.6862 164.407C62.51 164.014 65.3405 163.619 68.1444 163.104L63.3516 176.314C67.2221 176.777 80.3657 178.161 84.2001 177.331C87.7999 176.551 91.4197 175.144 94.2986 172.226C99.2937 167.164 101.25 157.972 99.8218 149.941Z" fill="white"/>
</mask>
<g mask="url(#mask17_1038_5579)">
<path d="M94.6819 156.243C94.6819 157.131 93.9619 157.851 93.0729 157.851C92.1838 157.851 91.4639 157.131 91.4639 156.243C91.4639 155.355 92.1838 154.634 93.0729 154.634C93.9619 154.634 94.6819 155.355 94.6819 156.243Z" fill="#F8F8F8"/>
</g>
<path d="M16.5816 129.507C21.5558 125.065 29.1439 124.149 35.3662 126.545C39.7885 128.249 42.8659 130.097 45.1901 133.237C47.0888 135.803 50.4027 136.883 53.4289 135.869L58.6215 134.13C54.2523 130.542 59.616 126.29 61.735 126.719L65.0261 139.826C60.4832 141.093 56.1406 143.068 52.1979 145.654C51.1294 146.355 49.7331 146.239 48.7719 145.396C46.82 143.686 44.1615 142.771 41.5704 143.01C37.5811 143.38 34.3071 146.154 30.8317 148.147C27.3563 150.14 22.6091 151.27 19.603 148.622C17.3623 146.648 16.99 143.35 16.7687 140.373C16.516 136.967 16.2634 133.561 16.0107 130.155L16.5816 129.507Z" fill="#211500"/>
<path d="M-3.48838 101.169C-8.13679 109.686 -11.9636 118.831 -13.0141 128.477C-14.0637 138.124 -12.0985 148.367 -6.14028 156.027C0.501801 164.566 11.9585 169.077 22.6392 167.362C29.0154 166.338 40.436 163.847 44.3264 158.692C48.2169 153.537 44.3188 145.663 41.968 139.648C39.848 134.224 35.1293 130.298 30.4638 126.812C29.42 126.032 28.3324 125.22 27.7322 124.063C27.2421 123.119 27.1233 122.032 27.0131 120.974C26.5743 116.758 26.1365 112.544 25.6976 108.329C25.6274 107.651 25.4944 106.875 24.9055 106.534C24.3375 106.205 23.6251 106.445 23.0078 106.667C16.0988 109.148 8.08991 108.35 1.80781 104.552L-3.48838 101.169Z" fill="#593A01"/>
<path d="M15.3184 113.966C16.2615 121.109 18.7738 128.244 23.6673 133.533C28.5607 138.821 36.0995 141.967 43.1367 140.42C39.8037 135.898 36.4224 131.324 32.0741 127.766C30.5696 126.535 28.9502 125.427 27.6309 124C24.2609 120.356 23.2778 115.171 22.4344 110.28L15.3184 113.966Z" fill="#F8F8F8"/>
<path d="M24.0094 110.552C26.4201 109.213 28.7243 107.682 30.8937 105.979C32.3773 104.814 33.8571 103.484 34.4698 101.701C35.1612 99.6892 34.6255 97.4856 34.067 95.433C32.3222 89.0151 29.7074 81.8611 23.5516 79.3441C19.2774 77.5964 14.4162 78.6222 9.97489 79.8864C6.63248 80.8381 3.21218 81.9769 0.650521 84.3249C-0.561448 85.4362 -1.54072 86.7887 -2.30627 88.2439C-5.98017 95.2336 -4.06913 104.684 2.03061 109.697C8.1313 114.712 17.7719 114.756 23.9182 109.798L24.0094 110.552Z" fill="#593A01"/>
<path d="M29.0273 83.4903C28.049 78.5769 27.0707 73.6634 26.0914 68.751C21.7878 71.1027 18.2164 74.7747 15.9844 79.1429C20.6328 79.8145 25.1264 81.5422 29.0282 84.157L29.0273 83.4903Z" fill="#593A01"/>
<path d="M1.92223 84.405C-3.78143 83.0487 -10.3133 82.9993 -14.9209 86.6238C-11.1948 90.1096 -7.46862 93.5964 -3.74248 97.0823C-2.42698 92.6172 -0.41811 88.3572 2.19009 84.5019C2.30597 84.33 2.41615 84.0764 2.25943 83.9406C2.10271 83.8047 1.97068 84.2502 2.15019 84.1467L1.92223 84.405Z" fill="#593A01"/>
<path d="M16.3513 78.4004C14.8591 79.9685 14.1667 82.5046 13.9141 84.6549C13.6614 86.8044 14.4887 89.1533 16.2981 90.3415C17.4388 91.09 18.8284 91.3227 20.1373 91.7102C22.9107 92.5327 25.4496 94.1332 27.3863 96.2817C28.3 97.2951 29.1131 98.5176 29.1444 99.8824C29.1966 102.136 27.1878 103.838 25.3223 105.104C21.9552 107.388 18.2946 109.485 14.2522 109.951C11.3714 110.282 7.90741 109.358 6.90725 106.636C6.14074 104.551 7.1276 102.231 8.39656 100.409C9.66551 98.5859 11.2631 96.9181 11.9327 94.8C12.8189 91.998 11.8472 88.8218 9.90962 86.6116C7.97199 84.4023 5.35714 83.5788 2.50293 82.8759C6.56055 80.2183 11.3514 78.6141 16.3513 78.4004Z" fill="#F8F8F8"/>
<path d="M15.637 96.9477C15.6627 97.8804 15.7301 98.9214 16.6486 99.4334C17.0959 99.6832 17.6763 99.5702 17.9555 99.1408C18.4646 98.3591 17.4056 97.5708 17.9128 96.7824C18.0819 96.5193 18.3753 96.3626 18.6859 96.3265C19.0735 96.2819 19.4277 96.3864 19.7621 96.5497C20.4763 96.8993 21.3226 96.3047 21.1916 95.5211C21.1574 95.3178 21.0814 95.1222 20.9627 94.9578C20.4896 94.3006 19.6215 94.0622 18.8132 94.0004C16.981 93.8608 15.1042 94.424 13.6519 95.5505C13.044 96.0216 12.4703 96.6856 12.5207 97.453C12.5701 98.2205 13.6129 98.8388 14.1448 98.2832C14.5837 97.8253 14.6236 96.7834 15.2476 96.9002L15.637 96.9477Z" fill="#211500"/>
<path d="M26.249 98.6621C26.4757 98.6623 26.6426 98.8504 26.6514 99.0625C26.718 100.685 25.4883 102.107 24.0137 102.61C23.2353 102.876 22.3982 102.895 21.5977 102.762C20.7896 102.627 20.0485 102.309 19.3398 101.922C19.1815 101.836 19.0285 101.754 18.8623 101.708C18.7266 101.671 18.5846 101.668 18.4893 101.689C18.3013 101.732 18.1472 101.827 17.9971 101.962L17.8467 102.11C17.6325 102.338 17.4658 102.586 17.2891 102.856C17.0881 103.165 16.8799 103.466 16.6504 103.756C15.7642 104.876 14.5212 105.823 13.0469 105.964C11.7477 106.087 10.3093 105.53 9.66309 104.334C9.60262 104.222 9.59884 104.111 9.63379 104.014C9.66835 103.918 9.73888 103.839 9.82324 103.79C9.90745 103.741 10.0093 103.718 10.1074 103.737C10.2075 103.757 10.299 103.82 10.3594 103.932C10.9466 105.019 12.3798 105.388 13.54 105.061C14.7995 104.705 15.7782 103.694 16.4863 102.616C16.8414 102.076 17.2153 101.459 17.8057 101.107C18.0986 100.933 18.4465 100.842 18.791 100.88C19.2068 100.926 19.5662 101.129 19.9121 101.318C21.1313 101.987 22.668 102.32 23.9814 101.767C25.0526 101.315 25.8947 100.234 25.8467 99.0664C25.8375 98.8435 26.039 98.661 26.249 98.6621Z" fill="#211500" stroke="#211500" stroke-width="0.123076"/>
<path d="M20.8867 79.3452C22.7056 79.5561 24.592 79.7888 26.1468 80.7566C25.4772 78.1114 25.5142 75.6723 24.7211 72.7031C23.9356 73.2151 20.8867 79.3452 20.8867 79.3452Z" fill="#211500"/>
<path d="M-31.2072 164.165C-31.2499 166.775 -29.6514 169.077 -27.3557 169.687C-22.2855 171.032 -17.0112 171.672 -12.4957 169.068C-9.74887 167.485 -7.63077 164.864 -5.57726 162.3C1.26998 153.75 15.3729 134.757 17.7237 133.461C21.3719 131.448 28.9686 129.447 32.6225 127.447C32.2863 128.171 32.046 128.949 31.9111 129.749C31.7411 130.754 32.519 131.663 33.4346 131.518C35.6724 131.164 37.6708 128.933 38.3528 126.43C39.1991 123.32 38.5694 119.983 37.9358 116.811C37.4163 114.213 36.8188 111.453 35.0835 109.609C34.7416 106.894 31.5682 105.654 29.2013 106.467C26.8334 107.28 13.9358 116.918 12.0742 118.727C2.28724 128.24 -28.6208 147.93 -31.1445 160.261L-31.2072 164.165Z" fill="#FFCF96"/>
<path d="M6.5129 114.044C9.85626 113.277 13.1987 112.509 16.542 111.742C18.1681 111.368 19.8996 111 21.4725 111.555C22.7111 111.991 23.6885 112.952 24.5509 113.942C26.4059 116.073 27.9285 118.474 29.2962 120.945C29.3978 121.13 29.5023 121.326 29.49 121.536C29.47 121.896 29.129 122.144 28.8118 122.314C26.6339 123.481 23.886 123.516 21.6806 122.402C19.4741 121.289 17.8689 119.059 17.5137 116.614C13.5862 119.89 8.953 122.316 4.02344 123.678C4.4727 121.081 4.92102 118.484 5.37028 115.888L6.5129 114.044Z" fill="#593A01"/>
<path d="M20.1186 139.456C25.5297 135.558 33.1719 135.441 39.1102 138.474C43.3303 140.63 46.1978 142.791 48.181 146.157C49.8014 148.906 52.9842 150.326 56.0996 149.635L61.4462 148.447C57.4759 144.422 63.2546 140.754 65.3167 141.402L67.2201 154.782C62.5707 155.566 58.0439 157.077 53.8533 159.237C52.7173 159.823 51.341 159.56 50.4738 158.623C48.711 156.718 46.1626 155.53 43.5611 155.498C39.5547 155.449 36.0091 157.866 32.3437 159.484C28.6793 161.103 23.84 161.731 21.1264 158.783C19.1042 156.586 19.0785 153.268 19.1697 150.283C19.2742 146.869 19.3787 143.456 19.4841 140.043L20.1186 139.456Z" fill="#593A01"/>
<path d="M34.3324 65.7706C34.4278 65.7857 34.6038 65.8424 34.698 65.8631C34.9015 65.3408 34.938 64.6943 34.938 64.0369C34.938 62.142 33.9609 60.6055 32.7561 60.6055C31.5513 60.6055 30.5742 62.142 30.5742 64.0369C30.5742 64.9051 30.6348 65.8202 30.9732 66.4238C31.9541 65.9084 33.2484 65.5928 34.3324 65.7706Z" fill="#211500"/>
<path d="M22.002 117.77C22.1693 117.601 22.4064 117.636 22.5654 117.765C22.9108 118.046 23.2326 118.355 23.5264 118.689C24.566 119.873 25.2826 121.338 25.541 122.895C25.5749 123.098 25.491 123.319 25.2588 123.383C25.1596 123.41 25.0462 123.392 24.9541 123.344C24.8616 123.295 24.7819 123.21 24.7627 123.096C24.4536 121.233 23.4712 119.535 22.0078 118.342C21.9175 118.268 21.8825 118.157 21.8857 118.053C21.889 117.949 21.9301 117.842 22.002 117.77Z" fill="#211500" stroke="#211500" stroke-width="0.123076"/>
<path d="M25.1357 116.546C25.2404 116.543 25.3517 116.578 25.4248 116.668L25.8564 117.224C26.8372 118.535 27.6439 119.961 28.2666 121.48C28.3112 121.589 28.2854 121.704 28.2305 121.793C28.1756 121.882 28.0862 121.955 27.9883 121.982C27.7556 122.047 27.5729 121.897 27.4961 121.709C26.9196 120.302 26.1587 118.962 25.2471 117.743L24.8477 117.228C24.7188 117.067 24.6814 116.834 24.8516 116.663C24.924 116.59 25.0315 116.549 25.1357 116.546Z" fill="#211500" stroke="#211500" stroke-width="0.123076"/>
<path d="M17.8857 110.765C19.6247 110.829 21.3421 111.177 22.9258 111.92C23.0303 111.969 23.0923 112.066 23.1162 112.168C23.14 112.269 23.128 112.382 23.0771 112.472V112.473C22.9583 112.676 22.7184 112.708 22.5312 112.62C22.3507 112.536 22.1689 112.455 21.9834 112.382C20.4321 111.769 18.7678 111.547 17.1025 111.558C15.3736 111.569 13.6549 111.813 11.9502 112.108C10.1921 112.413 8.43742 112.775 6.66797 113.03C4.73971 113.308 2.79709 113.488 0.849609 113.56C-1.07685 113.631 -3.00613 113.597 -4.92871 113.463C-5.13819 113.448 -5.32715 113.294 -5.32715 113.061C-5.32704 112.955 -5.27983 112.852 -5.20801 112.777C-5.13618 112.702 -5.03483 112.651 -4.92188 112.658H-4.9209C-4.6815 112.674 -4.44105 112.691 -4.20117 112.704C-2.26294 112.814 -0.319046 112.819 1.62012 112.72C3.54693 112.621 5.46817 112.421 7.37305 112.112C8.24933 111.97 9.12229 111.807 9.99609 111.646C10.8697 111.484 11.7446 111.323 12.623 111.183C14.3578 110.906 16.1206 110.698 17.8857 110.765Z" fill="#211500" stroke="#211500" stroke-width="0.123076"/>
<path d="M17.0371 116.116C17.1955 115.976 17.4377 115.954 17.6025 116.119C17.6772 116.194 17.7176 116.3 17.7197 116.403C17.7213 116.481 17.7006 116.562 17.6543 116.629L17.5996 116.69C17.4352 116.834 17.27 116.977 17.1035 117.118H17.1025C15.7762 118.238 14.3613 119.255 12.8779 120.156C11.3925 121.059 9.83747 121.843 8.23438 122.513C6.64463 123.178 5.00452 123.723 3.33301 124.144H3.33203C1.63863 124.569 -0.0861613 124.865 -1.82422 125.03C-3.53991 125.194 -5.26777 125.224 -6.98828 125.118C-7.19883 125.105 -7.38672 124.948 -7.38672 124.716C-7.38664 124.61 -7.33953 124.507 -7.26758 124.433C-7.19533 124.358 -7.09349 124.306 -6.98047 124.313C-6.77093 124.327 -6.56092 124.338 -6.35156 124.347C-4.65191 124.42 -2.94722 124.357 -1.25684 124.166C0.419134 123.976 2.08007 123.653 3.70801 123.213L4.31738 123.042C5.73577 122.631 7.12944 122.13 8.48145 121.537C10.0401 120.854 11.5471 120.053 12.9854 119.144C14.412 118.241 15.7679 117.23 17.0371 116.116Z" fill="#211500" stroke="#211500" stroke-width="0.123076"/>
<path d="M-2.88477 101.79C-2.78368 101.814 -2.68731 101.876 -2.63672 101.978C-2.20802 102.841 -1.70657 103.666 -1.13965 104.445C-0.148769 105.805 1.05549 107.028 2.39941 108.042C3.752 109.062 5.25324 109.893 6.84277 110.471C7.03816 110.542 7.18052 110.735 7.11816 110.963C7.09064 111.064 7.01788 111.152 6.92871 111.205C6.83927 111.259 6.72664 111.281 6.61914 111.242C5.67286 110.898 4.75491 110.477 3.87988 109.979C2.3426 109.103 0.929796 107.994 -0.290039 106.711C-1.35823 105.588 -2.28378 104.327 -3.02734 102.966L-3.33496 102.377C-3.42927 102.188 -3.38949 101.948 -3.18945 101.83C-3.09824 101.777 -2.98557 101.766 -2.88477 101.79Z" fill="#211500" stroke="#211500" stroke-width="0.123076"/>
<path d="M64.1582 142.283C64.2409 142.274 64.3226 142.299 64.3896 142.341C64.4785 142.396 64.5515 142.486 64.5781 142.583C64.6412 142.816 64.4911 142.997 64.3037 143.075C62.9731 143.63 62.1657 145.261 62.4766 146.646C62.5236 146.854 62.4157 147.077 62.1953 147.138C62.093 147.166 61.9822 147.148 61.8916 147.099C61.8006 147.049 61.7246 146.964 61.7002 146.854C61.6106 146.454 61.5805 146.04 61.627 145.632C61.7917 144.173 62.7113 142.873 64.0762 142.305L64.1582 142.283Z" fill="#211500" stroke="#211500" stroke-width="0.123076"/>
<path d="M65.4287 144.066C65.6161 143.984 65.8503 144.006 65.9727 144.214C66.0244 144.302 66.0359 144.418 66.0127 144.52C65.9893 144.622 65.9278 144.721 65.8213 144.768C64.7195 145.256 64.0039 146.391 64.043 147.578C64.0471 147.705 64.0003 147.806 63.9238 147.873C63.8487 147.939 63.749 147.971 63.6514 147.971C63.4811 147.97 63.2994 147.872 63.251 147.673L63.2393 147.581C63.191 146.118 64.0842 144.662 65.4277 144.066H65.4287Z" fill="#211500" stroke="#211500" stroke-width="0.123076"/>
<path d="M27.7217 135.933C28.5291 135.881 29.341 135.89 30.1475 135.922C32.459 136.012 34.7829 136.308 37.0273 136.879C39.2849 137.454 42.0411 139.052 43.7705 140.662C43.8636 140.749 43.9017 140.852 43.8955 140.954C43.8894 141.054 43.8406 141.147 43.7715 141.216C43.6336 141.353 43.3951 141.41 43.2051 141.233C43.0374 141.076 42.798 140.875 42.6572 140.767C40.8251 139.361 38.1354 137.925 35.9043 137.44C33.7802 136.979 31.6521 136.745 29.4639 136.706C28.7636 136.694 28.0596 136.696 27.3643 136.765H27.3633C27.3007 136.77 27.2424 136.779 27.1768 136.786C27.1751 136.786 27.1734 136.786 27.1719 136.786C27.153 136.789 27.134 136.793 27.1152 136.796C27.044 136.807 26.9737 136.822 26.9033 136.839L26.6895 136.894C25.9738 137.077 25.2649 137.286 24.5645 137.519C21.7328 138.458 19.024 139.8 16.6162 141.565C14.2468 143.303 12.1915 145.478 10.7021 148.016C10.6377 148.125 10.5434 148.186 10.4424 148.204C10.3433 148.222 10.2415 148.198 10.1572 148.149C10.0728 148.1 10.002 148.023 9.96875 147.928C9.93501 147.831 9.94137 147.721 10.0049 147.611V147.61C10.1915 147.293 10.3859 146.98 10.5898 146.672C12.277 144.125 14.5155 141.987 17.041 140.286C19.5847 138.572 22.42 137.296 25.3564 136.427C25.8598 136.278 26.381 136.106 26.9062 136.019C27.1769 135.974 27.4499 135.95 27.7217 135.933Z" fill="#211500" stroke="#211500" stroke-width="0.123076"/>
<path d="M20.5752 113.808C20.6841 113.742 20.7948 113.734 20.8916 113.767C20.9869 113.799 21.0641 113.87 21.1133 113.954C21.1624 114.038 21.1865 114.141 21.1689 114.24C21.151 114.341 21.0909 114.436 20.9824 114.501L18.125 116.216C18.0158 116.281 17.9046 116.29 17.8076 116.257C17.7124 116.224 17.6351 116.154 17.5859 116.069C17.5368 115.985 17.5136 115.883 17.5312 115.783C17.5492 115.682 17.609 115.588 17.7178 115.522L20.5752 113.808Z" fill="#211500" stroke="#211500" stroke-width="0.123076"/>
<path d="M4.70898 82.0089C5.35486 80.6981 6.00169 79.3874 6.64757 78.0766C7.05884 77.2418 7.74555 76.2634 8.65548 76.4553C8.36579 77.7271 8.07704 78.9999 7.78734 80.2717C8.45412 78.3654 9.82091 76.7118 11.5686 75.7002C11.4033 76.9245 10.9559 78.1099 10.2711 79.1376C10.879 77.9579 11.8858 76.9881 13.0883 76.4268C13.5395 76.2159 14.1131 76.0744 14.5064 76.3803C14.8663 76.6605 14.9015 77.2161 14.7115 77.6312C14.5216 78.0463 14.1597 78.3521 13.8101 78.6437C12.9867 79.3304 12.1622 80.0171 11.3387 80.7038L4.70898 82.0089Z" fill="#F8F8F8"/>
<path d="M90.1877 173.034C87.2566 176.494 57.5349 182.157 31.4728 181.622C20.6952 181.4 -1.76802 163.757 -0.767859 159.698C-0.34044 157.964 9.34487 169.462 9.34487 169.462C9.34487 169.462 0.127829 157.817 -1.00815 154.502C-1.25321 153.787 -0.362276 153.228 0.189569 153.743C3.06752 156.429 7.75582 163.584 9.35911 165.788C6.89243 162.67 0.0727323 155.698 -1.79936 151.231C-2.05771 150.614 -1.40518 150.004 -0.80299 150.297C3.62032 152.45 10.9738 159.229 13.4576 163.602C10.9643 160.577 4.88073 154.718 4.45806 150.826C4.39822 150.277 4.9529 149.875 5.46391 150.085C10.0534 151.972 20.9935 163.148 25.5545 165.787C24.5097 163.825 22.1095 156.786 22.6138 156.433C24.3406 155.223 31.2534 166.009 31.8147 167.238C32.662 169.093 52.4249 161.527 64.0468 158.175C70.0364 156.446 76.3508 156.354 82.4486 157.648C97.3589 160.814 93.193 169.485 90.1877 173.034Z" fill="#FFCF96"/>
<path d="M-1.06641 153.14C-0.966109 153.11 -0.850743 153.117 -0.756836 153.184C0.285871 153.927 1.26664 154.754 2.19629 155.633C3.83821 157.185 5.32239 158.892 6.80371 160.59C7.62842 161.535 8.45287 162.48 9.27734 163.426C10.102 164.371 10.927 165.317 11.752 166.263L11.7979 166.325C11.8932 166.48 11.8934 166.684 11.749 166.828C11.6747 166.902 11.5686 166.942 11.4648 166.944C11.3608 166.947 11.2525 166.911 11.1777 166.825C10.2546 165.765 9.33033 164.706 8.40625 163.647C6.85445 161.869 5.32614 160.067 3.72461 158.335C2.22233 156.711 0.629661 155.157 -1.17188 153.872C-1.34035 153.752 -1.43149 153.531 -1.31152 153.325L-1.26562 153.263C-1.2126 153.205 -1.14151 153.162 -1.06641 153.14Z" fill="#593A01" stroke="#593A01" stroke-width="0.123076"/>
<path d="M6.0957 155.08C6.30555 154.959 6.51819 155.059 6.6416 155.219C7.10358 155.817 7.57677 156.407 8.06152 156.987C9.78361 159.05 11.6438 160.996 13.623 162.813L13.6768 162.876C13.7819 163.031 13.7543 163.254 13.625 163.384C13.465 163.544 13.2157 163.53 13.0586 163.386C12.492 162.866 11.9343 162.336 11.3877 161.795C9.44052 159.868 7.63025 157.807 5.95703 155.638V155.637C5.88517 155.543 5.88174 155.426 5.91211 155.325C5.94242 155.225 6.00867 155.131 6.09473 155.08H6.0957Z" fill="#593A01" stroke="#593A01" stroke-width="0.123076"/>
<path d="M4.49316 149.685C4.75746 149.592 5.01615 149.638 5.25684 149.738C7.29955 150.587 8.89931 152.127 10.5547 153.518C12.1905 154.892 13.9012 156.176 15.6221 157.444C17.39 158.747 19.1724 160.033 20.9141 161.373C22.6224 162.687 24.2987 164.05 25.8623 165.538C25.9545 165.626 25.992 165.731 25.9854 165.833C25.9787 165.933 25.9301 166.025 25.8613 166.094C25.7922 166.163 25.6987 166.212 25.5977 166.221C25.495 166.23 25.3878 166.197 25.2959 166.109C25.1158 165.938 24.9341 165.768 24.751 165.599C23.2333 164.202 21.6199 162.91 19.9766 161.662C18.2817 160.374 16.555 159.129 14.8418 157.862C13.1584 156.618 11.4858 155.351 9.88379 153.999C9.09864 153.336 8.34543 152.644 7.53125 152.024C7.12502 151.715 6.70795 151.421 6.27246 151.155C5.84194 150.893 5.38881 150.636 4.91895 150.464V150.463C4.90808 150.459 4.88077 150.453 4.85449 150.445C4.84599 150.443 4.83606 150.44 4.82812 150.438C4.81561 150.437 4.80294 150.437 4.79102 150.438C4.78843 150.438 4.78572 150.438 4.7832 150.438C4.78205 150.439 4.78105 150.438 4.78027 150.438L4.77734 150.439C4.73752 150.449 4.72337 150.453 4.71289 150.459L4.66895 150.496C4.65669 150.508 4.65314 150.511 4.64648 150.518C4.64184 150.522 4.64051 150.524 4.63965 150.525C4.63736 150.529 4.63493 150.533 4.62598 150.552V150.554C4.62399 150.562 4.61985 150.576 4.61621 150.588C4.61191 150.602 4.60837 150.614 4.60449 150.627L4.59863 150.646C4.58528 150.719 4.58111 150.844 4.5752 150.943C4.54599 151.426 4.56356 151.914 4.64062 152.39C4.79502 153.343 5.14802 154.245 5.68555 155.046L5.71973 155.073L5.70801 155.081C5.71329 155.089 5.71832 155.097 5.72363 155.104C5.84457 155.281 5.76653 155.515 5.62402 155.628C5.4519 155.764 5.24599 155.719 5.09961 155.601C5.00103 155.521 4.90233 155.442 4.80371 155.362L4.50684 155.123C3.70486 154.477 2.9033 153.831 2.10156 153.186C1.29968 152.54 0.49743 151.894 -0.304688 151.248C-0.625263 150.99 -0.816235 150.806 -1.18262 150.637C-1.19219 150.632 -1.19993 150.629 -1.20605 150.626C-1.20759 150.625 -1.20922 150.625 -1.21094 150.624H-1.21191C-1.22805 150.617 -1.2426 150.611 -1.25684 150.606L-1.25781 150.605C-1.29498 150.592 -1.33195 150.579 -1.36816 150.568H-1.36914C-1.43428 150.548 -1.5009 150.534 -1.57324 150.518V150.517C-1.57457 150.516 -1.57597 150.516 -1.57715 150.516C-1.5899 150.514 -1.60207 150.512 -1.61328 150.512H-1.61523C-1.64927 150.509 -1.68204 150.507 -1.71387 150.508H-1.71484C-1.7312 150.508 -1.74854 150.51 -1.76562 150.511C-1.76667 150.511 -1.7676 150.512 -1.76855 150.512C-1.77574 150.513 -1.78929 150.516 -1.79785 150.518C-1.80279 150.519 -1.80785 150.519 -1.81152 150.52C-1.8131 150.52 -1.81439 150.52 -1.81543 150.521L-1.81738 150.521C-1.82617 150.524 -1.83469 150.526 -1.84375 150.529C-1.85126 150.535 -1.86369 150.542 -1.87402 150.549C-1.87482 150.55 -1.87517 150.551 -1.87598 150.552C-1.88025 150.556 -1.88588 150.561 -1.89062 150.565C-1.89378 150.571 -1.89691 150.578 -1.90039 150.583C-1.90488 150.59 -1.90915 150.597 -1.91211 150.602V150.603L-1.91309 150.604L-1.92578 150.646C-1.93394 150.683 -1.937 150.713 -1.93457 150.752C-1.93208 150.79 -1.9243 150.826 -1.91406 150.868C-1.88958 150.967 -1.86178 151.063 -1.83496 151.163L-1.53418 152.297C-1.43374 152.675 -1.3331 153.053 -1.23242 153.431C-0.994981 154.322 -0.751528 155.207 -0.431641 156.069C-0.132533 156.873 0.222716 157.656 0.626953 158.412C1.44692 159.947 2.46837 161.367 3.66699 162.628C3.67398 162.635 3.67924 162.644 3.68555 162.651L3.70703 162.673L3.7041 162.675C3.76268 162.755 3.78708 162.842 3.78027 162.928C3.77226 163.028 3.72377 163.121 3.65527 163.189C3.58674 163.258 3.49456 163.306 3.39453 163.313C3.3097 163.319 3.22309 163.295 3.14453 163.234L3.1377 163.242L3.09375 163.196C3.07357 163.175 3.05427 163.153 3.03418 163.132C2.64966 162.746 2.26517 162.36 1.88086 161.974L0.665039 160.753C0.341094 160.427 0.0354472 160.087 -0.30957 159.794C-0.429951 159.692 -0.575693 159.596 -0.725586 159.539C-0.875488 159.483 -1.0251 159.467 -1.15918 159.518V159.519C-1.24645 159.551 -1.338 159.633 -1.35156 159.747C-1.35937 159.818 -1.34297 159.893 -1.3125 159.971C-1.282 160.048 -1.23897 160.124 -1.19727 160.195C-0.971125 160.58 -0.703916 160.946 -0.44043 161.311C0.625294 162.786 1.86007 164.14 3.2207 165.35C3.30607 165.425 3.34231 165.533 3.33984 165.638C3.33737 165.742 3.29656 165.848 3.2207 165.924C3.05807 166.086 2.81218 166.067 2.6543 165.927C1.81469 165.18 1.02403 164.378 0.290039 163.528C-0.375446 162.758 -0.996111 161.948 -1.56641 161.106C-1.69662 160.914 -1.85137 160.702 -1.96875 160.477C-2.08667 160.25 -2.17083 160.003 -2.15723 159.739C-2.12682 159.149 -1.64048 158.733 -1.07812 158.691C-0.646197 158.659 -0.251128 158.844 0.0791016 159.088C-0.0999351 158.765 -0.272808 158.439 -0.433594 158.107C-0.839428 157.271 -1.1888 156.406 -1.47559 155.521C-1.69275 154.851 -1.87046 154.17 -2.05078 153.492C-2.26334 152.693 -2.48328 151.894 -2.68945 151.092C-2.78289 150.728 -2.74782 150.313 -2.47559 150.016C-2.23134 149.748 -1.85885 149.677 -1.52539 149.719L-1.36133 149.745C-0.98445 149.821 -0.653072 149.993 -0.345703 150.202C0.00361525 150.44 0.328753 150.731 0.649414 150.989C1.82799 151.939 3.00698 152.888 4.18555 153.837C3.95329 153.176 3.81339 152.483 3.77148 151.782C3.75519 151.517 3.75418 151.251 3.76855 150.985C3.78251 150.724 3.78719 150.425 3.91992 150.17C4.03899 149.94 4.25386 149.767 4.49316 149.685ZM4.54883 150.592C4.55352 150.593 4.55796 150.596 4.56348 150.597C4.58292 150.598 4.59689 150.589 4.60156 150.586C4.60693 150.582 4.61073 150.578 4.6123 150.576C4.61551 150.573 4.61781 150.569 4.61816 150.568V150.567L4.5625 150.541C4.57226 150.521 4.55926 150.558 4.54883 150.592ZM-1.96484 150.57L-1.97168 150.577V150.578C-1.96396 150.583 -1.95578 150.587 -1.94727 150.588C-1.934 150.59 -1.92353 150.587 -1.91895 150.585L-1.91797 150.584C-1.91808 150.583 -1.91776 150.581 -1.91797 150.58L-1.93359 150.567C-1.94029 150.566 -1.94921 150.566 -1.95801 150.561L-1.95898 150.56C-1.96131 150.563 -1.96295 150.567 -1.96484 150.57ZM-1.56348 150.456L-1.56934 150.511H-1.56641C-1.56474 150.51 -1.54419 150.503 -1.53223 150.481C-1.52938 150.476 -1.52856 150.471 -1.52734 150.465C-1.5381 150.462 -1.54881 150.46 -1.55957 150.457C-1.56092 150.457 -1.56221 150.456 -1.56348 150.456ZM-1.80664 150.456C-1.80519 150.464 -1.80396 150.47 -1.80469 150.476C-1.80564 150.483 -1.80791 150.488 -1.80957 150.492C-1.80551 150.496 -1.80324 150.501 -1.80078 150.502C-1.79961 150.503 -1.79801 150.502 -1.79688 150.503L-1.80273 150.455C-1.80405 150.455 -1.80533 150.456 -1.80664 150.456ZM4.84375 150.438C4.8447 150.437 4.84609 150.438 4.84766 150.438C4.84877 150.437 4.85787 150.437 4.86816 150.432C4.87368 150.429 4.88602 150.422 4.89453 150.406C4.89711 150.402 4.8972 150.396 4.89844 150.392C4.86301 150.382 4.82477 150.373 4.84961 150.376L4.84375 150.438ZM4.7627 150.379L4.75488 150.381C4.7546 150.396 4.75628 150.412 4.76562 150.428C4.76999 150.43 4.77576 150.43 4.78027 150.432L4.77637 150.376C4.82527 150.372 4.77296 150.376 4.7627 150.379Z" fill="#593A01" stroke="#593A01" stroke-width="0.123076"/>
<path d="M41.9297 101.442C42.0887 101.307 42.3278 101.28 42.4941 101.446C42.5679 101.52 42.6087 101.627 42.6113 101.73C42.6139 101.835 42.5779 101.945 42.4902 102.019C42.0078 102.428 41.4982 102.806 40.9639 103.145C39.2016 104.261 37.1863 104.954 35.1143 105.173L34.6992 105.211C34.5848 105.22 34.4821 105.167 34.4102 105.092C34.3386 105.017 34.2921 104.914 34.292 104.81C34.292 104.576 34.4813 104.423 34.6895 104.407L35.126 104.366C35.5608 104.318 35.9919 104.248 36.4199 104.153H36.4209C38.44 103.71 40.3525 102.781 41.9297 101.442Z" fill="#593A01" stroke="#593A01" stroke-width="0.123076"/>
<path d="M36.666 126.184C36.6694 126.185 36.6705 126.187 36.6709 126.188L36.6748 126.197C36.6749 126.198 36.6753 126.201 36.6748 126.205C36.6738 126.213 36.671 126.222 36.667 126.229C36.666 126.231 36.6639 126.232 36.6631 126.233C35.3116 126.493 33.9866 126.892 32.7188 127.43L32.1768 127.67C32.1461 127.684 32.1235 127.683 32.1152 127.681C32.1137 127.68 32.1127 127.68 32.1123 127.68H32.1113L32.1104 127.679L32.1055 127.671C32.1051 127.669 32.1049 127.667 32.1045 127.664C32.1034 127.656 32.1035 127.645 32.1055 127.637C32.1059 127.635 32.1061 127.633 32.1064 127.632C33.5456 126.969 35.0554 126.477 36.6104 126.179L36.6094 126.178C36.6381 126.172 36.6582 126.179 36.666 126.184Z" fill="#593A01" stroke="#593A01" stroke-width="0.615378"/>
<path d="M30.8554 106.458C31.8518 105.852 33.2328 106.24 34.0155 107.104C34.7981 107.968 35.0764 109.184 35.104 110.349C36.7595 110.444 37.9933 112.435 37.3408 113.96C37.2316 114.216 37.0777 114.469 37.0881 114.746C37.1062 115.25 37.621 115.558 37.9914 115.901C39.002 116.837 39.0039 118.646 37.9952 119.585C39.7647 120.747 40.233 123.482 38.9498 125.165C38.8615 125.282 38.7608 125.397 38.6259 125.454C38.3353 125.577 38.0104 125.391 37.7644 125.193C36.3853 124.085 35.5789 122.434 34.8162 120.839C33.079 117.207 31.3417 113.575 29.6055 109.944L30.8554 106.458Z" fill="#FFCF96"/>
<path d="M37.4766 119.415C37.4822 119.418 37.4892 119.424 37.4951 119.432C37.4997 119.437 37.502 119.444 37.5039 119.448C37.5034 119.449 37.5031 119.451 37.502 119.453C37.4986 119.459 37.493 119.466 37.4854 119.472C37.4778 119.478 37.4702 119.481 37.4639 119.483C36.9078 119.667 36.3519 119.851 35.7959 120.035C35.7947 120.035 35.7929 120.034 35.791 120.033C35.7855 120.03 35.7792 120.024 35.7734 120.017C35.7686 120.01 35.7646 120.005 35.7627 120C35.7632 119.999 35.7652 119.997 35.7666 119.995C35.77 119.99 35.7747 119.983 35.7822 119.977C35.7899 119.97 35.7982 119.967 35.8047 119.965C36.3607 119.781 36.9166 119.597 37.4727 119.413C37.4737 119.414 37.475 119.414 37.4766 119.415Z" fill="#593A01" stroke="#593A01" stroke-width="0.615378"/>
<path d="M36.875 114.787C36.8776 114.789 36.8812 114.794 36.8867 114.802C36.8872 114.807 36.8878 114.814 36.8857 114.822C36.8844 114.828 36.8812 114.831 36.8799 114.834C36.31 115.113 35.7408 115.394 35.1709 115.673C35.1442 115.686 35.1278 115.683 35.123 115.682C35.1204 115.681 35.1174 115.68 35.1143 115.678C35.1114 115.676 35.1073 115.671 35.1016 115.663C35.1012 115.658 35.1015 115.651 35.1035 115.643C35.1048 115.637 35.1061 115.633 35.1074 115.631C35.6777 115.351 36.2481 115.072 36.8184 114.793L36.8174 114.792C36.8444 114.779 36.8611 114.782 36.8662 114.783C36.869 114.784 36.872 114.785 36.875 114.787Z" fill="#593A01" stroke="#593A01" stroke-width="0.615378"/>
<path d="M34.7256 110.486V110.485C34.7297 110.484 34.7342 110.482 34.7383 110.48C34.7432 110.478 34.7471 110.477 34.75 110.476C34.7514 110.475 34.7555 110.474 34.7588 110.473C34.7597 110.472 34.7636 110.47 34.7686 110.469L34.7695 110.468C34.8006 110.456 34.832 110.443 34.8643 110.432C34.9578 110.398 35.0535 110.369 35.1494 110.344C35.1502 110.343 35.1512 110.343 35.1523 110.342C35.1569 110.338 35.1621 110.332 35.166 110.325C35.1685 110.321 35.1692 110.317 35.1699 110.314C35.1637 110.299 35.1554 110.289 35.1484 110.285C35.1448 110.283 35.1413 110.282 35.1387 110.281C35.1362 110.281 35.1319 110.282 35.126 110.283H35.125L34.8584 110.367C34.25 110.591 33.7225 111.013 33.3633 111.56C33.3632 111.563 33.3635 111.569 33.3652 111.575C33.3669 111.581 33.3691 111.586 33.3711 111.59C33.388 111.598 33.398 111.598 33.4033 111.597C33.4092 111.595 33.421 111.589 33.4336 111.57C33.4609 111.528 33.4896 111.488 33.5146 111.452L33.5195 111.444C33.5231 111.44 33.5267 111.435 33.5303 111.43C33.5323 111.426 33.534 111.424 33.5352 111.422C33.5383 111.417 33.5407 111.413 33.542 111.411C33.5435 111.409 33.5449 111.407 33.5459 111.405C33.5479 111.403 33.5502 111.4 33.5518 111.398C33.5534 111.396 33.555 111.394 33.5566 111.392C33.5599 111.387 33.5639 111.382 33.5674 111.378C33.569 111.376 33.5713 111.373 33.5732 111.371C33.575 111.369 33.5776 111.365 33.5811 111.361C33.5821 111.36 33.5844 111.358 33.5859 111.356C33.5874 111.355 33.5892 111.352 33.5918 111.35C33.5942 111.347 33.5986 111.342 33.6045 111.337C33.6052 111.336 33.6056 111.335 33.6064 111.334C33.655 111.276 33.7056 111.217 33.7607 111.16C33.8249 111.094 33.8938 111.027 33.9668 110.964H33.9678C33.9868 110.947 34.0055 110.931 34.0225 110.917C34.0339 110.907 34.0445 110.898 34.0547 110.89L34.0684 110.876C34.0702 110.874 34.0719 110.873 34.0732 110.872L34.0928 110.857C34.0946 110.856 34.0966 110.854 34.0986 110.853C34.1005 110.851 34.1027 110.849 34.1055 110.847C34.107 110.846 34.1099 110.844 34.1123 110.843C34.1144 110.841 34.1187 110.838 34.124 110.835C34.1254 110.834 34.1268 110.832 34.1289 110.831C34.1375 110.825 34.147 110.819 34.1562 110.812C34.3097 110.703 34.4718 110.607 34.6406 110.525L34.6426 110.524C34.6652 110.514 34.6887 110.503 34.709 110.494L34.7256 110.486ZM34.7256 110.486L34.7246 110.487C34.7222 110.489 34.7165 110.492 34.71 110.496M34.7256 110.486L34.8408 110.771C34.8394 110.771 34.8384 110.773 34.8369 110.773M34.71 110.496L34.8369 110.773M34.71 110.496C34.7066 110.498 34.7009 110.501 34.6943 110.506C34.6893 110.509 34.6737 110.52 34.6562 110.537C34.647 110.546 34.6251 110.571 34.6133 110.588C34.5962 110.617 34.566 110.702 34.5605 110.759C34.5654 110.796 34.5844 110.845 34.6084 110.891L34.7754 110.803L34.8369 110.773M34.71 110.496L34.8047 110.702L34.8369 110.773M33.5625 111.387L33.5635 111.385C33.5639 111.384 33.5652 111.383 33.5664 111.382C33.5645 111.384 33.5633 111.386 33.5625 111.387Z" fill="#593A01" stroke="#593A01" stroke-width="0.615378"/>
<path d="M69.1592 106.502C69.2367 106.498 69.3174 106.518 69.3867 106.554C69.4797 106.602 69.5601 106.687 69.5781 106.803C69.637 107.179 69.694 107.556 69.75 107.933C70.1985 110.95 70.5706 113.979 70.8633 117.016C71.155 120.052 71.368 123.096 71.502 126.144C71.6369 129.207 71.6926 132.273 71.667 135.338C71.6413 138.388 71.5369 141.437 71.3535 144.482C71.1701 147.528 70.9055 150.568 70.5635 153.599C70.5403 153.8 70.4046 153.996 70.1611 153.994C70.059 153.993 69.9534 153.946 69.877 153.875C69.8004 153.804 69.7466 153.7 69.7598 153.584C70.1424 150.192 70.4271 146.787 70.6113 143.379C70.9389 137.321 70.9524 131.248 70.6523 125.189C70.3514 119.1 69.735 113.027 68.7998 107.003C68.7694 106.804 68.8473 106.577 69.083 106.514L69.1592 106.502Z" fill="#593A01" stroke="#593A01" stroke-width="0.123076"/>
<path d="M61.3682 127.831C61.6219 127.771 61.8008 127.939 61.8525 128.127C61.8784 128.221 61.875 128.325 61.8311 128.415C61.7862 128.507 61.7018 128.578 61.5781 128.607C61.2025 128.698 60.9103 128.833 60.5859 129.063C59.5497 129.801 59.0023 131.234 59.3711 132.452C59.4078 132.574 59.3883 132.683 59.332 132.769C59.2768 132.852 59.189 132.909 59.0947 132.935C59.0004 132.96 58.895 132.957 58.8027 132.914C58.7092 132.871 58.6323 132.789 58.5957 132.668C58.4661 132.241 58.4193 131.783 58.4619 131.338C58.6143 129.731 59.7598 128.216 61.3682 127.831Z" fill="#593A01" stroke="#593A01" stroke-width="0.123076"/>
<path d="M61.8057 130.183C61.9631 130.04 62.2098 130.022 62.373 130.185L62.4219 130.245C62.5213 130.398 62.5168 130.624 62.3711 130.756C61.4963 131.545 61.128 132.79 61.4287 133.909C61.4616 134.032 61.4394 134.142 61.3818 134.227C61.3251 134.31 61.2368 134.367 61.1426 134.393C61.0483 134.418 60.9436 134.414 60.8525 134.371C60.7601 134.327 60.6854 134.245 60.6523 134.122C60.2771 132.726 60.7285 131.154 61.8057 130.183Z" fill="#593A01" stroke="#593A01" stroke-width="0.123076"/>
<path d="M88.9142 65.4928C90.0274 61.4035 88.6175 56.7358 85.4277 53.9454C83.939 52.6436 82.1072 51.7242 80.8446 50.2025C79.5828 48.6807 79.1212 46.1745 80.5811 44.8414C81.7016 43.8183 83.519 43.9342 84.8294 44.6994C86.1397 45.4646 87.0593 46.7373 87.9398 47.9728C87.0915 45.4975 89.4613 42.5413 92.0607 42.8296C94.1703 43.064 95.7684 45.0382 96.1842 47.12C96.6 49.2018 96.0688 51.3524 95.3831 53.3611C94.5851 55.6997 93.5731 57.9657 92.362 60.1198L88.9142 65.4928Z" fill="#FFC721"/>
<path d="M20.2167 87.6549C20.7254 88.6425 21.7046 89.1512 22.4024 88.7915C23.101 88.4316 23.2542 87.3393 22.7456 86.3517C22.2369 85.3641 21.2577 84.8554 20.559 85.2153C19.8615 85.5759 19.7081 86.6673 20.2167 87.6549Z" fill="#211500"/>
<path d="M5.13356 93.4613C5.69577 94.4194 6.70151 94.8735 7.37843 94.476C8.05623 94.0782 8.14905 92.9791 7.58684 92.021C7.02464 91.0629 6.01889 90.6088 5.34109 91.0066C4.66451 91.405 4.57136 92.5032 5.13356 93.4613Z" fill="#211500"/>
<path d="M35.0995 18.7837C35.0995 18.7837 33.104 17.475 31.2429 15.0384C29.3819 12.6019 25.5188 5.65421 28.636 3.89536C31.7532 2.13651 33.713 5.77085 36.0574 5.91439C38.402 6.05749 43.2955 4.98281 44.76 7.04704C46.2248 9.1112 47.1808 10.1594 49.0219 9.9485C50.8629 9.73759 52.103 10.5157 51.5123 12.8278C50.9217 15.1399 47.3482 18.0831 47.3482 18.0831C47.3482 18.0831 47.2238 20.5348 44.2784 21.3799C41.333 22.225 37.8892 23.3784 36.8819 22.6703C35.8749 21.9622 35.0995 18.7837 35.0995 18.7837Z" fill="#CCD308"/>
<path d="M30.7237 8.57564C30.7237 8.57564 20.5755 9.42547 15.3387 12.5154C10.102 15.6053 8.07281 19.81 7.64211 20.2201C7.21141 20.6302 -2.13628 25.1072 -0.856102 34.8454C0.424071 44.5835 6.4983 48.2116 11.5598 46.9936C16.6209 45.7757 17.1111 37.0681 12.5891 36.0992C8.06713 35.1303 7.50424 39.5814 7.8087 40.3655C8.1128 41.1496 8.20461 40.7148 8.6985 39.708C9.19238 38.7012 11.7176 37.3396 12.4885 38.8795C13.2593 40.419 12.2543 43.7755 8.84523 42.9474C5.43614 42.1192 4.65258 37.1496 6.14219 35.1315C7.63186 33.1138 9.87693 30.6292 14.9951 29.7363C20.1133 28.8434 25.3957 27.1684 30.6565 25.0788C35.9176 22.9891 37.9793 21.3735 37.6894 20.6707C37.399 19.9672 30.7237 8.57564 30.7237 8.57564Z" fill="#CCD308"/>
<path d="M13.9742 26.1356C13.9742 26.1356 14.4044 25.4574 17.0377 24.8333C19.6711 24.2092 22.2274 21.5694 23.1631 23.1614C24.0988 24.7534 22.6486 26.1856 23.8712 27.2201C25.0937 28.2543 26.0542 28.4161 27.3758 28.1303C28.6972 27.845 29.214 29.2355 27.6173 29.5141C26.0205 29.7927 24.9669 29.0991 23.9581 29.6041C22.9493 30.109 21.3599 31.3737 20.9106 30.6842C20.4614 29.9947 22.254 28.0094 21.7421 27.5912C21.2303 27.173 19.9547 27.0904 19.9547 27.0904C19.9547 27.0904 18.089 29.9152 16.092 30.099C14.0946 30.2828 12.8437 28.1425 13.9742 26.1356Z" fill="#CCD308"/>
<path d="M36.8813 22.6698C35.874 21.9618 35.0986 18.7837 35.0986 18.7837C35.0986 18.7837 33.1031 17.4749 31.242 15.0384C29.381 12.6018 25.5179 5.65415 28.6351 3.8953" stroke="#593A01" stroke-width="0.824262" stroke-miterlimit="22.9256" stroke-linecap="round" stroke-linejoin="round"/>
<path d="M33.1057 19.7824C34.1922 19.8272 35.0528 21.198 34.2503 21.9412C33.4477 22.6845 31.9108 22.6784 31.2745 23.1184C30.6381 23.5584 30.4623 23.8085 31.1342 24.514C31.8057 25.2195 32.2143 26.5193 33.2973 26.3304C34.3798 26.1415 36.2683 25.6474 36.8682 26.2558C37.468 26.8643 36.9476 27.3389 36.1931 27.4157C35.4386 27.4926 33.5429 27.9433 33.3729 27.913C33.2029 27.8827 33.4075 28.1111 32.5243 28.0782C31.6411 28.0452 31.636 27.7171 31.1316 27.8051C30.6272 27.8931 29.8221 28.3078 29.6736 27.4563C29.525 26.6048 30.7336 26.3801 29.7526 25.4339C28.7715 24.4877 26.6352 23.873 26.9513 22.2273C27.2671 20.582 31.835 19.7299 33.1057 19.7824Z" fill="#CCD308"/>
<path d="M13.9754 26.1361C13.9754 26.1361 14.4055 25.4578 17.0388 24.8337C19.6722 24.2096 22.2285 21.5698 23.1642 23.1618C24.0999 24.7539 22.6497 26.1861 23.8723 27.2206" stroke="#593A01" stroke-width="0.824262" stroke-miterlimit="22.9256" stroke-linecap="round" stroke-linejoin="round"/>
<path d="M21.744 27.5923C21.2322 27.1742 19.9566 27.0916 19.9566 27.0916C19.9566 27.0916 18.0909 29.9164 16.0939 30.1001" stroke="#593A01" stroke-width="0.824262" stroke-miterlimit="22.9256" stroke-linecap="round" stroke-linejoin="round"/>
<path d="M34.249 21.9404C33.4465 22.6837 31.9096 22.6776 31.2732 23.1176C30.6369 23.5576 30.4611 23.8077 31.133 24.5132" stroke="#593A01" stroke-width="0.824262" stroke-miterlimit="22.9256" stroke-linecap="round" stroke-linejoin="round"/>
<path d="M29.7535 25.4325C28.7724 24.4863 26.6361 23.8717 26.9522 22.226C27.2683 20.5802 31.8366 19.7284 33.1074 19.781" stroke="#593A01" stroke-width="0.824262" stroke-miterlimit="22.9256" stroke-linecap="round" stroke-linejoin="round"/>
<path fill-rule="evenodd" clip-rule="evenodd" d="M42.9305 13.7958C42.2154 14.0317 41.3495 13.3676 41.003 12.3173C40.6565 11.267 40.9571 10.218 41.6723 9.98208C42.3875 9.74613 43.2533 10.4102 43.5998 11.4605C43.9463 12.5108 43.6457 13.5598 42.9305 13.7958Z" fill="#211500"/>
<path d="M22.8225 13.1345C22.114 13.2581 21.4988 13.1241 21.4484 12.8351C21.3979 12.5461 21.9315 12.2117 22.64 12.0881C23.3485 11.9645 23.9637 12.0985 24.0141 12.3875C24.0645 12.6764 23.5311 13.0109 22.8225 13.1345Z" fill="#E5E881"/>
<path d="M18.2836 15.0866C17.6296 15.2007 17.0544 15.035 16.9989 14.7165C16.9433 14.398 17.4284 14.0473 18.0824 13.9332C18.7364 13.8191 19.3116 13.9848 19.3672 14.3033C19.4228 14.6218 18.9377 14.9725 18.2836 15.0866Z" fill="#E5E881"/>
<path d="M24.4938 15.7447C23.8424 15.8583 23.2803 15.7557 23.2384 15.5155C23.1965 15.2752 23.6906 14.9884 24.342 14.8747C24.9934 14.7611 25.5555 14.8637 25.5974 15.1039C25.6393 15.3442 25.1452 15.631 24.4938 15.7447Z" fill="#E5E881"/>
<path d="M16.589 19.0656C15.9624 19.1749 15.4155 19.0404 15.3674 18.7653C15.3194 18.4901 15.7885 18.1784 16.4152 18.069C17.0418 17.9597 17.5887 18.0942 17.6367 18.3693C17.6847 18.6445 17.2157 18.9562 16.589 19.0656Z" fill="#E5E881"/>
<path d="M12.4165 18.1814C11.817 18.286 11.3015 18.2016 11.2651 17.9929C11.2287 17.7842 11.6852 17.5303 12.2846 17.4257C12.8841 17.3211 13.3996 17.4055 13.436 17.6142C13.4724 17.8229 13.016 18.0768 12.4165 18.1814Z" fill="#E5E881"/>
<path d="M51.5117 12.8271C51.5117 12.8271 48.9295 14.7352 47.8566 14.4138" stroke="#593A01" stroke-width="0.824262" stroke-miterlimit="22.9256" stroke-linecap="round" stroke-linejoin="round"/>
<path d="M47.4473 12.0697C47.4473 12.0697 48.9384 14.7887 46.4368 15.6041" stroke="#593A01" stroke-width="0.824262" stroke-miterlimit="22.9256" stroke-linecap="round" stroke-linejoin="round"/>
<path d="M41.3343 19.3155C41.3343 19.3155 39.127 19.3 37.8687 16.6707C37.8687 16.6707 36.2301 23.0261 41.3343 19.3155Z" fill="#FF981C"/>
<path d="M67.3454 109.613C65.2681 114.355 61.9726 116.844 58.9739 115.181C55.9747 113.517 56.4954 108.631 59.0056 104.104C61.5157 99.5766 64.4222 98.2568 67.4214 99.9199C68.9214 100.751 71.246 104.047 71.0054 105.98C70.7635 107.913 69.7233 104.184 67.3454 109.613Z" fill="#6F685D"/>
<path d="M59.9792 106.638C59.9792 106.638 57.2748 111.353 57.6488 113.929L59.9792 106.638Z" fill="#6F685D"/>
<path d="M59.9792 106.638C59.9792 106.638 57.2748 111.353 57.6488 113.929" stroke="#211500" stroke-width="0.766079" stroke-miterlimit="10" stroke-linecap="round" stroke-linejoin="round"/>
<path d="M63.1997 108.426C63.1997 108.426 61.6743 111.972 62.4194 115.388L63.1997 108.426Z" fill="#6F685D"/>
<path d="M63.1997 108.426C63.1997 108.426 61.6743 111.972 62.4194 115.388" stroke="#211500" stroke-width="0.766079" stroke-miterlimit="10" stroke-linecap="round" stroke-linejoin="round"/>
<path d="M92.11 94.4179C92.11 94.4179 93.8985 88.8351 88.8979 81.278C88.8979 81.278 83.9241 82.455 78.8352 90.5172L92.11 94.4179Z" fill="#211500"/>
<path d="M99.47 101.156C99.47 101.156 104.873 98.8826 112.842 103.198C112.842 103.198 112.108 108.256 104.525 114.035L99.47 101.156Z" fill="#211500"/>
<path d="M101.143 127.234C103.609 123.699 101.313 117.802 101.313 117.802C101.313 117.802 104.106 123.156 105.556 118.491C107.006 113.825 104.219 104.542 96.2658 97.261C88.3122 89.9797 78.8194 88.0222 74.3004 89.8775C69.7813 91.7328 75.3599 94.0433 75.3599 94.0433C75.3599 94.0433 69.2837 92.2762 65.9801 95.0441C62.6762 97.8125 69.4955 102.787 69.4955 102.787C69.4955 102.787 68.8969 104.745 69.0279 106.843C69.1594 108.941 74.0639 114.23 77.6919 117.551C81.3199 120.872 87.0199 125.291 89.1213 125.238C91.2223 125.183 93.6666 124.784 93.6666 124.784C93.6666 124.784 98.676 130.768 101.143 127.234Z" fill="#C7C2BA"/>
<path d="M92.3462 95.9845C92.473 95.8766 92.6887 95.8338 92.8539 95.9852C94.308 97.3163 95.7619 98.6474 97.2159 99.9786L97.2656 100.023L97.264 100.024C97.334 100.093 97.3608 100.178 97.3539 100.262C97.3468 100.346 97.3064 100.425 97.2518 100.486C97.1972 100.546 97.1228 100.593 97.0399 100.609C96.9572 100.625 96.8694 100.607 96.7935 100.545L96.7928 100.547L96.7773 100.532C95.7433 99.6214 94.6001 98.8634 93.3797 98.2391C94.0914 99.1598 94.787 100.094 95.4982 101.009C95.5995 101.14 95.5832 101.318 95.5095 101.439C95.4718 101.501 95.4157 101.554 95.3438 101.581C95.2698 101.609 95.1858 101.607 95.1015 101.567C95.0796 101.557 95.0581 101.545 95.0362 101.535L95.0248 101.553L94.9957 101.515C94.4301 101.243 93.8804 100.939 93.3324 100.641C93.044 100.485 92.7559 100.329 92.4644 100.183C92.5227 100.303 92.5801 100.423 92.6395 100.54C92.8384 100.931 93.0563 101.304 93.3574 101.638L93.3589 101.64L93.358 101.639C93.3756 101.659 93.3926 101.679 93.4108 101.698C93.5358 101.83 93.5134 102.01 93.4326 102.13C93.3514 102.25 93.192 102.338 93.0218 102.263C92.9984 102.253 92.9752 102.243 92.9518 102.233L92.9489 102.238L92.9377 102.226C92.5604 102.062 92.1842 101.9 91.8188 101.716C91.9709 101.969 92.1374 102.209 92.3349 102.432L92.341 102.435L92.3395 102.437C92.3573 102.457 92.373 102.479 92.3914 102.498C92.5162 102.632 92.4954 102.809 92.4129 102.928C92.3307 103.047 92.1732 103.129 92.0051 103.065C91.9795 103.055 91.9533 103.047 91.9277 103.037L91.9273 103.038L91.9258 103.037C91.5624 102.902 91.1942 102.801 90.8197 102.706C90.9123 102.972 91.0232 103.214 91.23 103.459C91.4288 103.694 91.2441 104.062 90.9361 104.042C90.3087 104 89.7578 103.832 89.1694 103.645C89.0636 103.611 88.9923 103.542 88.9578 103.457C88.9244 103.374 88.9277 103.282 88.9557 103.203C88.9837 103.123 89.0386 103.049 89.1155 103.003C89.1944 102.956 89.293 102.941 89.3985 102.975C89.7044 103.072 89.983 103.159 90.2698 103.225C90.1396 102.926 90.0498 102.614 89.9456 102.286C89.8985 102.137 89.9645 102.015 90.0624 101.943C90.1564 101.873 90.2876 101.844 90.4013 101.873C90.6712 101.942 90.9419 102.006 91.2116 102.076C91.1824 102.028 91.1524 101.979 91.1241 101.93C90.9282 101.589 90.7556 101.251 90.5547 100.911L90.543 100.902L90.5465 100.898L90.5122 100.837C90.4151 100.675 90.4874 100.506 90.5987 100.412C90.7097 100.318 90.89 100.273 91.0339 100.389C91.3754 100.663 91.7436 100.882 92.1277 101.078C92.0984 101.023 92.0684 100.969 92.0402 100.914C91.8135 100.471 91.6181 100.025 91.3624 99.5915C91.2795 99.4509 91.3265 99.2972 91.4157 99.1994C91.5045 99.102 91.6532 99.0395 91.7992 99.0996C92.4183 99.3556 93.0085 99.6671 93.5921 99.9841C93.7249 100.056 93.8581 100.128 93.9905 100.2C93.308 99.3009 92.628 98.4026 91.9169 97.5259C91.8091 97.3929 91.8243 97.2176 91.9013 97.0973C91.9801 96.9741 92.1344 96.8928 92.3084 96.9655C92.3315 96.9752 92.3544 96.9861 92.3774 96.9959L92.3872 96.9827L92.4091 97.009C92.7612 97.1588 93.1087 97.3183 93.4512 97.4872C93.0775 97.145 92.7034 96.803 92.3297 96.4609C92.2478 96.3861 92.2134 96.2944 92.2231 96.2033C92.2326 96.1155 92.2821 96.039 92.3462 95.9845Z" fill="#6F685D" stroke="#6F685D" stroke-width="0.163421"/>
<path d="M78.9927 93.5517C74.8738 88.3727 72.8145 85.7822 72.8145 85.7822" stroke="#211500" stroke-width="0.766079" stroke-miterlimit="22.9256" stroke-linecap="round" stroke-linejoin="round"/>
<path d="M74.0761 98.1108C66.7462 95.5603 63.3197 94.2253 63.7944 94.1057" stroke="#211500" stroke-width="0.766079" stroke-miterlimit="22.9256" stroke-linecap="round" stroke-linejoin="round"/>
<path d="M98.913 113.911C104.001 118.142 106.546 120.257 106.546 120.257" stroke="#211500" stroke-width="0.766079" stroke-miterlimit="22.9256" stroke-linecap="round" stroke-linejoin="round"/>
<path d="M94.248 118.728C96.6386 126.111 97.8988 129.566 98.0286 129.094" stroke="#211500" stroke-width="0.766079" stroke-miterlimit="22.9256" stroke-linecap="round" stroke-linejoin="round"/>
<path d="M89.0286 132.254C84.9271 135.412 80.8407 136.009 79.0109 133.109C77.1812 130.208 79.9879 126.174 84.3663 123.412C88.7446 120.651 91.9272 120.892 93.7571 123.792C94.6719 125.242 95.125 129.25 93.9843 130.828C92.8441 132.408 93.7253 128.638 89.0286 132.254Z" fill="#6F685D"/>
<path d="M84.0006 126.104C84.0006 126.104 79.3613 128.937 78.4504 131.376L84.0006 126.104Z" fill="#6F685D"/>
<path d="M84.0006 126.104C84.0006 126.104 79.3613 128.937 78.4504 131.376" stroke="#211500" stroke-width="0.766079" stroke-miterlimit="10" stroke-linecap="round" stroke-linejoin="round"/>
<path d="M85.966 129.218C85.966 129.218 82.923 131.593 81.9328 134.947L85.966 129.218Z" fill="#6F685D"/>
<path d="M85.966 129.218C85.966 129.218 82.923 131.593 81.9328 134.947" stroke="#211500" stroke-width="0.766079" stroke-miterlimit="10" stroke-linecap="round" stroke-linejoin="round"/>
<path d="M84.3668 123.414C88.745 120.652 91.9277 120.893 93.7575 123.793C94.0453 124.249 94.2873 124.958 94.4485 125.765" fill="#6F685D"/>
<path d="M84.3668 123.414C88.745 120.652 91.9277 120.893 93.7575 123.793C94.0453 124.249 94.2873 124.958 94.4485 125.765" stroke="#211500" stroke-width="0.766079" stroke-miterlimit="10" stroke-linecap="round" stroke-linejoin="round"/>
<path d="M79.4593 102.312C78.5561 103.314 78.3466 104.598 78.9923 105.179C79.6373 105.761 80.8928 105.419 81.7961 104.417C82.6993 103.415 82.9085 102.131 82.2631 101.55C81.6179 100.969 80.3626 101.309 79.4593 102.312Z" fill="#211500"/>
<path d="M90.0589 112.016C89.1556 113.018 88.9462 114.302 89.5918 114.883C90.2368 115.465 91.4924 115.124 92.3956 114.121C93.2988 113.119 93.5083 111.835 92.8626 111.254C92.2177 110.672 90.9621 111.014 90.0589 112.016Z" fill="#211500"/>
<path d="M82.9934 111.439C83.9956 112.342 85.2796 112.552 85.8609 111.906C86.4424 111.261 86.1012 110.006 85.0989 109.102C84.0967 108.199 82.8126 107.99 82.2314 108.635C81.6499 109.28 81.9911 110.536 82.9934 111.439Z" fill="#211500"/>
<path d="M79.8301 108.623C79.8301 108.623 79.5459 110.104 80.555 111.026C81.7648 112.131 83.257 111.179 83.257 111.179C83.257 111.179 82.4649 112.761 83.6891 113.85C84.7103 114.758 86.1537 114.322 86.1537 114.322" stroke="#211500" stroke-width="0.871579" stroke-miterlimit="10" stroke-linecap="round" stroke-linejoin="round"/>
</svg>
