<svg width="22" height="18" viewBox="0 0 22 18" fill="none" xmlns="http://www.w3.org/2000/svg">
<path d="M9.25065 12.5L8.08398 8.41667M6.91732 2L4.58398 5.5M15.084 2L17.4173 5.5M12.7507 12.5L13.9173 8.41667M2.25065 5.5C2.93198 5.5 3.52232 5.97367 3.67048 6.63867L4.93865 12.346C5.32832 14.0972 5.52198 14.9733 6.16248 15.4867C6.80298 16 7.69898 16 9.49448 16H12.5068C14.3023 16 15.1995 16 15.8388 15.4867C16.4793 14.9733 16.673 14.0983 17.0638 12.346L18.3308 6.63867C18.479 5.97367 19.0693 5.5 19.7507 5.5M1.08398 5.5H20.9173" stroke="white" stroke-width="1.3"/>
</svg>
