<svg width="28" height="28" viewBox="0 0 28 28" fill="none" xmlns="http://www.w3.org/2000/svg">
<path d="M24.7089 8.18027L19.8209 3.2923C19.6788 3.15009 19.5099 3.03729 19.3242 2.96032C19.1384 2.88336 18.9392 2.84375 18.7381 2.84375C18.537 2.84375 18.3379 2.88336 18.1521 2.96032C17.9663 3.03729 17.7975 3.15009 17.6553 3.2923L4.16719 16.7793C4.02471 16.9213 3.91174 17.0901 3.83477 17.2759C3.75781 17.4618 3.71838 17.661 3.71875 17.8621V22.7501C3.71875 23.1562 3.88008 23.5457 4.16725 23.8329C4.45441 24.12 4.84389 24.2814 5.25 24.2814H23.625C23.7991 24.2814 23.966 24.2122 24.089 24.0891C24.2121 23.9661 24.2813 23.7992 24.2813 23.6251C24.2813 23.4511 24.2121 23.2841 24.089 23.1611C23.966 23.038 23.7991 22.9689 23.625 22.9689H12.0848L24.7089 10.3459C24.8511 10.2037 24.9639 10.0349 25.0409 9.8491C25.1178 9.66331 25.1575 9.46418 25.1575 9.26308C25.1575 9.06198 25.1178 8.86285 25.0409 8.67706C24.9639 8.49127 24.8511 8.32246 24.7089 8.18027ZM8.3661 20.5626L17.9375 10.9901L20.0725 13.1251L10.5 22.6965L8.3661 20.5626ZM7.4375 19.6351L5.3036 17.5001L14.875 7.9287L17.01 10.0626L7.4375 19.6351ZM5.03125 22.7501V19.0839L8.91625 22.9689H5.25C5.19199 22.9689 5.13635 22.9458 5.09532 22.9048C5.0543 22.8638 5.03125 22.8081 5.03125 22.7501ZM23.7803 9.4173L21 12.1976L15.8036 7.00011L18.5828 4.22089C18.6031 4.20055 18.6273 4.18442 18.6538 4.17341C18.6804 4.1624 18.7088 4.15674 18.7376 4.15674C18.7663 4.15674 18.7948 4.1624 18.8214 4.17341C18.8479 4.18442 18.872 4.20055 18.8923 4.22089L23.7803 9.10777C23.8007 9.12808 23.8168 9.15221 23.8278 9.17876C23.8388 9.20532 23.8445 9.23379 23.8445 9.26253C23.8445 9.29128 23.8388 9.31975 23.8278 9.3463C23.8168 9.37286 23.8007 9.39698 23.7803 9.4173Z" fill="#6F685D"/>
</svg>
