<svg width="100" height="100" viewBox="0 0 100 100" fill="none" xmlns="http://www.w3.org/2000/svg">
<rect width="100" height="100" rx="15" fill="#CCD308"/>
<path d="M52.5312 82.4951C52.5312 82.7753 52.4961 83.0417 52.4707 83.2324C52.4409 83.4556 52.4277 83.5562 52.4277 83.6279C52.4277 83.8818 52.3861 84.116 52.3604 84.2578C52.3452 84.3409 52.336 84.3867 52.3291 84.4316C52.3223 84.476 52.3252 84.4759 52.3252 84.4521V84.6445L52.2539 84.8232C52.0084 85.4371 51.6617 85.9994 51.1367 86.4033C50.5958 86.8194 49.9571 86.9971 49.2646 86.9971C46.8901 86.997 44.9463 86.0246 43.5215 84.125C42.191 82.351 41.3852 80.4227 41.2646 78.1494L41.1914 77.2012C41.0317 74.9662 40.9522 72.5763 40.9521 70.0322C40.9521 65.4665 41.2627 58.3322 41.8809 48.4424C42.0862 44.3365 42.2917 40.7412 42.4971 37.4531C42.6004 34.1462 42.7031 31.3864 42.7031 28.9346V27.9775H42.3643C41.9846 27.9775 41.5512 28.002 41.0518 28.0283C40.5808 28.0531 40.0616 28.0783 39.5361 28.0801C38.5019 28.183 37.3368 28.2819 36.167 28.4756C35.7695 28.5744 35.4441 28.6506 35.1699 28.7129C34.8785 28.7791 34.6621 28.8269 34.4697 28.875C33.9086 29.0153 33.1382 29.0078 32.4756 29.0078C29.0115 29.0077 25.9763 28.1386 23.585 26.0889L23.4316 25.958L23.3418 25.7773C22.9275 24.9488 22.6107 24.2889 22.3955 23.8047C22.2886 23.5641 22.2006 23.3537 22.1377 23.1807C22.1064 23.0946 22.0759 23.005 22.0527 22.918C22.0343 22.8487 22 22.7089 22 22.5488C22 21.7268 22.3431 20.9675 23.0137 20.2969L23.1924 20.1182L23.4336 20.0459C24.5054 19.7244 25.8787 19.4089 27.3223 19.0996C28.7926 18.7845 30.5787 18.4691 32.7812 18.2588L33.8389 18.1387C39.0395 17.5159 42.9807 16.5335 45.8193 15.0684L46.1875 14.8779L46.583 15.0049C49.03 15.7879 51.7012 16.0898 54.5176 16.0898C57.3257 16.0898 60.1225 15.79 63.1182 14.9912L63.2451 14.957H63.376C63.4479 14.957 63.597 14.9348 63.9277 14.8555C64.2149 14.7865 64.6461 14.6728 65.1162 14.5684C65.9038 14.3699 66.7645 14.0812 67.8262 13.7627L67.8711 13.751C69.5422 13.3332 71.1827 13 72.9551 13L73.1348 13.0098C73.3059 13.028 73.4472 13.0661 73.5068 13.0811C73.555 13.0931 73.5819 13.0997 73.5947 13.1025H74.2939C74.9185 13.1025 75.5527 13.2246 76.0527 13.5996C76.4413 13.8911 76.672 14.2797 76.7744 14.7041C77.4159 14.7846 78.0001 14.9597 78.4795 15.2793C79.2552 15.7964 79.6201 16.5927 79.6201 17.502V17.625L79.5898 17.7441C78.9241 20.4071 77.5104 22.2503 75.3799 22.792L75.3809 22.793C73.0796 23.4206 70.2689 24.0445 66.8506 24.666C63.6182 25.2537 59.4356 26.029 54.3174 26.8154C53.6312 35.1465 53.1378 42.7002 52.8389 49.4766V49.4834L52.8379 49.4912C52.4274 56.469 52.3252 62.9372 52.3252 68.6934V75.1816C52.3252 77.2131 52.4262 79.3527 52.5293 81.415L52.5312 81.4404V82.4951Z" fill="#211500" stroke="#211500" stroke-width="2"/>
</svg>
