<svg width="113" height="72" viewBox="0 0 113 72" fill="none" xmlns="http://www.w3.org/2000/svg">
<mask id="path-1-outside-1_1020_6565" maskUnits="userSpaceOnUse" x="-0.616211" y="6.40723" width="113" height="36" fill="black">
<rect fill="white" x="-0.616211" y="6.40723" width="113" height="36"/>
<path d="M13.498 38.8907C13.498 39.0801 13.4506 39.2695 13.4506 39.4115C13.4506 39.664 13.3719 39.9222 13.2239 40.1268C13.0436 40.3759 12.7998 40.5004 12.4564 40.5004C11.5095 40.5004 10.752 40.1217 10.1839 39.3642C9.61579 38.6067 9.28439 37.8018 9.23705 36.855C9.14236 35.7187 9.09501 34.4878 9.09501 33.1621C9.09501 31.079 9.23705 27.8123 9.52111 23.2673C9.61579 21.3736 9.71048 19.7166 9.80517 18.2016C9.85251 16.6866 9.89986 15.4083 9.89986 14.272V13.988C9.89986 13.6481 9.6243 13.3725 9.28439 13.3725C8.90564 13.3725 8.4322 13.4199 7.95877 13.4199C7.48533 13.4672 6.91721 13.5146 6.34908 13.6092C5.97034 13.7039 5.73362 13.7513 5.54424 13.7986C5.35487 13.846 5.07081 13.846 4.7394 13.846C3.41806 13.846 2.27679 13.5578 1.347 12.9188C1.0758 12.7324 0.874783 12.464 0.73161 12.1677C0.499729 11.6878 0.383789 11.4108 0.383789 11.3367C0.383789 11.2763 0.389972 11.2158 0.403127 11.1553C0.489959 10.756 0.919422 10.5626 1.31582 10.4635C1.66663 10.3759 2.05775 10.2882 2.46691 10.2005C3.12972 10.0585 3.93456 9.91644 4.92878 9.82175C7.05726 9.5937 8.78906 9.24359 10.1487 8.72243C10.7607 8.48782 11.4317 8.43239 12.0734 8.56603C12.9688 8.75249 13.9073 8.82754 14.8709 8.82754C16.0985 8.82754 17.3261 8.70573 18.6289 8.38693C18.8376 8.33588 19.0523 8.30619 19.2615 8.2575C19.4175 8.2212 19.6084 8.16929 19.842 8.11738C20.2208 8.02269 20.6469 7.88066 21.1203 7.73863C21.8778 7.54926 22.5879 7.40723 23.3454 7.40723C23.4401 7.40723 23.5348 7.45457 23.6295 7.45457C23.7242 7.45457 23.8662 7.45457 23.9609 7.45457C24.4343 7.45457 24.6711 7.64394 24.6711 7.97535C24.6711 8.07994 24.7562 8.16397 24.8606 8.16979C25.4933 8.20504 25.8502 8.42409 25.9314 8.82694C25.9565 8.9513 25.9349 9.07968 25.8995 9.20149C25.6017 10.2252 25.0552 10.8265 24.3397 11.0053C23.2981 11.2894 22.0198 11.5735 20.4575 11.8575C19.3168 12.0649 17.9237 12.3228 16.2783 12.5943C15.1495 12.7805 14.2821 13.7042 14.1932 14.8448C13.9429 18.0579 13.7585 21.0075 13.64 23.6934C13.4506 26.9128 13.4033 29.8954 13.4033 32.5467C13.4033 33.5882 13.4033 34.5825 13.4033 35.5293C13.4033 36.4762 13.4506 37.4704 13.498 38.4173V38.8907Z"/>
<path d="M19.2894 30.5583C19.2894 29.422 19.4315 28.2384 19.7155 27.0548C19.9996 25.8712 20.473 24.7823 21.0885 23.8355C21.6566 22.8886 22.4141 22.1311 23.3136 21.563C24.1658 20.9948 25.2074 20.6634 26.391 20.6634C27.1958 20.6634 27.906 20.8055 28.5214 21.0422C29.1369 21.3262 29.6577 21.6577 30.0838 22.0364C30.4625 22.4625 30.7939 22.9359 30.9833 23.4567C31.1727 23.9775 31.3147 24.4983 31.3147 25.0664C31.3147 25.8239 31.1727 26.534 30.8886 27.1969C30.6045 27.8597 30.2258 28.4751 29.7524 28.9959C29.2316 29.564 28.6161 29.9901 27.8586 30.3215C27.1011 30.6529 26.2963 30.8423 25.3494 30.8423C24.9624 30.8853 24.6144 30.8893 24.341 30.8187C24.2869 30.8047 24.2327 30.7913 24.1775 30.7823C23.989 30.7516 23.7869 30.7062 23.5796 30.6462C23.3595 30.5825 23.1243 30.7079 23.1243 30.937V31.1737C23.1243 32.3573 23.3136 33.2568 23.6924 33.9196C24.0238 34.5825 24.4025 35.1032 24.8286 35.4346C25.2074 35.7661 25.6335 35.9554 26.0122 36.0501C26.391 36.1448 26.6277 36.1921 26.7697 36.1921C27.7166 36.1921 28.5214 36.0028 29.1842 35.5293C29.7152 35.188 30.2765 34.8163 30.8925 34.3899C31.1763 34.1935 31.5741 34.144 31.8828 34.2984C31.9919 34.3529 32.0853 34.4232 32.181 34.5091C32.3286 34.6416 32.3969 34.8705 32.449 35.0619C32.4795 35.1739 32.5014 35.2583 32.5182 35.3732C32.5312 35.4619 32.5456 35.5666 32.5456 35.6714C32.4983 36.1448 32.3563 36.5235 32.1669 36.8076C31.9775 37.0917 31.7408 37.3757 31.5041 37.5651C30.6519 38.2753 29.8944 38.7487 29.1842 38.9381C28.4741 39.1274 27.5746 39.2221 26.4383 39.2221C25.9175 39.2221 25.3021 39.1274 24.5446 38.8907C23.7871 38.7014 23.1716 38.4646 22.6982 38.1806C21.9407 37.6125 21.3252 37.0443 20.8991 36.4762C20.473 35.9081 20.1416 35.34 19.9049 34.6771C19.6682 34.0617 19.5261 33.3989 19.4315 32.7361C19.3368 32.0732 19.2894 31.3158 19.2894 30.5583ZM23.4647 27.4242C23.4205 27.7726 23.6252 28.0964 23.9764 28.0964C24.2605 28.0964 24.4499 28.0964 24.6393 28.0964C25.6808 28.0964 26.533 27.8597 27.1011 27.2915C27.6692 26.7708 28.0007 26.108 28.0007 25.3505C28.0007 24.9244 27.8586 24.4983 27.6219 24.1195C27.3378 23.7408 27.0064 23.5514 26.5803 23.5514C26.3209 23.5514 26.0615 23.5804 25.8248 23.6157C25.6973 23.6347 25.5705 23.6631 25.4529 23.7161C25.2496 23.808 25.0814 23.935 24.9707 24.1195C24.8286 24.3089 24.6866 24.4509 24.5446 24.593C24.3552 24.7823 24.2132 24.9717 24.0711 25.2558C23.9291 25.5398 23.7871 25.9186 23.6924 26.3447C23.5936 26.6411 23.5177 27.0063 23.4647 27.4242Z"/>
<path d="M35.1137 25.1611C35.1137 24.3089 35.1137 23.5041 35.2083 22.6992C35.2496 22.0383 35.363 21.3414 35.5799 20.6713C35.6429 20.4768 35.7484 20.3034 35.9185 20.19C36.0259 20.1184 36.1605 20.0738 36.3016 20.0154C36.3934 19.9774 36.4883 19.9586 36.5813 19.9237C36.6743 19.8888 36.7757 19.8588 36.8724 19.836C36.8947 19.8307 36.9182 19.8247 36.9431 19.8182C37.079 19.7825 37.2212 19.7767 37.3575 19.8109C37.7734 19.9153 38.2189 20.089 38.6644 20.332C39.1379 20.6634 39.4219 21.1369 39.4219 21.705C39.4219 22.2258 39.3746 22.6992 39.2799 23.078C39.1852 23.4567 39.1379 23.9301 39.1379 24.4509C39.1379 25.3978 39.0905 26.108 38.9958 26.5814C38.9011 27.1022 38.9011 27.5756 38.9011 28.0017C38.9011 29.5167 38.9485 30.937 39.0432 32.2153C39.0628 32.4803 39.0804 32.7312 39.0968 32.9681C39.1796 34.1635 40.2091 34.7768 40.9369 33.825C41.5524 33.0201 42.1679 32.0259 42.7833 30.8897C43.3514 29.7534 43.9196 28.5698 44.4403 27.2915C44.9138 26.0606 45.3399 24.9244 45.6713 23.9301C45.766 23.5514 45.8133 23.1253 45.8133 22.6992C45.8133 22.3205 45.8607 21.9417 45.9553 21.6103C46.05 21.2789 46.2394 20.9948 46.5708 20.7581C46.8871 20.5774 47.4192 20.4397 48.1668 20.4276C48.2361 20.4265 48.3006 20.4741 48.3699 20.4741C48.3699 20.4741 48.4172 20.4741 48.4646 20.4741C48.667 20.4741 48.9042 20.578 49.2056 20.7562C49.3119 20.8191 49.4116 20.8927 49.5039 20.9749C49.5092 20.9796 49.5145 20.9843 49.5197 20.989C49.9376 21.3628 50.1236 21.9159 50.1149 22.4764C50.0916 23.9574 50.0119 25.1363 49.9322 26.0133C49.8375 27.0548 49.7902 27.9544 49.7902 28.7119C49.7902 30.2268 49.8849 31.5525 50.0742 32.6414C50.2636 33.7303 50.6424 34.5825 51.1158 35.2453C51.275 35.4443 51.4008 35.6434 51.5494 35.8143C51.6054 35.8786 51.6537 35.9292 51.7024 35.9992C51.9601 36.3693 52.0383 36.8823 51.8041 37.2678C51.7812 37.3055 51.757 37.3414 51.7313 37.3757C51.5892 37.5651 51.4472 37.6598 51.2578 37.7545C51.133 37.8169 50.9876 37.8587 50.8488 37.88C50.7125 37.9009 50.5617 37.9124 50.4266 37.9399C50.1229 38.0018 49.8191 38.0157 49.5238 37.9218C49.0221 37.7622 48.6059 37.517 48.2752 37.1864C47.8491 36.8076 47.5177 36.2868 47.2336 35.7187C46.9496 35.1506 46.7602 34.4878 46.6655 33.7776C46.5497 33.1989 46.4654 32.5886 46.3869 31.9726C46.3709 31.8468 46.2015 31.8178 46.1447 31.9312C45.8607 32.4993 45.5293 33.2095 45.1032 34.0617C44.6771 34.9612 44.2036 35.8134 43.6355 36.6656C43.0674 37.5178 42.4046 38.2279 41.6471 38.8434C40.8896 39.4589 40.1321 39.7429 39.2799 39.7429C38.333 39.7429 37.6229 39.6009 37.0547 39.2221C36.4866 38.8434 36.0605 38.2753 35.7765 37.4231C35.4924 36.6182 35.2557 35.5767 35.161 34.2511C35.0663 32.9728 35.019 31.3631 35.019 29.4693C35.0663 29.0433 35.1137 28.6172 35.1137 28.1437V25.1611ZM36.2344 11.5355C36.2113 11.3722 36.2027 11.205 36.2405 11.0444C36.3424 10.611 36.62 10.3139 37.1021 10.1532C37.3666 10.057 37.6311 9.98522 37.8956 9.93168C38.3913 9.83134 38.9372 9.92784 39.2494 10.3258C39.3321 10.4313 39.406 10.5473 39.4693 10.6739C39.6586 11.1 39.848 11.5261 40.0847 11.9522C40.2741 12.3783 40.5582 12.7571 40.9369 13.0885C41.3157 13.4199 41.8364 13.5619 42.5466 13.5619C43.6355 13.4199 44.6297 12.9464 45.5766 12.1416C46.5235 11.3841 47.5177 10.1058 48.6066 8.40144C48.796 8.11738 48.9853 7.92801 49.2694 7.78598C49.5535 7.64394 49.7428 7.54926 49.8375 7.54926C50.2636 7.54926 50.6897 7.69129 51.0685 7.92801C51.4472 8.16472 51.6366 8.44879 51.6839 8.82754C51.6839 9.1116 51.5892 9.39566 51.3999 9.72706C51.2951 9.93664 51.1903 10.1027 51.0935 10.2334C50.9629 10.4097 50.8245 10.5816 50.713 10.7707C50.0109 11.9614 49.3087 12.914 48.6066 13.7039C47.8491 14.5561 47.0916 15.2663 46.3341 15.787C45.5766 16.3552 44.7718 16.7339 43.9669 16.9706C43.2737 17.2153 42.5806 17.3546 41.8572 17.449C41.6239 17.4795 41.3867 17.4732 41.1571 17.4222C39.7106 17.1012 38.5547 16.4141 37.7649 15.361C36.9565 14.328 36.4463 13.0394 36.2344 11.5355Z"/>
<path d="M52.5457 38.6442C52.5457 38.5249 52.5593 38.4059 52.5861 38.2897L52.6145 38.1665C52.6624 37.9591 52.7676 37.7694 52.9181 37.6189L53.0326 37.5044C53.1164 37.4205 53.2233 37.3633 53.3396 37.3401C53.3784 37.3323 53.4179 37.3289 53.4572 37.324C53.5512 37.3122 53.6882 37.281 53.9187 37.281C54.2974 37.281 54.6288 37.3757 54.8182 37.5178C55.0076 37.6598 55.1496 37.7071 55.339 37.7071C55.6231 37.7071 55.9545 37.6124 56.2385 37.4231C56.5226 37.2337 56.7593 36.997 56.996 36.7129C57.2327 36.4289 57.4695 36.1448 57.6588 35.8134C57.8482 35.482 57.9902 35.1506 58.1796 34.8665L58.4163 34.4404L59.1265 33.1148C59.3632 32.6887 59.6473 32.1206 59.9313 31.4104C60.2154 30.7476 60.5941 29.8954 60.9729 28.9012C61.399 27.8123 61.7304 26.9128 61.9671 26.2026C62.1587 25.6661 62.3814 25.1605 62.6351 24.7111C62.752 24.5041 62.8561 24.2882 62.9034 24.0551C62.9354 23.8978 62.9604 23.7404 62.9836 23.583C63.0006 23.4674 63.006 23.3504 63.0192 23.2344C63.0355 23.0919 63.0704 22.9308 63.124 22.7509C63.2196 22.4305 63.4091 22.1442 63.6712 21.9365C63.953 21.7131 64.2637 21.5197 64.6183 21.3262C65.0918 21.0895 65.5652 20.9475 66.0387 20.9475C66.393 20.9475 66.7147 21.0457 67.0036 21.215C67.1209 21.2838 67.2267 21.3719 67.3089 21.4802C67.5194 21.7575 67.6641 22.1389 67.743 22.6519C67.8377 23.4094 67.9324 24.0248 68.0744 24.5456C68.1691 25.1137 68.3111 25.5872 68.4058 25.9659C68.5005 26.392 68.5479 26.7708 68.6425 27.1022C68.7372 27.4809 68.7846 27.8123 68.7846 28.1437V28.2463C68.7846 28.4611 68.8125 28.6751 68.8683 28.8825C69.2126 30.1645 69.5194 31.2406 69.8261 32.0732C70.1102 33.0201 70.3943 33.7776 70.631 34.3931C70.8677 35.0086 71.0571 35.5293 71.1991 35.9554C71.3411 36.4289 71.4358 36.855 71.4358 37.3284V37.3538C71.4358 37.6192 71.393 37.883 71.3277 38.1402C71.3164 38.1848 71.3051 38.23 71.2938 38.2753C71.2704 38.3689 71.2354 38.4858 71.1945 38.6144C71.1063 38.892 70.9729 39.1601 70.7492 39.3466C70.6427 39.4353 70.5362 39.5062 70.4416 39.5535C70.31 39.6062 70.1931 39.6588 70.0826 39.7033C69.9155 39.7706 69.7473 39.8394 69.5743 39.8895C69.4756 39.918 69.3833 39.9323 69.3054 39.9323C69.116 39.9323 69.0213 39.9323 69.0213 39.9323C68.7372 39.9323 68.4532 39.8376 68.2638 39.6482C68.0271 39.4589 67.8377 39.1748 67.6483 38.8434C67.459 38.5593 67.3643 38.2279 67.2696 37.8965C67.2327 37.7859 67.203 37.6753 67.1805 37.5647C67.1116 37.2262 67.0544 36.8814 66.9156 36.5651C66.627 35.907 66.3811 35.3167 66.228 34.8192C65.9913 34.2037 65.8019 33.5882 65.6599 33.0201C65.4705 32.452 65.3285 31.7892 65.1865 31.1264C65.0278 30.3859 64.0321 30.3346 63.8301 31.0644C63.7489 31.3576 63.6803 31.6311 63.6241 31.8839C63.4347 32.7834 63.1033 33.6829 62.6773 34.5351C62.2512 35.2926 61.8251 36.0028 61.399 36.7129C60.9729 37.4704 60.4995 38.1332 59.9787 38.7014C59.4105 39.3168 58.7951 39.8376 58.0849 40.2637C57.3748 40.6898 56.5699 40.9738 55.6231 41.0685L54.2397 41.1499C54.0891 41.1588 53.937 41.1583 53.7904 41.1227C53.5031 41.053 53.246 40.9167 53.0192 40.6898C52.6878 40.4057 52.5457 39.8376 52.5457 38.8907V38.6442Z"/>
<path d="M72.8887 38.6442C72.8887 38.5249 72.9022 38.4059 72.9291 38.2897L72.9575 38.1665C73.0053 37.9591 73.1105 37.7694 73.261 37.6189L73.3755 37.5044C73.4594 37.4205 73.5662 37.3633 73.6825 37.3401C73.7213 37.3323 73.7609 37.3289 73.8001 37.324C73.8942 37.3122 74.0312 37.281 74.2617 37.281C74.6404 37.281 74.9718 37.3757 75.1612 37.5178C75.3505 37.6598 75.4926 37.7071 75.682 37.7071C75.966 37.7071 76.2974 37.6124 76.5815 37.4231C76.8655 37.2337 77.1023 36.997 77.339 36.7129C77.5757 36.4289 77.8124 36.1448 78.0018 35.8134C78.1912 35.482 78.3332 35.1506 78.5226 34.8665L78.7593 34.4404L79.4694 33.1148C79.7062 32.6887 79.9902 32.1206 80.2743 31.4104C80.5583 30.7476 80.9371 29.8954 81.3158 28.9012C81.7419 27.8123 82.0733 26.9128 82.3101 26.2026C82.5017 25.6661 82.7243 25.1605 82.978 24.7111C83.0949 24.5041 83.1991 24.2882 83.2464 24.0551C83.2784 23.8978 83.3034 23.7404 83.3266 23.583C83.3436 23.4674 83.349 23.3504 83.3622 23.2344C83.3784 23.0919 83.4134 22.9308 83.467 22.7509C83.5625 22.4305 83.7521 22.1442 84.0141 21.9365C84.2959 21.7131 84.6067 21.5197 84.9613 21.3262C85.4347 21.0895 85.9082 20.9475 86.3816 20.9475C86.736 20.9475 87.0576 21.0457 87.3465 21.215C87.4639 21.2838 87.5697 21.3719 87.6519 21.4802C87.8624 21.7575 88.0071 22.1389 88.086 22.6519C88.1807 23.4094 88.2753 24.0248 88.4174 24.5456C88.5121 25.1137 88.6541 25.5872 88.7488 25.9659C88.8435 26.392 88.8908 26.7708 88.9855 27.1022C89.0802 27.4809 89.1275 27.8123 89.1275 28.1437V28.2463C89.1275 28.4611 89.1555 28.6751 89.2112 28.8825C89.5555 30.1645 89.8623 31.2406 90.1691 32.0732C90.4532 33.0201 90.7372 33.7776 90.9739 34.3931C91.2107 35.0086 91.4 35.5293 91.5421 35.9554C91.6841 36.4289 91.7788 36.855 91.7788 37.3284V37.3538C91.7788 37.6192 91.7359 37.883 91.6707 38.1402C91.6594 38.1848 91.6481 38.23 91.6368 38.2753C91.6133 38.3689 91.5783 38.4858 91.5375 38.6144C91.4492 38.892 91.3159 39.1601 91.0921 39.3466C90.9857 39.4353 90.8792 39.5062 90.7846 39.5535C90.653 39.6062 90.536 39.6588 90.4256 39.7033C90.2585 39.7706 90.0903 39.8394 89.9172 39.8895C89.8186 39.918 89.7263 39.9323 89.6483 39.9323C89.4589 39.9323 89.3643 39.9323 89.3643 39.9323C89.0802 39.9323 88.7961 39.8376 88.6068 39.6482C88.37 39.4589 88.1807 39.1748 87.9913 38.8434C87.8019 38.5593 87.7072 38.2279 87.6125 37.8965C87.5757 37.7859 87.546 37.6753 87.5235 37.5647C87.4546 37.2262 87.3974 36.8814 87.2586 36.5651C86.9699 35.907 86.7241 35.3167 86.571 34.8192C86.3343 34.2037 86.1449 33.5882 86.0029 33.0201C85.8135 32.452 85.6714 31.7892 85.5294 31.1264C85.3707 30.3859 84.3751 30.3346 84.173 31.0644C84.0919 31.3576 84.0232 31.6311 83.9671 31.8839C83.7777 32.7834 83.4463 33.6829 83.0202 34.5351C82.5941 35.2926 82.168 36.0028 81.7419 36.7129C81.3158 37.4704 80.8424 38.1332 80.3216 38.7014C79.7535 39.3168 79.138 39.8376 78.4279 40.2637C77.7177 40.6898 76.9129 40.9738 75.966 41.0685L74.5826 41.1499C74.4321 41.1588 74.2799 41.1583 74.1334 41.1227C73.8461 41.053 73.589 40.9167 73.3621 40.6898C73.0307 40.4057 72.8887 39.8376 72.8887 38.8907V38.6442Z"/>
<path d="M95.1254 25.1611C95.1254 24.3089 95.1254 23.5041 95.2201 22.6992C95.2614 22.0383 95.3748 21.3414 95.5917 20.6713C95.6546 20.4768 95.7601 20.3034 95.9302 20.19C96.0377 20.1184 96.1722 20.0738 96.3133 20.0154C96.4051 19.9774 96.5 19.9586 96.593 19.9237C96.6861 19.8888 96.7874 19.8588 96.8841 19.8359C96.9064 19.8307 96.93 19.8247 96.9548 19.8182C97.0907 19.7825 97.233 19.7767 97.3692 19.8109C97.7851 19.9153 98.2306 20.089 98.6761 20.332C99.1496 20.6634 99.4337 21.1369 99.4337 21.705C99.4337 22.2258 99.3863 22.6992 99.2916 23.078C99.1969 23.4567 99.1496 23.9301 99.1496 24.4509C99.1496 25.3978 99.1022 26.108 99.0076 26.5814C98.9129 27.1022 98.9129 27.5756 98.9129 28.0017C98.9129 29.5167 98.9602 30.937 99.0549 32.2153C99.0745 32.4803 99.0921 32.7312 99.1085 32.9681C99.1913 34.1635 100.221 34.7768 100.949 33.825C101.564 33.0201 102.18 32.0259 102.795 30.8897C103.363 29.7534 103.931 28.5698 104.452 27.2915C104.926 26.0606 105.352 24.9244 105.683 23.9301C105.778 23.5514 105.825 23.1253 105.825 22.6992C105.825 22.3205 105.872 21.9417 105.967 21.6103C106.062 21.2789 106.251 20.9948 106.583 20.7581C106.899 20.5774 107.431 20.4397 108.179 20.4276C108.248 20.4265 108.312 20.4741 108.382 20.4741C108.382 20.4741 108.429 20.4741 108.476 20.4741C108.679 20.4741 108.916 20.578 109.217 20.7562C109.324 20.8191 109.423 20.8927 109.516 20.9749C109.521 20.9796 109.526 20.9843 109.531 20.989C109.949 21.3628 110.135 21.9159 110.127 22.4764C110.103 23.9574 110.024 25.1363 109.944 26.0133C109.849 27.0548 109.802 27.9544 109.802 28.7119C109.802 30.2268 109.897 31.5525 110.086 32.6414C110.275 33.7303 110.654 34.5825 111.128 35.2453C111.287 35.4443 111.413 35.6434 111.561 35.8143C111.617 35.8786 111.665 35.9292 111.714 35.9992C111.972 36.3693 112.05 36.8823 111.816 37.2678C111.793 37.3055 111.769 37.3414 111.743 37.3757C111.601 37.5651 111.459 37.6598 111.27 37.7545C111.145 37.8169 110.999 37.8587 110.86 37.88C110.724 37.9009 110.573 37.9124 110.438 37.9399C110.135 38.0018 109.831 38.0157 109.536 37.9218C109.034 37.7622 108.618 37.517 108.287 37.1864C107.861 36.8076 107.529 36.2868 107.245 35.7187C106.961 35.1506 106.772 34.4878 106.677 33.7776C106.561 33.1989 106.477 32.5886 106.399 31.9726C106.383 31.8468 106.213 31.8178 106.156 31.9312C105.872 32.4993 105.541 33.2095 105.115 34.0617C104.689 34.9612 104.215 35.8134 103.647 36.6656C103.079 37.5178 102.416 38.2279 101.659 38.8434C100.901 39.4589 100.144 39.7429 99.2916 39.7429C98.3447 39.7429 97.6346 39.6009 97.0665 39.2221C96.4983 38.8434 96.0723 38.2753 95.7882 37.4231C95.5041 36.6182 95.2674 35.5767 95.1727 34.2511C95.078 32.9728 95.0307 31.3631 95.0307 29.4693C95.078 29.0433 95.1254 28.6172 95.1254 28.1437V25.1611Z"/>
</mask>
<path d="M13.498 38.8907C13.498 39.0801 13.4506 39.2695 13.4506 39.4115C13.4506 39.664 13.3719 39.9222 13.2239 40.1268C13.0436 40.3759 12.7998 40.5004 12.4564 40.5004C11.5095 40.5004 10.752 40.1217 10.1839 39.3642C9.61579 38.6067 9.28439 37.8018 9.23705 36.855C9.14236 35.7187 9.09501 34.4878 9.09501 33.1621C9.09501 31.079 9.23705 27.8123 9.52111 23.2673C9.61579 21.3736 9.71048 19.7166 9.80517 18.2016C9.85251 16.6866 9.89986 15.4083 9.89986 14.272V13.988C9.89986 13.6481 9.6243 13.3725 9.28439 13.3725C8.90564 13.3725 8.4322 13.4199 7.95877 13.4199C7.48533 13.4672 6.91721 13.5146 6.34908 13.6092C5.97034 13.7039 5.73362 13.7513 5.54424 13.7986C5.35487 13.846 5.07081 13.846 4.7394 13.846C3.41806 13.846 2.27679 13.5578 1.347 12.9188C1.0758 12.7324 0.874783 12.464 0.73161 12.1677C0.499729 11.6878 0.383789 11.4108 0.383789 11.3367C0.383789 11.2763 0.389972 11.2158 0.403127 11.1553C0.489959 10.756 0.919422 10.5626 1.31582 10.4635C1.66663 10.3759 2.05775 10.2882 2.46691 10.2005C3.12972 10.0585 3.93456 9.91644 4.92878 9.82175C7.05726 9.5937 8.78906 9.24359 10.1487 8.72243C10.7607 8.48782 11.4317 8.43239 12.0734 8.56603C12.9688 8.75249 13.9073 8.82754 14.8709 8.82754C16.0985 8.82754 17.3261 8.70573 18.6289 8.38693C18.8376 8.33588 19.0523 8.30619 19.2615 8.2575C19.4175 8.2212 19.6084 8.16929 19.842 8.11738C20.2208 8.02269 20.6469 7.88066 21.1203 7.73863C21.8778 7.54926 22.5879 7.40723 23.3454 7.40723C23.4401 7.40723 23.5348 7.45457 23.6295 7.45457C23.7242 7.45457 23.8662 7.45457 23.9609 7.45457C24.4343 7.45457 24.6711 7.64394 24.6711 7.97535C24.6711 8.07994 24.7562 8.16397 24.8606 8.16979C25.4933 8.20504 25.8502 8.42409 25.9314 8.82694C25.9565 8.9513 25.9349 9.07968 25.8995 9.20149C25.6017 10.2252 25.0552 10.8265 24.3397 11.0053C23.2981 11.2894 22.0198 11.5735 20.4575 11.8575C19.3168 12.0649 17.9237 12.3228 16.2783 12.5943C15.1495 12.7805 14.2821 13.7042 14.1932 14.8448C13.9429 18.0579 13.7585 21.0075 13.64 23.6934C13.4506 26.9128 13.4033 29.8954 13.4033 32.5467C13.4033 33.5882 13.4033 34.5825 13.4033 35.5293C13.4033 36.4762 13.4506 37.4704 13.498 38.4173V38.8907Z" fill="#F8F8F8"/>
<path d="M19.2894 30.5583C19.2894 29.422 19.4315 28.2384 19.7155 27.0548C19.9996 25.8712 20.473 24.7823 21.0885 23.8355C21.6566 22.8886 22.4141 22.1311 23.3136 21.563C24.1658 20.9948 25.2074 20.6634 26.391 20.6634C27.1958 20.6634 27.906 20.8055 28.5214 21.0422C29.1369 21.3262 29.6577 21.6577 30.0838 22.0364C30.4625 22.4625 30.7939 22.9359 30.9833 23.4567C31.1727 23.9775 31.3147 24.4983 31.3147 25.0664C31.3147 25.8239 31.1727 26.534 30.8886 27.1969C30.6045 27.8597 30.2258 28.4751 29.7524 28.9959C29.2316 29.564 28.6161 29.9901 27.8586 30.3215C27.1011 30.6529 26.2963 30.8423 25.3494 30.8423C24.9624 30.8853 24.6144 30.8893 24.341 30.8187C24.2869 30.8047 24.2327 30.7913 24.1775 30.7823C23.989 30.7516 23.7869 30.7062 23.5796 30.6462C23.3595 30.5825 23.1243 30.7079 23.1243 30.937V31.1737C23.1243 32.3573 23.3136 33.2568 23.6924 33.9196C24.0238 34.5825 24.4025 35.1032 24.8286 35.4346C25.2074 35.7661 25.6335 35.9554 26.0122 36.0501C26.391 36.1448 26.6277 36.1921 26.7697 36.1921C27.7166 36.1921 28.5214 36.0028 29.1842 35.5293C29.7152 35.188 30.2765 34.8163 30.8925 34.3899C31.1763 34.1935 31.5741 34.144 31.8828 34.2984C31.9919 34.3529 32.0853 34.4232 32.181 34.5091C32.3286 34.6416 32.3969 34.8705 32.449 35.0619C32.4795 35.1739 32.5014 35.2583 32.5182 35.3732C32.5312 35.4619 32.5456 35.5666 32.5456 35.6714C32.4983 36.1448 32.3563 36.5235 32.1669 36.8076C31.9775 37.0917 31.7408 37.3757 31.5041 37.5651C30.6519 38.2753 29.8944 38.7487 29.1842 38.9381C28.4741 39.1274 27.5746 39.2221 26.4383 39.2221C25.9175 39.2221 25.3021 39.1274 24.5446 38.8907C23.7871 38.7014 23.1716 38.4646 22.6982 38.1806C21.9407 37.6125 21.3252 37.0443 20.8991 36.4762C20.473 35.9081 20.1416 35.34 19.9049 34.6771C19.6682 34.0617 19.5261 33.3989 19.4315 32.7361C19.3368 32.0732 19.2894 31.3158 19.2894 30.5583ZM23.4647 27.4242C23.4205 27.7726 23.6252 28.0964 23.9764 28.0964C24.2605 28.0964 24.4499 28.0964 24.6393 28.0964C25.6808 28.0964 26.533 27.8597 27.1011 27.2915C27.6692 26.7708 28.0007 26.108 28.0007 25.3505C28.0007 24.9244 27.8586 24.4983 27.6219 24.1195C27.3378 23.7408 27.0064 23.5514 26.5803 23.5514C26.3209 23.5514 26.0615 23.5804 25.8248 23.6157C25.6973 23.6347 25.5705 23.6631 25.4529 23.7161C25.2496 23.808 25.0814 23.935 24.9707 24.1195C24.8286 24.3089 24.6866 24.4509 24.5446 24.593C24.3552 24.7823 24.2132 24.9717 24.0711 25.2558C23.9291 25.5398 23.7871 25.9186 23.6924 26.3447C23.5936 26.6411 23.5177 27.0063 23.4647 27.4242Z" fill="#F8F8F8"/>
<path d="M35.1137 25.1611C35.1137 24.3089 35.1137 23.5041 35.2083 22.6992C35.2496 22.0383 35.363 21.3414 35.5799 20.6713C35.6429 20.4768 35.7484 20.3034 35.9185 20.19C36.0259 20.1184 36.1605 20.0738 36.3016 20.0154C36.3934 19.9774 36.4883 19.9586 36.5813 19.9237C36.6743 19.8888 36.7757 19.8588 36.8724 19.836C36.8947 19.8307 36.9182 19.8247 36.9431 19.8182C37.079 19.7825 37.2212 19.7767 37.3575 19.8109C37.7734 19.9153 38.2189 20.089 38.6644 20.332C39.1379 20.6634 39.4219 21.1369 39.4219 21.705C39.4219 22.2258 39.3746 22.6992 39.2799 23.078C39.1852 23.4567 39.1379 23.9301 39.1379 24.4509C39.1379 25.3978 39.0905 26.108 38.9958 26.5814C38.9011 27.1022 38.9011 27.5756 38.9011 28.0017C38.9011 29.5167 38.9485 30.937 39.0432 32.2153C39.0628 32.4803 39.0804 32.7312 39.0968 32.9681C39.1796 34.1635 40.2091 34.7768 40.9369 33.825C41.5524 33.0201 42.1679 32.0259 42.7833 30.8897C43.3514 29.7534 43.9196 28.5698 44.4403 27.2915C44.9138 26.0606 45.3399 24.9244 45.6713 23.9301C45.766 23.5514 45.8133 23.1253 45.8133 22.6992C45.8133 22.3205 45.8607 21.9417 45.9553 21.6103C46.05 21.2789 46.2394 20.9948 46.5708 20.7581C46.8871 20.5774 47.4192 20.4397 48.1668 20.4276C48.2361 20.4265 48.3006 20.4741 48.3699 20.4741C48.3699 20.4741 48.4172 20.4741 48.4646 20.4741C48.667 20.4741 48.9042 20.578 49.2056 20.7562C49.3119 20.8191 49.4116 20.8927 49.5039 20.9749C49.5092 20.9796 49.5145 20.9843 49.5197 20.989C49.9376 21.3628 50.1236 21.9159 50.1149 22.4764C50.0916 23.9574 50.0119 25.1363 49.9322 26.0133C49.8375 27.0548 49.7902 27.9544 49.7902 28.7119C49.7902 30.2268 49.8849 31.5525 50.0742 32.6414C50.2636 33.7303 50.6424 34.5825 51.1158 35.2453C51.275 35.4443 51.4008 35.6434 51.5494 35.8143C51.6054 35.8786 51.6537 35.9292 51.7024 35.9992C51.9601 36.3693 52.0383 36.8823 51.8041 37.2678C51.7812 37.3055 51.757 37.3414 51.7313 37.3757C51.5892 37.5651 51.4472 37.6598 51.2578 37.7545C51.133 37.8169 50.9876 37.8587 50.8488 37.88C50.7125 37.9009 50.5617 37.9124 50.4266 37.9399C50.1229 38.0018 49.8191 38.0157 49.5238 37.9218C49.0221 37.7622 48.6059 37.517 48.2752 37.1864C47.8491 36.8076 47.5177 36.2868 47.2336 35.7187C46.9496 35.1506 46.7602 34.4878 46.6655 33.7776C46.5497 33.1989 46.4654 32.5886 46.3869 31.9726C46.3709 31.8468 46.2015 31.8178 46.1447 31.9312C45.8607 32.4993 45.5293 33.2095 45.1032 34.0617C44.6771 34.9612 44.2036 35.8134 43.6355 36.6656C43.0674 37.5178 42.4046 38.2279 41.6471 38.8434C40.8896 39.4589 40.1321 39.7429 39.2799 39.7429C38.333 39.7429 37.6229 39.6009 37.0547 39.2221C36.4866 38.8434 36.0605 38.2753 35.7765 37.4231C35.4924 36.6182 35.2557 35.5767 35.161 34.2511C35.0663 32.9728 35.019 31.3631 35.019 29.4693C35.0663 29.0433 35.1137 28.6172 35.1137 28.1437V25.1611ZM36.2344 11.5355C36.2113 11.3722 36.2027 11.205 36.2405 11.0444C36.3424 10.611 36.62 10.3139 37.1021 10.1532C37.3666 10.057 37.6311 9.98522 37.8956 9.93168C38.3913 9.83134 38.9372 9.92784 39.2494 10.3258C39.3321 10.4313 39.406 10.5473 39.4693 10.6739C39.6586 11.1 39.848 11.5261 40.0847 11.9522C40.2741 12.3783 40.5582 12.7571 40.9369 13.0885C41.3157 13.4199 41.8364 13.5619 42.5466 13.5619C43.6355 13.4199 44.6297 12.9464 45.5766 12.1416C46.5235 11.3841 47.5177 10.1058 48.6066 8.40144C48.796 8.11738 48.9853 7.92801 49.2694 7.78598C49.5535 7.64394 49.7428 7.54926 49.8375 7.54926C50.2636 7.54926 50.6897 7.69129 51.0685 7.92801C51.4472 8.16472 51.6366 8.44879 51.6839 8.82754C51.6839 9.1116 51.5892 9.39566 51.3999 9.72706C51.2951 9.93664 51.1903 10.1027 51.0935 10.2334C50.9629 10.4097 50.8245 10.5816 50.713 10.7707C50.0109 11.9614 49.3087 12.914 48.6066 13.7039C47.8491 14.5561 47.0916 15.2663 46.3341 15.787C45.5766 16.3552 44.7718 16.7339 43.9669 16.9706C43.2737 17.2153 42.5806 17.3546 41.8572 17.449C41.6239 17.4795 41.3867 17.4732 41.1571 17.4222C39.7106 17.1012 38.5547 16.4141 37.7649 15.361C36.9565 14.328 36.4463 13.0394 36.2344 11.5355Z" fill="#F8F8F8"/>
<path d="M52.5457 38.6442C52.5457 38.5249 52.5593 38.4059 52.5861 38.2897L52.6145 38.1665C52.6624 37.9591 52.7676 37.7694 52.9181 37.6189L53.0326 37.5044C53.1164 37.4205 53.2233 37.3633 53.3396 37.3401C53.3784 37.3323 53.4179 37.3289 53.4572 37.324C53.5512 37.3122 53.6882 37.281 53.9187 37.281C54.2974 37.281 54.6288 37.3757 54.8182 37.5178C55.0076 37.6598 55.1496 37.7071 55.339 37.7071C55.6231 37.7071 55.9545 37.6124 56.2385 37.4231C56.5226 37.2337 56.7593 36.997 56.996 36.7129C57.2327 36.4289 57.4695 36.1448 57.6588 35.8134C57.8482 35.482 57.9902 35.1506 58.1796 34.8665L58.4163 34.4404L59.1265 33.1148C59.3632 32.6887 59.6473 32.1206 59.9313 31.4104C60.2154 30.7476 60.5941 29.8954 60.9729 28.9012C61.399 27.8123 61.7304 26.9128 61.9671 26.2026C62.1587 25.6661 62.3814 25.1605 62.6351 24.7111C62.752 24.5041 62.8561 24.2882 62.9034 24.0551C62.9354 23.8978 62.9604 23.7404 62.9836 23.583C63.0006 23.4674 63.006 23.3504 63.0192 23.2344C63.0355 23.0919 63.0704 22.9308 63.124 22.7509C63.2196 22.4305 63.4091 22.1442 63.6712 21.9365C63.953 21.7131 64.2637 21.5197 64.6183 21.3262C65.0918 21.0895 65.5652 20.9475 66.0387 20.9475C66.393 20.9475 66.7147 21.0457 67.0036 21.215C67.1209 21.2838 67.2267 21.3719 67.3089 21.4802C67.5194 21.7575 67.6641 22.1389 67.743 22.6519C67.8377 23.4094 67.9324 24.0248 68.0744 24.5456C68.1691 25.1137 68.3111 25.5872 68.4058 25.9659C68.5005 26.392 68.5479 26.7708 68.6425 27.1022C68.7372 27.4809 68.7846 27.8123 68.7846 28.1437V28.2463C68.7846 28.4611 68.8125 28.6751 68.8683 28.8825C69.2126 30.1645 69.5194 31.2406 69.8261 32.0732C70.1102 33.0201 70.3943 33.7776 70.631 34.3931C70.8677 35.0086 71.0571 35.5293 71.1991 35.9554C71.3411 36.4289 71.4358 36.855 71.4358 37.3284V37.3538C71.4358 37.6192 71.393 37.883 71.3277 38.1402C71.3164 38.1848 71.3051 38.23 71.2938 38.2753C71.2704 38.3689 71.2354 38.4858 71.1945 38.6144C71.1063 38.892 70.9729 39.1601 70.7492 39.3466C70.6427 39.4353 70.5362 39.5062 70.4416 39.5535C70.31 39.6062 70.1931 39.6588 70.0826 39.7033C69.9155 39.7706 69.7473 39.8394 69.5743 39.8895C69.4756 39.918 69.3833 39.9323 69.3054 39.9323C69.116 39.9323 69.0213 39.9323 69.0213 39.9323C68.7372 39.9323 68.4532 39.8376 68.2638 39.6482C68.0271 39.4589 67.8377 39.1748 67.6483 38.8434C67.459 38.5593 67.3643 38.2279 67.2696 37.8965C67.2327 37.7859 67.203 37.6753 67.1805 37.5647C67.1116 37.2262 67.0544 36.8814 66.9156 36.5651C66.627 35.907 66.3811 35.3167 66.228 34.8192C65.9913 34.2037 65.8019 33.5882 65.6599 33.0201C65.4705 32.452 65.3285 31.7892 65.1865 31.1264C65.0278 30.3859 64.0321 30.3346 63.8301 31.0644C63.7489 31.3576 63.6803 31.6311 63.6241 31.8839C63.4347 32.7834 63.1033 33.6829 62.6773 34.5351C62.2512 35.2926 61.8251 36.0028 61.399 36.7129C60.9729 37.4704 60.4995 38.1332 59.9787 38.7014C59.4105 39.3168 58.7951 39.8376 58.0849 40.2637C57.3748 40.6898 56.5699 40.9738 55.6231 41.0685L54.2397 41.1499C54.0891 41.1588 53.937 41.1583 53.7904 41.1227C53.5031 41.053 53.246 40.9167 53.0192 40.6898C52.6878 40.4057 52.5457 39.8376 52.5457 38.8907V38.6442Z" fill="#F8F8F8"/>
<path d="M72.8887 38.6442C72.8887 38.5249 72.9022 38.4059 72.9291 38.2897L72.9575 38.1665C73.0053 37.9591 73.1105 37.7694 73.261 37.6189L73.3755 37.5044C73.4594 37.4205 73.5662 37.3633 73.6825 37.3401C73.7213 37.3323 73.7609 37.3289 73.8001 37.324C73.8942 37.3122 74.0312 37.281 74.2617 37.281C74.6404 37.281 74.9718 37.3757 75.1612 37.5178C75.3505 37.6598 75.4926 37.7071 75.682 37.7071C75.966 37.7071 76.2974 37.6124 76.5815 37.4231C76.8655 37.2337 77.1023 36.997 77.339 36.7129C77.5757 36.4289 77.8124 36.1448 78.0018 35.8134C78.1912 35.482 78.3332 35.1506 78.5226 34.8665L78.7593 34.4404L79.4694 33.1148C79.7062 32.6887 79.9902 32.1206 80.2743 31.4104C80.5583 30.7476 80.9371 29.8954 81.3158 28.9012C81.7419 27.8123 82.0733 26.9128 82.3101 26.2026C82.5017 25.6661 82.7243 25.1605 82.978 24.7111C83.0949 24.5041 83.1991 24.2882 83.2464 24.0551C83.2784 23.8978 83.3034 23.7404 83.3266 23.583C83.3436 23.4674 83.349 23.3504 83.3622 23.2344C83.3784 23.0919 83.4134 22.9308 83.467 22.7509C83.5625 22.4305 83.7521 22.1442 84.0141 21.9365C84.2959 21.7131 84.6067 21.5197 84.9613 21.3262C85.4347 21.0895 85.9082 20.9475 86.3816 20.9475C86.736 20.9475 87.0576 21.0457 87.3465 21.215C87.4639 21.2838 87.5697 21.3719 87.6519 21.4802C87.8624 21.7575 88.0071 22.1389 88.086 22.6519C88.1807 23.4094 88.2753 24.0248 88.4174 24.5456C88.5121 25.1137 88.6541 25.5872 88.7488 25.9659C88.8435 26.392 88.8908 26.7708 88.9855 27.1022C89.0802 27.4809 89.1275 27.8123 89.1275 28.1437V28.2463C89.1275 28.4611 89.1555 28.6751 89.2112 28.8825C89.5555 30.1645 89.8623 31.2406 90.1691 32.0732C90.4532 33.0201 90.7372 33.7776 90.9739 34.3931C91.2107 35.0086 91.4 35.5293 91.5421 35.9554C91.6841 36.4289 91.7788 36.855 91.7788 37.3284V37.3538C91.7788 37.6192 91.7359 37.883 91.6707 38.1402C91.6594 38.1848 91.6481 38.23 91.6368 38.2753C91.6133 38.3689 91.5783 38.4858 91.5375 38.6144C91.4492 38.892 91.3159 39.1601 91.0921 39.3466C90.9857 39.4353 90.8792 39.5062 90.7846 39.5535C90.653 39.6062 90.536 39.6588 90.4256 39.7033C90.2585 39.7706 90.0903 39.8394 89.9172 39.8895C89.8186 39.918 89.7263 39.9323 89.6483 39.9323C89.4589 39.9323 89.3643 39.9323 89.3643 39.9323C89.0802 39.9323 88.7961 39.8376 88.6068 39.6482C88.37 39.4589 88.1807 39.1748 87.9913 38.8434C87.8019 38.5593 87.7072 38.2279 87.6125 37.8965C87.5757 37.7859 87.546 37.6753 87.5235 37.5647C87.4546 37.2262 87.3974 36.8814 87.2586 36.5651C86.9699 35.907 86.7241 35.3167 86.571 34.8192C86.3343 34.2037 86.1449 33.5882 86.0029 33.0201C85.8135 32.452 85.6714 31.7892 85.5294 31.1264C85.3707 30.3859 84.3751 30.3346 84.173 31.0644C84.0919 31.3576 84.0232 31.6311 83.9671 31.8839C83.7777 32.7834 83.4463 33.6829 83.0202 34.5351C82.5941 35.2926 82.168 36.0028 81.7419 36.7129C81.3158 37.4704 80.8424 38.1332 80.3216 38.7014C79.7535 39.3168 79.138 39.8376 78.4279 40.2637C77.7177 40.6898 76.9129 40.9738 75.966 41.0685L74.5826 41.1499C74.4321 41.1588 74.2799 41.1583 74.1334 41.1227C73.8461 41.053 73.589 40.9167 73.3621 40.6898C73.0307 40.4057 72.8887 39.8376 72.8887 38.8907V38.6442Z" fill="#F8F8F8"/>
<path d="M95.1254 25.1611C95.1254 24.3089 95.1254 23.5041 95.2201 22.6992C95.2614 22.0383 95.3748 21.3414 95.5917 20.6713C95.6546 20.4768 95.7601 20.3034 95.9302 20.19C96.0377 20.1184 96.1722 20.0738 96.3133 20.0154C96.4051 19.9774 96.5 19.9586 96.593 19.9237C96.6861 19.8888 96.7874 19.8588 96.8841 19.8359C96.9064 19.8307 96.93 19.8247 96.9548 19.8182C97.0907 19.7825 97.233 19.7767 97.3692 19.8109C97.7851 19.9153 98.2306 20.089 98.6761 20.332C99.1496 20.6634 99.4337 21.1369 99.4337 21.705C99.4337 22.2258 99.3863 22.6992 99.2916 23.078C99.1969 23.4567 99.1496 23.9301 99.1496 24.4509C99.1496 25.3978 99.1022 26.108 99.0076 26.5814C98.9129 27.1022 98.9129 27.5756 98.9129 28.0017C98.9129 29.5167 98.9602 30.937 99.0549 32.2153C99.0745 32.4803 99.0921 32.7312 99.1085 32.9681C99.1913 34.1635 100.221 34.7768 100.949 33.825C101.564 33.0201 102.18 32.0259 102.795 30.8897C103.363 29.7534 103.931 28.5698 104.452 27.2915C104.926 26.0606 105.352 24.9244 105.683 23.9301C105.778 23.5514 105.825 23.1253 105.825 22.6992C105.825 22.3205 105.872 21.9417 105.967 21.6103C106.062 21.2789 106.251 20.9948 106.583 20.7581C106.899 20.5774 107.431 20.4397 108.179 20.4276C108.248 20.4265 108.312 20.4741 108.382 20.4741C108.382 20.4741 108.429 20.4741 108.476 20.4741C108.679 20.4741 108.916 20.578 109.217 20.7562C109.324 20.8191 109.423 20.8927 109.516 20.9749C109.521 20.9796 109.526 20.9843 109.531 20.989C109.949 21.3628 110.135 21.9159 110.127 22.4764C110.103 23.9574 110.024 25.1363 109.944 26.0133C109.849 27.0548 109.802 27.9544 109.802 28.7119C109.802 30.2268 109.897 31.5525 110.086 32.6414C110.275 33.7303 110.654 34.5825 111.128 35.2453C111.287 35.4443 111.413 35.6434 111.561 35.8143C111.617 35.8786 111.665 35.9292 111.714 35.9992C111.972 36.3693 112.05 36.8823 111.816 37.2678C111.793 37.3055 111.769 37.3414 111.743 37.3757C111.601 37.5651 111.459 37.6598 111.27 37.7545C111.145 37.8169 110.999 37.8587 110.86 37.88C110.724 37.9009 110.573 37.9124 110.438 37.9399C110.135 38.0018 109.831 38.0157 109.536 37.9218C109.034 37.7622 108.618 37.517 108.287 37.1864C107.861 36.8076 107.529 36.2868 107.245 35.7187C106.961 35.1506 106.772 34.4878 106.677 33.7776C106.561 33.1989 106.477 32.5886 106.399 31.9726C106.383 31.8468 106.213 31.8178 106.156 31.9312C105.872 32.4993 105.541 33.2095 105.115 34.0617C104.689 34.9612 104.215 35.8134 103.647 36.6656C103.079 37.5178 102.416 38.2279 101.659 38.8434C100.901 39.4589 100.144 39.7429 99.2916 39.7429C98.3447 39.7429 97.6346 39.6009 97.0665 39.2221C96.4983 38.8434 96.0723 38.2753 95.7882 37.4231C95.5041 36.6182 95.2674 35.5767 95.1727 34.2511C95.078 32.9728 95.0307 31.3631 95.0307 29.4693C95.078 29.0433 95.1254 28.6172 95.1254 28.1437V25.1611Z" fill="#F8F8F8"/>
<path d="M13.498 38.8907C13.498 39.0801 13.4506 39.2695 13.4506 39.4115C13.4506 39.664 13.3719 39.9222 13.2239 40.1268C13.0436 40.3759 12.7998 40.5004 12.4564 40.5004C11.5095 40.5004 10.752 40.1217 10.1839 39.3642C9.61579 38.6067 9.28439 37.8018 9.23705 36.855C9.14236 35.7187 9.09501 34.4878 9.09501 33.1621C9.09501 31.079 9.23705 27.8123 9.52111 23.2673C9.61579 21.3736 9.71048 19.7166 9.80517 18.2016C9.85251 16.6866 9.89986 15.4083 9.89986 14.272V13.988C9.89986 13.6481 9.6243 13.3725 9.28439 13.3725C8.90564 13.3725 8.4322 13.4199 7.95877 13.4199C7.48533 13.4672 6.91721 13.5146 6.34908 13.6092C5.97034 13.7039 5.73362 13.7513 5.54424 13.7986C5.35487 13.846 5.07081 13.846 4.7394 13.846C3.41806 13.846 2.27679 13.5578 1.347 12.9188C1.0758 12.7324 0.874783 12.464 0.73161 12.1677C0.499729 11.6878 0.383789 11.4108 0.383789 11.3367C0.383789 11.2763 0.389972 11.2158 0.403127 11.1553C0.489959 10.756 0.919422 10.5626 1.31582 10.4635C1.66663 10.3759 2.05775 10.2882 2.46691 10.2005C3.12972 10.0585 3.93456 9.91644 4.92878 9.82175C7.05726 9.5937 8.78906 9.24359 10.1487 8.72243C10.7607 8.48782 11.4317 8.43239 12.0734 8.56603C12.9688 8.75249 13.9073 8.82754 14.8709 8.82754C16.0985 8.82754 17.3261 8.70573 18.6289 8.38693C18.8376 8.33588 19.0523 8.30619 19.2615 8.2575C19.4175 8.2212 19.6084 8.16929 19.842 8.11738C20.2208 8.02269 20.6469 7.88066 21.1203 7.73863C21.8778 7.54926 22.5879 7.40723 23.3454 7.40723C23.4401 7.40723 23.5348 7.45457 23.6295 7.45457C23.7242 7.45457 23.8662 7.45457 23.9609 7.45457C24.4343 7.45457 24.6711 7.64394 24.6711 7.97535C24.6711 8.07994 24.7562 8.16397 24.8606 8.16979C25.4933 8.20504 25.8502 8.42409 25.9314 8.82694C25.9565 8.9513 25.9349 9.07968 25.8995 9.20149C25.6017 10.2252 25.0552 10.8265 24.3397 11.0053C23.2981 11.2894 22.0198 11.5735 20.4575 11.8575C19.3168 12.0649 17.9237 12.3228 16.2783 12.5943C15.1495 12.7805 14.2821 13.7042 14.1932 14.8448C13.9429 18.0579 13.7585 21.0075 13.64 23.6934C13.4506 26.9128 13.4033 29.8954 13.4033 32.5467C13.4033 33.5882 13.4033 34.5825 13.4033 35.5293C13.4033 36.4762 13.4506 37.4704 13.498 38.4173V38.8907Z" stroke="#F8F8F8" stroke-width="0.768138" mask="url(#path-1-outside-1_1020_6565)"/>
<path d="M19.2894 30.5583C19.2894 29.422 19.4315 28.2384 19.7155 27.0548C19.9996 25.8712 20.473 24.7823 21.0885 23.8355C21.6566 22.8886 22.4141 22.1311 23.3136 21.563C24.1658 20.9948 25.2074 20.6634 26.391 20.6634C27.1958 20.6634 27.906 20.8055 28.5214 21.0422C29.1369 21.3262 29.6577 21.6577 30.0838 22.0364C30.4625 22.4625 30.7939 22.9359 30.9833 23.4567C31.1727 23.9775 31.3147 24.4983 31.3147 25.0664C31.3147 25.8239 31.1727 26.534 30.8886 27.1969C30.6045 27.8597 30.2258 28.4751 29.7524 28.9959C29.2316 29.564 28.6161 29.9901 27.8586 30.3215C27.1011 30.6529 26.2963 30.8423 25.3494 30.8423C24.9624 30.8853 24.6144 30.8893 24.341 30.8187C24.2869 30.8047 24.2327 30.7913 24.1775 30.7823C23.989 30.7516 23.7869 30.7062 23.5796 30.6462C23.3595 30.5825 23.1243 30.7079 23.1243 30.937V31.1737C23.1243 32.3573 23.3136 33.2568 23.6924 33.9196C24.0238 34.5825 24.4025 35.1032 24.8286 35.4346C25.2074 35.7661 25.6335 35.9554 26.0122 36.0501C26.391 36.1448 26.6277 36.1921 26.7697 36.1921C27.7166 36.1921 28.5214 36.0028 29.1842 35.5293C29.7152 35.188 30.2765 34.8163 30.8925 34.3899C31.1763 34.1935 31.5741 34.144 31.8828 34.2984C31.9919 34.3529 32.0853 34.4232 32.181 34.5091C32.3286 34.6416 32.3969 34.8705 32.449 35.0619C32.4795 35.1739 32.5014 35.2583 32.5182 35.3732C32.5312 35.4619 32.5456 35.5666 32.5456 35.6714C32.4983 36.1448 32.3563 36.5235 32.1669 36.8076C31.9775 37.0917 31.7408 37.3757 31.5041 37.5651C30.6519 38.2753 29.8944 38.7487 29.1842 38.9381C28.4741 39.1274 27.5746 39.2221 26.4383 39.2221C25.9175 39.2221 25.3021 39.1274 24.5446 38.8907C23.7871 38.7014 23.1716 38.4646 22.6982 38.1806C21.9407 37.6125 21.3252 37.0443 20.8991 36.4762C20.473 35.9081 20.1416 35.34 19.9049 34.6771C19.6682 34.0617 19.5261 33.3989 19.4315 32.7361C19.3368 32.0732 19.2894 31.3158 19.2894 30.5583ZM23.4647 27.4242C23.4205 27.7726 23.6252 28.0964 23.9764 28.0964C24.2605 28.0964 24.4499 28.0964 24.6393 28.0964C25.6808 28.0964 26.533 27.8597 27.1011 27.2915C27.6692 26.7708 28.0007 26.108 28.0007 25.3505C28.0007 24.9244 27.8586 24.4983 27.6219 24.1195C27.3378 23.7408 27.0064 23.5514 26.5803 23.5514C26.3209 23.5514 26.0615 23.5804 25.8248 23.6157C25.6973 23.6347 25.5705 23.6631 25.4529 23.7161C25.2496 23.808 25.0814 23.935 24.9707 24.1195C24.8286 24.3089 24.6866 24.4509 24.5446 24.593C24.3552 24.7823 24.2132 24.9717 24.0711 25.2558C23.9291 25.5398 23.7871 25.9186 23.6924 26.3447C23.5936 26.6411 23.5177 27.0063 23.4647 27.4242Z" stroke="#F8F8F8" stroke-width="0.768138" mask="url(#path-1-outside-1_1020_6565)"/>
<path d="M35.1137 25.1611C35.1137 24.3089 35.1137 23.5041 35.2083 22.6992C35.2496 22.0383 35.363 21.3414 35.5799 20.6713C35.6429 20.4768 35.7484 20.3034 35.9185 20.19C36.0259 20.1184 36.1605 20.0738 36.3016 20.0154C36.3934 19.9774 36.4883 19.9586 36.5813 19.9237C36.6743 19.8888 36.7757 19.8588 36.8724 19.836C36.8947 19.8307 36.9182 19.8247 36.9431 19.8182C37.079 19.7825 37.2212 19.7767 37.3575 19.8109C37.7734 19.9153 38.2189 20.089 38.6644 20.332C39.1379 20.6634 39.4219 21.1369 39.4219 21.705C39.4219 22.2258 39.3746 22.6992 39.2799 23.078C39.1852 23.4567 39.1379 23.9301 39.1379 24.4509C39.1379 25.3978 39.0905 26.108 38.9958 26.5814C38.9011 27.1022 38.9011 27.5756 38.9011 28.0017C38.9011 29.5167 38.9485 30.937 39.0432 32.2153C39.0628 32.4803 39.0804 32.7312 39.0968 32.9681C39.1796 34.1635 40.2091 34.7768 40.9369 33.825C41.5524 33.0201 42.1679 32.0259 42.7833 30.8897C43.3514 29.7534 43.9196 28.5698 44.4403 27.2915C44.9138 26.0606 45.3399 24.9244 45.6713 23.9301C45.766 23.5514 45.8133 23.1253 45.8133 22.6992C45.8133 22.3205 45.8607 21.9417 45.9553 21.6103C46.05 21.2789 46.2394 20.9948 46.5708 20.7581C46.8871 20.5774 47.4192 20.4397 48.1668 20.4276C48.2361 20.4265 48.3006 20.4741 48.3699 20.4741C48.3699 20.4741 48.4172 20.4741 48.4646 20.4741C48.667 20.4741 48.9042 20.578 49.2056 20.7562C49.3119 20.8191 49.4116 20.8927 49.5039 20.9749C49.5092 20.9796 49.5145 20.9843 49.5197 20.989C49.9376 21.3628 50.1236 21.9159 50.1149 22.4764C50.0916 23.9574 50.0119 25.1363 49.9322 26.0133C49.8375 27.0548 49.7902 27.9544 49.7902 28.7119C49.7902 30.2268 49.8849 31.5525 50.0742 32.6414C50.2636 33.7303 50.6424 34.5825 51.1158 35.2453C51.275 35.4443 51.4008 35.6434 51.5494 35.8143C51.6054 35.8786 51.6537 35.9292 51.7024 35.9992C51.9601 36.3693 52.0383 36.8823 51.8041 37.2678C51.7812 37.3055 51.757 37.3414 51.7313 37.3757C51.5892 37.5651 51.4472 37.6598 51.2578 37.7545C51.133 37.8169 50.9876 37.8587 50.8488 37.88C50.7125 37.9009 50.5617 37.9124 50.4266 37.9399C50.1229 38.0018 49.8191 38.0157 49.5238 37.9218C49.0221 37.7622 48.6059 37.517 48.2752 37.1864C47.8491 36.8076 47.5177 36.2868 47.2336 35.7187C46.9496 35.1506 46.7602 34.4878 46.6655 33.7776C46.5497 33.1989 46.4654 32.5886 46.3869 31.9726C46.3709 31.8468 46.2015 31.8178 46.1447 31.9312C45.8607 32.4993 45.5293 33.2095 45.1032 34.0617C44.6771 34.9612 44.2036 35.8134 43.6355 36.6656C43.0674 37.5178 42.4046 38.2279 41.6471 38.8434C40.8896 39.4589 40.1321 39.7429 39.2799 39.7429C38.333 39.7429 37.6229 39.6009 37.0547 39.2221C36.4866 38.8434 36.0605 38.2753 35.7765 37.4231C35.4924 36.6182 35.2557 35.5767 35.161 34.2511C35.0663 32.9728 35.019 31.3631 35.019 29.4693C35.0663 29.0433 35.1137 28.6172 35.1137 28.1437V25.1611ZM36.2344 11.5355C36.2113 11.3722 36.2027 11.205 36.2405 11.0444C36.3424 10.611 36.62 10.3139 37.1021 10.1532C37.3666 10.057 37.6311 9.98522 37.8956 9.93168C38.3913 9.83134 38.9372 9.92784 39.2494 10.3258C39.3321 10.4313 39.406 10.5473 39.4693 10.6739C39.6586 11.1 39.848 11.5261 40.0847 11.9522C40.2741 12.3783 40.5582 12.7571 40.9369 13.0885C41.3157 13.4199 41.8364 13.5619 42.5466 13.5619C43.6355 13.4199 44.6297 12.9464 45.5766 12.1416C46.5235 11.3841 47.5177 10.1058 48.6066 8.40144C48.796 8.11738 48.9853 7.92801 49.2694 7.78598C49.5535 7.64394 49.7428 7.54926 49.8375 7.54926C50.2636 7.54926 50.6897 7.69129 51.0685 7.92801C51.4472 8.16472 51.6366 8.44879 51.6839 8.82754C51.6839 9.1116 51.5892 9.39566 51.3999 9.72706C51.2951 9.93664 51.1903 10.1027 51.0935 10.2334C50.9629 10.4097 50.8245 10.5816 50.713 10.7707C50.0109 11.9614 49.3087 12.914 48.6066 13.7039C47.8491 14.5561 47.0916 15.2663 46.3341 15.787C45.5766 16.3552 44.7718 16.7339 43.9669 16.9706C43.2737 17.2153 42.5806 17.3546 41.8572 17.449C41.6239 17.4795 41.3867 17.4732 41.1571 17.4222C39.7106 17.1012 38.5547 16.4141 37.7649 15.361C36.9565 14.328 36.4463 13.0394 36.2344 11.5355Z" stroke="#F8F8F8" stroke-width="0.768138" mask="url(#path-1-outside-1_1020_6565)"/>
<path d="M52.5457 38.6442C52.5457 38.5249 52.5593 38.4059 52.5861 38.2897L52.6145 38.1665C52.6624 37.9591 52.7676 37.7694 52.9181 37.6189L53.0326 37.5044C53.1164 37.4205 53.2233 37.3633 53.3396 37.3401C53.3784 37.3323 53.4179 37.3289 53.4572 37.324C53.5512 37.3122 53.6882 37.281 53.9187 37.281C54.2974 37.281 54.6288 37.3757 54.8182 37.5178C55.0076 37.6598 55.1496 37.7071 55.339 37.7071C55.6231 37.7071 55.9545 37.6124 56.2385 37.4231C56.5226 37.2337 56.7593 36.997 56.996 36.7129C57.2327 36.4289 57.4695 36.1448 57.6588 35.8134C57.8482 35.482 57.9902 35.1506 58.1796 34.8665L58.4163 34.4404L59.1265 33.1148C59.3632 32.6887 59.6473 32.1206 59.9313 31.4104C60.2154 30.7476 60.5941 29.8954 60.9729 28.9012C61.399 27.8123 61.7304 26.9128 61.9671 26.2026C62.1587 25.6661 62.3814 25.1605 62.6351 24.7111C62.752 24.5041 62.8561 24.2882 62.9034 24.0551C62.9354 23.8978 62.9604 23.7404 62.9836 23.583C63.0006 23.4674 63.006 23.3504 63.0192 23.2344C63.0355 23.0919 63.0704 22.9308 63.124 22.7509C63.2196 22.4305 63.4091 22.1442 63.6712 21.9365C63.953 21.7131 64.2637 21.5197 64.6183 21.3262C65.0918 21.0895 65.5652 20.9475 66.0387 20.9475C66.393 20.9475 66.7147 21.0457 67.0036 21.215C67.1209 21.2838 67.2267 21.3719 67.3089 21.4802C67.5194 21.7575 67.6641 22.1389 67.743 22.6519C67.8377 23.4094 67.9324 24.0248 68.0744 24.5456C68.1691 25.1137 68.3111 25.5872 68.4058 25.9659C68.5005 26.392 68.5479 26.7708 68.6425 27.1022C68.7372 27.4809 68.7846 27.8123 68.7846 28.1437V28.2463C68.7846 28.4611 68.8125 28.6751 68.8683 28.8825C69.2126 30.1645 69.5194 31.2406 69.8261 32.0732C70.1102 33.0201 70.3943 33.7776 70.631 34.3931C70.8677 35.0086 71.0571 35.5293 71.1991 35.9554C71.3411 36.4289 71.4358 36.855 71.4358 37.3284V37.3538C71.4358 37.6192 71.393 37.883 71.3277 38.1402C71.3164 38.1848 71.3051 38.23 71.2938 38.2753C71.2704 38.3689 71.2354 38.4858 71.1945 38.6144C71.1063 38.892 70.9729 39.1601 70.7492 39.3466C70.6427 39.4353 70.5362 39.5062 70.4416 39.5535C70.31 39.6062 70.1931 39.6588 70.0826 39.7033C69.9155 39.7706 69.7473 39.8394 69.5743 39.8895C69.4756 39.918 69.3833 39.9323 69.3054 39.9323C69.116 39.9323 69.0213 39.9323 69.0213 39.9323C68.7372 39.9323 68.4532 39.8376 68.2638 39.6482C68.0271 39.4589 67.8377 39.1748 67.6483 38.8434C67.459 38.5593 67.3643 38.2279 67.2696 37.8965C67.2327 37.7859 67.203 37.6753 67.1805 37.5647C67.1116 37.2262 67.0544 36.8814 66.9156 36.5651C66.627 35.907 66.3811 35.3167 66.228 34.8192C65.9913 34.2037 65.8019 33.5882 65.6599 33.0201C65.4705 32.452 65.3285 31.7892 65.1865 31.1264C65.0278 30.3859 64.0321 30.3346 63.8301 31.0644C63.7489 31.3576 63.6803 31.6311 63.6241 31.8839C63.4347 32.7834 63.1033 33.6829 62.6773 34.5351C62.2512 35.2926 61.8251 36.0028 61.399 36.7129C60.9729 37.4704 60.4995 38.1332 59.9787 38.7014C59.4105 39.3168 58.7951 39.8376 58.0849 40.2637C57.3748 40.6898 56.5699 40.9738 55.6231 41.0685L54.2397 41.1499C54.0891 41.1588 53.937 41.1583 53.7904 41.1227C53.5031 41.053 53.246 40.9167 53.0192 40.6898C52.6878 40.4057 52.5457 39.8376 52.5457 38.8907V38.6442Z" stroke="#F8F8F8" stroke-width="0.768138" mask="url(#path-1-outside-1_1020_6565)"/>
<path d="M72.8887 38.6442C72.8887 38.5249 72.9022 38.4059 72.9291 38.2897L72.9575 38.1665C73.0053 37.9591 73.1105 37.7694 73.261 37.6189L73.3755 37.5044C73.4594 37.4205 73.5662 37.3633 73.6825 37.3401C73.7213 37.3323 73.7609 37.3289 73.8001 37.324C73.8942 37.3122 74.0312 37.281 74.2617 37.281C74.6404 37.281 74.9718 37.3757 75.1612 37.5178C75.3505 37.6598 75.4926 37.7071 75.682 37.7071C75.966 37.7071 76.2974 37.6124 76.5815 37.4231C76.8655 37.2337 77.1023 36.997 77.339 36.7129C77.5757 36.4289 77.8124 36.1448 78.0018 35.8134C78.1912 35.482 78.3332 35.1506 78.5226 34.8665L78.7593 34.4404L79.4694 33.1148C79.7062 32.6887 79.9902 32.1206 80.2743 31.4104C80.5583 30.7476 80.9371 29.8954 81.3158 28.9012C81.7419 27.8123 82.0733 26.9128 82.3101 26.2026C82.5017 25.6661 82.7243 25.1605 82.978 24.7111C83.0949 24.5041 83.1991 24.2882 83.2464 24.0551C83.2784 23.8978 83.3034 23.7404 83.3266 23.583C83.3436 23.4674 83.349 23.3504 83.3622 23.2344C83.3784 23.0919 83.4134 22.9308 83.467 22.7509C83.5625 22.4305 83.7521 22.1442 84.0141 21.9365C84.2959 21.7131 84.6067 21.5197 84.9613 21.3262C85.4347 21.0895 85.9082 20.9475 86.3816 20.9475C86.736 20.9475 87.0576 21.0457 87.3465 21.215C87.4639 21.2838 87.5697 21.3719 87.6519 21.4802C87.8624 21.7575 88.0071 22.1389 88.086 22.6519C88.1807 23.4094 88.2753 24.0248 88.4174 24.5456C88.5121 25.1137 88.6541 25.5872 88.7488 25.9659C88.8435 26.392 88.8908 26.7708 88.9855 27.1022C89.0802 27.4809 89.1275 27.8123 89.1275 28.1437V28.2463C89.1275 28.4611 89.1555 28.6751 89.2112 28.8825C89.5555 30.1645 89.8623 31.2406 90.1691 32.0732C90.4532 33.0201 90.7372 33.7776 90.9739 34.3931C91.2107 35.0086 91.4 35.5293 91.5421 35.9554C91.6841 36.4289 91.7788 36.855 91.7788 37.3284V37.3538C91.7788 37.6192 91.7359 37.883 91.6707 38.1402C91.6594 38.1848 91.6481 38.23 91.6368 38.2753C91.6133 38.3689 91.5783 38.4858 91.5375 38.6144C91.4492 38.892 91.3159 39.1601 91.0921 39.3466C90.9857 39.4353 90.8792 39.5062 90.7846 39.5535C90.653 39.6062 90.536 39.6588 90.4256 39.7033C90.2585 39.7706 90.0903 39.8394 89.9172 39.8895C89.8186 39.918 89.7263 39.9323 89.6483 39.9323C89.4589 39.9323 89.3643 39.9323 89.3643 39.9323C89.0802 39.9323 88.7961 39.8376 88.6068 39.6482C88.37 39.4589 88.1807 39.1748 87.9913 38.8434C87.8019 38.5593 87.7072 38.2279 87.6125 37.8965C87.5757 37.7859 87.546 37.6753 87.5235 37.5647C87.4546 37.2262 87.3974 36.8814 87.2586 36.5651C86.9699 35.907 86.7241 35.3167 86.571 34.8192C86.3343 34.2037 86.1449 33.5882 86.0029 33.0201C85.8135 32.452 85.6714 31.7892 85.5294 31.1264C85.3707 30.3859 84.3751 30.3346 84.173 31.0644C84.0919 31.3576 84.0232 31.6311 83.9671 31.8839C83.7777 32.7834 83.4463 33.6829 83.0202 34.5351C82.5941 35.2926 82.168 36.0028 81.7419 36.7129C81.3158 37.4704 80.8424 38.1332 80.3216 38.7014C79.7535 39.3168 79.138 39.8376 78.4279 40.2637C77.7177 40.6898 76.9129 40.9738 75.966 41.0685L74.5826 41.1499C74.4321 41.1588 74.2799 41.1583 74.1334 41.1227C73.8461 41.053 73.589 40.9167 73.3621 40.6898C73.0307 40.4057 72.8887 39.8376 72.8887 38.8907V38.6442Z" stroke="#F8F8F8" stroke-width="0.768138" mask="url(#path-1-outside-1_1020_6565)"/>
<path d="M95.1254 25.1611C95.1254 24.3089 95.1254 23.5041 95.2201 22.6992C95.2614 22.0383 95.3748 21.3414 95.5917 20.6713C95.6546 20.4768 95.7601 20.3034 95.9302 20.19C96.0377 20.1184 96.1722 20.0738 96.3133 20.0154C96.4051 19.9774 96.5 19.9586 96.593 19.9237C96.6861 19.8888 96.7874 19.8588 96.8841 19.8359C96.9064 19.8307 96.93 19.8247 96.9548 19.8182C97.0907 19.7825 97.233 19.7767 97.3692 19.8109C97.7851 19.9153 98.2306 20.089 98.6761 20.332C99.1496 20.6634 99.4337 21.1369 99.4337 21.705C99.4337 22.2258 99.3863 22.6992 99.2916 23.078C99.1969 23.4567 99.1496 23.9301 99.1496 24.4509C99.1496 25.3978 99.1022 26.108 99.0076 26.5814C98.9129 27.1022 98.9129 27.5756 98.9129 28.0017C98.9129 29.5167 98.9602 30.937 99.0549 32.2153C99.0745 32.4803 99.0921 32.7312 99.1085 32.9681C99.1913 34.1635 100.221 34.7768 100.949 33.825C101.564 33.0201 102.18 32.0259 102.795 30.8897C103.363 29.7534 103.931 28.5698 104.452 27.2915C104.926 26.0606 105.352 24.9244 105.683 23.9301C105.778 23.5514 105.825 23.1253 105.825 22.6992C105.825 22.3205 105.872 21.9417 105.967 21.6103C106.062 21.2789 106.251 20.9948 106.583 20.7581C106.899 20.5774 107.431 20.4397 108.179 20.4276C108.248 20.4265 108.312 20.4741 108.382 20.4741C108.382 20.4741 108.429 20.4741 108.476 20.4741C108.679 20.4741 108.916 20.578 109.217 20.7562C109.324 20.8191 109.423 20.8927 109.516 20.9749C109.521 20.9796 109.526 20.9843 109.531 20.989C109.949 21.3628 110.135 21.9159 110.127 22.4764C110.103 23.9574 110.024 25.1363 109.944 26.0133C109.849 27.0548 109.802 27.9544 109.802 28.7119C109.802 30.2268 109.897 31.5525 110.086 32.6414C110.275 33.7303 110.654 34.5825 111.128 35.2453C111.287 35.4443 111.413 35.6434 111.561 35.8143C111.617 35.8786 111.665 35.9292 111.714 35.9992C111.972 36.3693 112.05 36.8823 111.816 37.2678C111.793 37.3055 111.769 37.3414 111.743 37.3757C111.601 37.5651 111.459 37.6598 111.27 37.7545C111.145 37.8169 110.999 37.8587 110.86 37.88C110.724 37.9009 110.573 37.9124 110.438 37.9399C110.135 38.0018 109.831 38.0157 109.536 37.9218C109.034 37.7622 108.618 37.517 108.287 37.1864C107.861 36.8076 107.529 36.2868 107.245 35.7187C106.961 35.1506 106.772 34.4878 106.677 33.7776C106.561 33.1989 106.477 32.5886 106.399 31.9726C106.383 31.8468 106.213 31.8178 106.156 31.9312C105.872 32.4993 105.541 33.2095 105.115 34.0617C104.689 34.9612 104.215 35.8134 103.647 36.6656C103.079 37.5178 102.416 38.2279 101.659 38.8434C100.901 39.4589 100.144 39.7429 99.2916 39.7429C98.3447 39.7429 97.6346 39.6009 97.0665 39.2221C96.4983 38.8434 96.0723 38.2753 95.7882 37.4231C95.5041 36.6182 95.2674 35.5767 95.1727 34.2511C95.078 32.9728 95.0307 31.3631 95.0307 29.4693C95.078 29.0433 95.1254 28.6172 95.1254 28.1437V25.1611Z" stroke="#F8F8F8" stroke-width="0.768138" mask="url(#path-1-outside-1_1020_6565)"/>
<path d="M6.88611 56.8396C7.09691 56.8697 7.30771 56.96 7.48839 57.0955C7.66907 57.2461 7.80459 57.3816 7.89493 57.5171C8.06056 57.7731 8.18101 58.0291 8.2563 58.3001C8.31653 58.5711 8.3617 58.8271 8.3617 59.0529C8.3617 59.2788 8.33158 59.5498 8.30147 59.851C8.2563 60.1672 8.16596 60.4382 8.03044 60.649C7.9401 60.7694 7.84976 60.8899 7.74436 61.0104C7.63896 61.1308 7.54862 61.2513 7.47333 61.3567C7.35288 61.5072 7.24748 61.6428 7.14208 61.7482C7.03668 61.8686 6.91622 61.974 6.79577 62.0794C6.67531 62.1848 6.52474 62.3053 6.37417 62.4257C6.20854 62.5612 6.0128 62.7269 5.802 62.9075C5.60626 63.0882 5.44063 63.2237 5.29006 63.3141C5.13949 63.4195 5.00398 63.4647 4.86847 63.4647C4.79318 63.4647 4.70284 63.4496 4.6125 63.4195C4.52215 63.3894 4.43181 63.3593 4.34147 63.299C4.25113 63.2388 4.1909 63.1786 4.13067 63.1183C4.07044 63.0581 4.04033 62.9828 4.04033 62.9075C4.04033 62.6064 4.20596 62.3504 4.55227 62.1246C4.80824 61.974 5.03409 61.8385 5.24489 61.7331C5.44063 61.6277 5.56109 61.5524 5.62132 61.4922C5.77189 61.3416 5.87729 61.2212 5.95257 61.1459C6.02786 61.0706 6.08809 61.0104 6.13326 60.9501C6.17843 60.905 6.2236 60.8598 6.25371 60.8146L6.41934 60.6038C6.66025 60.2876 6.82588 60.0317 6.91622 59.8359C7.00656 59.6402 7.05174 59.4294 7.05174 59.2186C7.05174 59.0529 7.03668 58.9174 7.00656 58.797C6.97645 58.6916 6.93128 58.6012 6.87105 58.526C6.81082 58.4507 6.7506 58.3754 6.67531 58.3152C6.58497 58.2549 6.49463 58.1646 6.40428 58.0742C6.31394 58.014 6.1182 57.9387 5.81706 57.8484C5.50086 57.7731 5.15455 57.7129 4.76307 57.6828C4.73295 57.6376 4.70284 57.5924 4.65767 57.5322C4.59744 57.472 4.53721 57.3967 4.47698 57.2913C4.46193 57.2913 4.41675 57.2461 4.35653 57.1558C4.28124 57.0654 4.25113 56.9901 4.25113 56.8998C4.28124 56.7793 4.34147 56.6589 4.44687 56.5535C4.43181 56.5685 4.47698 56.5384 4.58238 56.4782C4.68778 56.418 4.82329 56.3427 5.00398 56.2222C5.16961 56.1018 5.35029 55.9663 5.56109 55.8157C5.77189 55.6651 5.95257 55.5145 6.13326 55.3339C6.31394 55.1532 6.44945 54.9725 6.56991 54.7918C6.69037 54.6111 6.7506 54.4455 6.7506 54.2648C6.7506 54.039 6.70542 53.8432 6.6452 53.6926C6.56991 53.5421 6.38923 53.4668 6.10314 53.4668C5.89234 53.4668 5.72672 53.4818 5.5912 53.512C5.45569 53.5421 5.33523 53.5571 5.24489 53.5872C5.13949 53.6174 5.04915 53.6324 4.98892 53.6625C4.91364 53.6926 4.85341 53.6926 4.79318 53.6926H4.73295C4.64261 53.6926 4.53721 53.6475 4.44687 53.5421C4.35653 53.4668 4.2963 53.3764 4.23607 53.2861C4.32641 53.0753 4.49204 52.8946 4.73295 52.7742C4.95881 52.6537 5.19972 52.5483 5.44063 52.4881C5.68155 52.4279 5.89234 52.3977 6.10314 52.3827C6.29888 52.3827 6.41934 52.3676 6.47957 52.3676C6.66025 52.3676 6.85599 52.4279 7.05174 52.5182C7.24748 52.6085 7.42816 52.729 7.57873 52.8796C7.7293 53.0301 7.86482 53.2108 7.95516 53.4066C8.0455 53.6023 8.10573 53.798 8.10573 53.9787C8.10573 54.2196 8.06056 54.4756 7.98527 54.7466C7.89493 55.0177 7.7293 55.3037 7.47333 55.5898C7.32276 55.7555 7.18725 55.906 7.03668 56.0265C6.88611 56.1469 6.73554 56.2674 6.61508 56.3577C6.47957 56.4631 6.35911 56.5384 6.26877 56.5986C6.17843 56.6589 6.1182 56.704 6.10314 56.7191L6.88611 56.8396ZM14.5912 57.6225C14.6213 57.7129 14.6514 57.7882 14.6815 57.8785C14.7116 57.9688 14.7267 58.0441 14.7267 58.1194C14.7267 58.2098 14.6966 58.27 14.6514 58.3152C14.6062 58.3754 14.546 58.4055 14.4858 58.4356C14.4256 58.4657 14.3503 58.4958 14.2901 58.5109C14.2148 58.526 14.1545 58.526 14.0943 58.526C13.8835 58.526 13.7179 58.4206 13.5974 58.1947C13.4619 57.9688 13.3565 57.6828 13.2812 57.3515C13.1909 57.0202 13.1307 56.6589 13.0704 56.2825C13.0102 55.906 12.965 55.5597 12.9199 55.2586C12.8897 55.4694 12.7843 55.7404 12.6187 56.0566C12.4531 56.3879 12.2423 56.689 12.0014 56.9901C11.7454 57.2913 11.4744 57.5322 11.1732 57.743C10.8721 57.9538 10.571 58.0592 10.2698 58.0592C10.0289 58.0592 9.81811 58.014 9.66754 57.9237C9.51697 57.8333 9.39652 57.7129 9.32123 57.5623C9.23089 57.4268 9.18572 57.2762 9.1556 57.0955C9.12549 56.9148 9.11043 56.7492 9.11043 56.5986C9.11043 56.2674 9.18572 55.8609 9.35134 55.379C9.51697 54.8972 9.74283 54.4154 10.0289 53.9486C10.315 53.4969 10.6462 53.1054 11.0227 52.7742C11.3991 52.4429 11.8056 52.2773 12.2272 52.2773C12.3176 52.2773 12.4079 52.2923 12.5284 52.3225C12.6488 52.3526 12.7693 52.3977 12.8897 52.4429C13.0102 52.4881 13.1156 52.5483 13.2361 52.6085C13.3415 52.6688 13.4318 52.729 13.5221 52.7892C13.6878 52.9398 13.8082 53.1205 13.8685 53.3614C13.9287 53.6023 13.9739 53.8583 14.004 54.1142C14.0642 54.6262 14.1244 55.0779 14.1696 55.4844C14.1997 55.891 14.275 56.3126 14.3955 56.7643L14.4858 57.3214L14.5912 57.6225ZM10.3451 56.8396C10.3451 56.8546 10.3451 56.8697 10.3451 56.8697L10.3602 56.8847C10.4806 56.8847 10.6312 56.7944 10.8119 56.6288C10.9775 56.4631 11.1431 56.2674 11.3238 56.0265C11.4894 55.8006 11.64 55.5597 11.7906 55.3037C11.9412 55.0478 12.0466 54.8219 12.1218 54.6111C12.152 54.5208 12.1971 54.4304 12.2574 54.31C12.3176 54.2046 12.3628 54.0992 12.423 53.9787C12.4832 53.8583 12.5284 53.7529 12.5585 53.6475C12.5886 53.5571 12.6187 53.4668 12.6187 53.3915C12.5585 53.3764 12.5133 53.3614 12.4832 53.3313C12.438 53.3162 12.3929 53.3012 12.3477 53.3012C12.1218 53.3012 11.9261 53.3915 11.7605 53.5571C11.5798 53.7378 11.4292 53.9185 11.3088 54.1293C11.1883 54.3401 11.0829 54.5509 11.0076 54.7466C10.9173 54.9424 10.8721 55.0628 10.842 55.108C10.6914 55.364 10.571 55.635 10.4806 55.9211C10.3903 56.2222 10.3451 56.4933 10.3451 56.7643V56.8396ZM15.4658 56.3276L15.511 55.7555C15.511 55.5898 15.5411 55.379 15.6013 55.1381C15.6615 54.8972 15.7669 54.6412 15.9326 54.3702C16.0681 54.0992 16.2186 53.8733 16.3692 53.6926C16.5198 53.512 16.6704 53.3764 16.8209 53.256C16.9564 53.1355 17.092 53.0452 17.2124 52.9699C17.3329 52.9097 17.4232 52.8344 17.4985 52.7742C17.4082 52.6085 17.2726 52.4128 17.0769 52.1719C16.8812 51.946 16.7306 51.7352 16.6101 51.5545C16.2789 51.1631 16.0831 50.8469 15.9928 50.606C15.9024 50.3801 15.8723 50.1844 15.8723 50.0187C15.8723 49.8682 15.9024 49.7326 15.9777 49.6423C16.053 49.552 16.1434 49.4767 16.2638 49.4164C16.3843 49.3562 16.5047 49.311 16.6402 49.2508C16.7758 49.2056 16.9113 49.1454 17.0468 49.0551C17.107 49.025 17.2124 48.9798 17.363 48.9196C17.5136 48.8593 17.6641 48.784 17.8297 48.7088C17.9954 48.6485 18.1459 48.5883 18.2965 48.5281C18.432 48.4679 18.5224 48.4377 18.5675 48.4227C18.7482 48.3775 18.9139 48.3173 19.0644 48.2571C19.215 48.1968 19.3806 48.1517 19.5463 48.1517H19.8173C19.8173 48.1818 19.8474 48.1968 19.8926 48.1968C19.9377 48.1968 19.9678 48.2119 19.9829 48.2269C20.1034 48.2721 20.1937 48.3474 20.269 48.4528C20.3443 48.5733 20.3894 48.6786 20.3894 48.7991C20.3894 48.8593 20.3593 48.9346 20.3292 49.025C20.2991 49.1153 20.2389 49.1605 20.1786 49.1605C20.1786 49.1906 20.1335 49.2358 20.0431 49.2659C19.9528 49.296 19.8474 49.3412 19.7119 49.3713C19.5764 49.4164 19.4258 49.4616 19.2451 49.5068C19.0644 49.552 18.8837 49.5971 18.7031 49.6574C18.6127 49.6875 18.5073 49.7477 18.3567 49.8079C18.2062 49.8682 18.0707 49.9434 17.9201 50.0187C17.7695 50.094 17.6491 50.1693 17.5437 50.2446C17.4232 50.3199 17.378 50.3801 17.378 50.4403C17.378 50.5307 17.4082 50.6361 17.4985 50.7415C17.5738 50.8469 17.7093 51.0426 17.905 51.3287L18.4621 52.0815C18.5525 52.2321 18.6579 52.3526 18.7482 52.458C18.8386 52.5784 18.9289 52.6989 19.0193 52.8344C19.1096 52.985 19.2301 53.1506 19.3505 53.3463C19.471 53.5421 19.6065 53.798 19.7721 54.0992C19.9227 54.5509 20.013 55.0327 20.013 55.5447C20.013 55.6651 19.998 55.7856 19.9829 55.9211C19.9678 56.0566 19.9528 56.1921 19.9227 56.3276C19.8926 56.4782 19.8474 56.6137 19.8022 56.7342C19.757 56.8546 19.7119 56.96 19.6516 57.0504L19.4559 57.4268C19.4258 57.5472 19.3505 57.6376 19.2602 57.7279C19.1698 57.8183 19.0644 57.8936 18.9741 57.9538C18.8687 58.014 18.7783 58.0742 18.688 58.1044C18.5977 58.1345 18.5525 58.1646 18.5374 58.1646C18.4923 58.1947 18.417 58.2098 18.3116 58.2399C18.1911 58.27 18.1008 58.285 18.0104 58.285C17.9201 58.285 17.8448 58.285 17.7996 58.285C17.7394 58.285 17.7093 58.27 17.6942 58.27H17.6641C17.6641 58.27 17.5587 58.2549 17.378 58.2248C17.1974 58.1947 16.9866 58.1345 16.7456 58.0441C16.5047 57.9538 16.2789 57.8183 16.053 57.6376C15.8272 57.4569 15.6766 57.216 15.5863 56.8847L15.4658 56.3276ZM18.7934 55.7555C18.7934 55.7253 18.7934 55.6802 18.7934 55.6199C18.7934 55.5597 18.8085 55.4844 18.8085 55.364C18.7783 55.2134 18.7633 55.0779 18.7482 54.9725C18.7332 54.8671 18.7181 54.7767 18.7031 54.6864C18.688 54.5961 18.6729 54.5208 18.6579 54.4606C18.6278 54.4003 18.6127 54.325 18.5826 54.2347C18.5826 54.2347 18.5675 54.2046 18.5374 54.1594C18.5073 54.1142 18.4621 54.0691 18.432 54.0088C18.3869 53.9486 18.3417 53.9034 18.2815 53.8583C18.2212 53.8131 18.1761 53.783 18.1459 53.783C17.9954 53.783 17.8448 53.8583 17.6792 54.0088C17.5136 54.1594 17.363 54.3401 17.2124 54.5509C17.0618 54.7617 16.9414 55.0026 16.851 55.2586C16.7456 55.5296 16.7005 55.7705 16.7005 56.0114C16.7005 56.1469 16.7155 56.2825 16.7758 56.4029C16.8209 56.5384 16.8962 56.6589 17.0016 56.7492C17.092 56.8546 17.2124 56.945 17.3479 57.0052C17.4684 57.0654 17.6189 57.0955 17.7996 57.0955C18.0707 57.0052 18.3116 56.8546 18.4923 56.6438C18.6729 56.433 18.7783 56.162 18.7934 55.8307V55.7555ZM22.7303 57.9839C22.5497 57.9839 22.3991 57.9387 22.2636 57.8484C22.1281 57.758 21.9925 57.6526 21.842 57.5623C21.5107 57.3816 21.2548 57.1256 21.0741 56.8094C20.8934 56.5083 20.803 56.1168 20.803 55.6651C20.803 55.4543 20.8332 55.1833 20.9084 54.8821C20.9837 54.581 21.059 54.2949 21.1192 54.0239C21.1494 53.9185 21.2096 53.7679 21.33 53.5722C21.4354 53.3764 21.571 53.1807 21.7366 53C21.9022 52.8193 22.0979 52.6537 22.3087 52.5031C22.5195 52.3676 22.7303 52.2923 22.9562 52.2923C23.0465 52.2923 23.1369 52.3225 23.2272 52.3827C23.3627 52.473 23.5133 52.5483 23.6639 52.6085C23.8144 52.6688 23.965 52.729 24.1156 52.7892C24.2662 52.8494 24.4318 52.9247 24.5824 52.985C24.7329 53.0602 24.8684 53.1506 25.004 53.256C25.1094 53.3463 25.1997 53.4668 25.2599 53.5872C25.3202 53.7228 25.3804 53.8432 25.4406 53.9637C25.4858 54.0691 25.5159 54.1745 25.531 54.2799C25.531 54.3853 25.546 54.4907 25.546 54.5961V54.8821C25.531 55.1983 25.4707 55.4844 25.3503 55.7555C25.2298 56.0265 25.0943 56.2825 24.9437 56.5234C24.8534 56.6589 24.748 56.8094 24.6275 56.9751C24.492 57.1558 24.3414 57.3063 24.1909 57.4569C24.0252 57.6075 23.8596 57.743 23.6789 57.8484C23.4983 57.9538 23.3326 57.999 23.1519 57.999C23.0917 57.999 23.0465 57.999 22.9863 57.999C22.9261 57.999 22.8809 57.9839 22.8207 57.9839H22.7303ZM24.2059 54.3853C24.2059 54.0992 24.1005 53.8884 23.8897 53.7529C23.6789 53.6324 23.438 53.5571 23.1971 53.5571C22.9863 53.5571 22.8207 53.6475 22.6852 53.798C22.5346 53.9486 22.4141 54.1444 22.3238 54.3702C22.2184 54.5961 22.1431 54.837 22.0979 55.0929C22.0528 55.3489 22.0377 55.5748 22.0377 55.7555C22.0377 55.8006 22.0377 55.8759 22.0528 55.9964C22.0678 56.1168 22.0979 56.2523 22.1431 56.3728C22.1732 56.5083 22.2335 56.6288 22.3087 56.7191C22.384 56.8245 22.4894 56.8697 22.6099 56.8697C22.7153 56.8697 22.8207 56.8546 22.911 56.8245C23.0014 56.7944 23.0917 56.7492 23.2122 56.689C23.3627 56.5986 23.5133 56.4631 23.6338 56.2825C23.7542 56.1168 23.8446 55.9361 23.9198 55.7253C23.9951 55.5296 24.0554 55.3188 24.1005 55.0929C24.1457 54.8821 24.1758 54.6713 24.2059 54.4606V54.3853ZM28.7581 51.1329C28.728 51.1781 28.6828 51.2082 28.6075 51.2383C28.5322 51.2685 28.457 51.2986 28.3666 51.3287C28.2763 51.3588 28.201 51.3739 28.1257 51.3739C28.0504 51.3889 28.0052 51.3889 27.9751 51.3889C27.8848 51.3889 27.7944 51.3437 27.7342 51.2233C27.6589 51.1028 27.6288 50.9974 27.6288 50.877C27.6288 50.8318 27.6288 50.8017 27.6439 50.7866C27.8396 50.365 28.2462 50.0338 28.8786 49.7929C29.5109 49.552 30.3843 49.4315 31.5135 49.4315C31.905 49.4315 32.3266 49.4917 32.7633 49.6122C33.1999 49.7326 33.5613 49.8531 33.8474 50.0037L34.0281 50.1091C34.0883 50.1392 34.1485 50.2145 34.2238 50.3349C34.2991 50.4554 34.3443 50.5909 34.3593 50.7264C34.3443 50.8167 34.3141 50.877 34.2539 50.9221C34.1937 50.9673 34.1033 50.9974 33.9678 51.0125C33.8323 50.9673 33.6516 50.9071 33.4408 50.8469C33.215 50.7866 32.9741 50.7264 32.7181 50.6662C32.4621 50.606 32.2062 50.5608 31.9502 50.5156C31.6942 50.4855 31.4684 50.4554 31.2726 50.4554C30.9113 50.4554 30.5047 50.5156 30.0681 50.6361C29.6163 50.7565 29.2249 50.892 28.8786 51.0727L28.7581 51.1329ZM34.4497 53.9185C34.4497 54.325 34.4798 54.7015 34.5551 55.0628C34.6153 55.4242 34.6755 55.8006 34.7357 56.1921C34.7508 56.4029 34.811 56.5986 34.9014 56.8094C34.9917 57.0202 35.0519 57.231 35.0519 57.4418C35.0519 57.6828 34.9767 57.8484 34.8411 57.9688C34.7056 58.0893 34.54 58.1495 34.3593 58.1495C34.1485 58.1495 33.9829 58.0592 33.8624 57.8634C33.742 57.6677 33.6667 57.4418 33.6065 57.1859C33.5462 56.9299 33.5161 56.6739 33.5011 56.433C33.4709 56.1921 33.4559 56.0114 33.4258 55.906C33.3655 55.7555 33.3204 55.5898 33.3053 55.4242C33.2752 55.2586 33.2602 55.0929 33.2451 54.9273L33.1999 54.4455C33.1849 54.2949 33.1548 54.1293 33.1096 53.9486C33.0192 54.1293 32.9138 54.31 32.8084 54.5057C32.703 54.7015 32.5976 54.8972 32.4922 55.108C32.3868 55.3188 32.2814 55.5145 32.1911 55.7103C32.0857 55.906 31.9954 56.0867 31.9351 56.2373C31.8448 56.418 31.7846 56.5836 31.7394 56.7342C31.6942 56.8847 31.649 57.0353 31.6189 57.1859C31.5738 57.3364 31.5286 57.487 31.4834 57.6376C31.4232 57.7882 31.363 57.9538 31.2726 58.1194C31.1522 58.1796 31.0167 58.2098 30.8811 58.2098C30.6854 58.2098 30.5348 58.1495 30.4294 57.999C30.324 57.8634 30.2487 57.6828 30.1885 57.472C30.1283 57.2612 30.0982 57.0504 30.0681 56.8094C30.0379 56.5836 30.0229 56.3728 29.9928 56.1921C29.9627 56.0114 29.9325 55.8006 29.9024 55.5748C29.8723 55.364 29.8271 55.1381 29.7669 54.9273C29.7067 54.7165 29.6465 54.5057 29.5862 54.31C29.526 54.1293 29.4507 53.9637 29.3754 53.8432C29.2249 53.9637 29.1044 54.1142 28.999 54.31C28.8936 54.5208 28.8033 54.7316 28.7129 54.9424C28.6226 55.1532 28.5624 55.364 28.5021 55.5748C28.4419 55.7856 28.3817 55.9361 28.3365 56.0566C28.201 56.2975 28.1106 56.5234 28.0655 56.7643C28.0203 57.0052 27.9751 57.216 27.9149 57.4117C27.8547 57.6075 27.7794 57.7731 27.6589 57.8936C27.5385 58.014 27.3578 58.0742 27.0868 58.0742C26.9964 58.0742 26.9211 58.0592 26.8459 57.999C26.7706 57.9387 26.7103 57.8785 26.6652 57.7882C26.6049 57.7129 26.5748 57.6225 26.5447 57.5322C26.5146 57.4418 26.4995 57.3666 26.4995 57.2762C26.5146 57.1859 26.5297 57.0805 26.5297 56.9751C26.5297 56.8847 26.5447 56.7793 26.5447 56.6589C26.5447 56.6288 26.5447 56.5535 26.5598 56.433C26.5598 56.3126 26.5748 56.1921 26.5899 56.0566C26.5899 55.9211 26.6049 55.7856 26.62 55.6651C26.62 55.5447 26.6351 55.4694 26.6351 55.4393C26.6351 54.8821 26.62 54.4756 26.62 54.2347C26.6049 53.9938 26.5899 53.8131 26.5899 53.7228C26.5748 53.6324 26.5598 53.5872 26.5598 53.5872C26.5447 53.5872 26.5447 53.5421 26.5447 53.4517C26.5447 53.3463 26.5146 53.2409 26.4845 53.1355C26.4544 53.0452 26.4393 52.9398 26.4393 52.8193C26.4393 52.6838 26.4995 52.5634 26.62 52.458C26.7405 52.3676 26.8609 52.3074 27.0115 52.3074C27.1922 52.3074 27.3277 52.3526 27.4331 52.4429C27.5234 52.5333 27.5987 52.6537 27.6439 52.7892C27.689 52.9247 27.7192 53.0753 27.7342 53.2259C27.7342 53.3764 27.7493 53.512 27.7493 53.6324C27.7493 53.7529 27.7342 53.8733 27.7192 54.0088C27.7041 54.1594 27.7041 54.2799 27.7041 54.4003C27.7041 54.4606 27.7041 54.5509 27.7342 54.6412C27.7944 54.5208 27.8547 54.3702 27.93 54.2046C28.0052 54.054 28.0805 53.8884 28.1709 53.7228C28.2612 53.5571 28.3516 53.3915 28.4419 53.2409C28.5322 53.0904 28.6226 52.9699 28.7129 52.8494C28.8334 52.6989 28.9689 52.5483 29.1345 52.3827C29.2851 52.2171 29.4658 52.1267 29.6766 52.1267C29.8874 52.1267 30.0681 52.1869 30.1885 52.2773C30.309 52.3827 30.3993 52.5031 30.4595 52.6537C30.5198 52.8043 30.5499 52.985 30.58 53.1656C30.6101 53.3463 30.6402 53.527 30.6854 53.6776C30.7757 53.9787 30.851 54.2949 30.9263 54.6563C31.0016 55.0177 31.0769 55.3489 31.1522 55.635C31.1672 55.5748 31.1973 55.4844 31.2425 55.364C31.2877 55.2435 31.3328 55.1231 31.3931 55.0026C31.4382 54.8821 31.4834 54.7617 31.5436 54.6563C31.5888 54.5509 31.634 54.4606 31.6641 54.4003C31.7544 54.2196 31.8448 54.0088 31.9652 53.783C32.0857 53.5571 32.2212 53.3463 32.3718 53.1506C32.5224 52.9548 32.703 52.7892 32.9138 52.6386C33.1246 52.5031 33.3655 52.4279 33.6366 52.3977C33.757 52.458 33.8624 52.5182 33.9678 52.5483C34.0582 52.5784 34.1485 52.6386 34.2238 52.7139C34.284 52.7892 34.3443 52.8946 34.3894 53.0452C34.4195 53.1958 34.4497 53.4216 34.4497 53.6926V53.9185ZM41.2498 57.6225C41.2799 57.7129 41.31 57.7882 41.3401 57.8785C41.3702 57.9688 41.3853 58.0441 41.3853 58.1194C41.3853 58.2098 41.3552 58.27 41.31 58.3152C41.2648 58.3754 41.2046 58.4055 41.1444 58.4356C41.0842 58.4657 41.0089 58.4958 40.9486 58.5109C40.8734 58.526 40.8131 58.526 40.7529 58.526C40.5421 58.526 40.3765 58.4206 40.256 58.1947C40.1205 57.9688 40.0151 57.6828 39.9398 57.3515C39.8495 57.0202 39.7893 56.6589 39.729 56.2825C39.6688 55.906 39.6236 55.5597 39.5785 55.2586C39.5483 55.4694 39.4429 55.7404 39.2773 56.0566C39.1117 56.3879 38.9009 56.689 38.66 56.9901C38.404 57.2913 38.133 57.5322 37.8318 57.743C37.5307 57.9538 37.2296 58.0592 36.9284 58.0592C36.6875 58.0592 36.4767 58.014 36.3261 57.9237C36.1756 57.8333 36.0551 57.7129 35.9798 57.5623C35.8895 57.4268 35.8443 57.2762 35.8142 57.0955C35.7841 56.9148 35.769 56.7492 35.769 56.5986C35.769 56.2674 35.8443 55.8609 36.0099 55.379C36.1756 54.8972 36.4014 54.4154 36.6875 53.9486C36.9736 53.4969 37.3048 53.1054 37.6813 52.7742C38.0577 52.4429 38.4642 52.2773 38.8858 52.2773C38.9762 52.2773 39.0665 52.2923 39.187 52.3225C39.3074 52.3526 39.4279 52.3977 39.5483 52.4429C39.6688 52.4881 39.7742 52.5483 39.8947 52.6085C40.0001 52.6688 40.0904 52.729 40.1807 52.7892C40.3464 52.9398 40.4668 53.1205 40.5271 53.3614C40.5873 53.6023 40.6325 53.8583 40.6626 54.1142C40.7228 54.6262 40.783 55.0779 40.8282 55.4844C40.8583 55.891 40.9336 56.3126 41.054 56.7643L41.1444 57.3214L41.2498 57.6225ZM37.0037 56.8396C37.0037 56.8546 37.0037 56.8697 37.0037 56.8697L37.0188 56.8847C37.1392 56.8847 37.2898 56.7944 37.4705 56.6288C37.6361 56.4631 37.8017 56.2674 37.9824 56.0265C38.148 55.8006 38.2986 55.5597 38.4492 55.3037C38.5998 55.0478 38.7051 54.8219 38.7804 54.6111C38.8105 54.5208 38.8557 54.4304 38.9159 54.31C38.9762 54.2046 39.0213 54.0992 39.0816 53.9787C39.1418 53.8583 39.187 53.7529 39.2171 53.6475C39.2472 53.5571 39.2773 53.4668 39.2773 53.3915C39.2171 53.3764 39.1719 53.3614 39.1418 53.3313C39.0966 53.3162 39.0515 53.3012 39.0063 53.3012C38.7804 53.3012 38.5847 53.3915 38.4191 53.5571C38.2384 53.7378 38.0878 53.9185 37.9674 54.1293C37.8469 54.3401 37.7415 54.5509 37.6662 54.7466C37.5759 54.9424 37.5307 55.0628 37.5006 55.108C37.35 55.364 37.2296 55.635 37.1392 55.9211C37.0489 56.2222 37.0037 56.4933 37.0037 56.7643V56.8396ZM47.8009 57.9839C47.6202 57.9839 47.4696 57.9387 47.3341 57.8484C47.1986 57.758 47.0631 57.6526 46.9125 57.5623C46.5813 57.3816 46.3253 57.1256 46.1446 56.8094C45.9639 56.5083 45.8736 56.1168 45.8736 55.6651C45.8736 55.4543 45.9037 55.1833 45.979 54.8821C46.0543 54.581 46.1296 54.2949 46.1898 54.0239C46.2199 53.9185 46.2801 53.7679 46.4006 53.5722C46.506 53.3764 46.6415 53.1807 46.8071 53C46.9728 52.8193 47.1685 52.6537 47.3793 52.5031C47.5901 52.3676 47.8009 52.2923 48.0267 52.2923C48.1171 52.2923 48.2074 52.3225 48.2978 52.3827C48.4333 52.473 48.5839 52.5483 48.7344 52.6085C48.885 52.6688 49.0356 52.729 49.1861 52.7892C49.3367 52.8494 49.5023 52.9247 49.6529 52.985C49.8035 53.0602 49.939 53.1506 50.0745 53.256C50.1799 53.3463 50.2702 53.4668 50.3305 53.5872C50.3907 53.7228 50.4509 53.8432 50.5112 53.9637C50.5563 54.0691 50.5864 54.1745 50.6015 54.2799C50.6015 54.3853 50.6166 54.4907 50.6166 54.5961V54.8821C50.6015 55.1983 50.5413 55.4844 50.4208 55.7555C50.3004 56.0265 50.1648 56.2825 50.0143 56.5234C49.9239 56.6589 49.8185 56.8094 49.6981 56.9751C49.5626 57.1558 49.412 57.3063 49.2614 57.4569C49.0958 57.6075 48.9302 57.743 48.7495 57.8484C48.5688 57.9538 48.4032 57.999 48.2225 57.999C48.1623 57.999 48.1171 57.999 48.0569 57.999C47.9966 57.999 47.9515 57.9839 47.8912 57.9839H47.8009ZM49.2765 54.3853C49.2765 54.0992 49.1711 53.8884 48.9603 53.7529C48.7495 53.6324 48.5086 53.5571 48.2677 53.5571C48.0569 53.5571 47.8912 53.6475 47.7557 53.798C47.6052 53.9486 47.4847 54.1444 47.3944 54.3702C47.289 54.5961 47.2137 54.837 47.1685 55.0929C47.1233 55.3489 47.1083 55.5748 47.1083 55.7555C47.1083 55.8006 47.1083 55.8759 47.1233 55.9964C47.1384 56.1168 47.1685 56.2523 47.2137 56.3728C47.2438 56.5083 47.304 56.6288 47.3793 56.7191C47.4546 56.8245 47.56 56.8697 47.6804 56.8697C47.7858 56.8697 47.8912 56.8546 47.9816 56.8245C48.0719 56.7944 48.1623 56.7492 48.2827 56.689C48.4333 56.5986 48.5839 56.4631 48.7043 56.2825C48.8248 56.1168 48.9151 55.9361 48.9904 55.7253C49.0657 55.5296 49.1259 55.3188 49.1711 55.0929C49.2163 54.8821 49.2464 54.6713 49.2765 54.4606V54.3853ZM56.6895 55.7555C56.825 55.6199 56.9304 55.4393 57.0207 55.2134C57.1111 55.0026 57.1864 54.7918 57.2767 54.581L57.3068 54.4907C57.367 54.3401 57.4574 54.1444 57.5778 53.9034C57.6983 53.6625 57.8338 53.4367 57.9994 53.2259C58.15 53.0151 58.3307 52.8193 58.5264 52.6688C58.7071 52.5182 58.9029 52.4429 59.1137 52.4429C59.2793 52.5031 59.3997 52.5784 59.4901 52.6838C59.5804 52.8043 59.6407 52.9247 59.6858 53.0602C59.731 53.1958 59.7762 53.3313 59.8063 53.4818C59.8364 53.6324 59.8966 53.7679 59.9569 53.8884C60.0773 54.1895 60.1827 54.4907 60.2429 54.8219C60.3032 55.1532 60.3634 55.4995 60.4086 55.8307C60.4537 56.1771 60.514 56.5083 60.5742 56.8396C60.6344 57.1708 60.7248 57.487 60.8452 57.758C60.8151 57.9237 60.7248 58.0441 60.5742 58.1194C60.4236 58.1947 60.2881 58.2248 60.1677 58.2248C59.987 58.2248 59.8364 58.1646 59.7461 58.0291C59.6407 57.8936 59.5654 57.7279 59.5051 57.5322C59.4449 57.3364 59.4148 57.1256 59.3847 56.9148C59.3546 56.704 59.3245 56.5384 59.2944 56.3879C59.2341 56.2222 59.204 56.0265 59.1739 55.8157C59.1438 55.6049 59.0986 55.379 59.0685 55.1532C59.0233 54.9424 58.9782 54.7316 58.9179 54.5358C58.8577 54.3552 58.7824 54.1895 58.6921 54.0691C58.5114 54.3401 58.3759 54.5961 58.2705 54.837C58.1651 55.0779 58.0747 55.3037 57.9844 55.5145C57.894 55.7253 57.8188 55.9361 57.7435 56.1469C57.6531 56.3577 57.5628 56.5535 57.4423 56.7643C57.2767 57.0654 57.1261 57.2913 57.0057 57.4418C56.8702 57.6075 56.7497 57.7279 56.6443 57.8032C56.5239 57.8785 56.4185 57.9237 56.3281 57.9387C56.2227 57.9538 56.1324 57.9538 56.042 57.9538C55.9366 57.9538 55.8162 57.9086 55.6656 57.8032C55.515 57.7129 55.4548 57.5924 55.4548 57.4418C55.4548 56.8094 55.4548 56.2222 55.4548 55.6802C55.4548 55.1381 55.4699 54.566 55.4699 53.9637C55.4699 53.798 55.4548 53.6324 55.4548 53.4517C55.4397 53.271 55.4397 53.1054 55.4397 52.9247C55.4397 52.8043 55.4548 52.6989 55.5 52.5784C55.5451 52.458 55.6204 52.3827 55.7409 52.3225C55.8011 52.3225 55.8613 52.3225 55.9216 52.3225C55.9818 52.3225 56.027 52.3074 56.0872 52.3074C56.2077 52.3074 56.3131 52.3526 56.3883 52.4279C56.4636 52.5031 56.5239 52.5935 56.554 52.6989C56.5841 52.8193 56.6142 52.9247 56.6293 53.0452C56.6293 53.1656 56.6443 53.271 56.6443 53.3463C56.6443 53.4668 56.6443 53.5722 56.6744 53.6625C56.7045 53.7679 56.7196 53.8733 56.7196 53.9787C56.7196 54.3552 56.7045 54.6713 56.7045 54.9273C56.6895 55.1983 56.6895 55.4393 56.6895 55.6802V55.7555ZM61.7604 53.6776C61.7604 53.4066 61.7604 53.1506 61.7905 52.8946C61.8056 52.6537 61.8507 52.3977 61.9411 52.1568C61.9411 52.1418 61.9712 52.1267 62.0164 52.0966C62.0615 52.0665 62.1218 52.0514 62.182 52.0213C62.2121 52.0213 62.2422 52.0063 62.2723 51.9912C62.3025 51.9912 62.3476 51.9761 62.4079 51.9611C62.5584 51.9912 62.7241 52.0514 62.8897 52.1418C63.0403 52.2472 63.1306 52.3977 63.1306 52.5784C63.1306 52.744 63.1155 52.8946 63.0854 53.0151C63.0553 53.1355 63.0403 53.2861 63.0403 53.4517C63.0403 53.7529 63.0252 53.9787 62.9951 54.1293C62.965 54.2949 62.965 54.4455 62.965 54.581C62.965 55.0628 62.98 55.5145 63.0101 55.9211C63.0403 56.3276 63.0553 56.6288 63.0854 56.8396C63.236 56.8245 63.4167 56.689 63.6124 56.433C63.8082 56.1771 64.0039 55.8609 64.1996 55.4995C64.3803 55.1381 64.561 54.7617 64.7266 54.3552C64.8772 53.9637 65.0127 53.6023 65.1181 53.2861C65.1482 53.1656 65.1633 53.0301 65.1633 52.8946C65.1633 52.7742 65.1784 52.6537 65.2085 52.5483C65.2386 52.4429 65.2988 52.3526 65.4042 52.2773C65.5096 52.2171 65.6903 52.1719 65.9463 52.1719C65.9463 52.1719 65.9613 52.1869 65.9764 52.1869C65.9764 52.1869 65.9914 52.1869 66.0065 52.1869C66.0818 52.1869 66.1721 52.2321 66.2926 52.3074C66.398 52.3977 66.4733 52.473 66.5335 52.5483C66.5335 53.1506 66.5034 53.6174 66.4733 53.9486C66.4431 54.2799 66.4281 54.566 66.4281 54.8069C66.4281 55.2887 66.4582 55.7103 66.5184 56.0566C66.5787 56.4029 66.6991 56.6739 66.8497 56.8847C66.9099 56.96 66.9551 57.0353 67.0153 57.0955C67.0605 57.1558 67.1057 57.231 67.1508 57.3214C67.1207 57.4268 67.0906 57.5021 67.0454 57.5623C67.0003 57.6225 66.9551 57.6526 66.8949 57.6828C66.8346 57.7129 66.7593 57.7279 66.6991 57.7279C66.6238 57.743 66.5485 57.758 66.4883 57.7731C66.2625 57.7279 66.0818 57.6376 65.9463 57.5021C65.8107 57.3816 65.7053 57.216 65.615 57.0353C65.5247 56.8546 65.4644 56.6438 65.4343 56.418C65.3892 56.1921 65.359 55.9512 65.3289 55.7103L65.2687 55.8307C65.1784 56.0114 65.073 56.2373 64.9374 56.5083C64.8019 56.7944 64.6514 57.0654 64.4707 57.3364C64.29 57.6075 64.0792 57.8333 63.8383 58.0291C63.5974 58.2248 63.3565 58.3152 63.0854 58.3152C62.7843 58.3152 62.5584 58.27 62.3777 58.1495C62.1971 58.0291 62.0615 57.8484 61.9712 57.5774C61.8809 57.3214 61.8056 56.9901 61.7755 56.5685C61.7453 56.162 61.7303 55.6501 61.7303 55.0478C61.7453 54.9123 61.7604 54.7767 61.7604 54.6262V54.2046V53.6776ZM70.1502 51.1329C70.1201 51.1781 70.075 51.2082 69.9997 51.2383C69.9244 51.2685 69.8491 51.2986 69.7588 51.3287C69.6684 51.3588 69.5931 51.3739 69.5178 51.3739C69.4426 51.3889 69.3974 51.3889 69.3673 51.3889C69.2769 51.3889 69.1866 51.3437 69.1264 51.2233C69.0511 51.1028 69.021 50.9974 69.021 50.877C69.021 50.8318 69.021 50.8017 69.036 50.7866C69.2318 50.365 69.6383 50.0338 70.2707 49.7929C70.9031 49.552 71.7764 49.4315 72.9057 49.4315C73.2972 49.4315 73.7188 49.4917 74.1554 49.6122C74.5921 49.7326 74.9534 49.8531 75.2395 50.0037L75.4202 50.1091C75.4804 50.1392 75.5407 50.2145 75.6159 50.3349C75.6912 50.4554 75.7364 50.5909 75.7515 50.7264C75.7364 50.8167 75.7063 50.877 75.6461 50.9221C75.5858 50.9673 75.4955 50.9974 75.36 51.0125C75.2245 50.9673 75.0438 50.9071 74.833 50.8469C74.6071 50.7866 74.3662 50.7264 74.1102 50.6662C73.8543 50.606 73.5983 50.5608 73.3423 50.5156C73.0864 50.4855 72.8605 50.4554 72.6648 50.4554C72.3034 50.4554 71.8969 50.5156 71.4602 50.6361C71.0085 50.7565 70.617 50.892 70.2707 51.0727L70.1502 51.1329ZM75.8418 53.9185C75.8418 54.325 75.8719 54.7015 75.9472 55.0628C76.0074 55.4242 76.0677 55.8006 76.1279 56.1921C76.1429 56.4029 76.2032 56.5986 76.2935 56.8094C76.3838 57.0202 76.4441 57.231 76.4441 57.4418C76.4441 57.6828 76.3688 57.8484 76.2333 57.9688C76.0978 58.0893 75.9321 58.1495 75.7515 58.1495C75.5407 58.1495 75.375 58.0592 75.2546 57.8634C75.1341 57.6677 75.0588 57.4418 74.9986 57.1859C74.9384 56.9299 74.9083 56.6739 74.8932 56.433C74.8631 56.1921 74.848 56.0114 74.8179 55.906C74.7577 55.7555 74.7125 55.5898 74.6975 55.4242C74.6673 55.2586 74.6523 55.0929 74.6372 54.9273L74.5921 54.4455C74.577 54.2949 74.5469 54.1293 74.5017 53.9486C74.4114 54.1293 74.306 54.31 74.2006 54.5057C74.0952 54.7015 73.9898 54.8972 73.8844 55.108C73.779 55.3188 73.6736 55.5145 73.5832 55.7103C73.4778 55.906 73.3875 56.0867 73.3273 56.2373C73.2369 56.418 73.1767 56.5836 73.1315 56.7342C73.0864 56.8847 73.0412 57.0353 73.0111 57.1859C72.9659 57.3364 72.9207 57.487 72.8756 57.6376C72.8153 57.7882 72.7551 57.9538 72.6648 58.1194C72.5443 58.1796 72.4088 58.2098 72.2733 58.2098C72.0775 58.2098 71.927 58.1495 71.8216 57.999C71.7162 57.8634 71.6409 57.6828 71.5807 57.472C71.5204 57.2612 71.4903 57.0504 71.4602 56.8094C71.4301 56.5836 71.415 56.3728 71.3849 56.1921C71.3548 56.0114 71.3247 55.8006 71.2946 55.5748C71.2645 55.364 71.2193 55.1381 71.1591 54.9273C71.0988 54.7165 71.0386 54.5057 70.9784 54.31C70.9181 54.1293 70.8429 53.9637 70.7676 53.8432C70.617 53.9637 70.4965 54.1142 70.3911 54.31C70.2857 54.5208 70.1954 54.7316 70.1051 54.9424C70.0147 55.1532 69.9545 55.364 69.8943 55.5748C69.834 55.7856 69.7738 55.9361 69.7286 56.0566C69.5931 56.2975 69.5028 56.5234 69.4576 56.7643C69.4124 57.0052 69.3673 57.216 69.307 57.4117C69.2468 57.6075 69.1715 57.7731 69.0511 57.8936C68.9306 58.014 68.7499 58.0742 68.4789 58.0742C68.3886 58.0742 68.3133 58.0592 68.238 57.999C68.1627 57.9387 68.1025 57.8785 68.0573 57.7882C67.9971 57.7129 67.967 57.6225 67.9369 57.5322C67.9067 57.4418 67.8917 57.3666 67.8917 57.2762C67.9067 57.1859 67.9218 57.0805 67.9218 56.9751C67.9218 56.8847 67.9369 56.7793 67.9369 56.6589C67.9369 56.6288 67.9369 56.5535 67.9519 56.433C67.9519 56.3126 67.967 56.1921 67.982 56.0566C67.982 55.9211 67.9971 55.7856 68.0121 55.6651C68.0121 55.5447 68.0272 55.4694 68.0272 55.4393C68.0272 54.8821 68.0121 54.4756 68.0121 54.2347C67.9971 53.9938 67.982 53.8131 67.982 53.7228C67.967 53.6324 67.9519 53.5872 67.9519 53.5872C67.9369 53.5872 67.9369 53.5421 67.9369 53.4517C67.9369 53.3463 67.9067 53.2409 67.8766 53.1355C67.8465 53.0452 67.8315 52.9398 67.8315 52.8193C67.8315 52.6838 67.8917 52.5634 68.0121 52.458C68.1326 52.3676 68.2531 52.3074 68.4036 52.3074C68.5843 52.3074 68.7198 52.3526 68.8252 52.4429C68.9156 52.5333 68.9908 52.6537 69.036 52.7892C69.0812 52.9247 69.1113 53.0753 69.1264 53.2259C69.1264 53.3764 69.1414 53.512 69.1414 53.6324C69.1414 53.7529 69.1264 53.8733 69.1113 54.0088C69.0962 54.1594 69.0962 54.2799 69.0962 54.4003C69.0962 54.4606 69.0962 54.5509 69.1264 54.6412C69.1866 54.5208 69.2468 54.3702 69.3221 54.2046C69.3974 54.054 69.4727 53.8884 69.563 53.7228C69.6534 53.5571 69.7437 53.3915 69.834 53.2409C69.9244 53.0904 70.0147 52.9699 70.1051 52.8494C70.2255 52.6989 70.361 52.5483 70.5267 52.3827C70.6772 52.2171 70.8579 52.1267 71.0687 52.1267C71.2795 52.1267 71.4602 52.1869 71.5807 52.2773C71.7011 52.3827 71.7915 52.5031 71.8517 52.6537C71.9119 52.8043 71.942 52.985 71.9721 53.1656C72.0023 53.3463 72.0324 53.527 72.0775 53.6776C72.1679 53.9787 72.2432 54.2949 72.3184 54.6563C72.3937 55.0177 72.469 55.3489 72.5443 55.635C72.5594 55.5748 72.5895 55.4844 72.6346 55.364C72.6798 55.2435 72.725 55.1231 72.7852 55.0026C72.8304 54.8821 72.8756 54.7617 72.9358 54.6563C72.981 54.5509 73.0261 54.4606 73.0562 54.4003C73.1466 54.2196 73.2369 54.0088 73.3574 53.783C73.4778 53.5571 73.6134 53.3463 73.7639 53.1506C73.9145 52.9548 74.0952 52.7892 74.306 52.6386C74.5168 52.5031 74.7577 52.4279 75.0287 52.3977C75.1492 52.458 75.2546 52.5182 75.36 52.5483C75.4503 52.5784 75.5407 52.6386 75.6159 52.7139C75.6762 52.7892 75.7364 52.8946 75.7816 53.0452C75.8117 53.1958 75.8418 53.4216 75.8418 53.6926V53.9185ZM79.2089 57.9839C79.0282 57.9839 78.8777 57.9387 78.7422 57.8484C78.6066 57.758 78.4711 57.6526 78.3206 57.5623C77.9893 57.3816 77.7333 57.1256 77.5527 56.8094C77.372 56.5083 77.2816 56.1168 77.2816 55.6651C77.2816 55.4543 77.3117 55.1833 77.387 54.8821C77.4623 54.581 77.5376 54.2949 77.5978 54.0239C77.6279 53.9185 77.6882 53.7679 77.8086 53.5722C77.914 53.3764 78.0495 53.1807 78.2152 53C78.3808 52.8193 78.5765 52.6537 78.7873 52.5031C78.9981 52.3676 79.2089 52.2923 79.4348 52.2923C79.5251 52.2923 79.6155 52.3225 79.7058 52.3827C79.8413 52.473 79.9919 52.5483 80.1425 52.6085C80.293 52.6688 80.4436 52.729 80.5942 52.7892C80.7447 52.8494 80.9104 52.9247 81.0609 52.985C81.2115 53.0602 81.347 53.1506 81.4825 53.256C81.5879 53.3463 81.6783 53.4668 81.7385 53.5872C81.7987 53.7228 81.859 53.8432 81.9192 53.9637C81.9644 54.0691 81.9945 54.1745 82.0095 54.2799C82.0095 54.3853 82.0246 54.4907 82.0246 54.5961V54.8821C82.0095 55.1983 81.9493 55.4844 81.8288 55.7555C81.7084 56.0265 81.5729 56.2825 81.4223 56.5234C81.332 56.6589 81.2266 56.8094 81.1061 56.9751C80.9706 57.1558 80.82 57.3063 80.6695 57.4569C80.5038 57.6075 80.3382 57.743 80.1575 57.8484C79.9768 57.9538 79.8112 57.999 79.6305 57.999C79.5703 57.999 79.5251 57.999 79.4649 57.999C79.4047 57.999 79.3595 57.9839 79.2993 57.9839H79.2089ZM80.6845 54.3853C80.6845 54.0992 80.5791 53.8884 80.3683 53.7529C80.1575 53.6324 79.9166 53.5571 79.6757 53.5571C79.4649 53.5571 79.2993 53.6475 79.1638 53.798C79.0132 53.9486 78.8927 54.1444 78.8024 54.3702C78.697 54.5961 78.6217 54.837 78.5765 55.0929C78.5314 55.3489 78.5163 55.5748 78.5163 55.7555C78.5163 55.8006 78.5163 55.8759 78.5314 55.9964C78.5464 56.1168 78.5765 56.2523 78.6217 56.3728C78.6518 56.5083 78.712 56.6288 78.7873 56.7191C78.8626 56.8245 78.968 56.8697 79.0885 56.8697C79.1939 56.8697 79.2993 56.8546 79.3896 56.8245C79.48 56.7944 79.5703 56.7492 79.6907 56.689C79.8413 56.5986 79.9919 56.4631 80.1123 56.2825C80.2328 56.1168 80.3231 55.9361 80.3984 55.7253C80.4737 55.5296 80.5339 55.3188 80.5791 55.0929C80.6243 54.8821 80.6544 54.6713 80.6845 54.4606V54.3853ZM81.773 57.7882L81.8181 57.5924L81.9838 57.472L82.1494 57.4268C82.1795 57.4268 82.2096 57.4268 82.2699 57.4268C82.315 57.4268 82.3451 57.4268 82.3753 57.4268C82.4807 57.4268 82.571 57.4418 82.6463 57.4569C82.7065 57.487 82.7667 57.487 82.827 57.487C82.9023 57.487 82.9775 57.4418 83.0679 57.3515C83.1582 57.2612 83.2787 57.0504 83.4443 56.7191L83.5196 56.5836C83.6551 56.3577 83.7756 56.1319 83.881 55.906C83.9713 55.6952 84.0918 55.4543 84.2423 55.1983L84.5886 54.5358C84.7091 54.31 84.7994 54.0691 84.8747 53.8282C84.935 53.5872 85.0253 53.3463 85.1307 53.1054C85.1608 53.0151 85.1909 52.9548 85.1909 52.8946C85.1909 52.8344 85.206 52.7892 85.221 52.744C85.2361 52.6989 85.2662 52.6537 85.2963 52.6236C85.3264 52.5935 85.4017 52.5483 85.4921 52.4881C85.6125 52.4429 85.6878 52.4128 85.748 52.4128C85.8384 52.4128 85.9287 52.4429 86.0341 52.4881C86.1245 52.5333 86.2449 52.5784 86.3804 52.6085C86.4858 52.6386 86.5611 52.7139 86.5912 52.8645C86.6213 53.0151 86.6515 53.1506 86.6665 53.256C86.6213 53.4367 86.5912 53.6174 86.5912 53.8131C86.5912 54.0088 86.5912 54.2648 86.5912 54.566C86.5912 54.9725 86.5912 55.379 86.6213 55.7705C86.6364 56.1771 86.6665 56.5384 86.7267 56.8546L86.7418 57.0353C86.7418 57.0805 86.7569 57.1256 86.787 57.1859C86.9827 56.9148 87.1483 56.6739 87.2688 56.4631C87.3892 56.2523 87.5097 56.0566 87.6302 55.8609C87.7356 55.6651 87.856 55.4543 87.9765 55.2285C88.0969 55.0026 88.2626 54.7165 88.4734 54.3853C88.6089 54.1444 88.7143 53.9486 88.7745 53.798C88.8347 53.6475 88.9251 53.4969 89.0305 53.3463C89.1509 53.1355 89.2262 52.985 89.2413 52.8946C89.2413 52.8193 89.2714 52.744 89.3165 52.6537C89.3768 52.5634 89.4521 52.473 89.5575 52.4128C89.6629 52.3526 89.7833 52.3225 89.9339 52.3225C90.0242 52.3225 90.1597 52.3676 90.3254 52.4279C90.4759 52.5031 90.5663 52.5935 90.5813 52.6989C90.5813 52.744 90.5964 52.7892 90.5964 52.8193V52.9398C90.5964 53.1205 90.5813 53.271 90.5512 53.3915C90.5211 53.512 90.5061 53.6625 90.5061 53.8432V53.9486C90.5061 54.039 90.491 54.1895 90.491 54.4154C90.491 54.6412 90.4759 55.0177 90.4609 55.5296V55.7555C90.4609 55.8157 90.4609 55.891 90.4759 55.9663C90.5061 56.1469 90.5211 56.3126 90.5362 56.4933C90.5512 56.6739 90.5663 56.8396 90.5964 57.0052C90.6265 57.2762 90.6717 57.472 90.7319 57.5623C90.7921 57.6526 90.8674 57.7279 90.9277 57.7731C90.9879 57.8183 91.0632 57.8634 91.1234 57.9237C91.1836 57.9839 91.2137 58.1044 91.2438 58.285L91.1234 58.6012C91.1083 58.6163 91.0632 58.6464 90.9728 58.7066C90.8825 58.7669 90.8223 58.7819 90.7771 58.7819H90.6265C90.491 58.7819 90.3705 58.7669 90.2501 58.7066C90.1296 58.6464 90.0092 58.5711 89.8887 58.4808C89.8887 58.4958 89.8586 58.4808 89.8285 58.4356C89.7833 58.3904 89.7381 58.3302 89.693 58.2549C89.6327 58.1947 89.5876 58.1194 89.5575 58.0592C89.5123 57.999 89.4822 57.9387 89.4822 57.8936C89.4521 57.8785 89.437 57.8484 89.437 57.7882C89.4219 57.7279 89.4069 57.6677 89.4069 57.6075C89.3918 57.5472 89.3768 57.472 89.3768 57.3967C89.3617 57.3364 89.3617 57.2762 89.3617 57.231L89.2714 56.5384C89.2413 56.3728 89.2262 56.2072 89.2262 56.0265C89.2262 55.8609 89.2111 55.6952 89.1961 55.5145V55.4543C89.0004 55.6501 88.8648 55.8759 88.7745 56.1168C88.6842 56.3728 88.5788 56.6137 88.4282 56.8396C88.3228 57.0052 88.2324 57.1558 88.1421 57.3063C88.0518 57.4569 87.9765 57.6075 87.8861 57.758C87.7958 57.9086 87.6904 58.0592 87.585 58.1947C87.4645 58.3453 87.3441 58.4808 87.1935 58.6163C86.9978 58.797 86.802 58.8723 86.6063 58.8723H86.4708C86.2449 58.8271 86.0642 58.7367 85.9287 58.6012C85.7932 58.4657 85.6878 58.3152 85.5975 58.1345C85.5071 57.9538 85.4469 57.7731 85.4168 57.5774C85.3867 57.3816 85.3565 57.2009 85.3415 57.0202L85.2963 56.6739L85.2662 56.2373C85.2662 56.2222 85.2662 56.1771 85.2662 56.1168C85.2662 56.0566 85.2813 55.9361 85.2813 55.7555V55.3489C85.1759 55.5898 85.0855 55.8157 84.9952 56.0566C84.9048 56.2975 84.8145 56.4933 84.7392 56.6589C84.6037 56.8998 84.4832 57.1256 84.3628 57.3364C84.2423 57.5623 84.1068 57.758 83.9713 57.9387C83.8358 58.1194 83.6852 58.27 83.5196 58.3904C83.3389 58.5109 83.1432 58.6012 82.9173 58.6313L82.4054 58.6615C82.3451 58.6615 82.2849 58.6464 82.2096 58.6163C82.1343 58.5862 82.0591 58.5561 81.9988 58.4958C81.9386 58.4507 81.8784 58.3754 81.8332 58.285C81.788 58.1947 81.773 58.0742 81.773 57.9237V57.7882ZM97.2031 59.5047V59.4143C97.2031 59.3842 97.2031 59.3089 97.2332 59.1885C97.2634 59.068 97.2935 58.9024 97.3386 58.6916C97.3838 58.4808 97.4591 58.1947 97.5494 57.8333V57.7279C97.429 57.7279 97.3236 57.7279 97.2483 57.7279C97.158 57.7279 97.0676 57.7129 96.9773 57.6828C96.8267 57.6526 96.7063 57.5623 96.6009 57.4268C96.4955 57.2913 96.4051 57.1407 96.3449 56.9751C96.2696 56.8094 96.2244 56.6438 96.1943 56.4631C96.1642 56.2975 96.1491 56.162 96.1491 56.0415L96.1341 55.7103L96.0739 55.8307C95.9835 56.0114 95.8781 56.2373 95.7426 56.5083C95.6071 56.7944 95.4565 57.0654 95.2758 57.3364C95.0951 57.6075 94.8844 57.8333 94.6434 58.0291C94.4025 58.2248 94.1616 58.3152 93.8906 58.3152C93.5894 58.3152 93.3636 58.27 93.1829 58.1495C93.0022 58.0291 92.8667 57.8484 92.7764 57.5774C92.686 57.3214 92.6107 56.9901 92.5806 56.5685C92.5505 56.162 92.5355 55.6501 92.5355 55.0478C92.5505 54.9123 92.5656 54.7767 92.5656 54.6262V54.2046V53.6776C92.5656 53.4066 92.5656 53.1506 92.5957 52.8946C92.6107 52.6537 92.6559 52.3977 92.7463 52.1568C92.7463 52.1418 92.7764 52.1267 92.8215 52.0966C92.8667 52.0665 92.9269 52.0514 92.9872 52.0213C93.0173 52.0213 93.0474 52.0063 93.0775 51.9912C93.1076 51.9912 93.1528 51.9761 93.213 51.9611C93.3636 51.9912 93.5292 52.0514 93.6948 52.1418C93.8454 52.2472 93.9358 52.3977 93.9358 52.5784C93.9358 52.744 93.9207 52.8946 93.8906 53.0151C93.8605 53.1355 93.8454 53.2861 93.8454 53.4517C93.8454 53.7529 93.8304 53.9787 93.8002 54.1293C93.7701 54.2949 93.7701 54.4455 93.7701 54.581C93.7701 55.0628 93.7852 55.5145 93.8153 55.9211C93.8454 56.3276 93.8605 56.6288 93.8906 56.8396C94.0412 56.8245 94.2218 56.689 94.4176 56.433C94.6133 56.1771 94.8091 55.8609 95.0048 55.4995C95.1855 55.1381 95.3662 54.7617 95.5318 54.3552C95.6824 53.9637 95.8179 53.6023 95.9233 53.2861C95.9534 53.1656 95.9685 53.0301 95.9685 52.8946C95.9685 52.7742 95.9835 52.6537 96.0136 52.5483C96.0437 52.4429 96.104 52.3526 96.2094 52.2773C96.3148 52.2171 96.4955 52.1719 96.7514 52.1719C96.8418 52.202 96.9622 52.2622 97.0827 52.3225C97.2031 52.3827 97.2784 52.458 97.3386 52.5483C97.3386 53.1506 97.3236 53.6475 97.2935 54.039C97.2634 54.4304 97.2483 54.7316 97.2483 54.9725C97.2483 55.0327 97.2483 55.1532 97.2784 55.3339C97.2935 55.5145 97.3085 55.6952 97.3085 55.8609C97.3085 55.906 97.3085 55.9663 97.3236 56.0566C97.3386 56.1469 97.3688 56.2373 97.3989 56.3276C97.429 56.418 97.4591 56.5083 97.5043 56.5685C97.5494 56.6438 97.6097 56.6739 97.685 56.6739C97.8355 56.6739 97.956 56.5836 98.0614 56.3879C98.1668 56.1921 98.2571 55.9964 98.3475 55.8157C98.3475 55.7856 98.3625 55.7555 98.3776 55.7404C98.3926 55.7103 98.4378 55.6501 98.498 55.5597C98.5583 55.4844 98.6185 55.4091 98.7088 55.3339C98.7841 55.2736 98.8745 55.2134 98.9648 55.1532C99.0551 55.0929 99.1605 55.0628 99.2659 55.0628C99.3864 55.0929 99.5219 55.1682 99.6424 55.2887C99.7628 55.4091 99.8231 55.5296 99.8381 55.635V55.7253C99.7177 55.7856 99.6123 55.9361 99.5069 56.1771C99.4015 56.418 99.2961 56.7191 99.1907 57.0504C99.0853 57.3816 98.9799 57.743 98.8745 58.1345C98.7691 58.526 98.6637 58.8723 98.5583 59.1885C98.4378 59.5197 98.3324 59.7757 98.212 59.9865C98.0915 60.1973 97.956 60.3027 97.8355 60.3027C97.7 60.3027 97.5645 60.2726 97.4139 60.1822C97.2634 60.0919 97.1881 60.0015 97.173 59.8811L97.2031 59.5047ZM105.933 57.6225C105.963 57.7129 105.993 57.7882 106.024 57.8785C106.054 57.9688 106.069 58.0441 106.069 58.1194C106.069 58.2098 106.039 58.27 105.993 58.3152C105.948 58.3754 105.888 58.4055 105.828 58.4356C105.768 58.4657 105.692 58.4958 105.632 58.5109C105.557 58.526 105.497 58.526 105.436 58.526C105.226 58.526 105.06 58.4206 104.94 58.1947C104.804 57.9688 104.699 57.6828 104.623 57.3515C104.533 57.0202 104.473 56.6589 104.413 56.2825C104.352 55.906 104.307 55.5597 104.262 55.2586C104.232 55.4694 104.126 55.7404 103.961 56.0566C103.795 56.3879 103.584 56.689 103.343 56.9901C103.087 57.2913 102.816 57.5322 102.515 57.743C102.214 57.9538 101.913 58.0592 101.612 58.0592C101.371 58.0592 101.16 58.014 101.01 57.9237C100.859 57.8333 100.739 57.7129 100.663 57.5623C100.573 57.4268 100.528 57.2762 100.498 57.0955C100.468 56.9148 100.453 56.7492 100.453 56.5986C100.453 56.2674 100.528 55.8609 100.693 55.379C100.859 54.8972 101.085 54.4154 101.371 53.9486C101.657 53.4969 101.988 53.1054 102.365 52.7742C102.741 52.4429 103.148 52.2773 103.569 52.2773C103.66 52.2773 103.75 52.2923 103.87 52.3225C103.991 52.3526 104.111 52.3977 104.232 52.4429C104.352 52.4881 104.458 52.5483 104.578 52.6085C104.684 52.6688 104.774 52.729 104.864 52.7892C105.03 52.9398 105.15 53.1205 105.211 53.3614C105.271 53.6023 105.316 53.8583 105.346 54.1142C105.406 54.6262 105.467 55.0779 105.512 55.4844C105.542 55.891 105.617 56.3126 105.738 56.7643L105.828 57.3214L105.933 57.6225ZM101.687 56.8396C101.687 56.8546 101.687 56.8697 101.687 56.8697L101.702 56.8847C101.823 56.8847 101.973 56.7944 102.154 56.6288C102.32 56.4631 102.485 56.2674 102.666 56.0265C102.832 55.8006 102.982 55.5597 103.133 55.3037C103.283 55.0478 103.389 54.8219 103.464 54.6111C103.494 54.5208 103.539 54.4304 103.599 54.31C103.66 54.2046 103.705 54.0992 103.765 53.9787C103.825 53.8583 103.87 53.7529 103.901 53.6475C103.931 53.5571 103.961 53.4668 103.961 53.3915C103.901 53.3764 103.855 53.3614 103.825 53.3313C103.78 53.3162 103.735 53.3012 103.69 53.3012C103.464 53.3012 103.268 53.3915 103.103 53.5571C102.922 53.7378 102.771 53.9185 102.651 54.1293C102.53 54.3401 102.425 54.5509 102.35 54.7466C102.259 54.9424 102.214 55.0628 102.184 55.108C102.033 55.364 101.913 55.635 101.823 55.9211C101.732 56.2222 101.687 56.4933 101.687 56.7643V56.8396ZM106.687 52.3676C106.718 52.3225 106.763 52.2773 106.808 52.2171C106.838 52.1568 106.898 52.1267 106.989 52.1267C107.169 52.1568 107.335 52.202 107.516 52.2773C107.696 52.3676 107.847 52.5182 107.982 52.729C108.088 52.9398 108.178 53.1054 108.253 53.2409C108.314 53.3764 108.389 53.4969 108.449 53.6174C108.509 53.7378 108.585 53.8432 108.66 53.9336C108.72 54.039 108.81 54.1444 108.916 54.2648C108.946 54.1895 109.021 54.0691 109.127 53.9185C109.232 53.7679 109.353 53.6023 109.473 53.4517C109.593 53.3012 109.699 53.1656 109.804 53.0452C109.895 52.9247 109.97 52.8645 110 52.8494C110.12 52.6989 110.241 52.5634 110.391 52.4128C110.542 52.2773 110.723 52.202 110.934 52.202C111.114 52.202 111.295 52.2472 111.46 52.3225C111.626 52.3977 111.716 52.5182 111.716 52.6989C111.716 52.7591 111.701 52.8193 111.686 52.8796C111.506 53.1205 111.31 53.3313 111.114 53.5421C110.903 53.7529 110.723 53.9185 110.557 54.0691C110.497 54.1594 110.422 54.2648 110.331 54.3853L110.03 54.7466C109.925 54.8671 109.834 54.9875 109.759 55.0779C109.684 55.1833 109.654 55.2586 109.654 55.3037C109.654 55.3339 109.699 55.4091 109.789 55.5145C109.88 55.635 110 55.7555 110.12 55.891C110.241 56.0265 110.346 56.162 110.467 56.2825C110.572 56.418 110.647 56.5234 110.678 56.5836C110.783 56.7492 110.903 56.9148 111.024 57.0654C111.144 57.216 111.22 57.3967 111.22 57.5774C111.22 57.6677 111.174 57.743 111.114 57.8032C111.039 57.8785 110.964 57.9387 110.888 57.9839C110.828 57.9839 110.768 57.999 110.723 57.999C110.678 58.014 110.632 58.014 110.587 58.014C110.527 58.014 110.482 58.014 110.437 57.999C110.376 57.999 110.316 57.9688 110.256 57.9237C110.196 57.8634 110.105 57.758 109.985 57.6075C109.864 57.4569 109.729 57.2913 109.608 57.1256C109.488 56.96 109.368 56.8094 109.247 56.6589C109.127 56.5234 109.051 56.4481 109.021 56.418C108.931 56.5384 108.841 56.6739 108.75 56.8245C108.66 56.9751 108.57 57.1256 108.479 57.2762C108.389 57.4268 108.314 57.5774 108.253 57.7129C108.178 57.8634 108.118 57.9839 108.088 58.0742C108.027 58.2549 107.937 58.4356 107.817 58.6163C107.696 58.797 107.561 58.8873 107.38 58.8873C107.26 58.8873 107.154 58.8572 107.064 58.7819C106.913 58.6615 106.808 58.526 106.763 58.4055C106.718 58.285 106.687 58.1495 106.672 57.9839C106.672 57.9688 106.657 57.9538 106.657 57.9387C106.657 57.9387 106.657 57.9237 106.657 57.8936C106.763 57.6075 106.898 57.3364 107.079 57.0955C107.26 56.8546 107.425 56.5836 107.576 56.2825C107.651 56.1319 107.756 55.9964 107.877 55.8458C107.997 55.6952 108.073 55.5296 108.088 55.3489C107.967 55.1381 107.877 54.9424 107.787 54.7767C107.696 54.6262 107.621 54.4756 107.546 54.325C107.455 54.1895 107.38 54.054 107.29 53.9034C107.199 53.7529 107.109 53.5872 107.019 53.4066C106.943 53.2861 106.853 53.1656 106.748 53.0602C106.627 52.9699 106.567 52.8344 106.567 52.6838L106.687 52.3676Z" fill="#F8F8F8"/>
</svg>
