<svg width="44" height="44" viewBox="0 0 44 44" fill="none" xmlns="http://www.w3.org/2000/svg">
<rect width="44" height="44" rx="10" fill="#F8F8F8"/>
<path d="M10 12.667V11.667C9.73478 11.667 9.48043 11.7723 9.29289 11.9599C9.10536 12.1474 9 12.4018 9 12.667H10ZM34 12.667H35C35 12.4018 34.8946 12.1474 34.7071 11.9599C34.5196 11.7723 34.2652 11.667 34 11.667V12.667ZM10 13.667H34V11.667H10V13.667ZM33 12.667V28.667H35V12.667H33ZM31.3333 30.3337H12.6667V32.3337H31.3333V30.3337ZM11 28.667V12.667H9V28.667H11ZM12.6667 30.3337C11.7467 30.3337 11 29.587 11 28.667H9C9 29.6395 9.38631 30.5721 10.0739 31.2597C10.7616 31.9473 11.6942 32.3337 12.6667 32.3337V30.3337ZM33 28.667C33 29.587 32.2533 30.3337 31.3333 30.3337V32.3337C32.3058 32.3337 33.2384 31.9473 33.9261 31.2597C34.6137 30.5721 35 29.6395 35 28.667H33Z" fill="#211500"/>
<path d="M10 12.667L22 24.667L34 12.667" stroke="#211500" stroke-width="2" stroke-linecap="round" stroke-linejoin="round"/>
</svg>
