<svg width="28" height="28" viewBox="0 0 28 28" fill="none" xmlns="http://www.w3.org/2000/svg">
<path d="M18.8164 2.72461C19.3777 2.72478 19.9336 2.83585 20.4521 3.05078C20.9708 3.26578 21.442 3.58139 21.8389 3.97852C22.2357 4.37559 22.5509 4.84654 22.7656 5.36523C22.9804 5.88402 23.091 6.44049 23.0908 7.00195C23.0906 7.56331 22.9796 8.11912 22.7646 8.6377C22.55 9.15541 22.2359 9.62601 21.8398 10.0225L21.8213 10.04L21.8203 10.041L11.3418 20.127C11.227 20.2373 11.0916 20.3247 10.9434 20.3828C10.7952 20.4408 10.6366 20.4689 10.4775 20.4658C10.3184 20.4627 10.1614 20.428 10.0156 20.3643C9.86982 20.3005 9.73827 20.2084 9.62793 20.0938C9.51753 19.979 9.43014 19.8436 9.37207 19.6953C9.31405 19.5471 9.28597 19.3887 9.28906 19.2295C9.29218 19.0703 9.32685 18.9134 9.39062 18.7676C9.45442 18.6217 9.54636 18.4893 9.66113 18.3789L20.1289 8.30371L20.1309 8.30176C20.4766 7.95376 20.6704 7.48274 20.6689 6.99219C20.6674 6.50162 20.4709 6.03143 20.123 5.68555C19.9508 5.51434 19.7461 5.37842 19.5215 5.28613C19.2967 5.19385 19.0555 5.14671 18.8125 5.14746C18.3218 5.14902 17.8517 5.34534 17.5059 5.69336L6.77051 16.3965H6.76953C6.01254 17.1538 5.5878 18.1812 5.58789 19.252C5.58799 19.7822 5.69248 20.308 5.89551 20.7979C6.09854 21.2877 6.39648 21.7326 6.77148 22.1074C7.14642 22.4822 7.59127 22.7796 8.08105 22.9824C8.57102 23.1853 9.09666 23.2901 9.62695 23.29C10.631 23.2898 11.5963 22.9151 12.3369 22.2441L12.4814 22.1064L21.457 13.1377C21.5698 13.0249 21.7042 12.9351 21.8516 12.874C21.9988 12.8131 22.157 12.7822 22.3164 12.7822C22.4759 12.7823 22.6339 12.813 22.7812 12.874C22.8918 12.9198 22.9947 12.982 23.0869 13.0576L23.1748 13.1377C23.2876 13.2505 23.3774 13.3848 23.4385 13.5322C23.4994 13.6795 23.5312 13.8377 23.5312 13.9971C23.5312 14.1565 23.4995 14.3147 23.4385 14.4619C23.3807 14.6013 23.2958 14.7271 23.1914 14.8359L23.1709 14.8564L14.1953 23.8252C12.983 25.0371 11.3391 25.718 9.625 25.7178C7.91085 25.7175 6.26659 25.0365 5.05469 23.8242C3.84277 22.6119 3.16181 20.9671 3.16211 19.2529C3.16248 17.5389 3.84441 15.8954 5.05664 14.6836L15.793 3.97656C16.595 3.17503 17.6825 2.72431 18.8164 2.72461Z" fill="black" stroke="white" stroke-width="0.2"/>
</svg>
