<svg width="28" height="28" viewBox="0 0 28 28" fill="none" xmlns="http://www.w3.org/2000/svg">
<path d="M14.5783 21.6849L19.3523 24.1932C19.5539 24.2993 19.7813 24.3467 20.0085 24.33C20.2357 24.3133 20.4537 24.2332 20.6377 24.0988C20.8217 23.9644 20.9643 23.7811 21.0493 23.5697C21.1343 23.3583 21.1583 23.1273 21.1186 22.9029L20.2051 17.5922C20.1717 17.3965 20.1865 17.1955 20.2481 17.0067C20.3097 16.8179 20.4162 16.6469 20.5586 16.5084L24.4203 12.7447C24.5848 12.5868 24.7017 12.3857 24.7575 12.1645C24.8133 11.9433 24.8058 11.7109 24.7358 11.4938C24.6659 11.2766 24.5363 11.0835 24.3619 10.9365C24.1875 10.7895 23.9753 10.6944 23.7494 10.6622L18.4154 9.89573C18.2199 9.86689 18.0343 9.7907 17.8749 9.67378C17.7155 9.55687 17.587 9.40277 17.5008 9.2249L15.0648 4.35407C14.9651 4.14789 14.8094 3.97397 14.6154 3.85227C14.4214 3.73057 14.1971 3.66602 13.9681 3.66602C13.7391 3.66602 13.5147 3.73057 13.3208 3.85227C13.1268 3.97397 12.9711 4.14789 12.8714 4.35407L10.4389 9.2249C10.3528 9.40262 10.2245 9.55662 10.0653 9.67353C9.90612 9.79044 9.72079 9.86671 9.52543 9.89573L4.26376 10.6622C4.03731 10.6932 3.82415 10.7873 3.64865 10.9337C3.47315 11.0802 3.34239 11.273 3.27132 11.4902C3.20025 11.7075 3.19173 11.9403 3.24675 12.1622C3.30176 12.384 3.41809 12.5859 3.58243 12.7447L7.44293 16.5084C7.58631 16.6464 7.69354 16.8175 7.75519 17.0067C7.81684 17.196 7.831 17.3974 7.79643 17.5934L6.88293 22.9017C6.8431 23.126 6.86696 23.357 6.95182 23.5684C7.03667 23.7798 7.17911 23.9632 7.36295 24.0977C7.5468 24.2322 7.76468 24.3124 7.99185 24.3293C8.21902 24.3462 8.44638 24.2991 8.64809 24.1932L13.4233 21.6849C13.6008 21.5887 13.7995 21.5383 14.0013 21.5383C14.2032 21.5383 14.4019 21.5887 14.5794 21.6849" fill="#FFC721"/>
<path d="M14.5783 21.6849L19.3523 24.1932C19.5539 24.2993 19.7813 24.3467 20.0085 24.33C20.2357 24.3133 20.4537 24.2332 20.6377 24.0988C20.8217 23.9644 20.9643 23.7811 21.0493 23.5697C21.1343 23.3583 21.1583 23.1273 21.1186 22.9029L20.2051 17.5922C20.1717 17.3965 20.1865 17.1955 20.2481 17.0067C20.3097 16.8179 20.4162 16.6469 20.5586 16.5084L24.4203 12.7447C24.5848 12.5868 24.7017 12.3857 24.7575 12.1645C24.8133 11.9433 24.8058 11.7109 24.7358 11.4938C24.6659 11.2766 24.5363 11.0835 24.3619 10.9365C24.1875 10.7895 23.9753 10.6944 23.7494 10.6622L18.4154 9.89573C18.2199 9.86689 18.0343 9.7907 17.8749 9.67378C17.7155 9.55687 17.587 9.40277 17.5008 9.2249L15.0648 4.35407C14.9651 4.14789 14.8094 3.97397 14.6154 3.85227C14.4214 3.73057 14.1971 3.66602 13.9681 3.66602C13.7391 3.66602 13.5147 3.73057 13.3208 3.85227C13.1268 3.97397 12.9711 4.14789 12.8714 4.35407L10.4389 9.2249C10.3528 9.40262 10.2245 9.55662 10.0653 9.67353C9.90612 9.79044 9.72079 9.86671 9.52543 9.89573L4.26376 10.6622C4.03731 10.6932 3.82415 10.7873 3.64865 10.9337C3.47315 11.0802 3.34239 11.273 3.27132 11.4902C3.20025 11.7075 3.19173 11.9403 3.24675 12.1622C3.30176 12.384 3.41809 12.5859 3.58243 12.7447L7.44293 16.5084C7.58631 16.6464 7.69354 16.8175 7.75519 17.0067C7.81684 17.196 7.831 17.3974 7.79643 17.5934L6.88293 22.9017C6.8431 23.126 6.86696 23.357 6.95182 23.5684C7.03667 23.7798 7.17911 23.9632 7.36295 24.0977C7.5468 24.2322 7.76468 24.3124 7.99185 24.3293C8.21902 24.3462 8.44638 24.2991 8.64809 24.1932L13.4233 21.6849C13.6008 21.5887 13.7995 21.5383 14.0013 21.5383C14.2032 21.5383 14.4019 21.5887 14.5794 21.6849" stroke="#FFC721" stroke-width="1.75" stroke-linecap="round" stroke-linejoin="round"/>
</svg>
