<svg width="45" height="43" viewBox="0 0 45 43" fill="none" xmlns="http://www.w3.org/2000/svg">
<path d="M12 20.5H24M12 26.5H21M27 13C28.1935 13 29.3381 13.4741 30.182 14.318C31.0259 15.1619 31.5 16.3065 31.5 17.5V29.5C31.5 30.6935 31.0259 31.8381 30.182 32.682C29.3381 33.5259 28.1935 34 27 34H19.5L12 38.5V34H9C7.80653 34 6.66193 33.5259 5.81802 32.682C4.97411 31.8381 4.5 30.6935 4.5 29.5V17.5C4.5 16.3065 4.97411 15.1619 5.81802 14.318C6.66193 13.4741 7.80653 13 9 13H27Z" stroke="black" stroke-width="2.25" stroke-linecap="round" stroke-linejoin="round"/>
</svg>
