<svg width="44" height="44" viewBox="0 0 44 44" fill="none" xmlns="http://www.w3.org/2000/svg">
<rect width="44" height="44" rx="10" fill="#F8F8F8"/>
<path d="M27.8389 25.854L28.4469 25.25L27.0349 23.8313L26.4296 24.4353L27.8389 25.854ZM30.4856 24.9966L33.0336 26.382L33.9869 24.6246L31.4402 23.2406L30.4856 24.9966ZM33.5229 29.134L31.6296 31.018L33.0389 32.4353L34.9322 30.5526L33.5229 29.134ZM30.4749 31.6233C28.5416 31.8046 23.5416 31.6433 18.1256 26.2593L16.7149 27.6766C22.6242 33.5526 28.2496 33.8406 30.6616 33.6153L30.4749 31.6233ZM18.1256 26.2593C12.9642 21.126 12.1082 16.81 12.0016 14.9366L10.0042 15.05C10.1376 17.4073 11.1976 22.1913 16.7149 27.6766L18.1256 26.2593ZM19.9589 18.0193L20.3416 17.638L18.9336 16.2206L18.5509 16.6006L19.9589 18.0193ZM20.6456 12.7913L18.9656 10.546L17.3642 11.746L19.0442 13.99L20.6456 12.7913ZM13.3109 10.0566L11.2176 12.1366L12.6282 13.5553L14.7202 11.4753L13.3109 10.0566ZM19.2549 17.31C18.5482 16.6006 18.5482 16.6006 18.5482 16.6033H18.5456L18.5416 16.6086C18.4782 16.6725 18.4215 16.7426 18.3722 16.818C18.3002 16.9246 18.2216 17.0646 18.1549 17.242C17.9926 17.6997 17.9522 18.1918 18.0376 18.67C18.2162 19.8233 19.0109 21.3473 21.0456 23.3713L22.4562 21.9526C20.5509 20.0593 20.0976 18.9073 20.0136 18.3633C19.9736 18.1046 20.0149 17.9766 20.0269 17.9473C20.0349 17.9295 20.0349 17.9269 20.0269 17.9393C20.015 17.9577 20.0016 17.9751 19.9869 17.9913L19.9736 18.0046L19.9602 18.0166L19.2549 17.31ZM21.0456 23.3713C23.0816 25.3953 24.6136 26.1846 25.7682 26.3606C26.3589 26.4513 26.8349 26.3793 27.1962 26.2446C27.3986 26.1706 27.5877 26.0643 27.7562 25.93L27.8229 25.87L27.8322 25.862L27.8362 25.858L27.8376 25.8553C27.8376 25.8553 27.8389 25.854 27.1336 25.1446C26.4269 24.4353 26.4309 24.434 26.4309 24.434L26.4336 24.4313L26.4362 24.4286L26.4442 24.422L26.4576 24.4086L26.5082 24.3686C26.5207 24.3606 26.5176 24.3615 26.4989 24.3713C26.4656 24.3833 26.3349 24.4246 26.0722 24.3846C25.5202 24.2993 24.3602 23.846 22.4562 21.9526L21.0456 23.3713ZM18.9656 10.5446C17.6056 8.7313 14.9336 8.4433 13.3109 10.0566L14.7202 11.4753C15.4296 10.77 16.6882 10.8433 17.3642 11.746L18.9656 10.5446ZM12.0029 14.938C11.9762 14.4766 12.1882 13.994 12.6282 13.5566L11.2162 12.138C10.5002 12.85 9.93623 13.858 10.0042 15.05L12.0029 14.938ZM31.6296 31.018C31.2642 31.3833 30.8696 31.5886 30.4762 31.6246L30.6616 33.6153C31.6416 33.5233 32.4429 33.03 33.0402 32.4366L31.6296 31.018ZM20.3416 17.638C21.6549 16.3326 21.7522 14.27 20.6469 12.7926L19.0456 13.9913C19.5829 14.71 19.5029 15.6526 18.9322 16.222L20.3416 17.638ZM33.0349 26.3833C34.1242 26.9753 34.2936 28.37 33.5242 29.1353L34.9349 30.5526C36.7216 28.7753 36.1709 25.8113 33.9882 24.626L33.0349 26.3833ZM28.4469 25.2513C28.9589 24.742 29.7829 24.6166 30.4869 24.998L31.4416 23.242C29.9962 22.4553 28.2042 22.6726 27.0362 23.8326L28.4469 25.2513Z" fill="#211500"/>
</svg>
