<svg width="40" height="40" viewBox="0 0 40 40" fill="none" xmlns="http://www.w3.org/2000/svg">
<path d="M35.0557 3.90527C35.2834 3.94424 35.4961 4.04529 35.6709 4.19629C35.8457 4.34703 35.976 4.54241 36.0479 4.76172C36.1197 4.98114 36.1309 5.21639 36.0791 5.44141L29.7324 33.0332C29.6425 33.4321 29.4494 33.8004 29.1729 34.1016C28.8962 34.4027 28.5451 34.6255 28.1553 34.749C27.9772 34.8064 27.7935 34.8436 27.6074 34.8584L27.4209 34.8662C26.8489 34.8658 26.2967 34.6562 25.8682 34.2773L19.4961 28.6914L15.4502 32.8887C15.1235 33.2277 14.7026 33.4613 14.2422 33.5596C13.7817 33.6578 13.3019 33.6165 12.8652 33.4404C12.4286 33.2643 12.0545 32.9614 11.791 32.5713C11.5276 32.1811 11.3869 31.7208 11.3867 31.25V21.9893L3.07129 20.3564C2.62853 20.2695 2.22589 20.0413 1.92383 19.7061C1.62168 19.3706 1.43588 18.9457 1.39551 18.4961C1.35517 18.0465 1.46173 17.5958 1.69922 17.2119C1.93671 16.8281 2.29265 16.5317 2.71289 16.3672L34.3789 3.97461L34.543 3.92285C34.7103 3.88231 34.8848 3.87607 35.0557 3.90527ZM14.2861 21.1602L27.3281 32.6016L27.3301 32.6035C27.3484 32.6199 27.3714 32.6309 27.3955 32.6357C27.4196 32.6405 27.4446 32.639 27.4678 32.6309L27.4756 32.6279H27.4766C27.4982 32.6215 27.5178 32.6093 27.5332 32.5928C27.5486 32.5762 27.5587 32.5553 27.5635 32.5332L27.5645 32.5312L33.3174 7.52148L14.2861 21.1602ZM13.6113 31.249L13.6182 31.2891C13.6222 31.3018 13.6281 31.314 13.6357 31.3252C13.6512 31.3477 13.6729 31.3649 13.6982 31.375C13.7236 31.3851 13.7516 31.3876 13.7783 31.3818C13.8048 31.376 13.8288 31.3623 13.8477 31.3428L17.8213 27.2158L13.6113 23.5283V31.249ZM3.97266 18.2656L12.2402 19.8848L27.1816 9.18066L3.97266 18.2656Z" fill="#F8F8F8" stroke="#F8F8F8" stroke-width="0.35"/>
</svg>
