<svg width="40" height="40" viewBox="0 0 40 40" fill="none" xmlns="http://www.w3.org/2000/svg">
<path d="M12.0391 12.8887C12.8666 12.8888 13.5914 13.4192 13.8418 14.208C14.1097 15.0527 14.6756 16.6713 15.4619 18.0547C15.8719 18.7759 16.3442 19.4213 16.7715 19.9482V16.7197C16.7714 16.2758 16.6349 15.8508 16.376 15.4902L16.0898 15.0918C15.9193 14.8542 15.8291 14.5729 15.8291 14.2803C15.8292 13.5127 16.4531 12.8888 17.2207 12.8887H21.3076C22.1438 12.8887 22.8242 13.569 22.8242 14.4053V19.0322C23.9912 17.7087 24.9423 16.2215 25.6533 14.6016L25.959 13.9053C26.2298 13.288 26.8407 12.8887 27.5146 12.8887H27.5166L30.4014 12.8926C30.9557 12.8932 31.4585 13.1787 31.7432 13.6543C32.0278 14.1299 32.0415 14.7075 31.7803 15.1963L30.4473 17.6904C30.2594 18.0418 30.0484 18.3856 29.8193 18.7119L28.2588 20.9346C28.2225 20.9864 28.2297 21.0539 28.2754 21.0977L29.418 22.1855C30.3551 23.078 31.1729 24.0906 31.8486 25.1943L32.1904 25.7529C32.4982 26.2556 32.5107 26.8872 32.2227 27.4014C31.9346 27.9157 31.3893 28.2354 30.7998 28.2354H28.3086C27.5798 28.2353 26.8714 27.9354 26.3633 27.4131L23.8721 24.8516C23.5766 24.5477 23.2189 24.3192 22.8242 24.1777V26.3203C22.8241 27.3762 21.9651 28.2354 20.9092 28.2354C18.6463 28.2353 16.4107 27.4782 14.6133 26.1035C13.9383 25.5873 13.2948 25.0177 12.7002 24.4111C12.3962 24.101 11.7687 23.3151 11.1504 22.4775C10.5317 21.6395 9.90704 20.7297 9.61426 20.1709C9.03709 19.0692 8.57368 17.9035 8.23633 16.7061L7.69043 14.7705C7.56385 14.3208 7.65372 13.848 7.93555 13.4756C8.2178 13.1032 8.64895 12.8887 9.11621 12.8887H12.0391ZM9.86914 16.2451C10.1747 17.3297 10.5954 18.386 11.1182 19.3838C11.3755 19.8749 11.9378 20.6969 12.5098 21.4717C13.082 22.2468 13.6496 22.9559 13.9121 23.2236C14.4504 23.7726 15.0336 24.2876 15.6445 24.7549C17.1473 25.9043 19.0173 26.5381 20.9092 26.5381C21.0291 26.5381 21.1268 26.4402 21.127 26.3203V23.8037C21.127 23.3731 21.3197 22.9701 21.6553 22.7002C21.9909 22.4302 22.4263 22.3285 22.8467 22.4209C23.7024 22.6088 24.4781 23.0409 25.0889 23.6689L27.5791 26.2295C27.7692 26.425 28.0358 26.538 28.3086 26.5381H30.6816L30.4014 26.0801V26.0811C29.8026 25.1032 29.0784 24.2058 28.248 23.415L27.1055 22.3271C26.4474 21.7005 26.3481 20.7038 26.8701 19.96L28.4307 17.7373C28.6204 17.4668 28.7955 17.1818 28.9512 16.8906L30.1807 14.5889L27.5146 14.5859L27.5127 14.5869L27.207 15.2832C26.3422 17.2536 25.156 19.0476 23.6807 20.6143C23.5688 20.733 23.4366 20.8278 23.2881 20.8955L23.0107 21.0225V21.0215C22.5971 21.2103 22.1207 21.1766 21.7383 20.9307C21.3559 20.6848 21.127 20.2662 21.127 19.8115V14.5859H17.8115C18.2405 15.218 18.4687 15.9531 18.4688 16.7197V20.9375C18.4688 21.4904 18.1346 21.9785 17.6191 22.1787C17.1043 22.3787 16.529 22.2441 16.1562 21.8369C15.5596 21.185 14.6976 20.1448 13.9863 18.8936C13.1208 17.371 12.5109 15.6242 12.2246 14.7217C12.1987 14.64 12.1244 14.5861 12.0391 14.5859H9.40137L9.86914 16.2451Z" fill="#F8F8F8" stroke="#F8F8F8" stroke-width="0.35"/>
<path d="M32.7979 2.58398C35.3454 2.58418 37.418 4.65654 37.418 7.2041V32.7969C37.4178 35.3443 35.3452 37.4168 32.7979 37.417H7.20508C4.65751 37.417 2.58516 35.3444 2.58496 32.7969V7.2041C2.58496 4.65641 4.65739 2.58398 7.20508 2.58398H32.7979ZM7.20508 4.28125C5.59348 4.28125 4.28223 5.59251 4.28223 7.2041V32.7969C4.28243 34.4083 5.59361 35.7197 7.20508 35.7197H32.7979C34.4092 35.7195 35.7205 34.4082 35.7207 32.7969V7.2041C35.7207 5.59263 34.4093 4.28145 32.7979 4.28125H7.20508Z" fill="#F8F8F8" stroke="#F8F8F8" stroke-width="0.35"/>
</svg>
