<svg width="19" height="19" viewBox="0 0 19 19" fill="none" xmlns="http://www.w3.org/2000/svg">
<path d="M6.42555 7.54372H13.1314M6.42555 10.8967H11.455M14.8079 3.35254C15.4748 3.35254 16.1145 3.61748 16.5861 4.08908C17.0577 4.56068 17.3226 5.2003 17.3226 5.86725V12.5731C17.3226 13.2401 17.0577 13.8797 16.5861 14.3513C16.1145 14.8229 15.4748 15.0878 14.8079 15.0878H10.6167L6.42555 17.6025V15.0878H4.74908C4.08214 15.0878 3.44251 14.8229 2.97092 14.3513C2.49932 13.8797 2.23438 13.2401 2.23438 12.5731V5.86725C2.23438 5.2003 2.49932 4.56068 2.97092 4.08908C3.44251 3.61748 4.08214 3.35254 4.74908 3.35254H14.8079Z" stroke="#211500" stroke-width="1.3" stroke-linecap="round" stroke-linejoin="round"/>
</svg>
