<svg width="22" height="18" viewBox="0 0 22 18" fill="none" xmlns="http://www.w3.org/2000/svg">
<path fill-rule="evenodd" clip-rule="evenodd" d="M11.0007 16.5833L10.3128 15.9591C8.83195 14.6008 7.60695 13.4381 6.63784 12.4709C5.66933 11.5032 4.90469 10.6497 4.34391 9.91039C3.78314 9.17108 3.39113 8.50284 3.16791 7.90568C2.94469 7.30852 2.83338 6.70681 2.83399 6.10054C2.83399 4.94145 3.22599 3.96826 4.00999 3.18095C4.79399 2.39365 5.7631 2 6.91732 2C7.71584 2 8.46445 2.20503 9.16315 2.61508C9.86186 3.02513 10.4744 3.62169 11.0007 4.40474C11.5269 3.62169 12.1394 3.02513 12.8382 2.61508C13.5369 2.20503 14.2855 2 15.084 2C16.2382 2 17.2073 2.39365 17.9913 3.18095C18.7753 3.96826 19.1673 4.94145 19.1673 6.10054C19.1673 6.70559 19.056 7.30701 18.8334 7.90477C18.6102 8.50376 18.2182 9.1726 17.6574 9.9113C17.0966 10.65 16.3347 11.5032 15.3716 12.4709C14.4086 13.4381 13.1805 14.6008 11.6876 15.9591L11.0007 16.5833ZM14.5849 11.9634C13.6473 12.9026 12.4525 14.0313 11.0007 15.3495C9.5488 14.0203 8.35405 12.8886 7.41639 11.9543C6.47874 11.02 5.73769 10.2075 5.19325 9.51674C4.6488 8.82603 4.27071 8.21398 4.05899 7.68061C3.84726 7.14724 3.74139 6.62055 3.74139 6.10054C3.742 5.18931 4.0478 4.42995 4.65878 3.82246C5.26977 3.21497 6.02292 2.91123 6.91823 2.91123C7.64052 2.91123 8.30414 3.11535 8.90908 3.52358C9.51402 3.93242 10.0636 4.55904 10.5578 5.40345H11.4453C11.9268 4.57058 12.4731 3.947 13.0841 3.53269C13.695 3.11838 14.3617 2.91123 15.084 2.91123C15.9914 2.91123 16.7476 3.21497 17.3525 3.82246C17.9574 4.42995 18.2599 5.18931 18.2599 6.10054C18.2599 6.62055 18.154 7.14724 17.9423 7.68061C17.7306 8.21277 17.3525 8.82481 16.8081 9.51674C16.2636 10.2087 15.5226 11.0242 14.5849 11.9634Z" fill="#E20B0B"/>
<path d="M11.0007 15.3495C12.4525 14.0313 13.6473 12.9026 14.5849 11.9634C15.5226 11.0242 16.2636 10.2087 16.8081 9.51674C17.3525 8.82481 17.7306 8.21277 17.9423 7.68061C18.154 7.14724 18.2599 6.62055 18.2599 6.10054C18.2599 5.18931 17.9574 4.42995 17.3525 3.82246C16.7476 3.21497 15.9914 2.91123 15.084 2.91123C14.3617 2.91123 13.695 3.11838 13.0841 3.53269C12.4731 3.947 11.9268 4.57058 11.4453 5.40345H10.5578C10.0636 4.55904 9.51402 3.93242 8.90908 3.52358C8.30414 3.11535 7.64052 2.91123 6.91823 2.91123C6.02292 2.91123 5.26977 3.21497 4.65878 3.82246C4.0478 4.42995 3.742 5.18931 3.74139 6.10054C3.74139 6.62055 3.84726 7.14724 4.05899 7.68061C4.27071 8.21398 4.6488 8.82603 5.19325 9.51674C5.73769 10.2075 6.47874 11.02 7.41639 11.9543C8.35405 12.8886 9.5488 14.0203 11.0007 15.3495Z" fill="#E20B0B"/>
</svg>
