<svg width="20" height="20" viewBox="0 0 20 20" fill="none" xmlns="http://www.w3.org/2000/svg">
<path d="M2.34961 10.4189C2.34967 10.2688 2.40954 10.1248 2.51562 10.0186L8.34961 4.18555L8.35156 4.18359C8.45842 4.08044 8.60148 4.02312 8.75 4.02441C8.89847 4.02578 9.04051 4.08543 9.14551 4.19043C9.25049 4.29546 9.3102 4.43744 9.31152 4.58594C9.31281 4.73446 9.2555 4.87751 9.15234 4.98438L4.28125 9.85547L16.9365 9.85547L16.9365 9.84961L17.0859 9.84961C17.2362 9.84961 17.381 9.90935 17.4873 10.0156C17.5934 10.1218 17.6523 10.2659 17.6523 10.416C17.6523 10.5663 17.5936 10.7111 17.4873 10.8174C17.381 10.9237 17.2362 10.9834 17.0859 10.9834L4.28223 10.9834L9.15234 15.8535C9.25548 15.9603 9.31272 16.1035 9.31152 16.252C9.31023 16.4005 9.25057 16.5434 9.14551 16.6484C9.04053 16.7533 8.8984 16.8131 8.75 16.8145C8.60159 16.8157 8.4584 16.7583 8.35156 16.6553L8.34961 16.6533L2.51562 10.8203L2.51562 10.8193C2.40963 10.7131 2.34961 10.569 2.34961 10.4189Z" fill="#6F685D" stroke="#6F685D" stroke-width="0.3"/>
</svg>
