<svg width="28" height="28" viewBox="0 0 28 28" fill="none" xmlns="http://www.w3.org/2000/svg">
<rect width="28" height="28" rx="4.67122" fill="white"/>
<path d="M12.3144 8.2525H15.7116C15.7116 7.81372 15.5327 7.39292 15.2141 7.08266C14.8956 6.77241 14.4635 6.5981 14.013 6.5981C13.5625 6.5981 13.1305 6.77241 12.8119 7.08266C12.4934 7.39292 12.3144 7.81372 12.3144 8.2525ZM11.2952 8.2525C11.2952 7.55046 11.5816 6.87718 12.0912 6.38076C12.6009 5.88435 13.2922 5.60547 14.013 5.60547C14.7338 5.60547 15.4251 5.88435 15.9348 6.38076C16.4445 6.87718 16.7308 7.55046 16.7308 8.2525H20.9774C21.1125 8.2525 21.487 8.2525 21.487 8.2525C21.487 8.2525 21.487 8.61718 21.487 8.74881C21.487 8.88044 21.487 9.24513 21.487 9.24513C21.487 9.24513 21.1125 9.24513 20.9774 9.24513H20.0873L19.2604 18.9088C19.2003 19.6118 18.871 20.2671 18.3381 20.7448C17.8051 21.2224 17.1072 21.4876 16.3829 21.4876H11.6431C10.9188 21.4876 10.221 21.2224 9.68798 20.7448C9.155 20.2671 8.82578 19.6118 8.76562 18.9088L7.93873 9.24513H7.04865C6.9135 9.24513 6.53906 9.24513 6.53906 9.24513C6.53906 9.24513 6.53906 8.88044 6.53906 8.74881C6.53906 8.61718 6.53906 8.2525 6.53906 8.2525C6.53906 8.2525 6.9135 8.2525 7.04865 8.2525H11.2952ZM9.7814 18.826C9.82026 19.2809 10.0332 19.705 10.3781 20.0141C10.7229 20.3233 11.1744 20.4949 11.6431 20.495H16.3829C16.8516 20.4949 17.3031 20.3233 17.648 20.0141C17.9928 19.705 18.2058 19.2809 18.2446 18.826L19.0654 9.24513H8.9613L9.7814 18.826ZM12.4843 11.5613C12.6194 11.5613 12.749 11.6136 12.8446 11.7066C12.9402 11.7997 12.9938 11.926 12.9938 12.0576V17.6825C12.9938 17.8142 12.9402 17.9404 12.8446 18.0335C12.749 18.1266 12.6194 18.1788 12.4843 18.1788C12.3491 18.1788 12.2195 18.1266 12.1239 18.0335C12.0284 17.9404 11.9747 17.8142 11.9747 17.6825V12.0576C11.9747 11.926 12.0284 11.7997 12.1239 11.7066C12.2195 11.6136 12.3491 11.5613 12.4843 11.5613ZM16.0514 12.0576C16.0514 11.926 15.9977 11.7997 15.9021 11.7066C15.8066 11.6136 15.6769 11.5613 15.5418 11.5613C15.4066 11.5613 15.277 11.6136 15.1815 11.7066C15.0859 11.7997 15.0322 11.926 15.0322 12.0576V17.6825C15.0322 17.8142 15.0859 17.9404 15.1815 18.0335C15.277 18.1266 15.4066 18.1788 15.5418 18.1788C15.6769 18.1788 15.8066 18.1266 15.9021 18.0335C15.9977 17.9404 16.0514 17.8142 16.0514 17.6825V12.0576Z" fill="#E20B0B" stroke="#E20B0B" stroke-width="0.183256"/>
</svg>
