<svg width="144" height="99" viewBox="0 0 144 99" fill="none" xmlns="http://www.w3.org/2000/svg">
<path fill-rule="evenodd" clip-rule="evenodd" d="M21.9634 29.5683C28.2113 25.0449 33.1763 20.5693 36.8555 16.1415C34.0888 7.94972 32.6236 3.85335 32.6236 3.85335C29.1872 -4.0411 23.259 -0.0373369 20.7419 18.0133C20.1034 22.5932 20.0839 26.5472 21.9634 29.5683Z" fill="#FFA232"/>
<path fill-rule="evenodd" clip-rule="evenodd" d="M24.16 21.6339C25.2392 19.1402 27.534 17.3844 30.2227 16.9955C28.9475 12.3571 28.31 10.0379 28.31 10.0379C27.2659 6.24563 25.825 7.72352 24.3627 14.5544C23.772 17.3211 23.8305 19.7046 24.16 21.6339Z" fill="#211500"/>
<path fill-rule="evenodd" clip-rule="evenodd" d="M71.6071 34.5318C65.3153 30.4374 61.3086 23.6289 60.7841 16.141C67.7164 13.6639 75.0893 12.6656 82.43 13.2115C89.5533 13.7857 85.9463 20.8925 71.6071 34.5318Z" fill="#FFA232"/>
<path fill-rule="evenodd" clip-rule="evenodd" d="M120.266 113.792C120.839 111.145 120.921 108.414 120.509 105.736C124.869 105.259 128.404 101.989 129.217 97.6799C129.432 95.2086 130.955 93.0425 133.208 92.0052C135.461 90.967 138.097 91.2165 140.115 92.6593C149.95 99.6881 140.318 123.122 120.266 113.792Z" fill="#FFA232"/>
<path fill-rule="evenodd" clip-rule="evenodd" d="M34.5725 53.3271C44.6886 57.9129 56.1998 58.3506 66.6357 54.5477C71.2391 63.8791 79.8091 70.7139 89.9915 72.8576C109.976 77.0661 125.38 94.7111 124.088 115.093C123.808 119.521 121.926 123.546 119.114 126.932C116.702 131.544 112.846 135.29 108.092 137.559C113.855 139.581 115.011 141.83 111.559 144.309C99.5813 145.507 87.5017 145.234 75.5909 143.495C75.5109 140.057 79.1189 138.456 86.4138 138.694C91.0191 139.063 93.0799 138.764 92.5983 137.799C92.493 137.722 92.3907 137.642 92.2903 137.561C89.5821 137.4 86.871 137.017 84.2135 136.496C80.937 135.852 77.7239 135.003 74.5955 133.962L72.0082 144.146C66.8297 145.643 61.389 146.004 56.0585 145.203C55.6003 143.593 55.8811 141.862 56.8237 140.48C57.7664 139.097 59.2755 138.204 60.9416 138.042L60.5965 127.683C45.9589 119.228 34.5608 105.952 29.5285 89.2967C25.8767 77.2123 28.0077 64.1101 34.5725 53.3271Z" fill="#FFA232"/>
<path fill-rule="evenodd" clip-rule="evenodd" d="M60.4785 127.613C45.8975 119.156 34.5471 105.907 29.5295 89.2964C26.5922 79.5741 27.3984 69.1947 31.2443 59.8926C35.5698 63.4898 38.8804 65.4805 41.1752 65.8656C40.2627 84.5927 46.6803 102.295 60.2991 115.18L60.4785 127.613Z" fill="#FFE4C3"/>
<path fill-rule="evenodd" clip-rule="evenodd" d="M34.5745 53.3271C44.6907 57.9129 56.2019 58.3506 66.6378 54.5477C67.1701 55.6278 67.757 56.6739 68.3926 57.6838C54.9268 69.0088 42.1473 70.8123 30.0531 63.0972C31.1752 59.7028 32.6921 56.4194 34.5745 53.3271Z" fill="#211500"/>
<path d="M46.6964 64.2297C30.2471 64.2297 16.9124 52.2065 16.9124 37.3751C16.9124 22.5437 30.2471 10.5205 46.6964 10.5205C63.1457 10.5205 76.4805 22.5437 76.4805 37.3751C76.4805 52.2065 63.1457 64.2297 46.6964 64.2297Z" fill="#FFA232"/>
<path fill-rule="evenodd" clip-rule="evenodd" d="M76.0174 32.6367C76.3216 34.1751 76.4805 35.7592 76.4805 37.3765C76.4805 38.0433 76.4522 38.7052 76.3996 39.3604C72.0448 38.4469 67.8305 36.9476 63.8735 34.9013L76.0174 32.6367ZM71.8586 51.7499C70.72 53.3672 69.3942 54.8665 67.9104 56.2245L59.2351 46.4564C63.5791 47.8807 67.8003 49.651 71.8586 51.7499Z" fill="#FFE4C3"/>
<path fill-rule="evenodd" clip-rule="evenodd" d="M18.9462 47.143C18.0796 45.1425 17.4712 43.0251 17.1583 40.8239L23.5125 41.8182C23.6801 41.9274 22.1574 43.7027 18.9462 47.143ZM16.9429 36.2401C17.0715 33.4617 17.6672 30.7925 18.6625 28.2959L25.0586 32.3786L16.9429 36.2401Z" fill="#FFE4C3"/>
<path fill-rule="evenodd" clip-rule="evenodd" d="M75.1261 65.4961C76.7365 66.8765 78.4738 68.1048 80.3153 69.1616C75.1563 75.8452 67.8351 80.5733 59.5633 82.5055C65.199 77.2608 70.4028 71.5724 75.1261 65.4961ZM95.9521 74.5555C97.9564 75.2798 99.8964 76.1416 101.755 77.1311C98.5306 84.891 92.7321 91.3407 85.2958 95.3649C89.4068 88.7281 92.97 81.7695 95.9521 74.5555ZM114.323 87.0913C115.581 88.536 116.737 90.0617 117.781 91.6566C116.199 96.1955 113.572 100.311 110.099 103.664C111.88 98.7039 113.289 93.1803 114.323 87.0913Z" fill="#FFE4C3"/>
<path fill-rule="evenodd" clip-rule="evenodd" d="M73.1077 28.5531C70.46 27.0704 68.5775 24.5211 67.9399 21.5546C73.1214 19.4654 75.7116 18.4214 75.7116 18.4214C80.7536 16.6218 79.885 19.9987 73.1077 28.5531Z" fill="#211500"/>
<path d="M40.1729 38.682C38.2966 38.682 36.7755 37.8532 36.7755 36.8308C36.7755 35.8083 38.2966 34.9795 40.1729 34.9795C42.0492 34.9795 43.5703 35.8083 43.5703 36.8308C43.5703 37.8532 42.0492 38.682 40.1729 38.682Z" fill="#211500"/>
<path fill-rule="evenodd" clip-rule="evenodd" d="M30.9366 36.6491C29.6926 36.6491 28.6788 34.9674 28.6788 32.9056C28.6788 30.8437 29.6936 29.1621 30.9366 29.1621C32.1795 29.1621 33.1953 30.8437 33.1953 32.9056C33.1953 34.9674 32.1805 36.6491 30.9366 36.6491Z" fill="#211500"/>
<path fill-rule="evenodd" clip-rule="evenodd" d="M50.7129 36.6491C49.469 36.6491 48.4542 34.9674 48.4542 32.9056C48.4542 30.8437 49.469 29.1621 50.7129 29.1621C51.9568 29.1621 52.9707 30.8437 52.9707 32.9056C52.9717 34.9674 51.9568 36.6491 50.7129 36.6491Z" fill="#211500"/>
<path fill-rule="evenodd" clip-rule="evenodd" d="M34.4976 73.4725C31.8528 73.4725 29.6964 71.3161 29.6964 68.6713C29.6964 66.0265 31.8538 63.8701 34.4976 63.8701C37.1424 63.8701 39.2988 66.0265 39.2988 68.6713C39.2988 71.3161 37.1415 73.4725 34.4976 73.4725Z" fill="#593A01"/>
<path fill-rule="evenodd" clip-rule="evenodd" d="M34.418 73.4707C33.0601 73.4482 31.8395 72.8633 30.9807 71.9372C31.2283 71.1807 31.9399 70.6348 32.7783 70.6348L32.8612 70.6367L34.0866 67.3748C34.2124 67.0395 34.5877 66.8698 34.923 66.9956C35.2584 67.1214 35.428 67.4967 35.3022 67.832L34.0612 71.1349C34.4356 71.4809 34.6705 71.9752 34.6705 72.526C34.6696 72.8701 34.5779 73.1928 34.418 73.4707Z" fill="#211500"/>
<path d="M34.992 43.3651C37.742 43.2657 39.9092 40.9893 39.875 38.2383C39.8633 41.2438 40.3829 43.1789 43.8223 43.8535" stroke="#211500" stroke-width="1.78191" stroke-miterlimit="22.9256" stroke-linecap="round" stroke-linejoin="round"/>
<path d="M115.838 115.345C122.131 122.09 117.24 135.473 107.533 137.312C105.105 137.772 102.685 136.782 99.645 134.996M60.1767 115.098C58.574 110.954 58.0554 105.295 58.9561 99.8809M74.4994 134.222C76.6509 126.079 78.197 120.329 79.1378 116.97C82.6522 113.415 85.2502 109.058 86.7056 104.276M92.0771 106.31C85.759 109.035 81.7212 115.315 81.8635 122.195C82.0058 129.074 86.3021 135.181 92.7284 137.64" stroke="#211500" stroke-width="1.78191" stroke-miterlimit="22.9256" stroke-linecap="round" stroke-linejoin="round"/>
<path d="M50.2431 40.8914C54.7187 40.4303 56.957 40.1992 56.957 40.1992" stroke="#211500" stroke-width="1.78191" stroke-miterlimit="22.9256" stroke-linecap="round" stroke-linejoin="round"/>
<path d="M50.3646 45.4473C55.0898 47.7967 57.368 48.8271 57.2004 48.5395" stroke="#211500" stroke-width="1.78191" stroke-miterlimit="22.9256" stroke-linecap="round" stroke-linejoin="round"/>
<path d="M30.877 40.8914C26.4014 40.4303 24.1631 40.1992 24.1631 40.1992" stroke="#211500" stroke-width="1.78191" stroke-miterlimit="22.9256" stroke-linecap="round" stroke-linejoin="round"/>
<path d="M30.752 45.4473C26.0268 47.7967 23.7485 48.8271 23.9162 48.5395" stroke="#211500" stroke-width="1.78191" stroke-miterlimit="22.9256" stroke-linecap="round" stroke-linejoin="round"/>
</svg>
