<svg width="131" height="99" viewBox="0 0 131 99" fill="none" xmlns="http://www.w3.org/2000/svg">
<path fill-rule="evenodd" clip-rule="evenodd" d="M63.7629 93.3528C51.3164 93.9849 39.1651 92.4278 29.0351 85.1724C28.6971 80.7072 29.2018 76.2199 30.5239 71.9329C23.5835 66.4685 19.3601 58.3854 18.9121 49.706C20.886 52.0214 24.0859 52.9707 27.0508 52.1221C23.47 51.3407 20.9173 48.2542 20.8976 44.6804C24.953 44.7938 28.7665 42.8084 30.9222 39.4614C25.3142 28.0754 22.2683 15.6531 21.9893 3.02832C33.9797 4.84477 45.2523 9.74998 54.6413 17.2346L63.7537 17.3318H63.756H63.7629H63.771H63.7733L72.8857 17.2346C82.2758 9.74998 93.5485 4.84477 105.538 3.02832C105.259 15.6543 102.214 28.0754 96.6048 39.4614C98.7605 42.8084 102.574 44.7927 106.629 44.6804C106.61 48.2542 104.057 51.3407 100.476 52.1221C103.441 52.9707 106.64 52.0214 108.615 49.706C108.166 58.3865 103.944 66.4685 97.0031 71.9329C98.3252 76.221 98.8299 80.7083 98.4919 85.1724C88.3619 92.4278 76.2095 93.9838 63.7629 93.3528Z" fill="#FFF3CD"/>
<path fill-rule="evenodd" clip-rule="evenodd" d="M25.046 51.833C32.3002 55.8016 41.2493 55.981 48.7524 52.0796C58.1854 47.1743 59.6789 36.5778 60.2693 27.1668C60.524 23.1079 60.3028 18.9725 59.4693 14.9784L52.7442 14.909L52.2637 14.5362C42.6802 7.09676 31.3138 2.12556 19.2725 0.00116149C19.8571 12.5924 23.13 24.9301 28.8548 36.249L29.3017 37.1324L28.7541 37.9601C26.3993 41.5213 22.4921 43.7938 18.2363 44.2685C18.8985 46.577 20.8805 48.3691 23.3696 48.8982L30.3008 50.3696L25.046 51.833ZM107.577 0C95.5354 2.1244 84.1691 7.09444 74.5855 14.535L74.1051 14.9078L67.1831 14.9796C66.3507 18.9737 66.1284 23.1079 66.3831 27.1657C66.9736 36.5767 68.467 47.1732 77.9 52.0784C85.4251 55.9926 94.4078 55.8004 101.674 51.7959L96.5519 50.3673L103.48 48.8959C105.969 48.3668 107.951 46.5747 108.613 44.2662C104.356 43.7927 100.45 41.5189 98.0951 37.9578L97.5475 37.1301L97.9944 36.2467C103.719 24.9278 106.991 12.5901 107.577 0Z" fill="#FFC721"/>
<path fill-rule="evenodd" clip-rule="evenodd" d="M76.7447 46.6315C78.1595 46.6315 79.3137 44.9366 79.3137 42.8597C79.3137 40.7828 78.1595 39.0879 76.7447 39.0879C75.33 39.0879 74.1758 40.7828 74.1758 42.8597C74.1758 44.9366 75.33 46.6315 76.7447 46.6315Z" fill="#211500"/>
<path fill-rule="evenodd" clip-rule="evenodd" d="M47.8775 46.6315C49.2923 46.6315 50.4465 44.9366 50.4465 42.8597C50.4465 40.7828 49.2923 39.0879 47.8775 39.0879C46.4628 39.0879 45.3086 40.7828 45.3086 42.8597C45.3086 44.9366 46.4628 46.6315 47.8775 46.6315Z" fill="#211500"/>
<path fill-rule="evenodd" clip-rule="evenodd" d="M48.8471 21.6303C45.0706 24.5721 40.9723 28.0163 37.8777 31.633C33.6313 25.7275 31.2117 18.7036 30.9199 11.4355C36.837 14.1562 43.5818 17.796 48.8471 21.6303Z" fill="#211500"/>
<path fill-rule="evenodd" clip-rule="evenodd" d="M78.6152 21.6303C82.3917 24.5721 86.4899 28.0163 89.5845 31.633C93.831 25.7275 96.2506 18.7036 96.5424 11.4355C90.6241 14.1562 83.8805 17.796 78.6152 21.6303Z" fill="#211500"/>
<path fill-rule="evenodd" clip-rule="evenodd" d="M76.1852 146.791C57.6248 149.113 38.7934 145.885 22.0669 137.513C17.6317 124.306 20.02 95.6881 28.4447 84.5926C51.0814 93.5695 76.3866 93.0115 98.6054 83.0459C107.985 93.8728 110.384 123.165 104.791 136.353C85.72 143.312 76.1852 146.791 76.1852 146.791Z" fill="#FFF3CD"/>
<path fill-rule="evenodd" clip-rule="evenodd" d="M76.2291 142.478C63.3903 145.535 53.4602 143.685 43.1107 135.751C42.1672 134.032 41.5461 127.48 41.0205 125.521C40.3363 116.506 44.7587 107.868 52.4702 103.152C60.1829 98.4351 69.8868 98.4351 77.6006 103.152C85.3133 107.868 89.7346 116.506 89.0504 125.521C89.0504 131.049 87.6402 134.828 87.2686 135.751C87.2686 135.751 83.4738 140.753 76.2291 142.478Z" fill="#FFC721"/>
<path fill-rule="evenodd" clip-rule="evenodd" d="M99.2843 78.3096C77.4905 90.7121 50.8608 91.0768 28.737 79.2762C26.9981 82.4542 25.4804 85.7478 24.1953 89.1341C49.0166 101.821 78.6864 100.499 102.282 85.6552C100.283 80.757 99.2843 78.3096 99.2843 78.3096Z" fill="#593A01"/>
<path fill-rule="evenodd" clip-rule="evenodd" d="M71.9828 52.5544C71.5857 47.8599 56.2136 48.1586 55.651 53.256C55.4658 54.9393 59.2943 58.1496 62.5602 59.7553C64.2065 60.5646 66.8206 58.8813 69.0156 56.8321C70.5299 55.4197 72.0986 53.9309 71.9828 52.5544Z" fill="#211500"/>
<path fill-rule="evenodd" clip-rule="evenodd" d="M63.6057 59.3662H63.7516C64.0584 63.9635 60.6385 68.1521 55.5156 69.4313V78.1049C55.5156 82.7056 59.4078 86.4693 64.1649 86.4693C68.9219 86.4693 72.8141 82.7056 72.8141 78.1049V69.4962C70.0842 69.0782 67.6218 67.7955 65.9176 65.8876C64.2517 64.0225 63.4355 61.7036 63.6057 59.3662Z" fill="#FFA232"/>
<path d="M47.8809 68.4431C51.4454 70.2711 55.7602 70.0164 59.0724 67.7832C62.3847 65.55 64.1432 61.7099 63.6338 57.8223" stroke="#211500" stroke-width="1.36208" stroke-miterlimit="22.9256" stroke-linecap="round" stroke-linejoin="round"/>
<path d="M79.5566 68.4431C75.992 70.2711 71.6772 70.0164 68.365 67.7832C65.0528 65.55 63.2943 61.7099 63.8036 57.8223" stroke="#211500" stroke-width="1.36208" stroke-miterlimit="22.9256" stroke-linecap="round" stroke-linejoin="round"/>
<path d="M64.1117 62.8271C64.0689 67.6374 64.0469 80.2217 64.0469 80.2217" stroke="#211500" stroke-width="1.36208" stroke-miterlimit="22.9256" stroke-linecap="round" stroke-linejoin="round"/>
</svg>
