<svg width="22" height="22" viewBox="0 0 22 22" fill="none" xmlns="http://www.w3.org/2000/svg">
<path d="M2.375 10.4375H10.625V11.8125H2.375V10.4375ZM1 7H7.875V8.375H1V7Z" fill="#211500"/>
<path d="M20.5718 11.4166L18.5093 6.60413C18.4563 6.48048 18.3682 6.37511 18.2559 6.30105C18.1436 6.227 18.012 6.18751 17.8775 6.1875H15.815V4.8125C15.815 4.63016 15.7426 4.4553 15.6136 4.32636C15.4847 4.19743 15.3098 4.125 15.1275 4.125H4.12749V5.5H14.44V14.1322C14.1269 14.3144 13.8529 14.5566 13.6337 14.8449C13.4145 15.1333 13.2544 15.4621 13.1626 15.8125H8.84236C8.67503 15.1644 8.27708 14.5996 7.72311 14.224C7.16914 13.8483 6.49717 13.6876 5.83318 13.7719C5.16918 13.8563 4.55873 14.1799 4.11627 14.6821C3.6738 15.1843 3.42969 15.8307 3.42969 16.5C3.42969 17.1693 3.6738 17.8157 4.11627 18.3179C4.55873 18.8201 5.16918 19.1437 5.83318 19.2281C6.49717 19.3124 7.16914 19.1517 7.72311 18.776C8.27708 18.4004 8.67503 17.8356 8.84236 17.1875H13.1626C13.3122 17.7775 13.6542 18.3009 14.1346 18.6747C14.615 19.0485 15.2063 19.2515 15.815 19.2515C16.4237 19.2515 17.015 19.0485 17.4954 18.6747C17.9758 18.3009 18.3178 17.7775 18.4674 17.1875H19.94C20.1223 17.1875 20.2972 17.1151 20.4261 16.9861C20.5551 16.8572 20.6275 16.6823 20.6275 16.5V11.6875C20.6275 11.5944 20.6085 11.5022 20.5718 11.4166ZM6.18999 17.875C5.91804 17.875 5.6522 17.7944 5.42608 17.6433C5.19996 17.4922 5.02372 17.2774 4.91965 17.0262C4.81558 16.7749 4.78835 16.4985 4.84141 16.2318C4.89446 15.965 5.02542 15.72 5.21772 15.5277C5.41001 15.3354 5.65502 15.2045 5.92174 15.1514C6.18846 15.0984 6.46493 15.1256 6.71618 15.2297C6.96743 15.3337 7.18217 15.51 7.33326 15.7361C7.48435 15.9622 7.56499 16.2281 7.56499 16.5C7.56499 16.8647 7.42012 17.2144 7.16226 17.4723C6.9044 17.7301 6.55466 17.875 6.18999 17.875ZM15.815 7.5625H17.4237L18.8977 11H15.815V7.5625ZM15.815 17.875C15.543 17.875 15.2772 17.7944 15.0511 17.6433C14.825 17.4922 14.6487 17.2774 14.5447 17.0262C14.4406 16.7749 14.4134 16.4985 14.4664 16.2318C14.5195 15.965 14.6504 15.72 14.8427 15.5277C15.035 15.3354 15.28 15.2045 15.5467 15.1514C15.8135 15.0984 16.0899 15.1256 16.3412 15.2297C16.5924 15.3337 16.8072 15.51 16.9583 15.7361C17.1093 15.9622 17.19 16.2281 17.19 16.5C17.19 16.8647 17.0451 17.2144 16.7873 17.4723C16.5294 17.7301 16.1797 17.875 15.815 17.875ZM19.2525 15.8125H18.4674C18.3159 15.2236 17.9733 14.7016 17.4933 14.3284C17.0133 13.9551 16.423 13.7517 15.815 13.75V12.375H19.2525V15.8125Z" fill="#211500"/>
</svg>
