<svg width="20" height="22" viewBox="0 0 20 22" fill="none" xmlns="http://www.w3.org/2000/svg">
<path d="M12.7573 10.171H17.3276C18.6133 10.171 19.2459 9.52819 19.2459 8.20262V3.71248C19.2459 2.38648 18.6133 1.75391 17.3276 1.75391H12.7573C11.4815 1.75391 10.8386 2.38648 10.8386 3.71248V8.20262C10.8386 9.52819 11.4815 10.171 12.7573 10.171ZM2.67219 10.171H7.25276C8.52819 10.171 9.17105 9.52819 9.17105 8.20262V3.71248C9.17105 2.38648 8.52819 1.75391 7.25276 1.75391H2.67219C1.39676 1.75391 0.753906 2.38648 0.753906 3.71248V8.20262C0.753906 9.52819 1.39676 10.171 2.67219 10.171ZM2.69233 8.75505C2.34091 8.75505 2.16991 8.57419 2.16991 8.20219V3.71291C2.16991 3.35119 2.34091 3.17033 2.69276 3.17033H7.22276C7.57419 3.17033 7.75505 3.35119 7.75505 3.71291V8.20305C7.75505 8.57462 7.57419 8.75548 7.22276 8.75548L2.69233 8.75505ZM12.777 8.75505C12.4256 8.75505 12.255 8.57419 12.255 8.20219V3.71291C12.255 3.35119 12.4256 3.17033 12.777 3.17033H17.3173C17.659 3.17033 17.8299 3.35119 17.8299 3.71291V8.20305C17.8299 8.57462 17.6589 8.75548 17.3173 8.75548L12.777 8.75505ZM4.09848 7.01719H5.81619C5.96705 7.01719 6.02705 6.95719 6.02705 6.78619V5.11905C6.02705 4.95791 5.96705 4.89791 5.81619 4.89791H4.09848C3.94805 4.89791 3.90776 4.95791 3.90776 5.11862V6.78619C3.90776 6.95676 3.94805 7.01719 4.09848 7.01719ZM14.2436 7.01762H15.9515C16.1019 7.01762 16.1623 6.95762 16.1623 6.78662V5.11948C16.1623 4.95834 16.1023 4.89833 15.9515 4.89833H14.2436C14.0932 4.89833 14.043 4.95833 14.043 5.11905V6.78662C14.043 6.95719 14.0932 7.01762 14.2436 7.01762ZM2.67219 20.2468H7.25276C8.52819 20.2468 9.17105 19.6142 9.17105 18.2882V13.7882C9.17105 12.4725 8.52819 11.8296 7.25276 11.8296H2.67219C1.39676 11.8296 0.753906 12.4725 0.753906 13.7882V18.2882C0.753906 19.6142 1.39676 20.2468 2.67219 20.2468ZM11.5115 14.4311H13.2292C13.38 14.4311 13.44 14.371 13.44 14.1996V12.5325C13.44 12.3718 13.38 12.3118 13.2292 12.3118H11.5115C11.361 12.3118 11.3208 12.3718 11.3208 12.5325V14.1996C11.3208 14.371 11.361 14.4311 11.5115 14.4311ZM16.8455 14.4311H18.5628C18.7136 14.4311 18.774 14.371 18.774 14.1996V12.5325C18.774 12.3718 18.7136 12.3118 18.5628 12.3118H16.8455C16.6946 12.3118 16.644 12.3718 16.644 12.5325V14.1996C16.644 14.371 16.6946 14.4311 16.8455 14.4311ZM2.69233 18.8299C2.34091 18.8299 2.16991 18.6491 2.16991 18.2873V13.7972C2.16991 13.4256 2.34091 13.2448 2.69276 13.2448H7.22276C7.57419 13.2448 7.75505 13.4256 7.75505 13.7976V18.2873C7.75505 18.6491 7.57419 18.8299 7.22276 18.8299H2.69233ZM4.09848 17.1019H5.81619C5.96705 17.1019 6.02705 17.0419 6.02705 16.8611V15.2038C6.02705 15.043 5.96705 14.9826 5.81619 14.9826H4.09848C3.94805 14.9826 3.90776 15.0426 3.90776 15.2038V16.8611C3.90776 17.0419 3.94805 17.1019 4.09848 17.1019ZM14.2038 17.1019H15.921C16.0719 17.1019 16.1319 17.0419 16.1319 16.8611V15.2038C16.1319 15.043 16.0719 14.9826 15.921 14.9826H14.2033C14.0529 14.9826 14.0126 15.0426 14.0126 15.2038V16.8611C14.0126 17.0419 14.0529 17.1019 14.2038 17.1019ZM11.5115 19.7638H13.2292C13.38 19.7638 13.44 19.7038 13.44 19.5328V17.8656C13.44 17.7045 13.38 17.6445 13.2292 17.6445H11.5115C11.361 17.6445 11.3208 17.7045 11.3208 17.8656V19.5328C11.3208 19.7038 11.361 19.7638 11.5115 19.7638ZM16.8455 19.7642H18.5628C18.7136 19.7642 18.774 19.7042 18.774 19.5332V17.8661C18.774 17.7049 18.7136 17.6449 18.5628 17.6449H16.8455C16.6946 17.6449 16.644 17.7049 16.644 17.8661V19.5332C16.644 19.7042 16.6946 19.7642 16.8455 19.7642Z" fill="#211500"/>
</svg>
