<svg width="27" height="22" viewBox="0 0 27 22" fill="none" xmlns="http://www.w3.org/2000/svg">
<path d="M13.5 15.5078C14.2927 15.5078 15.0675 15.2728 15.7266 14.8324C16.3857 14.392 16.8994 13.7661 17.2027 13.0337C17.5061 12.3014 17.5854 11.4956 17.4308 10.7181C17.2762 9.94068 16.8945 9.22655 16.334 8.66605C15.7734 8.10555 15.0593 7.72384 14.2819 7.5692C13.5044 7.41455 12.6986 7.49392 11.9663 7.79726C11.2339 8.10061 10.608 8.6143 10.1676 9.27338C9.72724 9.93246 9.49219 10.7073 9.49219 11.5C9.49219 12.5629 9.91444 13.5823 10.666 14.334C11.4177 15.0856 12.4371 15.5078 13.5 15.5078ZM13.5 8.75781C14.0424 8.75781 14.5725 8.91864 15.0235 9.21995C15.4744 9.52127 15.8259 9.94954 16.0335 10.4506C16.241 10.9517 16.2953 11.503 16.1895 12.035C16.0837 12.5669 15.8225 13.0555 15.439 13.439C15.0555 13.8225 14.5669 14.0837 14.035 14.1895C13.503 14.2953 12.9517 14.241 12.4506 14.0335C11.9495 13.8259 11.5213 13.4744 11.22 13.0235C10.9186 12.5725 10.7578 12.0424 10.7578 11.5C10.7578 10.7727 11.0467 10.0752 11.561 9.56098C12.0752 9.04672 12.7727 8.75781 13.5 8.75781ZM25.3125 4.11719H1.6875C1.51967 4.11719 1.35871 4.18386 1.24003 4.30253C1.12136 4.42121 1.05469 4.58217 1.05469 4.75V18.25C1.05469 18.4178 1.12136 18.5788 1.24003 18.6975C1.35871 18.8161 1.51967 18.8828 1.6875 18.8828H25.3125C25.4803 18.8828 25.6413 18.8161 25.76 18.6975C25.8786 18.5788 25.9453 18.4178 25.9453 18.25V4.75C25.9453 4.58217 25.8786 4.42121 25.76 4.30253C25.6413 4.18386 25.4803 4.11719 25.3125 4.11719ZM2.32031 9.47711C3.3029 9.21571 4.199 8.69942 4.91796 7.98046C5.63692 7.2615 6.15321 6.3654 6.41461 5.38281H20.5854C20.8468 6.3654 21.3631 7.2615 22.082 7.98046C22.801 8.69942 23.6971 9.21571 24.6797 9.47711V13.5229C23.6971 13.7843 22.801 14.3006 22.082 15.0195C21.3631 15.7385 20.8468 16.6346 20.5854 17.6172H6.41461C6.15321 16.6346 5.63692 15.7385 4.91796 15.0195C4.199 14.3006 3.3029 13.7843 2.32031 13.5229V9.47711ZM24.6797 8.15559C24.0387 7.93168 23.4566 7.56608 22.9765 7.086C22.4964 6.60593 22.1308 6.02375 21.9069 5.38281H24.6797V8.15559ZM5.09309 5.38281C4.86918 6.02375 4.50358 6.60593 4.0235 7.086C3.54343 7.56608 2.96125 7.93168 2.32031 8.15559V5.38281H5.09309ZM2.32031 14.8444C2.96125 15.0683 3.54343 15.4339 4.0235 15.914C4.50358 16.3941 4.86918 16.9762 5.09309 17.6172H2.32031V14.8444ZM21.9069 17.6172C22.1308 16.9762 22.4964 16.3941 22.9765 15.914C23.4566 15.4339 24.0387 15.0683 24.6797 14.8444V17.6172H21.9069Z" fill="black"/>
</svg>
