<svg width="17" height="22" viewBox="0 0 17 22" fill="none" xmlns="http://www.w3.org/2000/svg">
<path d="M2.5 6.5V6C2.38445 6.00007 2.2725 6.04016 2.18317 6.11344C2.09384 6.18673 2.03265 6.28869 2.01 6.402L2.5 6.5ZM14.5 6.5L14.99 6.402C14.9674 6.28869 14.9062 6.18673 14.8168 6.11344C14.7275 6.04016 14.6155 6.00007 14.5 6V6.5ZM15.5 11.5V12C15.5739 12 15.647 11.9835 15.7138 11.9518C15.7806 11.9202 15.8396 11.8741 15.8864 11.8169C15.9333 11.7597 15.9669 11.6928 15.9848 11.6211C16.0027 11.5493 16.0045 11.4745 15.99 11.402L15.5 11.5ZM1.5 11.5L1.01 11.402C0.995507 11.4745 0.997277 11.5493 1.01518 11.6211C1.03309 11.6928 1.06669 11.7597 1.11355 11.8169C1.16042 11.8741 1.21939 11.9202 1.28621 11.9518C1.35304 11.9835 1.42605 12 1.5 12V11.5ZM4.5 14.5H4V15H4.5V14.5ZM12.5 14.5V15H13V14.5H12.5ZM1 19H16V18H1V19ZM2 11.5V18.5H3V11.5H2ZM14 11.5V18.5H15V11.5H14ZM2.5 7H14.5V6H2.5V7ZM14.01 6.598L15.01 11.598L15.99 11.402L14.99 6.402L14.01 6.598ZM15.5 11H1.5V12H15.5V11ZM1.99 11.598L2.99 6.598L2.01 6.402L1.01 11.402L1.99 11.598ZM2 5H15V4H2V5ZM4 11.5V14.5H5V11.5H4ZM4.5 15H12.5V14H4.5V15ZM13 14.5V11.5H12V14.5H13Z" fill="#211500"/>
<path d="M2.5 6V6.5L2.01 6.402M2.5 6C2.38445 6.00007 2.2725 6.04016 2.18317 6.11344C2.09384 6.18673 2.03265 6.28869 2.01 6.402M2.5 6H14.5M2.5 6V7H14.5V6M2.01 6.402L2.99 6.598L1.99 11.598L1.01 11.402M2.01 6.402L1.01 11.402M14.99 6.402L14.5 6.5V6M14.99 6.402C14.9674 6.28869 14.9062 6.18673 14.8168 6.11344C14.7275 6.04016 14.6155 6.00007 14.5 6M14.99 6.402L15.99 11.402M14.99 6.402L14.01 6.598L15.01 11.598L15.99 11.402M15.5 12V11.5L15.99 11.402M15.5 12C15.5739 12 15.647 11.9835 15.7138 11.9518C15.7806 11.9202 15.8396 11.8741 15.8864 11.8169C15.9333 11.7597 15.9669 11.6928 15.9848 11.6211C16.0027 11.5493 16.0045 11.4745 15.99 11.402M15.5 12H1.5M15.5 12V11H1.5V12M1.01 11.402L1.5 11.5V12M1.01 11.402C0.995507 11.4745 0.997277 11.5493 1.01518 11.6211C1.03309 11.6928 1.06669 11.7597 1.11355 11.8169C1.16042 11.8741 1.21939 11.9202 1.28621 11.9518C1.35304 11.9835 1.42605 12 1.5 12M4 14.5H4.5V15M4 14.5V15H4.5M4 14.5V11.5H5V14.5H4ZM4.5 15H12.5M4.5 15V14H12.5V15M12.5 15V14.5H13M12.5 15H13V14.5M13 14.5V11.5H12V14.5H13ZM1 19H16V18H1V19ZM2 11.5V18.5H3V11.5H2ZM14 11.5V18.5H15V11.5H14ZM2 5H15V4H2V5Z" stroke="#211500" stroke-width="0.3"/>
</svg>
