<svg width="203" height="97" viewBox="0 0 203 97" fill="none" xmlns="http://www.w3.org/2000/svg">
<path d="M132.451 38.7473C132.451 38.7473 128.249 34.8076 124.835 28.242C121.421 21.6765 115.117 3.55407 123.259 0.665085C131.401 -2.2239 134.553 7.23064 140.067 8.54447C145.583 9.8574 157.665 9.33206 160.29 14.8478C162.917 20.3635 164.755 23.2525 169.22 23.5148C173.686 23.777 176.311 26.1415 173.948 31.3942C171.584 36.6468 161.866 42.1625 161.866 42.1625C161.866 42.1625 160.554 47.9405 153.2 48.7281C145.845 49.5157 137.178 50.8295 135.077 48.7281C132.977 46.6267 132.451 38.7473 132.451 38.7473Z" fill="#CCD308"/>
<path d="M194.571 49.8623V53.9039L179.764 61.84L192.943 66.4804L202.063 73.287L198.806 77.2842C198.806 77.2842 191.966 69.8203 187.405 68.5172C182.845 67.214 170.792 64.9345 170.792 64.9345C170.792 64.9345 102.271 66.5008 93.2095 67.1829C84.1474 67.866 64.2779 73.388 64.2779 73.388L-0.0361023 84.5364C-0.0361023 84.5364 -6.70508 78.6191 -0.0361023 66.4804C-12.9712 57.2279 53.5282 53.5336 53.5282 53.5336C53.5282 53.5336 111.184 59.5959 126.007 57.7709C140.83 55.9459 165.58 57.8888 170.467 57.6655C175.353 57.4422 194.571 49.8623 194.571 49.8623Z" fill="#211500"/>
<path d="M126.28 12.663C126.28 12.663 101.797 10.4738 88.0636 15.6485C74.33 20.8232 67.7609 29.9792 66.5667 30.7756C65.3725 31.5721 41.2887 38.3396 40.293 62.0256C39.2972 85.7116 52.2352 96.8582 64.7754 96.0618C77.3147 95.2654 82.0925 74.7643 71.7423 70.5845C61.392 66.4047 58.2072 76.7549 58.6058 78.7456C59.0036 80.7363 59.4023 79.7405 60.9943 77.5514C62.5863 75.3623 69.1554 73.1723 70.3496 77.1536C71.5438 81.134 67.7618 88.698 59.9994 85.3147C52.2369 81.9314 52.4354 69.7898 56.8145 65.6091C61.1936 61.4294 67.5625 56.4531 80.1027 56.4531C92.6429 56.4531 105.898 54.6618 119.274 51.8756C132.65 49.0894 138.223 46.1029 137.825 44.3116C137.426 42.5185 126.28 12.663 126.28 12.663Z" fill="#CCD308"/>
<path d="M79.1738 47.4673C79.1738 47.4673 80.4779 46.033 86.9982 45.6414C93.5186 45.2499 100.692 40.0335 102.256 44.2071C103.821 48.3807 99.7785 51.1846 102.256 54.1516C104.734 57.1176 106.951 57.9008 110.212 57.7697C113.472 57.6395 114.124 61.1601 110.212 61.1601C106.3 61.1601 104.082 59.0738 101.474 59.856C98.866 60.6383 94.5622 62.986 93.78 61.1601C92.9977 59.3342 98.0838 55.3573 97.0401 54.1507C95.9965 52.9441 92.9977 52.2185 92.9977 52.2185C92.9977 52.2185 87.3898 58.1613 82.5651 57.7697C77.7395 57.3781 75.6531 51.7702 79.1738 47.4673Z" fill="#CCD308"/>
<path d="M135.077 48.7272C132.976 46.6258 132.45 38.7472 132.45 38.7472C132.45 38.7472 128.248 34.8076 124.834 28.242C121.42 21.6764 115.116 3.55403 123.258 0.665039" stroke="#211500" stroke-width="1.32897" stroke-miterlimit="22.9256" stroke-linecap="round" stroke-linejoin="round"/>
<path d="M127.297 40.2948C129.861 40.852 131.339 44.4684 129.122 45.9027C126.906 47.337 123.254 46.6849 121.558 47.4672C119.863 48.2495 119.341 48.7713 120.646 50.7274C121.95 52.6835 122.382 55.9437 125.036 55.9437C127.688 55.9437 132.384 55.5521 133.557 57.2478C134.731 58.9434 133.297 59.8559 131.471 59.7257C129.645 59.5955 124.951 59.8807 124.559 59.7381C124.168 59.5955 124.559 60.2236 122.473 59.7789C120.386 59.3341 120.51 58.5518 119.275 58.5518C118.039 58.5518 115.952 59.2039 115.952 57.1175C115.952 55.0312 118.919 54.9984 116.979 52.3415C115.039 49.6847 110.214 47.337 111.649 43.555C113.082 39.7739 124.297 39.6427 127.297 40.2948Z" fill="#CCD308"/>
<path d="M79.1739 47.4673C79.1739 47.4673 80.4779 46.033 86.9983 45.6414C93.5187 45.2499 100.692 40.0335 102.257 44.2071C103.821 48.3807 99.7786 51.1846 102.257 54.1516" stroke="#211500" stroke-width="1.32897" stroke-miterlimit="22.9256" stroke-linecap="round" stroke-linejoin="round"/>
<path d="M97.041 54.1509C95.9974 52.9443 92.9986 52.2188 92.9986 52.2188C92.9986 52.2188 87.3907 58.1615 82.566 57.7699" stroke="#211500" stroke-width="1.32897" stroke-miterlimit="22.9256" stroke-linecap="round" stroke-linejoin="round"/>
<path d="M129.122 45.9023C126.905 47.3367 123.254 46.6846 121.558 47.4669C119.862 48.2492 119.341 48.771 120.646 50.7271" stroke="#211500" stroke-width="1.32897" stroke-miterlimit="22.9256" stroke-linecap="round" stroke-linejoin="round"/>
<path d="M116.978 52.3417C115.037 49.6848 110.213 47.3371 111.647 43.5551C113.081 39.7731 124.297 39.6429 127.297 40.2949" stroke="#211500" stroke-width="1.32897" stroke-miterlimit="22.9256" stroke-linecap="round" stroke-linejoin="round"/>
<path fill-rule="evenodd" clip-rule="evenodd" d="M152.056 30.1877C150.447 30.1877 149.135 28.2608 149.135 25.898C149.135 23.5353 150.447 21.6084 152.056 21.6084C153.665 21.6084 154.977 23.5353 154.977 25.898C154.977 28.2608 153.665 30.1877 152.056 30.1877Z" fill="#211500"/>
<path d="M105.604 20.225C103.868 20.225 102.461 19.651 102.461 18.9431C102.461 18.2351 103.868 17.6611 105.604 17.6611C107.34 17.6611 108.747 18.2351 108.747 18.9431C108.747 19.651 107.34 20.225 105.604 20.225Z" fill="#E5E881"/>
<path d="M93.999 22.9853C92.3966 22.9853 91.0976 22.3526 91.0976 21.5722C91.0976 20.7918 92.3966 20.1592 93.999 20.1592C95.6014 20.1592 96.9004 20.7918 96.9004 21.5722C96.9004 22.3526 95.6014 22.9853 93.999 22.9853Z" fill="#E5E881"/>
<path d="M108.494 27.1227C106.898 27.1227 105.604 26.6456 105.604 26.057C105.604 25.4684 106.898 24.9912 108.494 24.9912C110.09 24.9912 111.384 25.4684 111.384 26.057C111.384 26.6456 110.09 27.1227 108.494 27.1227Z" fill="#E5E881"/>
<path d="M88.3167 31.7394C86.7813 31.7394 85.5366 31.1929 85.5366 30.5186C85.5366 29.8444 86.7813 29.2979 88.3167 29.2979C89.852 29.2979 91.0967 29.8444 91.0967 30.5186C91.0967 31.1929 89.852 31.7394 88.3167 31.7394Z" fill="#E5E881"/>
<path d="M78.7672 27.9072C77.2984 27.9072 76.1077 27.4927 76.1077 26.9815C76.1077 26.4702 77.2984 26.0557 78.7672 26.0557C80.236 26.0557 81.4268 26.4702 81.4268 26.9815C81.4268 27.4927 80.236 27.9072 78.7672 27.9072Z" fill="#E5E881"/>
<path d="M173.948 31.3936C173.948 31.3936 167.017 34.8593 164.599 33.65" stroke="#211500" stroke-width="1.32897" stroke-miterlimit="22.9256" stroke-linecap="round" stroke-linejoin="round"/>
<path d="M164.598 27.9072C164.598 27.9072 167.015 34.9911 160.729 35.892" stroke="#211500" stroke-width="1.32897" stroke-miterlimit="22.9256" stroke-linecap="round" stroke-linejoin="round"/>
<path d="M147.055 42.5972C147.055 42.5972 141.813 41.6448 139.911 34.8711C139.911 34.8711 133.379 49.3028 147.055 42.5972Z" fill="#FF981C"/>
</svg>
