<svg width="147" height="131" viewBox="0 0 147 131" fill="none" xmlns="http://www.w3.org/2000/svg">
<path opacity="0.25" d="M107.33 127.318L119.05 124.143C119.05 124.143 139.391 112.009 135.338 82.7403C131.284 53.4717 116.543 38.5672 107.33 36.254C98.1175 33.9408 74.1993 36.7133 64.415 35.5111C54.6317 34.3089 34.7316 32.8631 25.5188 39.8506C16.3061 46.838 7.78282 64.7141 8.5435 83.7835C9.30418 102.853 15.7734 119.714 20.3942 123.445C25.015 127.175 107.33 127.318 107.33 127.318Z" fill="#C7C2BA"/>
<path d="M20.0408 7.04157L23.1992 19.2526C23.1992 19.2526 37.2118 22.867 62.0786 23.3229C86.9455 23.7678 113.625 20.1534 118.596 17.8958C123.567 15.6382 123.567 7.04157 123.567 7.04157C123.567 7.04157 109.11 2.52639 77.0032 1.16961C44.9076 -0.187165 20.0408 7.04157 20.0408 7.04157Z" stroke="#C7C2BA" stroke-width="2" stroke-miterlimit="10" stroke-linecap="round" stroke-linejoin="round"/>
<path d="M20.0408 7.04157C20.0408 7.04157 41.2821 11.5679 69.3185 12.1795C97.3438 12.7912 123.567 7.04157 123.567 7.04157C123.567 7.04157 109.11 2.52639 77.0032 1.16961C44.9076 -0.187165 20.0408 7.04157 20.0408 7.04157Z" stroke="#C7C2BA" stroke-width="2" stroke-miterlimit="10" stroke-linecap="round" stroke-linejoin="round"/>
<path d="M30.4512 20.6715L29.9841 27.3887C7.37485 41.4013 -5.35549 64.9258 4.21646 107.861C13.3714 148.925 69.3196 145.84 69.3196 145.84C69.3196 145.84 126.738 149.009 142.563 102.445C158.389 55.8699 114.527 29.6463 112.725 26.4879C111.869 24.9865 111.825 22.1506 112.025 19.5928" stroke="#C7C2BA" stroke-width="2" stroke-miterlimit="10" stroke-linecap="round" stroke-linejoin="round"/>
<path d="M119.05 124.143C119.05 124.143 107.295 134.09 86.9498 137.255C66.6048 140.42 38.5728 135.898 30.4344 130.699C22.296 125.5 15.5221 121.431 20.0395 116.909C24.5569 112.388 35.4078 114.648 44.4504 112.388C53.493 110.128 64.276 105.606 71.9952 106.058C79.7155 106.51 91.4705 108.319 95.0871 111.484C98.7037 114.649 119.05 124.143 119.05 124.143Z" fill="#211500"/>
<path d="M52.5086 126.103C52.5086 126.103 52.5086 121.541 56.1207 117.549C59.7329 113.556 65.626 112.421 65.626 112.421C65.626 112.421 63.345 116.218 61.8237 117.739C60.3023 119.26 52.5086 126.103 52.5086 126.103Z" fill="#CCD308"/>
<path d="M49.2764 126.104C49.2764 126.104 45.0948 120.025 41.1023 119.263C37.1098 118.5 31.7873 116.22 31.7873 116.22C31.7873 116.22 39.3908 113.558 43.7636 115.269C48.1353 116.98 49.2764 126.104 49.2764 126.104Z" fill="#CCD308"/>
<path d="M53.2688 106.026C53.2688 106.026 54.2197 113.178 53.2688 116.22C52.3179 119.262 52.5081 126.104 52.5081 126.104C52.5081 126.104 49.0861 119.444 49.2763 114.695C49.4665 109.947 53.2688 106.026 53.2688 106.026Z" fill="#CCD308"/>
<path d="M108.611 122.165C108.611 122.165 109.627 117.465 113.187 111.531C116.747 105.596 120.653 94.0794 121.968 86.8607C123.284 79.6419 121.26 73.3607 120.36 72.1207C119.46 70.8807 113.776 67.8669 109.341 71.0286C104.906 74.1904 104.545 76.141 105.27 81.0343C105.995 85.9265 107.544 87.8615 106.654 91.9741C105.765 96.0867 105.002 99.6121 104.62 101.375C104.239 103.138 102.831 114.765 103.958 118.083C105.084 121.402 108.611 122.165 108.611 122.165Z" fill="#E5E881"/>
<path d="M112.828 124.385C112.828 124.385 114.728 120.963 118.15 119.253C121.572 117.542 128.225 114.881 128.986 112.03C129.746 109.178 129.556 105.566 127.465 103.665C125.375 101.765 122.143 101.575 120.052 105.376C117.961 109.178 113.019 114.311 113.019 114.311L108.715 121.186C108.715 121.186 108.33 124.439 112.828 124.385Z" fill="#E5E881"/>
<path d="M114.397 78.8841C111.827 78.8841 109.744 77.7518 109.744 76.3551C109.744 74.9584 111.827 73.8262 114.397 73.8262C116.967 73.8262 119.05 74.9584 119.05 76.3551C119.05 77.7518 116.967 78.8841 114.397 78.8841Z" stroke="#211500" stroke-width="1.35764" stroke-miterlimit="22.9256" stroke-linecap="round" stroke-linejoin="round"/>
<path d="M122.633 108.865C121.698 107.067 121.774 105.177 122.801 104.642C123.829 104.108 125.42 105.132 126.355 106.93C127.29 108.727 127.215 110.618 126.187 111.152C125.159 111.687 123.568 110.663 122.633 108.865Z" stroke="#211500" stroke-width="1.35764" stroke-miterlimit="22.9256" stroke-linecap="round" stroke-linejoin="round"/>
<path d="M105.734 102.343C105.734 102.343 101.172 98.3501 99.8412 94.739C98.51 91.1269 96.9897 86.1847 99.8412 83.5234C102.693 80.8621 106.684 82.5725 106.874 85.8043C107.064 89.0361 108.836 98.9206 108.836 98.9206L105.734 102.343Z" fill="#211500"/>
<path d="M76.6514 89.0352C77.2219 89.0352 81.0231 91.3161 82.7346 93.2167C84.4451 95.1173 90.8008 98.9608 90.8008 98.9608C90.8008 98.9608 83.6655 101.465 77.7913 97.5873C71.9182 93.7083 72.3753 91.1259 72.3753 91.1259L76.6514 89.0352Z" fill="#FFCF96"/>
<path d="M82.7314 68.6963C82.7314 68.6963 77.9794 62.2327 73.9869 59.7616C69.9944 57.2904 57.343 54.6291 53.6897 52.9187C50.0364 51.2083 46.044 48.1667 43.5728 51.0181C41.1017 53.8696 41.6722 60.143 41.6722 60.143C41.6722 60.143 52.6977 63.565 60.4914 64.7049C68.2851 65.8448 82.7314 68.6963 82.7314 68.6963Z" fill="#FFCF96"/>
<path d="M90.3381 70.5961C90.3381 70.5961 91.8584 78.58 89.3873 81.2413C86.9162 83.9025 79.693 88.4856 77.2208 92.2768C74.7496 96.0691 62.5831 100.631 52.5085 98.35C42.4339 96.0691 35.0194 91.8864 31.7887 90.7465C28.5569 89.6055 25.1349 87.5147 24.5655 86.5649C24.5655 86.5649 25.5164 82.8038 24.5655 82.2132C23.6147 81.6227 22.8551 79.5319 24.5655 78.2007C26.276 76.8695 32.9297 61.2821 39.5824 59.5717C46.2351 57.8613 55.5501 59.1914 65.6248 61.8527C75.7005 64.5129 90.3381 70.5961 90.3381 70.5961Z" fill="#FF981C"/>
<path d="M87.2949 71.7337C87.2949 71.7337 87.2949 68.1259 91.8568 64.8941C96.4187 61.6623 98.6996 46.8357 105.734 45.6946C112.768 44.5536 116.606 46.4553 114.402 52.5375C112.197 58.6196 109.346 66.6046 109.916 69.8364C110.487 73.0682 116.225 75.1957 114.402 78.8845C112.578 82.5734 118.851 84.8544 116 88.8457C113.148 92.8382 107.566 97.2099 108.837 98.9204C110.107 100.631 110.216 103.738 103.128 99.7133C96.0405 95.6886 89.3868 81.2411 89.3868 81.2411L87.2949 71.7337Z" fill="#FF981C"/>
<path d="M64.8641 92.2764C65.4347 92.6467 77.4099 93.7833 79.881 97.5867C82.3521 101.39 84.0626 110.515 84.2527 111.086C84.4429 111.656 77.9871 111.086 71.995 108.234C66.003 105.383 64.3381 104.555 62.7723 101.685C61.2064 98.8145 60.4913 94.9276 60.4913 94.9276L64.8641 92.2764Z" fill="#FF981C"/>
<path d="M45.2834 69.6465C45.2834 69.6465 50.2257 76.1101 50.4158 80.8621C50.606 85.6142 47.7545 90.3663 43.7621 91.127" stroke="#211500" stroke-width="1.35764" stroke-miterlimit="22.9256" stroke-linecap="round" stroke-linejoin="round"/>
<path d="M37.3967 78.0275C36.0835 78.0275 35.019 76.3485 35.019 74.2774C35.019 72.2063 36.0835 70.5273 37.3967 70.5273C38.7099 70.5273 39.7744 72.2063 39.7744 74.2774C39.7744 76.3485 38.7099 78.0275 37.3967 78.0275Z" fill="#211500"/>
<path d="M31.7861 83.7821C31.7861 83.7821 27.9705 84.9876 24.563 82.2129" stroke="#211500" stroke-width="1.35764" stroke-miterlimit="22.9256" stroke-linecap="round" stroke-linejoin="round"/>
<path d="M93.5545 70.5275C93.5545 70.5275 99.4732 60.4218 102.024 60.2049C104.576 59.9892 105.524 65.9501 102.024 68.6959C98.5245 71.4417 103.823 74.5467 104.308 77.1001C104.792 79.6535 99.8212 78.884 99.8212 78.884C99.8212 78.884 104.443 85.9036 102.024 87.3171C99.6055 88.7306 90.0958 78.5737 90.0958 75.9802C90.0958 73.3868 93.5545 70.5275 93.5545 70.5275Z" fill="#FFCF96"/>
<path d="M73.5854 69.6465C73.5854 69.6465 75.7373 76.3414 75.2402 79.6511C74.7442 82.9607 73.6599 84.2964 74.4495 84.0428C75.2402 83.7892 79.543 81.0189 79.543 76.8596C79.543 72.7003 73.5854 69.6465 73.5854 69.6465Z" fill="#FFE4C3"/>
<path d="M62.645 68.3701C62.645 68.3701 64.7969 77.3338 64.2998 81.7655C63.8038 86.1973 62.7195 87.9856 63.5091 87.6453C64.2998 87.305 68.6025 83.5961 68.6025 78.0277C68.6025 72.4594 62.645 68.3701 62.645 68.3701Z" fill="#FFE4C3"/>
<path d="M74.2461 94.8754L64.8632 92.2764" stroke="#211500" stroke-width="1.35764" stroke-miterlimit="22.9256" stroke-linecap="round" stroke-linejoin="round"/>
<path d="M68.6025 99.7589L62.1734 94.3975" stroke="#211500" stroke-width="1.35764" stroke-miterlimit="22.9256" stroke-linecap="round" stroke-linejoin="round"/>
</svg>
