<svg width="245" height="324" viewBox="0 0 245 324" fill="none" xmlns="http://www.w3.org/2000/svg">
<path d="M197.612 189.204C186.372 172.391 131.558 155.054 131.558 155.054H102.665H102.323H73.4299C73.4299 155.054 18.614 172.392 7.37528 189.204C-3.86465 206.018 8.84113 322.154 20.5693 331.804C31.8266 341.066 97.103 347.069 102.323 347.536V347.567C102.323 347.567 102.386 347.561 102.494 347.552C102.603 347.562 102.666 347.567 102.666 347.567V347.536C107.886 347.069 173.162 341.066 184.419 331.804C196.146 322.154 208.852 206.018 197.612 189.204Z" fill="#593A01"/>
<path d="M5.91486 268.463H199.072C200.675 253.899 201.724 238.871 201.931 225.753H3.05664C3.26338 238.872 4.312 253.901 5.91486 268.463Z" fill="#FFC721"/>
<path d="M188.122 315.533C191.863 298.482 69.8383 296.837 67.3948 296.036C64.9513 295.235 67.3947 289.364 64.8316 288.897C62.2686 288.43 56.6443 290.765 56.846 288.897C57.0478 287.029 59.0865 281.425 56.846 276.233C54.6055 271.041 36.6938 213.024 25.4551 198.212C19.1981 189.966 12.1864 188.864 7.19728 189.505C-3.72258 207.296 8.90475 322.207 20.5694 331.805C31.8267 341.067 72.0016 347.568 102.323 347.537C102.33 347.537 102.316 347.562 102.323 347.568C102.355 347.595 102.386 347.553 102.494 347.553C102.603 347.553 102.634 347.595 102.666 347.568C102.673 347.563 102.659 347.537 102.666 347.537C116.297 347.568 173.162 341.067 184.42 331.805C187.008 329.674 185.706 325.828 188.122 315.533Z" fill="#FF981C"/>
<path d="M49.5067 287.559C49.5067 287.559 29.0557 298.471 28.083 317.04" stroke="#211500" stroke-width="1.90424" stroke-miterlimit="10" stroke-linecap="round" stroke-linejoin="round"/>
<path d="M60.1599 296.037C60.1599 296.037 40.7213 300.051 30.8252 312.113" stroke="#211500" stroke-width="1.90424" stroke-miterlimit="10" stroke-linecap="round" stroke-linejoin="round"/>
<path d="M177.288 313.429C177.288 313.429 208.385 304.589 211.047 304.785C213.71 304.982 228.986 307.746 231.541 308.854C234.096 309.963 241.149 318.494 243.786 321.629C246.424 324.763 242.02 324.88 239.174 323.124C236.329 321.367 230.064 315.715 229.092 315.518C228.122 315.322 216.713 314.168 216.198 315.084C215.684 315.999 226.156 323.347 228.929 327.111C231.703 330.876 230.538 336.129 230.776 341.014C231.013 345.898 228.716 345.74 227.541 343.157C227.541 343.157 227.912 346.832 226.737 348.171C225.563 349.51 223.563 346.913 222.211 343.606C220.86 340.3 217.12 334.654 215.181 333.419C213.242 332.183 206.385 329.444 206.316 330.609C206.248 331.775 214.09 338.624 215.816 342.243C217.542 345.861 220.714 352.27 218.922 353.404C217.13 354.539 212.638 346.069 210.498 343.685C208.359 341.301 200.083 336.422 198.075 336.351C196.067 336.28 184.15 338.693 181.944 337.794C176.187 335.447 169.726 324.321 169.726 324.321L177.288 313.429Z" fill="#FFCF96"/>
<path d="M211.155 320.111C211.155 320.111 223.491 329.594 224.715 331.864C225.94 334.135 227.541 343.157 227.541 343.157" stroke="#211500" stroke-width="1.90424" stroke-miterlimit="10" stroke-linecap="round" stroke-linejoin="round"/>
<path d="M187.63 307.469C191.449 307.438 193.281 320.821 190.575 328.564C187.869 336.307 184.476 344.519 177.707 342.474C170.938 340.429 165.84 341.373 162.813 338.837C159.787 336.302 160.381 326.292 162.949 317.551C165.147 310.072 160.941 305.713 165.314 303.075C171.108 299.581 176.324 307.561 187.63 307.469Z" fill="#FFC721"/>
<path d="M193.459 325.97C181.952 322.879 170.071 321.649 158.411 319.29C157.823 319.172 157.573 320.071 158.163 320.19C169.823 322.549 181.703 323.78 193.211 326.871C193.792 327.027 194.04 326.126 193.459 325.97Z" fill="white"/>
<path d="M196.353 314.238C183.279 310.914 169.792 309.452 156.346 308.719C155.743 308.686 155.747 309.62 156.346 309.653C169.712 310.381 183.109 311.835 196.105 315.139C196.689 315.288 196.937 314.387 196.353 314.238Z" fill="white"/>
<path d="M191.021 333.023C197.397 319.329 209.589 207.533 197.868 190.261C192.855 189.848 185.901 191.27 180.028 199.794C169.477 215.104 154.24 273.88 152.24 279.169C150.239 284.458 148.995 287.016 149.282 288.873C149.569 290.73 143.844 288.655 141.305 289.239C138.766 289.822 141.475 295.575 139.071 296.487C136.667 297.399 64.4786 286.1 62.2748 291.172C57.712 291.532 55.0055 315.703 60.386 318.796C65.7677 321.89 122.387 337.096 148.319 341.208C174.252 345.321 188.501 338.438 191.021 333.023Z" fill="#FF981C"/>
<path d="M54.5749 290.252C54.5749 290.252 40.2089 264.317 38.3595 262.713C36.51 261.11 24.833 252.965 22.4592 252.02C20.0854 251.075 9.97881 252.007 6.23383 252.32C2.49009 252.633 5.26242 255.572 8.24396 256.285C11.2255 256.999 18.9533 257.416 19.7093 257.921C20.4653 258.425 28.5941 265.095 28.3313 266.022C28.0685 266.949 16.5197 264.892 12.2778 265.524C8.03591 266.155 5.37323 270.31 2.04422 273.315C-1.2848 276.32 0.304329 277.712 2.74286 276.806C2.74286 276.806 0.112595 278.942 0.00299759 280.571C-0.107845 282.2 2.87366 281.822 5.89754 280.561C8.92143 279.301 15.0103 278.082 17.069 278.542C19.1265 279.004 25.3435 281.691 24.6287 282.488C23.915 283.286 14.3901 282.617 10.9216 283.835C7.45307 285.053 1.23472 287.136 1.65692 289.035C2.07912 290.934 10.4907 288.376 13.4237 288.225C16.3566 288.075 24.8827 290.299 26.2266 291.558C27.5704 292.817 33.7103 302.127 35.7204 302.979C40.9711 305.203 52.3829 302.209 52.3829 302.209L54.5749 290.252Z" fill="#FFCF96"/>
<path d="M28.3241 272.554C28.3241 272.554 14.1798 270.667 11.9132 271.339C9.64526 272.012 2.74316 276.805 2.74316 276.805" stroke="#211500" stroke-width="1.90424" stroke-miterlimit="10" stroke-linecap="round" stroke-linejoin="round"/>
<path d="M54.5765 279.283C51.4679 277.803 44.8771 288.039 44.1411 295.395C43.405 302.75 43.0501 310.751 49.3582 311.655C55.6662 312.56 59.4734 315.272 62.9096 314.353C66.3469 313.433 69.6722 305.029 70.9002 296.912C71.9513 289.966 77.0451 288.006 74.4771 284.186C71.0758 279.126 63.7777 283.662 54.5765 279.283Z" fill="#FFC721"/>
<path d="M63.4561 314.673C82.087 322.554 121.704 333.811 140.72 339.034C166.038 345.987 186.507 339.058 189.612 333.953" stroke="#211500" stroke-width="1.90424" stroke-miterlimit="10" stroke-linecap="round" stroke-linejoin="round"/>
<path d="M144.273 297.087C144.273 297.087 167.645 300.882 177.282 315.645" stroke="#211500" stroke-width="1.90424" stroke-miterlimit="10" stroke-linecap="round" stroke-linejoin="round"/>
<path d="M152.991 293.344C152.991 293.344 169.336 290.714 180.184 298.481" stroke="#211500" stroke-width="1.90424" stroke-miterlimit="10" stroke-linecap="round" stroke-linejoin="round"/>
<path d="M162.697 18.796C154.923 23.14 142.805 24.5125 142.805 24.5125C147.835 19.9393 149.436 -0.180517 142.805 1.87692C136.174 3.93436 121.542 5.07765 97.5923 6.67802C84.9936 7.51993 76.5908 12.0944 71.4509 16.2416C76.9146 8.87744 81.1777 -0.758393 72.1546 0.0473948C59.3504 1.19069 55.2356 25.7977 55.2356 25.7977C55.2356 25.7977 54.7785 4.16351 48.8341 7.59341C42.8897 11.0233 50.8915 28.1703 50.8915 28.1703C29.8564 35.715 44.033 62.2375 47.4617 73.0752C50.8916 83.9128 55.0064 103.848 55.9218 109.816C56.8372 115.784 60.495 117.11 67.3834 117.11C74.2718 117.11 102.793 117.11 102.793 117.11H123.37L126.037 101.316C130 100.385 135.02 99.2714 141.361 97.9587C159.756 94.1527 161.517 76.4777 161.09 67.0187C177.827 50.6078 170.066 14.6786 162.697 18.796Z" fill="#211500"/>
<path d="M124.007 119.165L102.657 117.402L81.3066 119.165C81.3066 119.165 85.3534 139.725 81.3066 153.83C81.3066 153.83 88.0444 160.835 102.657 160.835C117.269 160.835 124.26 153.83 124.26 153.83C118.988 138.068 124.007 119.165 124.007 119.165Z" fill="#FFCF96"/>
<path opacity="0.56" d="M81.2578 119.006C81.2578 119.006 82.3089 123.091 82.8968 129.04C87.5061 133.21 95.2489 139.064 102.46 139.118C109.533 139.17 117.341 133.649 122.143 129.568C122.815 123.5 123.956 119.323 123.956 119.323L102.619 117.402L81.2578 119.006Z" fill="#593A01"/>
<path d="M102.655 26.8516C81.289 26.8516 56.2497 39.6495 55.3692 72.5648C54.4476 107.032 73.9335 130.709 102.655 130.709C131.377 130.709 151.603 105.449 149.942 72.5648C148.26 39.2896 124.022 26.8516 102.655 26.8516Z" fill="#FFCF96"/>
<path d="M141.391 108.832L150.016 86.713C150.016 86.713 158 71.1664 166.406 76.0696C174.813 80.9741 170.587 106.814 141.391 108.832Z" fill="#FFCF96"/>
<path d="M106.161 68.5039C106.161 68.5039 103.359 82.5149 104.06 92.3226C104.06 92.3226 112.466 90.9215 113.518 92.3226C114.569 93.7237 106.162 105.282 106.162 105.282" stroke="#211500" stroke-width="1.90424" stroke-miterlimit="10" stroke-linecap="round" stroke-linejoin="round"/>
<path d="M91.0498 107.034C91.0498 107.034 104.884 119.644 118.483 107.034" stroke="#211500" stroke-width="1.90424" stroke-miterlimit="10" stroke-linecap="round" stroke-linejoin="round"/>
<path d="M72.4847 56.3367C72.4847 56.3367 118.498 52.4087 121.112 4.95934C114.591 5.51604 106.785 6.06403 97.5923 6.67802C84.9937 7.51993 76.5908 12.0944 71.451 16.2416C76.9146 8.87744 81.1777 -0.758393 72.1546 0.0473948C59.3504 1.19069 55.2356 25.7977 55.2356 25.7977C55.2356 25.7977 54.7785 4.16352 48.8341 7.59341C42.8897 11.0233 50.8915 28.1703 50.8915 28.1703C29.8564 35.715 44.033 62.2375 47.4617 73.0752C48.4742 76.2735 49.5452 80.265 50.5765 84.4546C50.5827 84.4559 67.7658 89.9582 72.4847 56.3367Z" fill="#593A01"/>
<path d="M63.9253 108.832L55.2995 86.713C55.2995 86.713 47.3164 71.1664 38.9098 76.0696C30.5032 80.9729 34.7289 106.814 63.9253 108.832Z" fill="#FFCF96"/>
<path d="M131.402 138.329C130.177 134.213 121.526 133.338 121.526 133.338C121.472 136.336 121.887 139.98 121.887 139.98C121.887 139.98 114.308 143.286 102.493 143.317C90.6806 143.286 83.0997 139.98 83.0997 139.98C83.0997 139.98 83.1533 136.295 83.0997 133.297C83.0997 133.297 74.8114 134.213 73.5847 138.329C72.3592 142.446 76.3869 147.523 75.5114 151.726C74.6358 155.93 72.7092 160.833 74.9858 163.11C77.2475 165.37 86.0813 169.7 102.329 169.759V169.764C102.385 169.764 102.437 169.761 102.493 169.761C102.55 169.761 102.601 169.764 102.658 169.764V169.759C118.906 169.699 127.739 165.37 130.001 163.11C132.278 160.833 130.351 155.928 129.476 151.726C128.6 147.523 132.628 142.444 131.402 138.329Z" fill="#FFC721"/>
<path d="M83.111 78.6132C83.3985 81.571 85.1747 83.8176 87.0786 83.6329C88.9825 83.4482 90.2933 80.9008 90.0058 77.9429C89.7183 74.9851 87.9421 72.7385 86.0382 72.9232C84.1333 73.1086 82.8235 75.6553 83.111 78.6132Z" fill="#211500"/>
<path d="M118.704 77.8789C118.213 80.81 119.345 83.4407 121.232 83.7569C123.118 84.073 125.046 81.9534 125.536 79.0224C126.027 76.0914 124.895 73.4606 123.009 73.1445C121.121 72.8288 119.195 74.9479 118.704 77.8789Z" fill="#211500"/>
<path d="M47.1007 88.4481C47.4687 88.2465 47.9527 88.2663 48.2279 88.6683C48.3465 88.8416 48.3872 89.0715 48.3544 89.2812C48.3214 89.4914 48.2105 89.6991 48.0037 89.8116L48.0044 89.8128C47.0996 90.3052 46.1947 90.7977 45.2903 91.2902C44.3858 91.7828 43.4809 92.2761 42.576 92.7686C42.2091 92.9677 41.7242 92.9508 41.4488 92.5484C41.3303 92.3751 41.2895 92.1451 41.3223 91.9355C41.3552 91.7251 41.4662 91.5157 41.6734 91.4032C42.5782 90.9107 43.4832 90.4183 44.3875 89.9257C45.2918 89.4333 46.1959 88.9405 47.1007 88.4481Z" fill="#593A01" stroke="#593A01" stroke-width="0.250596"/>
<path d="M157.909 88.4481C157.541 88.2465 157.057 88.2663 156.782 88.6683C156.663 88.8416 156.623 89.0715 156.655 89.2812C156.688 89.4914 156.799 89.6991 157.006 89.8116L157.005 89.8128C157.91 90.3052 158.815 90.7977 159.719 91.2902C160.624 91.7828 161.529 92.2761 162.434 92.7686C162.801 92.9677 163.286 92.9508 163.561 92.5484C163.68 92.3751 163.72 92.1451 163.687 91.9355C163.655 91.7251 163.544 91.5157 163.336 91.4032C162.432 90.9107 161.527 90.4183 160.622 89.9257C159.718 89.4333 158.814 88.9405 157.909 88.4481Z" fill="#593A01" stroke="#593A01" stroke-width="0.250596"/>
<path d="M43.2071 83.5753C43.5122 83.2264 44.0177 83.2234 44.3579 83.489L44.9102 83.9402C45.4532 84.4017 45.9688 84.8948 46.4532 85.4197C48.7925 87.9535 50.3956 91.0566 51.0979 94.4325C51.1467 94.6671 51.0509 94.8868 50.9067 95.0445C50.763 95.2015 50.557 95.3143 50.3521 95.332L50.3511 95.3318C49.8619 95.3706 49.5551 95.0041 49.47 94.5993L49.4702 94.5984C49.2945 93.756 49.0418 92.9259 48.7355 92.1198C47.7022 89.3975 45.971 86.9716 43.7448 85.1009L43.293 84.734C42.9337 84.4534 42.9283 83.8942 43.2071 83.5753Z" fill="#593A01" stroke="#593A01" stroke-width="0.250596"/>
<path d="M161.802 83.5753C161.497 83.2264 160.991 83.2234 160.651 83.489L160.099 83.9402C159.556 84.4017 159.04 84.8948 158.556 85.4197C156.216 87.9535 154.613 91.0566 153.911 94.4325C153.862 94.6671 153.958 94.8868 154.102 95.0445C154.246 95.2015 154.452 95.3143 154.657 95.332L154.658 95.3318C155.147 95.3706 155.454 95.0041 155.539 94.5993L155.539 94.5984C155.714 93.756 155.967 92.9259 156.273 92.1198C157.307 89.3975 159.038 86.9716 161.264 85.1009L161.716 84.734C162.075 84.4534 162.08 83.8942 161.802 83.5753Z" fill="#593A01" stroke="#593A01" stroke-width="0.250596"/>
</svg>
