<svg width="319" height="322" viewBox="0 0 319 322" fill="none" xmlns="http://www.w3.org/2000/svg">
<path d="M75.4559 321.63C75.4559 321.63 71.1373 323.772 62.5462 320.73C51.7613 316.91 47.2129 306.202 50.0812 296.751C54.5808 281.925 102.073 252.722 112.595 244.316C123.118 235.91 140.349 173.776 157.023 161.96C173.697 150.143 185.301 188.658 170.517 226.501C155.732 264.347 141.818 287.998 131.085 296.188C120.351 304.377 75.4559 321.63 75.4559 321.63Z" fill="#CCD308"/>
<path d="M289.278 80.9813C284.239 74.3785 287.611 66.4969 289.587 58.0071C291.564 49.5174 299.095 33.7881 284.129 25.3578C269.164 16.9261 233.731 0.452096 220.559 0.0249711C207.389 -0.400802 195.085 4.6017 195.575 16.3003C195.575 16.3003 173.462 14.2012 165.656 28.3152C157.851 42.4293 169.498 55.2971 175.249 57.5544C175.249 57.5544 174.859 69.3435 162.149 73.8554C149.439 78.3659 116.828 86.7029 122.607 118.687C122.607 118.687 106.871 131.934 116.276 152.925C126.442 175.617 146.222 183.316 171.078 182.66C195.934 182.004 217.739 179.301 234.401 186.72C251.062 194.14 280.323 201.762 299.094 190.325C326.569 173.585 314.697 148.148 314.697 148.148C314.697 148.148 322.056 138.909 317.528 124.882C313.305 111.799 302.663 98.5205 289.278 80.9813Z" fill="#593A01"/>
<path d="M121.46 279.078C124.024 259.107 129.401 219.834 134.008 203.224C140.315 180.483 148.891 161.812 164.476 159.249C180.062 156.686 199.635 152.518 199.635 152.518L249.122 156.556C249.122 156.556 269.911 170.391 281.324 178.641C292.737 186.892 312.942 202.893 310.228 226.225C307.514 249.557 250.597 350.191 232.709 354.431C214.821 358.672 121.026 305.878 116.785 301.991C113.292 298.79 114.48 284.042 121.46 279.078Z" fill="#CCD308"/>
<path d="M276.39 187.032L272.828 196.609L262.919 199.105L270.927 205.451L270.238 215.647L278.75 209.992L288.233 213.798L285.485 203.955L292.034 196.113L281.825 195.684L276.39 187.032Z" fill="#E5E881"/>
<path d="M227.17 246.768L227.021 256.985L218.521 262.655L228.192 265.953L230.957 275.79L237.083 267.612L247.293 268.021L241.408 259.668L244.952 250.085L235.189 253.1L227.17 246.768Z" fill="#E5E881"/>
<path d="M146.08 230.004L145.932 240.221L137.431 245.891L147.102 249.189L149.868 259.027L155.994 250.848L166.203 251.257L160.317 242.904L163.863 233.32L154.1 236.336L146.08 230.004Z" fill="#E5E881"/>
<path d="M216.948 202.227L223.626 204.372L225.645 211.089L229.749 205.401L236.761 205.556L232.618 199.895L234.934 193.275L228.27 195.465L222.689 191.218L222.713 198.232L216.948 202.227Z" fill="#E5E881"/>
<path d="M131.066 278.669L137.744 280.813L139.762 287.53L143.866 281.841L150.878 281.998L146.737 276.337L149.051 269.715L142.389 271.906L136.806 267.658L136.831 274.672L131.066 278.669Z" fill="#E5E881"/>
<path d="M223.465 308.048L230.144 310.191L232.162 316.909L236.265 311.221L243.278 311.377L239.136 305.716L241.45 299.096L234.788 301.285L229.206 297.037L229.23 304.051L223.465 308.048Z" fill="#E5E881"/>
<path d="M265.941 247.623L272.618 249.768L274.637 256.484L278.741 250.796L285.753 250.952L281.612 245.291L283.926 238.671L277.262 240.86L271.681 236.613L271.706 243.627L265.941 247.623Z" fill="#E5E881"/>
<path d="M184.998 321.803L191.676 323.948L193.695 330.665L197.799 324.977L204.811 325.132L200.669 319.472L202.984 312.851L196.321 315.041L190.739 310.794L190.763 317.808L184.998 321.803Z" fill="#E5E881"/>
<path d="M172.973 239.921L184.427 233.931L195.854 239.97L193.696 227.227L202.97 218.225L190.183 216.339L184.489 204.736L178.743 216.315L165.95 218.146L175.185 227.187L172.973 239.921Z" fill="#E5E881"/>
<path d="M163.627 286.967L175.668 291.668L178.62 304.252L186.812 294.254L199.691 295.334L192.715 284.455L197.721 272.538L185.219 275.812L175.433 267.368L174.682 280.271L163.627 286.967Z" fill="#E5E881"/>
<path d="M153.571 193.785L150.9 196.264L147.343 195.469L148.876 198.777L147.021 201.914L150.639 201.479L153.051 204.212L153.754 200.635L157.099 199.188L153.915 197.413L153.571 193.785Z" fill="#E5E881"/>
<path d="M265.739 277.158L263.068 279.638L259.511 278.844L261.044 282.151L259.189 285.288L262.807 284.852L265.219 287.586L265.922 284.01L269.267 282.562L266.082 280.787L265.739 277.158Z" fill="#E5E881"/>
<path d="M162.689 307.275L159.081 306.759L157.461 303.493L155.855 306.766L152.249 307.297L154.864 309.835L154.256 313.429L157.478 311.726L160.709 313.416L160.084 309.824L162.689 307.275Z" fill="#E5E881"/>
<path d="M254.432 117.878C254.432 117.878 242.352 136.602 249.123 156.557C249.123 156.557 213.298 184.973 199.637 152.518C199.637 152.518 206.802 143.497 207.789 128.207L254.432 117.878Z" fill="#FFCF96"/>
<path opacity="0.56" d="M207.788 128.208L254.432 117.877C254.432 117.877 251.834 121.909 249.724 128.219C240.506 135.635 225.548 145.59 216.053 141.226C211.866 139.301 209.061 136.493 207.179 133.476C207.455 131.814 207.669 130.059 207.788 128.208Z" fill="#593A01"/>
<path d="M228.657 21.3594C195.813 19.1941 183.518 36.84 181.199 66.755C178.879 96.6699 185.551 128.948 209.629 131.577C233.709 134.206 265.577 126.49 273.482 94.8614C281.385 63.2312 277.537 24.5818 228.657 21.3594Z" fill="#FFCF96"/>
<path d="M203.021 101.855C203.021 101.855 219.232 114.967 233.421 97.1104" stroke="#211500" stroke-width="2.02671" stroke-miterlimit="10" stroke-linecap="round" stroke-linejoin="round"/>
<path d="M212.871 57.6309C212.871 57.6309 215.244 71.2191 210.011 84.0288C210.011 84.0288 200.193 83.7125 199.385 87.2322C198.516 91.0088 208.391 96.6236 208.391 96.6236" stroke="#211500" stroke-width="2.02671" stroke-miterlimit="10" stroke-linecap="round" stroke-linejoin="round"/>
<path d="M220.56 0.0253906C233.731 0.452515 269.165 16.9266 284.13 25.3582C299.096 33.7899 291.563 49.5178 289.588 58.0076C287.612 66.4974 284.241 74.3789 289.279 80.9818C290.41 82.4632 291.513 83.9041 292.602 85.3274C288.419 86.1032 283.107 86.064 276.376 84.8637C246.104 78.4622 235.789 48.1309 226.223 31.2784C216.753 14.5935 197.135 9.55153 196.799 9.54207C198.462 9.4096 198.125 0.264323 220.56 0.0253906Z" fill="#593A01"/>
<path d="M268.902 106.657L275.992 81.3177C275.992 81.3177 283.647 64.7409 296.822 71.21C308.473 76.9329 290.446 116.127 268.902 106.657Z" fill="#FFCF96"/>
<path d="M64.2561 196.275C56.461 165.75 35.3116 153.934 35.3116 153.934C35.3116 153.934 50.1042 172.269 51.7627 189.18C51.7627 189.18 40.6831 150.007 0.00218201 147.289C0.00218201 147.289 17.1101 159.117 23.3345 187.509C26.4488 201.718 24.4416 212.638 23.8549 223.075C17.2521 206.624 20.1257 192.044 20.1257 192.044C20.1257 192.044 10.1464 203.269 14.9191 225.375C19.0025 244.287 36.7133 261.231 41.7482 265.736C41.9888 265.954 42.2308 266.168 42.4727 266.378C42.8741 266.727 43.0985 266.915 43.0985 266.915L43.0945 266.907C56.5665 278.23 71.1766 278.587 82.6684 276.01C82.6684 276.01 62.803 275.802 59.6969 254.87C56.9936 236.658 70.8941 222.268 64.2561 196.275Z" fill="#F8F8F8"/>
<path d="M62.5453 190.485C53.7596 164.25 35.3094 153.934 35.3094 153.934C35.3094 153.934 50.102 172.269 51.7604 189.18C51.7604 189.18 40.6809 150.007 -1.90735e-05 147.289C-1.90735e-05 147.289 16.1577 158.467 22.7795 185.161C23.0147 185.188 23.2417 185.206 23.4567 185.209C29.8865 185.517 36.2974 181.765 40.9972 188.307C43.791 192.556 39.9591 197.921 40.5241 202.925C41.1607 208.809 46.1294 214.809 52.6836 212.815C60.4543 210.41 59.8136 203.849 60.1218 197.419C60.2435 194.442 60.6422 192.951 62.5251 190.506C62.5332 190.498 62.5399 190.492 62.5453 190.485Z" fill="#6F685D"/>
<path d="M102.391 145.025C102.391 145.025 95.0272 138.364 83.8638 132.302C72.6991 126.241 56.7644 120.333 55.31 121.922C53.8556 123.512 61.4006 174.543 93.1633 177.596L102.391 145.025Z" fill="#211500"/>
<path d="M96.4203 154.189C96.4203 154.189 76.2576 134.966 57.3614 125.598C57.3614 125.598 62.2287 170.366 91.8193 174.401L96.4203 154.189Z" fill="#FFCF96"/>
<path d="M96.4203 154.19L91.8193 174.402C77.6323 177.784 70.4117 166.71 70.4117 166.71C76.8645 169.066 81.9779 164.497 81.9779 164.497C74.7654 163.835 69.4952 156.293 69.4952 156.293C71.9526 156.878 73.4205 154.087 77.7445 152.378C82.0671 150.669 86.9533 151.569 86.9533 151.569C85.457 148.91 80.9547 147.579 80.9547 147.579C86.7911 145.718 91.4165 149.666 91.4165 149.666L96.4203 154.19Z" fill="#6F685D"/>
<path d="M120.4 133.585C120.4 133.585 116.578 124.42 114.588 111.874C112.598 99.3268 112.346 82.3351 114.33 81.493C116.314 80.6523 161.903 104.79 154.185 135.753L120.4 133.585Z" fill="#211500"/>
<path d="M131.03 131.015C131.03 131.015 119.636 105.594 117.109 84.6543C117.109 84.6543 157.689 104.179 151.62 133.421L131.03 131.015Z" fill="#FFCF96"/>
<path d="M131.029 131.013L151.619 133.419C159.539 121.173 151.509 110.672 151.509 110.672C151.577 117.541 145.565 120.837 145.565 120.837C147.346 113.816 141.995 106.332 141.995 106.332C141.727 108.843 138.606 109.296 135.551 112.802C132.498 116.307 131.715 121.214 131.715 121.214C129.708 118.916 129.954 114.227 129.954 114.227C126.252 119.109 128.432 124.785 128.432 124.785L131.029 131.013Z" fill="#6F685D"/>
<path d="M108.437 135.192C91.1516 146.569 86.2235 162.66 90.688 177.151C95.1525 191.642 109.905 198.717 109.905 198.717C109.905 198.717 108.668 214.373 98.1316 221.502C87.5954 228.631 70.4009 241.5 63.0127 263.395C55.0014 287.135 55.707 295.028 65.6404 311.012C73.6638 323.921 97.5355 337.429 110.736 337.531C132.735 337.703 155.842 324.822 170.281 299.986C174.434 292.841 179.927 273.134 180.114 253.096C180.3 233.057 176.56 200.607 170.436 185.375C170.436 185.375 169.224 173.61 169.155 164.757C169.084 155.903 168.212 145.873 160.366 137.357C150.179 126.302 129.874 121.08 108.437 135.192Z" fill="#F8F8F8"/>
<path d="M170.434 185.376C170.434 185.376 169.461 175.929 169.209 167.595C168.156 168.514 169.016 182.614 168.567 187.303C167.713 196.209 161.94 199.589 156.295 203.407C150.651 207.225 140.985 209.139 135.324 206.713C129.662 204.287 117.458 201.507 109.904 198.717C109.904 198.717 109.724 200.979 108.925 204.172C116.867 208.981 146.874 226.449 158.289 223.033C167.526 220.269 171.867 204.749 173.644 195.662C172.664 191.753 171.591 188.256 170.434 185.376Z" fill="#6F685D"/>
<path d="M86.3639 264.975C94.5023 260.804 111.785 260.878 115.296 240.371C117.881 225.279 110.798 214.788 106.874 210.295C105.121 214.361 102.385 218.627 98.1328 221.504C87.5967 228.633 70.4022 241.502 63.014 263.398C60.062 272.144 58.7441 278.913 58.2521 283.982C72.162 286.284 79.338 268.576 86.3639 264.975Z" fill="#6F685D"/>
<path d="M112.952 132.499C117.842 145.548 135.884 185.521 169.421 172.422C169.278 169.85 169.173 167.194 169.152 164.757C169.082 155.903 168.21 145.873 160.364 137.357C150.897 127.082 132.687 121.856 112.952 132.499Z" fill="#6F685D"/>
<path d="M155.73 249.039C150.277 264.402 162.91 271.442 158.282 278.051C156.229 280.983 154.39 291.533 156.917 293.802C167.919 303.687 176.805 285.99 176.805 285.99C176.805 285.99 179.927 273.135 180.114 253.096C180.172 246.869 179.85 239.443 179.196 231.707C172.358 233.413 159.65 237.996 155.73 249.039Z" fill="#6F685D"/>
<path d="M162.649 230.888C162.649 230.888 170.733 248.136 163.893 264.09C163.893 264.09 162.38 258.908 159.519 255.615C159.519 255.615 163.348 269.984 150.469 280.686" stroke="#211500" stroke-width="2.02671" stroke-miterlimit="10" stroke-linejoin="round"/>
<path d="M125.798 179.967C127.456 182.74 127.355 185.851 125.569 186.919C123.785 187.987 120.994 186.605 119.335 183.833C117.677 181.062 117.778 177.949 119.564 176.881C121.348 175.814 124.139 177.195 125.798 179.967Z" fill="#211500"/>
<path d="M155.93 164.23C157.589 167.002 157.486 170.114 155.702 171.182C153.917 172.249 151.126 170.868 149.468 168.096C147.809 165.324 147.912 162.212 149.696 161.144C151.482 160.076 154.272 161.458 155.93 164.23Z" fill="#211500"/>
<path d="M236.386 70.0223C236.602 73.1779 235.13 75.847 233.099 75.9861C231.068 76.1251 229.246 73.6799 229.03 70.5243C228.815 67.3687 230.287 64.6996 232.318 64.5605C234.35 64.4221 236.171 66.8667 236.386 70.0223Z" fill="#211500"/>
<path d="M203.366 69.0835C203.582 71.7986 202.34 74.111 200.592 74.25C198.844 74.3891 197.253 72.3009 197.037 69.5858C196.822 66.8707 198.064 64.5583 199.811 64.4193C201.56 64.2807 203.151 66.3684 203.366 69.0835Z" fill="#211500"/>
<path d="M156.315 191.532C152.81 193.661 149.547 191.774 148.252 190.815L147.802 191.084C148.034 192.679 148.155 196.446 144.621 198.528C144.512 198.593 144.401 198.64 144.29 198.698L150.576 209.203C152.853 213.01 157.46 214.442 160.864 212.405C164.269 210.369 165.183 205.631 162.907 201.826L156.622 191.321C156.517 191.391 156.423 191.466 156.315 191.532Z" fill="#FF981C"/>
<path d="M148.026 190.951L156.059 204.376" stroke="#211500" stroke-width="2.02671" stroke-miterlimit="10" stroke-linecap="round" stroke-linejoin="round"/>
<path d="M151.462 178.63C150.948 178.457 150.198 178.416 149.238 178.554C147.328 178.827 144.815 179.774 142.256 181.305C139.697 182.836 137.675 184.603 136.532 186.157C135.957 186.938 135.638 187.619 135.547 188.153C135.461 188.659 135.58 188.991 135.843 189.231C136.189 189.547 136.799 189.832 137.667 190.042C138.521 190.249 139.556 190.368 140.68 190.402C142.86 190.469 145.306 190.214 147.294 189.723C148.666 188.203 150.045 186.169 151.017 184.217C151.518 183.21 151.903 182.241 152.124 181.392C152.35 180.527 152.387 179.855 152.272 179.401C152.184 179.055 151.948 178.793 151.462 178.63Z" fill="#211500" stroke="#211500" stroke-width="1.35166"/>
<path d="M160.111 184.37C160.111 184.37 160.088 189.241 156.315 191.533C151.791 194.28 147.657 190.332 147.657 190.332C147.657 190.332 149.181 195.842 144.621 198.529C140.819 200.77 136.515 198.488 136.515 198.488" stroke="#211500" stroke-width="2.02671" stroke-miterlimit="10" stroke-linecap="round" stroke-linejoin="round"/>
<path d="M124.466 285.593C124.466 285.593 111.265 255.271 109.38 253.294C107.496 251.318 95.3934 241.034 92.859 239.734C90.3233 238.434 79.0004 238.397 74.8103 238.347C70.6188 238.297 73.387 241.855 76.6215 242.963C79.8574 244.071 88.3931 245.356 89.1798 245.995C89.9665 246.634 98.2846 254.905 97.8953 255.905C97.506 256.906 84.8977 253.399 80.1209 253.651C75.3442 253.902 71.9475 258.233 67.9317 261.217C63.9159 264.202 65.5325 265.914 68.3372 265.167C68.3372 265.167 65.1905 267.259 64.8945 269.057C64.5985 270.855 67.9506 270.751 71.4406 269.671C74.9319 268.592 81.8227 267.882 84.0597 268.614C86.2953 269.343 92.9144 272.986 92.0358 273.797C91.1586 274.608 80.6535 272.855 76.6715 273.84C72.6909 274.826 65.5649 276.479 65.8312 278.632C66.0988 280.785 75.7105 278.838 78.9842 278.981C82.2566 279.124 91.4884 282.498 92.8482 284.039C94.2066 285.58 100.038 296.569 102.18 297.728C107.775 300.756 120.764 298.639 120.764 298.639L124.466 285.593Z" fill="#FFCF96"/>
<path d="M97.1948 263.161C97.1948 263.161 81.6885 259.566 79.1001 260.072C76.5103 260.579 68.3382 265.17 68.3382 265.17" stroke="#211500" stroke-width="2.02671" stroke-miterlimit="10" stroke-linecap="round" stroke-linejoin="round"/>
<path d="M61.4258 303.035C61.4258 303.035 56.1098 315.885 79.7638 324.849C89.8486 328.67 114.068 333.736 114.675 331.664C115.076 330.292 96.792 324.903 99.1629 325.092C101.534 325.282 125.486 326.675 124.032 324.968C122.578 323.261 96.6285 316.658 100.794 316.79C104.96 316.924 132.416 317.085 131.419 314.62C130.423 312.154 99.4143 311.442 102.062 310.658C104.71 309.875 132.752 305.38 131.905 303.522C131.059 301.665 116.856 302.721 113.236 303.228C109.617 303.735 86.368 303.094 85.5341 301.683C84.6987 300.272 87.1466 298.702 91.9585 295.704C96.7718 292.708 98.7276 288.304 98.902 285.699C99.1426 282.113 95.5661 282.997 87.9332 288.822C83.2484 292.397 76.8496 294.401 69.302 296.783" fill="#FFCF96"/>
<path d="M232.711 354.431C214.823 358.671 121.029 305.878 116.787 301.99C113.294 298.79 114.482 284.042 121.462 279.076C121.462 279.071 121.464 279.066 121.464 279.061C122.957 278.001 124.715 277.389 126.75 277.433C126.75 277.433 189.844 288.528 197.703 290.216C205.561 291.906 208.02 293.633 209.249 293.327C210.477 293.021 209.787 288.049 211.157 287.368C212.528 286.687 216.079 287.942 216.737 287.334C217.395 286.726 213.853 282.048 215.402 281.348C216.951 280.649 222.31 278.477 223.306 277.654C224.302 276.83 248.216 234.391 260.323 222.521C260.323 222.521 295.531 198.069 310.208 217.632C310.545 220.376 310.577 223.238 310.23 226.223C307.516 249.555 250.599 350.19 232.711 354.431Z" fill="#CCD308"/>
<mask id="mask0_1041_8007" style="mask-type:luminance" maskUnits="userSpaceOnUse" x="114" y="210" width="197" height="145">
<path d="M232.711 354.431C214.823 358.671 121.029 305.878 116.787 301.99C113.294 298.79 114.482 284.042 121.462 279.076C121.462 279.071 121.464 279.066 121.464 279.061C122.957 278.001 124.715 277.389 126.75 277.433C126.75 277.433 189.844 288.528 197.703 290.216C205.561 291.906 208.02 293.633 209.249 293.327C210.477 293.021 209.787 288.049 211.157 287.368C212.528 286.687 216.079 287.942 216.737 287.334C217.395 286.726 213.853 282.048 215.402 281.348C216.951 280.649 222.31 278.477 223.306 277.654C224.302 276.83 248.216 234.391 260.323 222.521C260.323 222.521 295.531 198.069 310.208 217.632C310.545 220.376 310.577 223.238 310.23 226.223C307.516 249.555 250.599 350.19 232.711 354.431Z" fill="white"/>
</mask>
<g mask="url(#mask0_1041_8007)">
<path d="M276.39 187.032L272.828 196.609L262.919 199.105L270.927 205.451L270.238 215.647L278.75 209.992L288.233 213.798L285.485 203.955L292.034 196.113L281.825 195.684L276.39 187.032Z" fill="#E5E881"/>
<path d="M227.17 246.768L227.021 256.985L218.521 262.655L228.192 265.953L230.957 275.79L237.083 267.612L247.293 268.021L241.408 259.668L244.952 250.085L235.189 253.1L227.17 246.768Z" fill="#E5E881"/>
<path d="M146.08 230.004L145.932 240.221L137.431 245.891L147.102 249.189L149.868 259.027L155.994 250.848L166.203 251.257L160.317 242.904L163.863 233.32L154.1 236.336L146.08 230.004Z" fill="#E5E881"/>
<path d="M131.066 278.669L137.744 280.813L139.762 287.53L143.866 281.841L150.878 281.998L146.737 276.337L149.051 269.715L142.389 271.906L136.806 267.658L136.831 274.672L131.066 278.669Z" fill="#E5E881"/>
<path d="M235.87 307.66L242.549 309.804L244.567 316.522L248.671 310.834L255.683 310.989L251.542 305.328L253.856 298.708L247.193 300.898L241.611 296.649L241.635 303.663L235.87 307.66Z" fill="#E5E881"/>
<path d="M265.941 247.623L272.618 249.768L274.637 256.484L278.741 250.796L285.753 250.952L281.612 245.291L283.926 238.671L277.262 240.86L271.681 236.613L271.706 243.627L265.941 247.623Z" fill="#E5E881"/>
<path d="M184.998 321.803L191.676 323.948L193.695 330.665L197.799 324.977L204.811 325.132L200.669 319.472L202.984 312.851L196.321 315.041L190.739 310.794L190.763 317.808L184.998 321.803Z" fill="#E5E881"/>
<path d="M163.627 286.967L175.668 291.668L178.62 304.252L186.812 294.254L199.691 295.334L192.715 284.455L197.721 272.538L185.219 275.812L175.433 267.368L174.682 280.271L163.627 286.967Z" fill="#E5E881"/>
</g>
<path d="M221.16 288.321C221.16 288.321 238.923 310.449 233.783 334.029" stroke="#593A01" stroke-width="2.02671" stroke-miterlimit="10" stroke-linecap="round" stroke-linejoin="round"/>
<path d="M213.634 293.959C213.634 293.959 227.263 303.905 230.539 321.757" stroke="#593A01" stroke-width="2.02671" stroke-miterlimit="10" stroke-linecap="round" stroke-linejoin="round"/>
<path d="M121.459 279.066C122.952 278.003 124.712 277.389 126.749 277.434C126.749 277.434 189.843 288.528 197.702 290.217C205.561 291.906 208.019 293.634 209.248 293.328C210.477 293.021 209.786 288.05 211.156 287.369C212.527 286.687 216.078 287.943 216.736 287.335C217.394 286.727 213.852 282.049 215.401 281.348C216.95 280.65 222.309 278.478 223.305 277.654C224.301 276.831 248.215 234.392 260.322 222.521" stroke="#593A01" stroke-width="2.02671" stroke-miterlimit="10" stroke-linecap="round" stroke-linejoin="round"/>
<path d="M255.548 160.863C255.548 160.863 231.805 180.19 211.552 176.028C191.298 171.867 193.237 153.848 193.237 153.848" stroke="#593A01" stroke-width="2.02671" stroke-miterlimit="10" stroke-linecap="round" stroke-linejoin="round"/>
<path d="M283.307 86.9745C282.942 86.8406 282.516 86.9029 282.26 87.2771C282.134 87.4616 282.09 87.7062 282.125 87.9293C282.156 88.1254 282.25 88.3204 282.42 88.4462L282.498 88.4953C283.461 89.0194 284.424 89.544 285.386 90.0683C286.349 90.5925 287.312 91.1169 288.275 91.6411C288.666 91.8531 289.181 91.8348 289.474 91.4065C289.6 91.2221 289.644 90.9782 289.609 90.7552C289.574 90.5312 289.457 90.3081 289.236 90.1883C288.273 89.6643 287.311 89.1404 286.348 88.6162C285.386 88.092 284.422 87.5676 283.459 87.0434L283.307 86.9745Z" fill="#593A01" stroke="#593A01" stroke-width="0.266714"/>
<path d="M287.603 81.8561C287.278 81.4847 286.741 81.4819 286.379 81.7646L286.378 81.7648C285.582 82.3903 284.835 83.0744 284.148 83.8192C281.658 86.516 279.952 89.8186 279.204 93.4116C279.152 93.6614 279.255 93.895 279.409 94.0628C279.562 94.2299 279.781 94.3497 279.999 94.3685L280 94.3693C280.455 94.4054 280.763 94.1107 280.893 93.7479L280.938 93.5885C281.124 92.6919 281.394 91.808 281.72 90.95C282.893 87.8594 284.911 85.1277 287.512 83.0892L287.512 83.0883C287.894 82.7895 287.9 82.1953 287.603 81.8561Z" fill="#593A01" stroke="#593A01" stroke-width="0.266714"/>
</svg>
